<svg xmlns="http://www.w3.org/2000/svg" xmlns:xlink="http://www.w3.org/1999/xlink" x="0px" y="0px" width="566.929px" height="128.211px">
  <g/>
  <path d="M252.629 61.838l3.529 5.3c-.273-.412-.726-.676-1.179-.676-.478 0-.955.295-1.221 1.027l-3.529-5.299c.267-.732.743-1.029 1.222-1.029.452 0 .903.266 1.178.677z"/>
  <path d="M311.432 60.064l3.53 5.3c-.172-.258-.422-.391-.687-.391-.353 0-.724.236-.964.721l-3.527-5.299c.239-.483.613-.72.965-.72.262-.001.512.132.683.389z"/>
  <path d="M314.466 41.153l29.807.189c.568 0 4.659.663-.453 1.999-4.084 1.063-7.429.661-8.764 5.979l-16.086 64.575c-1.336 5.768 3.152 10.742 8.955 12.301 1.313.32 1.393 1.714-.157 1.799l-19.586-.723-23.796.804c-1.728 0-1.795-1.794.085-2.125 5.562-.567 10.478-5.151 11.548-8.913l15.643-56.077c.002-.846-.435-1.287-.914-1.287-.35 0-.724.236-.965.719l-44.044 63.917c-1.22 1.967-3.14 3.271-4.838 3.271-1.835 0-3.412-1.521-3.578-5.375l-4.433-59.588c-.048-.826-.744-1.454-1.438-1.454-.478 0-.956.297-1.222 1.029l-15.107 47.273c-1.237 3.592-1.325 7.104.147 9.645 1.463 2.611 5.229 5.803 9.64 6.701 1.714.412 1.628 2.125-.004 2.209l-15.824-.662-13.293.498c-1.561-.084-1.393-1.631.004-1.883 4.578-.979 9.826-5.637 12.205-12.266l19.571-62.897c.821-2.376-.476-5.236-2.852-5.804l-6.055-1.229c-1.063-.082-1.215-1.632.002-1.632l34.736-.282 3.482 54.755 2.548-3.099 33.147-49.173c.407-.664 1.391-2.213 1.889-3.194z"/>
  <path d="M359.425 40.928l40.013.331c1.882 0 2.765 3.332-1 3.664-4.021.354-8.226 3.215-9.214 6.641l-18.747 64.8c-.905 3.439 1.593 9.183 8.05 9.669 1.063.247 1.061 1.877.079 1.877l-23.63-.906-22.697.685c-1.232 0-.896-1.629.154-1.795 3.111-.567 12.154-4.076 13.88-9.633l20.901-64.692c1.309-4.656-3.016-6.949-7.922-8.095-1.062-.17-.845-2.463.133-2.546z"/>
  <path d="M464.128 36.898c4.105 0 8.133.34 12.004 1.062 2.461.496 5.475 1.62 4.738 3.746l-5.906 15.057c-.467 1.534-1.244 2.462-2.031 2.462-1.094 0-2.207-1.792-2.551-6.244-.195-2.436.197-11.205-3.146-11.393-.85-.046-1.695-.067-2.543-.067-5.363 0-10.688.885-15.43 2.396-18.068 5.767-29.525 15.623-37.079 32.453-7.386 16.191-3.739 33.693 1.478 39.662 3.557 4.066 11.865 6.874 18.252 6.874 3.75 0 6.836-.97 7.904-3.224 3.457-8.307 5.133-18.494 4.809-23.151.014-5.647-2.201-6.086-6.41-6.866-2.951-.313-3.896-2.227 1.615-2.227.293 0 .604.006.936.019 1.77-.011 3.492-.017 5.188-.017 3.881 0 7.602.021 11.299.039 3.473.018 6.924.035 10.473.035 3.246 0 6.576-.017 10.072-.06.98.483.896.897-.088 1.384-5.973.897-8.352 2.043-8.924 4.254-2.309 7.85-4.383 16.438-8.123 24.488-1.33 2.883-7.604 5.626-9.648 6.204-6.354 2.263-16.916 4.063-26.975 4.063-8.072 0-15.821-1.16-20.812-4.183-18.713-11.438-22.079-33.127-14.438-47.428 11.331-21.276 45.469-39.338 75.336-39.338z"/>
  <g opacity="0.78">
    <path d="M558.181 127.465v-4.979h-1.861v-.667h4.477v.667h-1.867v4.979h-.749z"/>
    <path d="M561.539 127.465v-5.646h1.125l1.338 4c.123.371.213.65.271.836.063-.206.164-.508.299-.906l1.352-3.93h1.006v5.646h-.719v-4.727l-1.643 4.727h-.674l-1.633-4.808v4.808h-.722z"/>
  </g>
  <linearGradient id="a" gradientUnits="userSpaceOnUse" x1="54.5488" y1="1333.5625" x2="54.5488" y2="1266.4971" gradientTransform="translate(8.3501 -1207.1035)">
    <stop offset="0.0604" stop-color="#53B848"/>
    <stop offset="0.5549" stop-color="#65CCEC"/>
    <stop offset="0.5832" stop-color="#61C3E7"/>
    <stop offset="0.6882" stop-color="#55A7D8"/>
    <stop offset="0.7933" stop-color="#4D92CD"/>
    <stop offset="0.8976" stop-color="#4886C6"/>
    <stop offset="1" stop-color="#4682C4"/>
  </linearGradient>
  <polygon fill="url(#a)" points="28.491,59.393 52.378,59.393 97.306,126.459 73.637,126.459 				"/>
  <linearGradient id="b" gradientUnits="userSpaceOnUse" x1="66.5557" y1="1333.5" x2="173.0129" y2="1206.6292" gradientTransform="translate(8.3501 -1207.1035)">
    <stop offset="0" stop-color="#6EBE44"/>
    <stop offset="0.0011" stop-color="#6EBE44"/>
    <stop offset="0.2454" stop-color="#BCDA20"/>
    <stop offset="0.4194" stop-color="#ECEB09"/>
    <stop offset="0.5055" stop-color="#FFF200"/>
    <stop offset="0.5783" stop-color="#FBCA08"/>
    <stop offset="0.6794" stop-color="#F79A11"/>
    <stop offset="0.7753" stop-color="#F47419"/>
    <stop offset="0.8635" stop-color="#F1581F"/>
    <stop offset="0.9411" stop-color="#F04822"/>
    <stop offset="1" stop-color="#EF4223"/>
  </linearGradient>
  <polygon fill="url(#b)" points="158.261,0.001 181.93,0.001 97.553,126.459 74.98,126.459 				"/>
  <g>
    <linearGradient id="c" gradientUnits="userSpaceOnUse" x1="26.0576" y1="1333.5615" x2="26.0576" y2="1266.4971" gradientTransform="translate(8.3501 -1207.1035)">
      <stop offset="0.0604" stop-color="#53B848"/>
      <stop offset="0.5549" stop-color="#65CCEC"/>
      <stop offset="0.5832" stop-color="#61C3E7"/>
      <stop offset="0.6882" stop-color="#55A7D8"/>
      <stop offset="0.7933" stop-color="#4D92CD"/>
      <stop offset="0.8976" stop-color="#4886C6"/>
      <stop offset="1" stop-color="#4682C4"/>
    </linearGradient>
    <polygon fill="url(#c)" points="0,59.393 23.889,59.393 68.816,126.458 45.147,126.458 				"/>
    <linearGradient id="d" gradientUnits="userSpaceOnUse" x1="38.0635" y1="1333.498" x2="144.5208" y2="1206.6272" gradientTransform="translate(8.3501 -1207.1035)">
      <stop offset="0" stop-color="#6EBE44"/>
      <stop offset="0.0011" stop-color="#6EBE44"/>
      <stop offset="0.2454" stop-color="#BCDA20"/>
      <stop offset="0.4194" stop-color="#ECEB09"/>
      <stop offset="0.5055" stop-color="#FFF200"/>
      <stop offset="0.5783" stop-color="#FBCA08"/>
      <stop offset="0.6794" stop-color="#F79A11"/>
      <stop offset="0.7753" stop-color="#F47419"/>
      <stop offset="0.8635" stop-color="#F1581F"/>
      <stop offset="0.9411" stop-color="#F04822"/>
      <stop offset="1" stop-color="#EF4223"/>
    </linearGradient>
    <polygon fill="url(#d)" points="129.769,0 153.438,0 69.063,126.458 46.489,126.458 				"/>
  </g>
  <g>
    <path d="M154.313 97.063l-11.644 16.51c-3.452 5.4 3.078 11.04 10.279 12.354.66.512.548 2.163-.415 2.163-.105 0-.219-.02-.345-.062-.144-.063-2.86-1.195-9.034-1.772-1.652-.157-4.623-.663-8.245-.663-1.248 0-2.571.061-3.947.213l-13.024 1.834c-1.232-.082-1.229-1.55.002-1.881 6.293-.814 13.835-5.482 18.259-11.771l52.979-73.901c.875-1.269 2.745-2.007 4.565-2.007 2.279 0 4.474 1.158 4.517 3.887l1.745 73.983c.566 6.205 4.724 8.829 9.962 10.294.732.495.411 1.477-.086 1.645-.34-.007-6.801-.106-14.522-1.254-1.807-.267-3.22-.421-4.946-.421-1.493 0-3.221.116-5.64.373-3.029.32-1.598.366-13.862.91-.466.022-.919-.099-1.017-.888.109-.91 1.48-1.348 1.918-1.465 4.9-1.358 7.317-3.816 8.392-9.846 1.16-6.631.85-12.268.694-18.072m-7.505-4.485c2.696 0 5.234.015 7.125.056L179.816 62c-.133-.4-.313-.605-.519-.605-.169 0-.357.145-.546.439-6.558 9.313-15.59 20.729-22.065 29.972-.415.73-.001.979.98.979.157.015.688.019 1.498.019 1.393 0 3.607-.015 6.142-.026 2.534-.019 5.39-.037 8.087-.037"/>
  </g>
  <g>
    <path d="M551.406 126.374c.732.482.398 1.464-.086 1.632-.34-.006-6.801-.106-14.521-1.239-1.834-.271-3.254-.429-5.002-.429-1.479 0-3.189.113-5.584.366-3.041.318-1.598.365-13.877.91-.457.021-.904-.098-1.002-.887.107-.909 1.48-1.338 1.906-1.467 4.908-1.348 7.326-3.815 8.404-9.845 1.158-6.618.838-12.256.684-18.069l-26.588-.153-11.645 16.512c-3.439 5.392 3.09 11.024 10.289 12.338.662.521.539 2.168-.422 2.168-.107 0-.223-.021-.352-.063-.145-.06-2.859-1.183-9.021-1.773-1.65-.156-4.625-.662-8.246-.662-1.248 0-2.57.059-3.945.213l-13.035 1.834c-1.221-.084-1.219-1.551.004-1.881 6.305-.814 13.834-5.472 18.27-11.771l52.98-73.886c.875-1.274 2.744-2.013 4.563-2.013 2.281 0 4.479 1.163 4.52 3.891l1.744 73.972c.556 6.211 4.725 8.824 9.962 10.302zm-36.614-33.501c2.705 0 5.256.015 7.152.056l-.689-30.812c-.137-.4-.318-.605-.521-.605-.172 0-.355.144-.539.44-6.568 9.325-15.592 20.74-22.078 29.97-.404.732-.002.98.979.98.191.018.945.022 2.078.022 1.377 0 3.32-.012 5.516-.022 2.528-.014 5.393-.029 8.102-.029"/>
  </g>
</svg>
