<?xml version="1.0" encoding="UTF-8"?>
<svg width="788" height="120" version="1.1" viewBox="0 0 788 120" xmlns="http://www.w3.org/2000/svg" xmlns:cc="http://creativecommons.org/ns#" xmlns:dc="http://purl.org/dc/elements/1.1/" xmlns:rdf="http://www.w3.org/1999/02/22-rdf-syntax-ns#">
 <metadata>
  <rdf:RDF>
   <cc:Work rdf:about="">
    <dc:format>image/svg+xml</dc:format>
    <dc:type rdf:resource="http://purl.org/dc/dcmitype/StillImage"/>
   </cc:Work>
  </rdf:RDF>
 </metadata>
 <g transform="matrix(.095856 0 0 .095856 -540.69 -133.1)" stroke-width="9.4839">
  <path d="m6036.6 1790.6c117.6 0 215.29 60.697 261.76 126.14v-110.01h179.25v816.57h-128.98c-28.452 0-51.213-22.761-51.213-51.213v-58.8c-45.523 66.388-143.21 127.08-260.81 127.08-223.82 0-393.58-191.58-393.58-424.88 0-233.3 169.76-424.88 393.58-424.88m32.245 163.12c-145.1 0-243.74 114.76-243.74 261.76s97.684 261.76 243.74 261.76c145.1 0 243.74-114.76 243.74-261.76s-97.684-261.76-243.74-261.76"/>
  <path d="m6681.5 1806.8h180.19v110.96c49.316-81.562 142.26-127.08 248.48-127.08 189.68 0 312.02 133.72 312.02 341.42v491.27h-128.98c-28.452 0-51.213-22.761-51.213-51.213v-410.65c0-128.98-65.439-207.7-169.76-207.7-119.5 0-210.54 92.942-210.54 267.45v402.12h-128.98c-28.452 0-51.213-22.761-51.213-51.213z"/>
  <path d="m7958.1 1790.6c117.6 0 215.29 60.697 261.76 126.14v-517.82h179.25v1225.3h-128.98c-28.452 0-51.213-22.761-51.213-51.213v-58.8c-45.523 65.439-144.16 126.14-261.76 126.14-223.82 0-393.58-191.58-393.58-424.88 0.9484-233.3 170.71-424.88 394.53-424.88m32.245 163.12c-145.1 0-243.74 114.76-243.74 261.76s97.684 261.76 243.74 261.76c145.1 0 243.74-114.76 243.74-261.76s-98.633-261.76-243.74-261.76"/>
  <path d="m8603 1806.8h179.25v145.1c31.297-92.942 122.34-153.64 215.29-153.64 22.761 0 45.523 1.8968 70.181 6.6387v184.94c-31.297-9.4839-56.904-15.174-90.097-15.174-103.37 0-196.32 86.304-196.32 250.38v398.32h-128.98c-28.452 0-51.213-22.761-51.213-51.213v-765.35z"/>
  <path d="m9553.3 2640.4c-241.84 0-427.73-187.78-427.73-424.88 0-237.1 185.88-424.88 427.73-424.88s427.73 187.78 427.73 424.88c0 237.1-185.89 424.88-427.73 424.88m0-166.92c144.16 0 244.69-112.86 244.69-257.96 0-145.1-101.48-257.96-244.69-257.96-145.1 0-246.58 112.86-246.58 257.96 0 145.1 101.48 257.96 246.58 257.96"/>
  <path d="m10216 1628.5c-65.439 0-120.44-54.058-120.44-120.45 0-65.439 55.955-119.5 120.44-119.5 67.336 0 119.5 54.058 119.5 119.5 0 67.336-52.162 120.45-119.5 120.45m-89.149 178.3h179.25v816.57h-128.03c-28.452 0-51.214-22.761-51.214-51.213z"/>
  <path d="m10848 1790.6c117.6 0 215.28 60.697 261.76 126.14v-517.82h179.25v1225.3h-128.98c-28.451 0-51.213-22.761-51.213-51.213v-58.8c-45.523 65.439-144.16 126.14-261.76 126.14-223.82 0-393.58-191.58-393.58-424.88 0.948-233.3 170.71-424.88 394.53-424.88m33.194 163.12c-145.1 0-243.74 114.76-243.74 261.76s97.684 261.76 243.74 261.76c145.1 0 243.74-114.76 243.74-261.76s-98.633-261.76-243.74-261.76"/>
  <path class="logo-android__andy-icon " d="m13272 2315.1c-50.264 0-91.045-40.781-91.045-91.046s40.781-91.046 91.045-91.046c50.265 0 91.046 40.781 91.046 91.046s-40.781 91.046-91.046 91.046m-1002.5 0c-50.265 0-91.046-40.781-91.046-91.046s40.781-91.046 91.046-91.046 91.046 40.781 91.046 91.046-40.781 91.046-91.046 91.046m1034.7-546.27 182.09-313.92c10.433-18.019 3.794-40.781-14.226-51.213-18.019-10.432-40.781-3.7936-51.213 14.226l-183.99 317.71c-140.36-64.491-297.8-100.53-465.66-100.53s-326.25 36.039-466.61 99.581l-183.99-317.71c-10.432-18.02-33.193-24.658-51.213-14.226-18.019 10.432-24.658 33.194-14.226 51.213l181.14 313.92c-311.07 169.76-524.46 484.63-555.76 857.35h2178.5c-30.349-371.77-242.79-686.64-554.81-856.4" fill="#3ddc84"/>
 </g>
</svg>
