<?xml version="1.0" standalone="no"?>
<!DOCTYPE svg PUBLIC "-//W3C//DTD SVG 20010904//EN"
 "http://www.w3.org/TR/2001/REC-SVG-20010904/DTD/svg10.dtd">
<svg version="1.0" xmlns="http://www.w3.org/2000/svg"
 width="996.000000pt" height="215.000000pt" viewBox="0 0 996.000000 215.000000"
 preserveAspectRatio="xMidYMid meet">

<g transform="translate(0.000000,215.000000) scale(0.100000,-0.100000)"
fill="#8B2DB4" stroke="none">
<path d="M8200 1733 c-8 -3 -25 -15 -37 -26 -22 -19 -23 -28 -23 -151 l0 -130
190 -191 190 -191 0 -277 c0 -331 4 -347 89 -347 16 0 37 10 49 23 22 23 22
29 22 312 l0 289 190 191 190 191 0 126 c0 70 -3 134 -6 143 -7 18 -55 45 -79
45 -9 0 -30 -13 -46 -29 -28 -28 -29 -33 -29 -123 l0 -93 -147 -147 c-81 -82
-149 -148 -152 -148 -4 0 -73 66 -154 148 l-147 147 0 92 c0 81 -3 95 -22 117
-25 26 -54 37 -78 29z"/>
<path d="M5342 1705 l-32 -27 0 -482 0 -482 -73 -72 -72 -72 -161 0 -160 0
-66 68 -66 67 -4 483 -5 483 -23 24 c-39 42 -100 33 -127 -18 -14 -28 -15 -84
-8 -531 l7 -501 97 -104 c139 -151 116 -142 369 -139 l213 3 119 121 120 121
0 511 0 511 -22 25 c-35 39 -69 42 -106 11z"/>
<path d="M5769 1700 l-30 -29 3 -605 3 -604 24 -26 24 -26 319 0 319 0 61 58
c33 31 87 87 119 125 l59 68 0 119 0 120 -75 81 c-41 44 -75 84 -75 88 0 5 34
45 76 91 l76 82 -4 124 -3 125 -121 119 -121 120 -312 0 -313 0 -29 -30z m663
-207 l78 -78 0 -58 0 -59 -72 -74 -71 -74 -234 0 -233 0 0 203 c0 112 3 207 7
210 3 4 106 7 227 7 l221 0 77 -77z m6 -576 l72 -72 0 -65 0 -65 -72 -72 -72
-73 -227 0 -226 0 -7 201 c-3 110 -4 205 -1 210 4 5 105 9 233 9 l228 0 72
-73z"/>
<path d="M7069 1624 c-59 -59 -113 -118 -119 -133 -7 -18 -10 -154 -8 -434 l3
-408 121 -120 122 -120 221 3 221 3 109 109 c61 61 115 122 121 136 7 18 10
155 8 428 l-3 402 -120 120 -120 120 -224 0 -224 0 -108 -106z m563 -121 l67
-68 6 -355 7 -355 -73 -72 -74 -72 -153 -7 -154 -7 -79 79 -79 79 0 350 0 350
72 72 72 73 161 0 161 0 66 -67z"/>
<path d="M2210 1713 c-8 -3 -25 -15 -37 -26 l-23 -20 0 -608 0 -608 23 -26
c29 -35 78 -37 112 -5 25 23 25 26 25 192 l0 168 138 0 138 0 188 -190 c170
-171 192 -190 222 -190 46 0 74 30 74 77 0 35 -10 48 -131 169 l-132 132 30
15 c16 9 76 64 131 122 l102 107 0 229 0 230 -102 106 c-57 58 -115 111 -130
119 -21 11 -87 14 -320 13 -161 0 -300 -3 -308 -6z m632 -230 l68 -67 0 -166
0 -166 -67 -66 -68 -67 -232 -7 -233 -7 0 307 0 306 232 0 232 0 68 -67z"/>
<path d="M3376 1699 l-26 -20 0 -615 0 -615 25 -24 24 -25 318 0 317 0 118
118 118 118 0 424 0 424 -118 118 -118 118 -316 0 c-304 0 -316 -1 -342 -21z
m662 -212 l72 -72 0 -355 0 -356 -73 -72 -72 -72 -228 0 -227 0 0 500 0 500
228 0 228 0 72 -73z"/>
<path d="M1303 1638 c-42 -40 -138 -139 -214 -220 l-139 -147 0 -411 0 -412
29 -29 c36 -36 73 -37 106 -4 l25 24 0 266 0 265 305 0 305 0 0 -263 c0 -248
1 -264 20 -284 26 -28 52 -36 83 -24 58 22 58 21 55 470 l-3 411 -215 215
c-259 260 -243 253 -357 143z m259 -275 c136 -136 148 -151 148 -184 l0 -36
-52 -7 c-29 -3 -164 -6 -300 -6 l-248 0 0 42 c0 42 4 47 147 190 81 82 150
148 153 148 3 0 71 -66 152 -147z"/>
</g>
</svg>
