<?xml version="1.0" encoding="UTF-8"?>
<!-- Created with Inkscape (http://www.inkscape.org/) -->
<svg width="932.34" height="155.64" version="1.1" viewBox="0 0 932.34 155.64" xml:space="preserve" xmlns="http://www.w3.org/2000/svg" xmlns:cc="http://creativecommons.org/ns#" xmlns:dc="http://purl.org/dc/elements/1.1/" xmlns:rdf="http://www.w3.org/1999/02/22-rdf-syntax-ns#"><metadata><rdf:RDF><cc:Work rdf:about=""><dc:format>image/svg+xml</dc:format><dc:type rdf:resource="http://purl.org/dc/dcmitype/StillImage"/></cc:Work></rdf:RDF></metadata><defs><clipPath id="clipPath18"><path d="m0 185h792v-185h-792v185z"/></clipPath></defs><g transform="matrix(1.25 0 0 -1.25 -28.832 193.44)"><path d="m85.78 154.75h14.529v-123.28h-14.529v123.28z" fill="#949494"/><g clip-path="url(#clipPath18)"><g transform="translate(23.066 31.22)"><path d="m0 0 2.417-0.018c30.811 0.796 55.593 31.909 55.593 70.151v53.222h-9.67v-36.287c0-35.195-20.98-64.336-48.34-69.38v-17.688z" fill="#949494"/></g><g transform="translate(163.25 31.22)"><path d="m0 0-2.418-0.018c-30.811 0.796-55.592 31.909-55.592 70.151v53.222h9.671v-36.287c0-35.195 20.979-64.336 48.339-69.38v-17.688z" fill="#949494"/></g><g transform="translate(284.22 30.84)"><path d="m0 0h-27.193l-6.713 23.32h-36.626l-7.068-23.32h-27.2l33.906 108.54c1.331 4.211 3.445 7.716 6.35 10.526 3.38 3.154 7.253 4.733 11.601 4.733 4.835 0 9.189-1.698 13.056-5.084 3.386-3.041 5.804-6.896 7.253-11.577l32.634-107.14zm-41.159 45.946-10.876 52.955-11.969-52.955h22.845z" fill="#5479b6"/></g><g transform="translate(346.45 130.75)"><path d="m0 0h-23.749v-100.5h-26.652v100.5h-23.938v23.148h74.339v-23.148z" fill="#5479b6"/></g><g transform="translate(439.85 30.84)"><path d="m0 0h-27.193l-6.713 23.32h-36.626l-7.068-23.32h-27.2l33.905 108.54c1.331 4.211 3.446 7.716 6.351 10.526 3.38 3.154 7.253 4.733 11.6 4.733 4.836 0 9.19-1.698 13.056-5.084 3.386-3.041 5.804-6.896 7.253-11.577l32.635-107.14zm-41.159 45.946-10.876 52.955-11.969-52.955h22.845z" fill="#5479b6"/></g><g transform="translate(533.25 30.502)"><path d="m0 0h-30.822l-27.33 50.169c-1.213 2.334-2.21 4.443-2.995 6.314-0.785 1.866-1.175 3.327-1.175 4.384 0 5.376 4.317 9.789 12.96 13.234 8.643 3.451 12.967 7.746 12.967 12.89 0 3.16-1.242 6.255-3.718 9.296-2.477 3.036-5.168 4.556-8.073 4.556h-15.23v-100.5h-25.744v107.17c0 3.743 1.753 7.366 5.258 10.871 3.504 3.511 7.008 5.263 10.518 5.263h25.929c10.033 0 18.795-3.505 26.291-10.52 7.489-7.015 11.238-15.142 11.238-24.378 0-7.366-2.293-13.792-6.89-19.287-3.987-4.793-9.731-8.887-17.227-12.271l34.043-57.185z" fill="#5479b6"/></g><path d="m563.45 30.311h-26.831v123.83h26.831v-123.83z" fill="#5479b6"/><g transform="translate(680.64 68.57)"><path d="m0 0c0-12.01-4.764-21.246-14.304-27.716-8.35-5.679-19.001-8.517-31.938-8.517-6.053 0-12.005 0.541-17.857 1.616-5.856 1.074-12.248 2.774-19.186 5.09v27.811c7.117-2.05 8.798-3.671 12.64-4.883 8.566-2.411 15.266-3.623 20.108-3.623 6.367 0 10.9 1.051 13.602 3.16 2.697 2.103 4.051 0.671 4.051 3.795 0 3.969-4.829 7.533-14.487 10.693-13.876 4.099-18.776 7.247-22.305 9.45-10.324 6.345-15.48 19.941-15.48 32.688 0 10.217 4.385 18.818 13.158 25.803 8.773 6.986 19.862 10.479 33.281 10.479 6.475 0 12.261-0.374 17.346-1.117 5.09-0.749 10.59-2.371 16.506-4.871v-27.84c-6.504 2.88-8.322 5.072-13.061 6.575-4.728 1.503-9.463 2.257-14.21 2.257-4.496 0-8.529-1.039-12.098-3.118-3.571-2.08-5.359-4.865-5.359-8.358 0-5.091 4.122-8.839 12.379-11.245 15.165-4.407 20.06-7.329 22.287-8.761 9.949-6.082 14.927-15.872 14.927-29.368" fill="#949494"/></g><g transform="translate(768.93 122.12)"><path d="m0 0-24.663 6e-3v-91.262h-37.049v91.262h-24.656v28.292h86.362l6e-3 -28.298z" fill="#949494"/></g></g></g></svg>
