<?xml version="1.0" encoding="UTF-8"?>
<svg width="533.41" height="118.97" version="1.1" viewBox="0 0 533.41 118.97" xml:space="preserve" xmlns="http://www.w3.org/2000/svg" xmlns:cc="http://creativecommons.org/ns#" xmlns:dc="http://purl.org/dc/elements/1.1/" xmlns:rdf="http://www.w3.org/1999/02/22-rdf-syntax-ns#"><metadata><rdf:RDF><cc:Work rdf:about=""><dc:format>image/svg+xml</dc:format><dc:type rdf:resource="http://purl.org/dc/dcmitype/StillImage"/></cc:Work></rdf:RDF></metadata><defs><clipPath id="clipPath16"><path d="m0 95.175h426.72v-95.175h-426.72v95.175z"/></clipPath></defs><g transform="matrix(1.25 0 0 -1.25 0 118.97)"><g clip-path="url(#clipPath16)"><g transform="translate(157.02 36.744)"><path d="m0 0 8.247 26.613 8.247-26.613h-16.494zm20.294 47.621c-2.139 6.665-6.151 9.997-12.047 9.997-5.94 0-9.952-3.332-12.036-9.997l-26.012-84.365h18.355l6.464 20.607h26.391l6.386-20.607h18.5l-26.001 84.365z" fill="#a92d38"/></g><g transform="translate(185.78 94.362)"><path d="m0 0v-16.137h20.283v-78.225h17.765v78.225h20.283v16.137h-58.331z" fill="#a92d38"/></g><g transform="translate(256.53 36.744)"><path d="m0 0 8.247 26.613 8.247-26.613h-16.494zm20.283 47.621c-2.128 6.665-6.14 9.997-12.036 9.997-5.951 0-9.963-3.332-12.036-9.997l-26.012-84.365h18.355l6.464 20.607h26.38l6.386-20.607h18.511l-26.012 84.365z" fill="#a92d38"/></g><g transform="translate(339.6 40.121)"><path d="m0 0c6.999 2.251 12.783 6.018 17.363 11.278 4.625 5.316 6.944 11.19 6.944 17.631 0 6.932-2.954 12.884-8.849 17.832-5.896 5.004-12.65 7.5-20.284 7.5h-20.283c-3.076 0-5.751-1.036-8.035-3.109-2.274-2.073-3.411-4.48-3.411-7.222v-84.031h17.754v78.225h13.931c2.964 0 5.606-1.059 7.935-3.177 2.318-2.117 3.477-4.502 3.477-7.166 0-3.867-2.196-7.132-6.587-9.796-2.084-1.036-4.101-2.062-6.085-3.098-1.972-1.036-4-2.073-6.073-3.109-4.391-2.931-6.598-6.709-6.598-11.346 0-2.485 1.56-5.906 4.67-10.275l21.275-30.258h20.729l-27.873 40.121z" fill="#a92d38"/></g><path d="m373.42 0h17.765v94.362h-17.765v-94.362z" fill="#a92d38"/><g transform="translate(404.7 18.544)"><path d="m0 0c-0.501 0.257-0.972 0.39-1.412 0.39-0.767 0-1.443-0.421-2.016-1.284-0.583-0.801-0.869-1.767-0.869-2.887v-14.763h4.502v12.144l21.814-11.404v6.287l-22.019 11.517z" fill="#a92d38"/></g><g transform="translate(421.63 27.933)"><path d="m0 0c-0.859-0.863-1.86-1.288-2.989-1.288-0.936 0-1.77 0.515-2.514 1.546-0.731 1.03-1.103 2.202-1.103 3.516 0 1.301 0.372 2.46 1.103 3.49 0.744 1.03 1.578 1.546 2.514 1.546 1.129 0 2.13-0.425 2.989-1.288 0.962-0.941 1.45-2.19 1.45-3.748 0-1.533-0.488-2.795-1.45-3.774m-10.78 0.482c-0.685-0.965-1.477-1.447-2.366-1.447-1.032 0-1.957 0.398-2.785 1.206-0.901 0.916-1.345 2.097-1.345 3.532 0 1.459 0.444 2.628 1.345 3.508 0.828 0.808 1.753 1.205 2.785 1.205 0.889 0 1.681-0.482 2.366-1.446 0.696-0.965 1.044-2.05 1.044-3.267 0-1.23-0.348-2.327-1.044-3.291m13.686 10.481c-1.463 2.054-3.182 3.092-5.157 3.092-2.363 0-4.297-1.027-5.801-3.072-1.443 2.045-3.162 3.072-5.147 3.072h-0.634c-1.975 0-3.694-1.038-5.168-3.092-1.483-2.045-2.22-4.449-2.22-7.192s0.737-5.147 2.22-7.212c1.474-2.055 3.193-3.092 5.168-3.092 2.373 0 4.297 1.037 5.781 3.092 1.442-2.055 3.161-3.092 5.146-3.092h0.655c1.975 0 3.694 1.037 5.157 3.092 1.463 2.086 2.19 4.49 2.19 7.212 0 2.712-0.727 5.106-2.19 7.192" fill="#a92d38"/></g><g transform="translate(413.57 49.172)"><path d="m0 0c-4.104 0-7.435 3.345-7.435 7.466s3.331 7.465 7.435 7.465 7.435-3.344 7.435-7.465-3.331-7.466-7.435-7.466m0 19.424c-6.579 0-11.91-5.353-11.91-11.958 0-6.606 5.331-11.959 11.91-11.959s11.91 5.353 11.91 11.959c0 6.605-5.331 11.958-11.91 11.958" fill="#a92d38"/></g><g transform="translate(413.57 74.938)"><path d="m0 0c-4.104 0-7.435 3.345-7.435 7.466s3.331 7.465 7.435 7.465 7.435-3.344 7.435-7.465-3.331-7.466-7.435-7.466m0 19.424c-6.579 0-11.91-5.353-11.91-11.958 0-6.606 5.331-11.959 11.91-11.959s11.91 5.353 11.91 11.959c0 6.605-5.331 11.958-11.91 11.958" fill="#a92d38"/></g><path d="m65.22 0.312h-12.516v9.963h12.516v-9.963z" fill="#6c4d9d" fill-rule="evenodd"/><g transform="translate(118.14 10.275)"><path d="m0 0v-10.231c-4.993-0.212-9.852 0.446-14.544 2.017-4.725 1.583-9.083 3.778-12.916 6.776-0.602 0.468-1.215 0.948-1.806 1.438h29.266z" fill="#6c4d9d" fill-rule="evenodd"/></g><g transform="translate(29.39 10.275)"><path d="m0 0c-4.023-3.399-8.637-5.996-13.764-7.835-4.692-1.671-9.517-2.541-14.555-2.396h-1.069c0 3.477-0.012 6.865 0.022 10.231h29.366z" fill="#6c4d9d" fill-rule="evenodd"/></g><g transform="translate(41.872 25.454)"><path d="m0 0c-1.683-3.12-3.689-6.074-6.13-8.804-1.861-2.084-3.766-4.146-5.895-5.996-0.156-0.134-0.301-0.256-0.457-0.379h-29.366c-0.011 0.947 0 1.883 0.011 2.831 0 0.278 0.39 0.758 0.657 0.802 3.957 0.647 7.713 1.861 11.156 3.7 2.742 1.471 5.417 3.121 7.891 4.948 1.237 0.903 2.407 1.873 3.521 2.898h18.612z" fill="#3e6eb2" fill-rule="evenodd"/></g><g transform="translate(118.14 13.741)"><path d="m0 0v-3.466h-29.266c-1.103 0.88-2.173 1.783-3.176 2.742-3.054 2.953-5.639 6.241-7.846 9.785-0.546 0.869-1.059 1.761-1.549 2.652h18.678c0.792-0.769 1.605-1.516 2.463-2.207 5.751-4.68 12.315-8.024 19.983-9.316 0.245-0.034 0.479-0.123 0.713-0.19" fill="#3e6eb2" fill-rule="evenodd"/></g><path d="m65.22 10.275h-12.516v15.179h12.516v-15.179z" fill="#3e6eb2" fill-rule="evenodd"/><path d="m65.22 25.454h-12.516v14.856h12.516v-14.856z" fill="#35afdf" fill-rule="evenodd"/><g transform="translate(94.977 25.454)"><path d="m0 0h-18.678c-1.572 2.82-2.876 5.751-3.912 8.793-0.68 2.006-1.293 4.012-1.761 6.063h13.128c1.795-3.622 3.979-7.055 6.776-10.153 1.438-1.594 2.887-3.21 4.447-4.703" fill="#35afdf" fill-rule="evenodd"/></g><g transform="translate(47.5 40.31)"><path d="m0 0c-0.613-2.909-1.538-5.74-2.664-8.515-0.88-2.173-1.85-4.29-2.964-6.341h-18.612c2.764 2.485 5.16 5.294 7.256 8.336 1.448 2.107 2.797 4.269 3.945 6.52h13.039z" fill="#35afdf" fill-rule="evenodd"/></g><g transform="translate(48.927 52.569)"><path d="m0 0c0-0.557-0.011-1.114-0.011-1.672-0.022-2.819-0.602-5.65-1.026-8.459-0.111-0.713-0.234-1.426-0.39-2.128h-13.039c0.747 1.471 1.404 2.975 1.95 4.525 0.892 2.552 1.672 5.137 2.397 7.734h10.119z" fill="#9ecf81" fill-rule="evenodd"/></g><path d="m65.22 40.31h-12.516v12.259h12.516v-12.259z" fill="#9ecf81" fill-rule="evenodd"/><g transform="translate(83.754 40.31)"><path d="m0 0h-13.128c-0.368 1.549-0.636 3.12-0.781 4.703-0.234 2.519-0.49 5.037-0.601 7.556h9.941c0.602-2.585 1.504-5.104 2.496-7.612 0.624-1.571 1.315-3.131 2.073-4.647" fill="#9ecf81" fill-rule="evenodd"/></g><g transform="translate(48.983 68.54)"><path d="m0 0c0-5.327-0.022-10.654-0.056-15.97h-10.119c0.301 1.092 0.591 2.173 0.869 3.265 0.457 1.75 0.68 3.6 0.702 5.405 0.034 2.43 0.056 4.87 0.078 7.3h8.526z" fill="#fdd255" fill-rule="evenodd"/></g><g transform="translate(79.185 52.569)"><path d="m0 0h-9.941c-0.022 0.635-0.045 1.271-0.045 1.906-0.022 4.692-0.033 9.372-0.033 14.064h8.358c0-1.226 0.023-2.452 0.034-3.666 0.044-3.065 0.646-6.119 1.048-9.172 0.133-1.059 0.334-2.096 0.579-3.132" fill="#fdd255" fill-rule="evenodd"/></g><path d="m65.22 52.569h-12.516v15.97h12.516v-15.97z" fill="#fdd255" fill-rule="evenodd"/><path d="m65.22 68.54h-12.516v12.638h12.516v-12.638z" fill="#f89f5c" fill-rule="evenodd"/><g transform="translate(77.524 68.54)"><path d="m0 0h-8.359c-0.011 4.213-0.011 8.425-0.011 12.638h8.337c-0.012-4.224-0.012-8.436 0.033-12.638" fill="#f89f5c" fill-rule="evenodd"/></g><g transform="translate(48.983 81.178)"><path d="m0 0v-12.638h-8.526c0.034 4.213 0.067 8.425 0.089 12.638h8.437z" fill="#f89f5c" fill-rule="evenodd"/></g><g transform="translate(48.972 93.727)"><path d="m0 0c0-4.19 0-8.37 0.011-12.549h-8.436c0.033 4.358 0.055 8.715 0.078 13.073v0.657h8.347v-1.181z" fill="#ee3d57" fill-rule="evenodd"/></g><g transform="translate(77.513 94.919)"><path d="m0 0v-1.126c0-4.201-0.022-8.414-0.022-12.615h-8.337c0.012 4.168 0.012 8.325 0.012 12.493v1.248h8.347z" fill="#ee3d57" fill-rule="evenodd"/></g><path d="m52.705 95.175h12.516v-13.998h-12.516v13.998z" fill="#ee3d57" fill-rule="evenodd"/></g></g></svg>
