<svg xmlns="http://www.w3.org/2000/svg" xmlns:xlink="http://www.w3.org/1999/xlink" x="0px" y="0px" width="566.922px" height="168.614px">
  <linearGradient id="a" gradientUnits="userSpaceOnUse" x1="361.4224" y1="807.8149" x2="283.2769" y2="771.4948" gradientTransform="translate(-.1797 -767.2285)">
    <stop offset="0" stop-color="#522628"/>
    <stop offset="1" stop-color="#CF3549"/>
  </linearGradient>
  <polyline fill="url(#a)" points="359.446,27.822 266.924,0 253.105,0 358.881,51.417 "/>
  <linearGradient id="b" gradientUnits="userSpaceOnUse" x1="203.7456" y1="839.7163" x2="135.7914" y2="932.9304" gradientTransform="translate(-.1797 -767.2285)">
    <stop offset="0" stop-color="#97232A"/>
    <stop offset="1" stop-color="#412625"/>
  </linearGradient>
  <polygon fill="url(#b)" points="151.821,165.986 123.721,166.799 230.911,12.461 233.509,12.461 "/>
  <linearGradient id="c" gradientUnits="userSpaceOnUse" x1="267.6953" y1="840.9546" x2="287.4237" y2="925.3491" gradientTransform="translate(-.1797 -767.2285)">
    <stop offset="0" stop-color="#97232A"/>
    <stop offset="1" stop-color="#412625"/>
  </linearGradient>
  <polygon fill="url(#c)" points="341.247,165.842 236.92,166.133 241.139,12.471 250.112,12.471 "/>
  <linearGradient id="d" gradientUnits="userSpaceOnUse" x1="304.9165" y1="854.1216" x2="348.6342" y2="921.1372" gradientTransform="translate(-.1797 -767.2285)">
    <stop offset="0" stop-color="#97232A"/>
    <stop offset="1" stop-color="#412625"/>
  </linearGradient>
  <polygon fill="url(#d)" points="358.881,144.143 339.952,166.625 250.274,12.461 251.966,10.343 "/>
  <linearGradient id="e" gradientUnits="userSpaceOnUse" x1="308.5396" y1="873.6392" x2="322.928" y2="903.0829" gradientTransform="translate(-.1797 -767.2285)">
    <stop offset="0" stop-color="#9C2A2A"/>
    <stop offset="1" stop-color="#812A2D"/>
  </linearGradient>
  <polygon fill="url(#e)" points="292.608,144.143 246.051,10.343 251.966,10.343 360.029,142.18 "/>
  <linearGradient id="f" gradientUnits="userSpaceOnUse" x1="209.0986" y1="840.8091" x2="192.2977" y2="872.0523" gradientTransform="translate(-.1797 -767.2285)">
    <stop offset="0" stop-color="#CF3549"/>
    <stop offset="1" stop-color="#B82B35"/>
  </linearGradient>
  <polygon fill="url(#f)" points="196.431,112.189 150.758,166.993 233.509,12.461 237.335,7.649 "/>
  <linearGradient id="g" gradientUnits="userSpaceOnUse" x1="219.7637" y1="877.7261" x2="206.4953" y2="894.3628" gradientTransform="translate(-.1797 -767.2285)">
    <stop offset="0" stop-color="#A32C2E"/>
    <stop offset="1" stop-color="#832F33"/>
  </linearGradient>
  <polygon fill="url(#g)" points="238.749,167.057 194.565,112.439 237.335,7.649 241.171,12.461 "/>
  <linearGradient id="h" gradientUnits="userSpaceOnUse" x1="276.021" y1="845.4966" x2="291.58" y2="885.4812" gradientTransform="translate(-.1797 -767.2285)">
    <stop offset="0" stop-color="#CF3549"/>
    <stop offset="1" stop-color="#B82B35"/>
  </linearGradient>
  <polygon fill="url(#h)" points="293.749,98.131 291.295,144.143 246.051,10.343 246.055,6.545 "/>
  <polygon fill="#BB3031" points="341.249,99.829 293.241,102.801 246.055,6.545 250.219,6.545 "/>
  <linearGradient id="i" gradientUnits="userSpaceOnUse" x1="238.2983" y1="914.8052" x2="233.5787" y2="836.7894" gradientTransform="translate(-.1797 -767.2285)">
    <stop offset="0" stop-color="#C42D2C"/>
    <stop offset="1" stop-color="#C73237"/>
  </linearGradient>
  <polygon fill="url(#i)" points="209.826,94.232 238.701,5.929 243.176,11.549 253.61,101.344 260.359,100.879 
	259.237,153.391 "/>
  <polygon fill="#C62C2D" points="261.775,100.565 234.919,102.801 240.909,6.545 243.179,6.544 "/>
  <polygon fill="#C82A34" points="123.721,166.799 230.911,12.461 236.031,6.013 179.526,96.928 "/>
  <linearGradient id="j" gradientUnits="userSpaceOnUse" x1="350.9478" y1="856.7476" x2="286.2342" y2="804.1235" gradientTransform="translate(-.1797 -767.2285)">
    <stop offset="0" stop-color="#522628"/>
    <stop offset="1" stop-color="#CF3549"/>
  </linearGradient>
  <polygon fill="url(#j)" points="358.895,76.041 340.444,101.209 250.219,6.545 251.905,4.433 "/>
  <linearGradient id="k" gradientUnits="userSpaceOnUse" x1="246.2368" y1="808.6802" x2="359.2134" y2="808.6802" gradientTransform="translate(-.1797 -767.2285)">
    <stop offset="0" stop-color="#CF3549"/>
    <stop offset="1" stop-color="#B82B35"/>
  </linearGradient>
  <polygon fill="url(#k)" points="291.241,78.469 246.057,4.433 251.905,4.433 359.034,76.133 "/>
  <polygon fill="#BB3031" points="360.029,50.025 359.42,50.057 294.015,53.383 246.061,2.118 252.099,2.118 "/>
  <linearGradient id="l" gradientUnits="userSpaceOnUse" x1="225.8496" y1="834.4126" x2="272.3625" y2="777.1179" gradientTransform="translate(-.1797 -767.2285)">
    <stop offset="0" stop-color="#C42D2C"/>
    <stop offset="1" stop-color="#C73237"/>
  </linearGradient>
  <polygon fill="url(#l)" points="233.509,100.565 240.909,5.378 246.119,0 293.25,25.481 "/>
  <linearGradient id="m" gradientUnits="userSpaceOnUse" x1="220.5425" y1="812.231" x2="238.6681" y2="817.6782" gradientTransform="translate(-.1797 -767.2285)">
    <stop offset="0" stop-color="#D44355"/>
    <stop offset="1" stop-color="#CF3632"/>
  </linearGradient>
  <polygon fill="url(#m)" points="263.746,29.254 209.03,93.529 238.701,5.929 243.413,0 "/>
  <polygon fill="#C32E35" points="194.799,74.2 237.397,4.291 240.803,0 233.568,29.254 195.895,75.146 "/>
  <linearGradient id="n" gradientUnits="userSpaceOnUse" x1="237.0137" y1="784.6235" x2="253.8916" y2="780.4402" gradientTransform="translate(-.1797 -767.2285)">
    <stop offset="0" stop-color="#D44355"/>
    <stop offset="0.5024" stop-color="#CF3632"/>
    <stop offset="1" stop-color="#D44254"/>
  </linearGradient>
  <polygon fill="url(#n)" points="232.261,29.254 240.803,0 243.413,0 264.673,26.907 "/>
  <linearGradient id="o" gradientUnits="userSpaceOnUse" x1="156.8247" y1="826.7778" x2="170.7154" y2="814.7473" gradientTransform="translate(-.1797 -767.2285)">
    <stop offset="0" stop-color="#972832"/>
    <stop offset="1" stop-color="#A7313D"/>
  </linearGradient>
  <polygon fill="url(#o)" points="181.499,96.217 126.968,27.06 225.36,0 236.031,6.013 "/>
  <linearGradient id="p" gradientUnits="userSpaceOnUse" x1="190.4487" y1="775.3345" x2="165.8622" y2="788.2683" gradientTransform="translate(-.1797 -767.2285)">
    <stop offset="0" stop-color="#D44355"/>
    <stop offset="1" stop-color="#CF3632"/>
  </linearGradient>
  <polygon fill="url(#p)" points="126.968,26.518 225.36,0 233.979,0 154.646,29.254 "/>
  <linearGradient id="q" gradientUnits="userSpaceOnUse" x1="270.9155" y1="780.6821" x2="320.3116" y2="780.6821" gradientTransform="translate(-.1797 -767.2285)">
    <stop offset="0" stop-color="#D44355"/>
    <stop offset="1" stop-color="#CF3632"/>
  </linearGradient>
  <polygon fill="url(#q)" points="294.176,26.907 246.119,0 271.499,0 360.848,26.558 "/>
  <linearGradient id="r" gradientUnits="userSpaceOnUse" x1="232.6797" y1="769.4624" x2="178.1804" y2="815.9383" gradientTransform="translate(-.1797 -767.2285)">
    <stop offset="0" stop-color="#C42D32"/>
    <stop offset="0.7918" stop-color="#CA343A"/>
  </linearGradient>
  <polygon fill="url(#r)" points="156.88,26.907 233.979,0 237.397,4.291 194.799,74.2 "/>
  <g/>
  <path fill="#E3CE35" d="M238.087 168.614c-.474 0-.922-.216-1.216-.588l-41.658-52.371-41.657 52.367c-.294.372-.743.587-1.217.587h-29.082c-.598 0-1.141-.342-1.4-.88-.26-.537-.188-1.176.184-1.643l56.643-71.209-52.574-66.091c-.372-.466-.443-1.105-.183-1.643.259-.539.803-.88 1.4-.88l30.58.004c.474 0 .922.216 1.216.587l36.835 46.306 36.84-46.306c.295-.372.743-.587 1.217-.587h29.082c.598 0 1.141.342 1.4.879.259.537.188 1.176-.184 1.643l-51.826 65.146 46.487 58.444v-50.006H235.17c-.597 0-1.141-.342-1.4-.881-.26-.537-.188-1.178.184-1.645l58.095-72.998c.296-.372.742-.587 1.217-.587h66.763c.856 0 1.556.696 1.556 1.555v23.595c0 .858-.694 1.555-1.556 1.555h-65.823V75.68h63.729c.597 0 1.143.342 1.398.879.26.538.188 1.176-.186 1.643l-18.762 23.583c-.297.371-.742.586-1.219.586h-44.955v39.389h64.613c.598 0 1.143.342 1.399.88.26.536.188 1.176-.187 1.642l-18.877 23.737c-.297.372-.744.587-1.218.587l-101.851.004c.001.004-.001.004-.003.004zm-42.873-57.011c.474 0 .922.215 1.217.586l42.405 53.312.703-.002h99.665l16.403-20.627h-62.942c-.856 0-1.557-.697-1.557-1.555l-.001-42.498c0-.412.164-.807.455-1.099.292-.292.688-.455 1.101-.455h45.762l16.287-20.474h-62.061c-.857 0-1.557-.696-1.557-1.554v-25.82c0-.858.695-1.554 1.557-1.554h65.822V29.377h-64.456l-55.622 69.889 22.136-.001c.412 0 .808.164 1.099.455.292.292.455.688.455 1.099v56.014c0 .66-.417 1.25-1.042 1.467-.624.225-1.317.021-1.729-.5l-50.03-62.896c-.45-.567-.45-1.368 0-1.937l50.59-63.59h-25.107l-37.592 47.248c-.294.371-.743.587-1.216.587-.474 0-.922-.216-1.217-.587l-37.585-47.248-26.605-.004 51.337 64.538c.451.566.451 1.369 0 1.938L126.481 165.5h25.108l42.407-53.313c.296-.369.744-.584 1.218-.584z"/>
  <path fill="#094FB9" d="M37.41 116.204h-8.891l-3.071-10.891H12.772l-3.106 10.891H.846l12.497-44.597c1-3.522 2.928-5.285 5.785-5.285 2.833 0 4.761 1.762 5.785 5.285l12.497 44.597zM23.091 96.78l-3.963-14.067-3.963 14.067h7.926z"/>
  <path fill="#094FB9" d="M59.645 74.857h-9.748v41.347h-8.534V74.857h-9.748v-8.534h28.029l.001 8.534z"/>
  <path fill="#094FB9" d="M90.485 116.204h-8.891l-3.071-10.891H65.848l-3.106 10.891h-8.82L66.42 71.607c1-3.522 2.928-5.285 5.784-5.285 2.833 0 4.761 1.762 5.785 5.285l12.496 44.597zM76.167 96.78l-3.963-14.067L68.24 96.78h7.927z"/>
  <path fill="#094FB9" d="M124.182 116.204h-9.926l-10.248-15.996c-1.5-2.31-2.25-4.119-2.25-5.428 0-2.451 1.059-4.449 3.178-5.998 1-.547 1.976-1.094 2.928-1.643.952-.549 1.928-1.096 2.928-1.643 2.119-1.408 3.178-3.13 3.178-5.181 0-1.404-.559-2.666-1.678-3.785-1.119-1.118-2.392-1.678-3.82-1.678h-6.713v41.349h-8.534V71.786c0-1.451.547-2.725 1.643-3.82 1.094-1.095 2.38-1.643 3.856-1.643h9.748c3.666 0 6.915 1.321 9.748 3.963 2.833 2.619 4.25 5.761 4.25 9.427 0 3.404-1.107 6.511-3.321 9.321-2.19 2.783-4.963 4.771-8.32 5.961l13.353 21.209z"/>
  <path fill="#094FB9" d="M138.205 116.204h-8.534v-49.88h8.534v49.88z"/>
  <path fill="#094FB9" d="M433.292 66.315L420.15 92.629v23.564h-8.53V92.629l-13.104-26.314h9.819l7.533 15.104 7.563-15.104h9.861z"/>
  <path fill="#094FB9" d="M491.745 74.85h-9.748v41.347h-8.533V74.85h-9.748v-8.534h28.029v8.534z"/>
  <path fill="#094FB9" d="M519.167 116.196H499.67c-1.477 0-2.762-.535-3.854-1.605-1.1-1.069-1.646-2.344-1.646-3.819V71.78c0-1.452.547-2.726 1.646-3.821 1.096-1.095 2.381-1.643 3.854-1.643h19.496v8.534h-16.461v12.176h10.354v8.532h-10.354v12.176h16.461v8.462z"/>
  <path fill="#094FB9" d="M566.083 116.196h-8.535V91.417l-7.068 19.566c-1.264 3.477-3.068 5.213-5.428 5.213-2.357 0-4.166-1.736-5.428-5.213l-7.07-19.566v24.779h-8.531V71.779c0-1.428.512-2.69 1.533-3.785 1.047-1.119 2.264-1.678 3.645-1.678 2.309 0 4.082 1.762 5.318 5.285l10.533 29.313L555.584 71.6c1.236-3.523 3.01-5.285 5.32-5.285 1.428 0 2.643.56 3.641 1.678 1.023 1.095 1.537 2.357 1.537 3.785v44.418h.001z"/>
  <path fill="#094FB9" d="M394.264 91.238c-2.785-2.808-6.049-4.212-9.783-4.212-1.429 0-2.702-.561-3.818-1.679-1.121-1.119-1.681-2.393-1.681-3.821 0-1.737.5-3.285 1.5-4.642.999-1.357 2.354-1.768 3.999-2.035 3.536-.576 9.063 1.341 9.846 1.862l2.293-8.404c-1.522-.606-6.236-2.097-12.139-1.992-3.736.066-7.011 1.405-9.818 4.213-2.811 2.785-4.213 6.047-4.213 9.784v1.214c0 3.738 1.402 7.012 4.213 9.819 2.812 2.809 6.082 4.213 9.818 4.213 1.402 0 2.665.56 3.785 1.679 1.117 1.119 1.678 2.381 1.678 3.785 0 1.762-.464 3.285-1.395 4.57-1.047 1.428-2.409 1.996-4.068 2.142-3.344.295-7.205-.237-10.348-1.588l-2.225 8.222c1.307.42 5.032 2.047 12.568 1.829 3.712-.106 6.977-1.38 9.783-4.142 2.809-2.785 4.214-6.047 4.214-9.784v-1.25c.005-3.735-1.398-6.998-4.209-9.783z"/>
  <path fill="#094FB9" d="M456.885 91.238c-2.785-2.808-6.047-4.212-9.783-4.212-1.43 0-2.699-.561-3.818-1.679-1.119-1.119-1.682-2.393-1.682-3.821 0-1.737.5-3.285 1.5-4.642 1-1.357 2.355-1.768 4-2.035 3.535-.576 9.064 1.341 9.848 1.862l2.291-8.404c-1.523-.606-6.234-2.097-12.139-1.992-3.734.066-7.012 1.405-9.816 4.213-2.813 2.785-4.215 6.047-4.215 9.784v1.214c0 3.738 1.402 7.012 4.215 9.819 2.809 2.809 6.082 4.213 9.816 4.213 1.404 0 2.664.56 3.785 1.679 1.117 1.119 1.68 2.381 1.68 3.785 0 1.762-.467 3.285-1.395 4.57-1.049 1.428-2.412 1.996-4.07 2.142-3.344.295-7.203-.237-10.346-1.588l-2.227 8.222c1.307.42 5.035 2.047 12.566 1.829 3.715-.106 6.98-1.38 9.783-4.142 2.814-2.785 4.213-6.047 4.213-9.784v-1.25c.007-3.735-1.395-6.998-4.206-9.783z"/>
  <path fill="#FFFFFF" d="M19.941 82.482c-.102-.365-.436-.617-.814-.617s-.711.252-.814.617l-3.964 14.067c-.071.256-.02.529.14.74.16.213.41.336.675.336h7.927c.265 0 .515-.123.673-.336.161-.211.212-.484.14-.74l-3.963-14.067zm-3.659 13.452l2.846-10.102 2.846 10.102h-5.692z"/>
  <path fill="#FFFFFF" d="M25.725 71.371c-1.137-3.912-3.356-5.895-6.597-5.895-3.267 0-5.488 1.985-6.599 5.902L.031 115.975c-.071.255-.019.529.141.738.16.211.409.336.674.336h8.82c.378 0 .71-.252.814-.614l2.931-10.276h11.397l2.897 10.274c.102.364.435.616.814.616h8.899c.467 0 .846-.379.846-.846 0-.121-.025-.236-.071-.341L25.725 71.371zm3.434 43.987l-2.897-10.275c-.102-.365-.435-.617-.814-.617H12.772c-.377 0-.709.252-.813.615l-2.931 10.276H1.963l12.195-43.52c.891-3.142 2.517-4.669 4.97-4.669 2.431 0 4.058 1.53 4.97 4.667l12.195 43.523h-7.134z"/>
  <path fill="#FFFFFF" d="M60.49 74.857v-8.534c0-.467-.379-.846-.846-.846H31.615c-.467 0-.846.379-.846.846v8.534c0 .467.379.846.846.846h8.902v40.5c0 .467.379.846.846.846h8.534c.467 0 .846-.379.846-.846v-40.5h8.901c.467 0 .846-.379.846-.846zm-1.693-.846h-8.901c-.467 0-.846.379-.846.846v40.501h-6.841V74.857c0-.467-.379-.846-.846-.846h-8.902v-6.842h26.336v6.842z"/>
  <path fill="#FFFFFF" d="M73.016 82.482c-.102-.365-.436-.617-.814-.617s-.711.252-.814.617l-3.963 14.067c-.071.256-.02.529.14.74.16.213.41.336.675.336h7.927c.265 0 .515-.123.673-.336.16-.211.211-.484.14-.74l-3.964-14.067zm-3.658 13.452l2.846-10.102 2.846 10.102h-5.692z"/>
  <path fill="#FFFFFF" d="M78.801 71.371c-1.137-3.912-3.356-5.895-6.597-5.895-3.267 0-5.487 1.985-6.599 5.902l-12.498 44.597c-.071.255-.019.529.141.738.16.211.409.336.674.336h8.82c.377 0 .709-.252.813-.614l2.931-10.276h11.398l2.897 10.274c.103.364.435.616.814.616h8.899c.467 0 .846-.379.846-.846 0-.121-.025-.236-.071-.341L78.801 71.371zm3.434 43.987l-2.898-10.275c-.102-.365-.435-.617-.814-.617H65.848c-.378 0-.71.252-.814.615l-2.931 10.276h-7.065l12.195-43.52c.891-3.142 2.517-4.669 4.97-4.669 2.431 0 4.058 1.53 4.97 4.667l12.196 43.523h-7.134z"/>
  <path fill="#FFFFFF" d="M112.093 95.415c3.063-1.268 5.656-3.234 7.72-5.857 2.324-2.949 3.502-6.261 3.502-9.844 0-3.893-1.521-7.274-4.519-10.045-2.981-2.781-6.455-4.191-10.325-4.191h-9.748c-1.702 0-3.201.636-4.455 1.89s-1.89 2.741-1.89 4.419v44.417c0 .467.379.846.846.846h8.534c.467 0 .846-.379.846-.846V99.547c.211.359.441.729.691 1.115l10.248 15.998c.156.242.424.389.713.389h9.935c.467 0 .846-.379.847-.846 0-.205-.073-.394-.195-.539l-12.75-20.249zm2.626 19.943l-10-15.611c-1.746-2.688-2.113-4.185-2.113-4.967 0-2.168.913-3.896 2.788-5.281.994-.545 1.967-1.092 2.894-1.625.919-.528 1.899-1.078 2.913-1.633.021-.013.041-.025.061-.037 2.36-1.565 3.556-3.544 3.556-5.884 0-1.63-.648-3.104-1.926-4.383-1.279-1.278-2.766-1.926-4.419-1.926h-6.713c-.467 0-.846.379-.846.846v40.499h-6.841V71.784c0-1.229.457-2.284 1.395-3.222.939-.938 2.005-1.395 3.258-1.395h9.748c3.427 0 6.512 1.258 9.173 3.739 2.677 2.474 3.978 5.354 3.978 8.805 0 3.193-1.057 6.151-3.14 8.797-2.081 2.645-4.751 4.558-7.938 5.688-.243.086-.433.279-.517.52-.085.244-.054.513.083.729l12.537 19.913h-7.931zm-12.114-25.527V75.703l5.868-.002c1.205 0 2.259.468 3.222 1.43.962.963 1.43 2.006 1.43 3.187 0 1.752-.906 3.209-2.77 4.453-1.013.558-1.993 1.106-2.911 1.636-.933.535-1.913 1.086-2.913 1.635-.032.017-.063.037-.093.059-.721.524-1.332 1.103-1.833 1.73z"/>
  <path fill="#FFFFFF" d="M138.205 65.477h-8.534c-.467 0-.846.379-.846.846v49.88c0 .467.379.846.846.846h8.534c.467 0 .846-.379.846-.846v-49.88c0-.467-.379-.846-.846-.846zm-.846 49.881h-6.841V67.169h6.841v48.189z"/>
  <g>
    <path fill="#FFFFFF" d="M434.01 65.871c-.154-.249-.428-.401-.721-.401h-9.855c-.316 0-.609.18-.756.467l-6.811 13.59-6.779-13.589c-.146-.288-.439-.469-.758-.469h-9.817c-.293 0-.565.152-.72.401s-.17.56-.039.823l13.017 26.138v23.363c0 .471.379.85.849.85h8.532c.468 0 .847-.379.845-.848V92.831l13.051-26.137c.13-.262.119-.574-.038-.823zm-14.616 26.381c-.06.117-.089.246-.089.377v22.721h-6.848V92.629c0-.131-.028-.26-.09-.377l-12.494-25.091h7.932l7.3 14.635c.146.287.438.469.757.469h.004c.318 0 .61-.18.756-.467l7.336-14.637h7.965l-12.529 25.091z"/>
    <path fill="#FFFFFF" d="M491.745 65.468h-28.029c-.469 0-.848.379-.848.846v8.534c0 .467.379.846.848.846h8.9v40.5c0 .471.379.85.848.85h8.533c.465 0 .844-.379.846-.85v-40.5h8.902c.467 0 .846-.379.846-.846v-8.534c-.001-.467-.38-.846-.846-.846zm-.848 8.535h-8.9c-.469 0-.848.379-.848.847v40.5h-6.844v-40.5c0-.468-.379-.847-.846-.847h-8.902v-6.841h26.34v6.841z"/>
    <path fill="#FFFFFF" d="M519.168 65.468h-19.494c-1.703 0-3.201.636-4.455 1.89s-1.891 2.741-1.891 4.419v38.99c0 1.706.635 3.196 1.895 4.426 1.252 1.228 2.748 1.851 4.447 1.851h19.496c.465 0 .844-.379.844-.849v-8.462c0-.467-.379-.846-.848-.846h-15.613V96.404h9.508c.471 0 .85-.379.85-.846v-8.532c0-.467-.379-.846-.85-.846h-9.508V75.694h15.619c.469 0 .848-.379.848-.846v-8.534c0-.467-.379-.846-.848-.846zm-.849 8.535h-15.613c-.469 0-.848.379-.848.847v12.174c0 .469.379.848.848.848h9.508v6.84h-9.508c-.469 0-.848.379-.848.847v12.175c0 .469.379.848.848.848h15.613v6.771H499.67c-1.258 0-2.328-.446-3.266-1.365-.936-.913-1.391-1.966-1.391-3.216V71.78c0-1.231.457-2.284 1.396-3.223.938-.939 2.004-1.395 3.258-1.395h18.65v6.841z"/>
    <path fill="#FFFFFF" d="M565.172 67.428c-1.164-1.3-2.598-1.96-4.27-1.96-2.697 0-4.762 1.969-6.117 5.845l-9.736 27.098-9.734-27.092c-1.363-3.882-3.424-5.85-6.117-5.85-1.617 0-3.055.655-4.264 1.947-1.17 1.252-1.764 2.719-1.764 4.363v44.417c0 .469.379.848.848.848h8.533c.469 0 .85-.379.85-.848V96.249l5.422 15.023c1.391 3.829 3.486 5.771 6.223 5.771 2.744 0 4.832-1.942 6.229-5.772l5.428-15.022v19.945c0 .471.379.85.846.85h8.535c.467 0 .846-.379.84-.85V71.777c-.002-1.642-.595-3.11-1.752-4.349zm.067 47.922h-6.848V91.417c0-.41-.295-.762-.699-.832-.404-.074-.799.16-.939.545l-7.068 19.566c-1.139 3.133-2.65 4.655-4.633 4.655-1.98 0-3.494-1.522-4.631-4.654l-7.07-19.567c-.135-.385-.537-.615-.938-.545-.404.069-.699.422-.699.832v23.933h-6.842V71.778c0-1.217.428-2.266 1.307-3.207.883-.949 1.877-1.41 3.025-1.41 1.924 0 3.402 1.544 4.52 4.725l10.533 29.314c.121.336.443.561.797.561.359 0 .678-.225.797-.561l10.535-29.32c1.115-3.176 2.592-4.719 4.521-4.719 1.184 0 2.17.457 3.021 1.41.879.942 1.311 1.992 1.311 3.208v43.571z"/>
    <path fill="#FFFFFF" d="M384.476 86.181c-1.206 0-2.261-.468-3.224-1.431-.963-.962-1.43-2.015-1.43-3.222 0-1.567.436-2.921 1.334-4.14.799-1.083 1.868-1.445 3.451-1.702.393-.064.832-.096 1.311-.096 3.242 0 7.367 1.449 7.934 1.827.229.15.514.183.768.087.252-.095.449-.307.521-.569l2.292-8.404c.109-.415-.107-.85-.508-1.009-.545-.217-5.661-2.177-12.463-2.052-4.008.07-7.508 1.571-10.397 4.458-2.962 2.938-4.464 6.43-4.464 10.385v1.214c0 3.954 1.501 7.459 4.461 10.417 2.959 2.961 6.465 4.461 10.418 4.461 1.182 0 2.225.469 3.188 1.432s1.432 2.006 1.432 3.188c0 1.593-.404 2.925-1.229 4.067-.812 1.109-1.877 1.66-3.461 1.802-.572.05-1.16.073-1.76.073-2.877 0-5.783-.567-8.182-1.598-.221-.097-.479-.091-.7.014-.22.107-.386.307-.448.541l-2.229 8.225c-.116.436.13.887.561 1.025.128.041.281.094.459.156 1.614.563 4.962 1.732 11.012 1.732.446 0 .906-.007 1.379-.02 4.084-.117 7.472-1.553 10.354-4.387 2.962-2.937 4.464-6.43 4.464-10.384v-1.25c0-3.954-1.502-7.446-4.459-10.379-2.941-2.96-6.432-4.461-10.385-4.461zm13.157 16.09c0 3.535-1.297 6.538-3.961 9.181-2.563 2.518-5.573 3.793-9.215 3.898-.461.014-.901.02-1.336.02h-.002c-5.447 0-8.576-.988-10.187-1.545l1.774-6.541c2.41.891 5.191 1.377 7.942 1.377.646 0 1.288-.029 1.906-.082 2.083-.185 3.571-.974 4.683-2.49 1.033-1.426 1.555-3.131 1.555-5.066 0-1.63-.65-3.105-1.926-4.384-1.281-1.28-2.757-1.927-4.386-1.927-3.537 0-6.554-1.297-9.221-3.965-2.671-2.666-3.968-5.684-3.968-9.222v-1.214c0-3.536 1.295-6.539 3.968-9.185 2.603-2.605 5.625-3.903 9.233-3.966 5.279-.091 9.457 1.114 11.103 1.674l-1.824 6.689c-1.7-.673-4.993-1.629-7.849-1.629-.567 0-1.1.04-1.578.118-1.539.25-3.286.66-4.547 2.368-1.102 1.499-1.662 3.229-1.662 5.144 0 1.655.65 3.142 1.925 4.419 1.276 1.281 2.769 1.929 4.42 1.929 3.537 0 6.541 1.297 9.188 3.967 2.666 2.645 3.963 5.647 3.963 9.183v1.249z"/>
    <path fill="#FFFFFF" d="M447.096 86.181c-1.205 0-2.26-.468-3.223-1.431-.961-.962-1.43-2.015-1.43-3.222 0-1.567.438-2.921 1.334-4.14.799-1.083 1.871-1.445 3.455-1.702.389-.064.83-.096 1.309-.096 3.242 0 7.367 1.449 7.932 1.827.23.15.516.183.77.087.256-.095.451-.307.52-.569l2.293-8.404c.113-.415-.104-.85-.504-1.009-.547-.217-5.674-2.177-12.465-2.052-4.012.07-7.512 1.571-10.398 4.458-2.963 2.938-4.465 6.43-4.465 10.385v1.214c0 3.954 1.5 7.459 4.461 10.417 2.959 2.961 6.467 4.461 10.418 4.461 1.184 0 2.225.469 3.189 1.432.961.963 1.43 2.006 1.43 3.188 0 1.593-.404 2.925-1.229 4.067-.814 1.109-1.879 1.66-3.463 1.802-.57.05-1.16.073-1.76.073-2.877 0-5.783-.567-8.18-1.598-.223-.097-.479-.091-.703.014-.217.107-.383.307-.445.541l-2.229 8.225c-.119.436.127.887.561 1.025.129.041.279.094.459.156 1.611.563 4.963 1.732 11.01 1.732.449 0 .908-.007 1.381-.02 4.084-.117 7.469-1.553 10.354-4.387 2.965-2.937 4.467-6.43 4.467-10.384v-1.25c0-3.954-1.502-7.446-4.459-10.379-2.943-2.96-6.437-4.461-10.39-4.461zm13.158 16.09c0 3.535-1.295 6.538-3.961 9.181-2.561 2.518-5.574 3.793-9.213 3.898-.461.014-.906.02-1.338.02-5.447 0-8.576-.988-10.189-1.545l1.773-6.541c2.412.891 5.191 1.377 7.943 1.377.646 0 1.287-.029 1.906-.082 2.082-.185 3.572-.974 4.684-2.49 1.031-1.426 1.553-3.131 1.553-5.066 0-1.63-.65-3.105-1.926-4.384-1.279-1.28-2.754-1.927-4.385-1.927-3.535 0-6.555-1.297-9.221-3.965-2.67-2.666-3.967-5.684-3.967-9.222v-1.214c0-3.536 1.297-6.539 3.967-9.185 2.604-2.605 5.625-3.903 9.234-3.966 5.268-.091 9.459 1.114 11.102 1.674l-1.824 6.689c-1.699-.673-4.992-1.629-7.848-1.629-.568 0-1.1.04-1.58.118-1.539.25-3.285.66-4.545 2.368-1.102 1.499-1.664 3.229-1.664 5.144 0 1.655.65 3.142 1.926 4.419 1.277 1.281 2.768 1.929 4.42 1.929 3.537 0 6.541 1.297 9.189 3.967 2.668 2.645 3.963 5.647 3.963 9.183v1.249z"/>
  </g>
</svg>
