<?xml version="1.0" encoding="UTF-8"?>
<svg width="343.64" height="70.468" version="1.1" viewBox="0 0 343.64 70.468" xmlns="http://www.w3.org/2000/svg">
 <path d="m273.13 70.468h28.176l42.33-70.468h-28.166l-42.34 70.468" fill="#498cc1"/>
 <g stroke="#000" stroke-width=".90962px">
  <path d="m110.59 19.225v38.398h23.039c7.1672-1.1755 11.266-5.1906 12.825-11.519 0.014335-5.1241 0.0024575-10.235 0-15.359-1.5591-6.3289-5.6579-10.344-12.825-11.519h-23.039zm9.0108 7.7052h10.214c3.2079 0.56902 6.2519 1.5749 7.7052 6.3997l-0.025558 10.24c-1.466 4.8178-4.4974 5.8307-7.7053 6.3997h-10.214l0.025558-23.039z"/>
  <path d="m11.992 57.631v-29.429h-11.527l-0.0035478-8.9577h35.863l-3.8446 8.9577-8.9648 0.0035224v29.425l-11.523 3.031e-5"/>
  <path d="m40.165 19.25-14.079 38.373h11.545l4.4542-14.054 4.4798 6.3997h7.6797l2.5599 7.6541h11.622l-14.182-38.373h-14.079zm6.9885 10.214 4.531 11.545h-8.9596l4.4286-11.545z"/>
  <path d="m69.594 57.631v-38.387h14.11l14.085 28.164v-28.164h8.9646l-0.0073725 38.387h-14.083l-14.087-28.139-0.0036043 28.139h-8.9787"/>
  <path d="m156.68 39.74-15.356-20.495h11.517l8.3516 12.777 8.3114-12.777h12.782l-15.403 20.431 0.028343 17.955h-10.221l-0.0099938-17.891"/>
 </g>
 <path d="m236.15 70.468h28.176l42.33-70.468h-28.166l-42.34 70.468" fill="#197123"/>
 <path d="m199.16 70.468h28.176l42.33-70.468h-28.166l-42.34 70.468" fill="#ae1f19"/>
</svg>
