<svg xmlns:dc="http://purl.org/dc/elements/1.1/" xmlns:cc="http://creativecommons.org/ns#" xmlns:rdf="http://www.w3.org/1999/02/22-rdf-syntax-ns#" xmlns:svg="http://www.w3.org/2000/svg" xmlns="http://www.w3.org/2000/svg" xmlns:sodipodi="http://sodipodi.sourceforge.net/DTD/sodipodi-0.dtd" xmlns:inkscape="http://www.inkscape.org/namespaces/inkscape" x="0px" y="0px" width="343.64014" height="70.467651" viewBox="0 0 343.64012 70.467654" inkscape:version="0.48.5 r10040" sodipodi:docname="coco.svg">
  <defs>
    <inkscape:path-effect effect="spiro" is_visible="true"/>
    <inkscape:path-effect effect="spiro" is_visible="true"/>
    <inkscape:path-effect effect="spiro" is_visible="true"/>
    <inkscape:path-effect effect="spiro" is_visible="true"/>
    <inkscape:path-effect effect="spiro" is_visible="true"/>
    <inkscape:path-effect effect="spiro" is_visible="true"/>
    <inkscape:path-effect effect="spiro" is_visible="true"/>
    <inkscape:path-effect effect="spiro" is_visible="true"/>
    <inkscape:path-effect effect="spiro" is_visible="true"/>
    <inkscape:path-effect effect="spiro" is_visible="true"/>
    <inkscape:path-effect effect="spiro" is_visible="true"/>
    <inkscape:path-effect effect="spiro" is_visible="true"/>
  </defs>
  <sodipodi:namedview pagecolor="#ffffff" bordercolor="#666666" borderopacity="1" objecttolerance="10" gridtolerance="10" guidetolerance="10" inkscape:pageopacity="0" inkscape:pageshadow="2" inkscape:window-width="1366" inkscape:window-height="706" showgrid="false" showguides="true" inkscape:guide-bbox="true" fit-margin-top="0" fit-margin-left="0" fit-margin-right="0" fit-margin-bottom="0" inkscape:zoom="1.4142136" inkscape:cx="231.6025" inkscape:cy="39.281553" inkscape:window-x="-8" inkscape:window-y="-8" inkscape:window-maximized="1" inkscape:current-layer="Ebene_1"/>
  <path inkscape:connector-curvature="0" inkscape:original-d="m 333.43068,86.023995 34.39609,0 51.67494,-86.0239913326731 -34.38444,0 z" inkscape:path-effect="#path-effect4001-2" d="M273.1339528 70.46764629h28.17599327L343.6401284.000003h-28.16645002L273.1339528 70.4676463" fill="#498cc1"/>
  <path d="M110.5869288 19.22472415v38.39825062h23.03895037c7.16715738-1.17552875 11.26590338-5.19060302 12.8250157-11.51947519.01433535-5.12411159.0024575-10.23516654 0-15.35930025-1.55911232-6.32887216-5.65785832-10.34394561-12.8250157-11.51947518h-23.03895038zm9.01078947 7.70524896h10.21393467c3.20792297.5690166 6.25189872 1.57490332 7.70524896 6.39970843l-.02555788 10.2395335c-1.46597353 4.81778898-4.49736694 5.83069183-7.70528991 6.39970844h-10.21393467l.02555787-23.03895037z" inkscape:connector-curvature="0" fill="#000000" stroke="#000000" stroke-width=".909623647894px"/>
  <path inkscape:connector-curvature="0" inkscape:original-d="m 14.639798,70.353531 0,-35.925714 -14.07128834,0 -0.004331,-10.935179 43.77975934,0 -4.693319,10.935179 -10.943856,0.0043 0,35.921377 z" inkscape:path-effect="#path-effect3898" d="M11.99235954 57.630987V28.20198284H.46568527l-.0035478-8.95769054h35.862745l-3.84459177 8.95769054-8.96479841.0035224v29.42545145l-11.52313275.00003031" fill="#000000" stroke="#000000" stroke-width=".909623647894px"/>
  <path d="M40.1645396 19.25032298l-14.07935856 38.3726518h11.54507402l4.45419708-14.05375974 4.4797959 6.39970844h7.67965013l2.55988337 7.6540513h11.62187052l-14.1817539-38.3726518H40.1645396zm6.98848162 10.21393467l4.53099357 11.54507402h-8.95959181l4.42859824-11.54507402z" inkscape:connector-curvature="0" fill="#000000" stroke="#000000" stroke-width=".909623647894px"/>
  <path inkscape:connector-curvature="0" inkscape:original-d="m 84.95721,70.353531 0,-46.860893 17.22477,0 17.19456,34.380961 0,-34.380961 10.94367,0 -0.009,46.860893 -17.19202,0 -17.196758,-34.351152 -0.0044,34.351152 z" inkscape:path-effect="#path-effect3910" d="M69.5937592 57.630987V19.2442923h14.10988876l14.08514185 28.16360016V19.2442923h8.96464605l-.00737247 38.3866947H92.66300222L78.57605985 29.49180527 78.57245553 57.630987h-8.97869632" fill="#000000" stroke="#000000" stroke-width=".909623647894px"/>
  <path sodipodi:nodetypes="cccccccccc" inkscape:connector-curvature="0" inkscape:original-d="m 191.27104,48.512593 -18.74565,-25.019955 14.05901,0 10.19528,15.597603 10.14621,-15.597603 15.60376,0 -18.80379,24.941709 0.0346,21.919184 -12.47726,0 z" inkscape:path-effect="#path-effect3993" d="M156.6820811 39.7397057l-15.35573688-20.4954134h11.5166163l8.3515929 12.77697428 8.31139657-12.77697428h12.78201786l-15.40336301 20.4313172.02834303 17.9553775h-10.22090574l-.00999379-17.8912813" fill="#000000" stroke="#000000" stroke-width=".909623647894px"/>
  <path inkscape:connector-curvature="0" inkscape:original-d="m 288.27612,86.023995 34.39609,0 L 374.34715,0 339.96271,0 z" inkscape:path-effect="#path-effect4001-2-5" d="M236.14502242 70.46764629h28.17599326L306.65119802 0H278.484748l-42.33972558 70.46764629" fill="#197123"/>
  <path inkscape:connector-curvature="0" inkscape:original-d="m 243.12157,86.024002 34.39609,0 L 329.1926,3.6673269e-6 l -34.38444,0 z" inkscape:path-effect="#path-effect4001-2-5-1" d="M199.15610022 70.46765202h28.17599327L269.66227583.000003H241.4958258l-42.33972559 70.46764902" fill="#ae1f19"/>
  <text style="line-height:125%;-inkscape-font-specification:Open Sans Light" x="295.30255" y="32.581753" sodipodi:linespacing="125%" font-size="40px" letter-spacing="0px" word-spacing="0px" fill="#000000" font-family="Open Sans Light">
    <tspan sodipodi:role="line" x="295.30255" y="32.581753" style="-inkscape-font-specification:Ebrima" font-family="Ebrima"/>

  </text>
</svg>
