<svg xmlns="http://www.w3.org/2000/svg" xmlns:xlink="http://www.w3.org/1999/xlink" x="0px" y="0px" width="566.929px" height="414.158px">
  <polygon points="553.498,406.019 550.593,406.019 550.593,405.015 557.509,405.015 557.509,406.019 554.63,406.019 554.63,413.829 
		553.498,413.829 	"/>
  <polygon points="562.205,413.829 559.798,406.672 559.798,413.829 558.636,413.829 558.636,405.015 560.244,405.015 
		562.783,412.51 565.319,405.015 566.929,405.015 566.929,413.829 565.772,413.829 565.772,406.672 563.364,413.829 	"/>
  <path d="M2.628 330.307c0-3.061-.582-7.026-1.934-8.693 8.86 0 28.003.058 36.209.058 18.88 0 47.363 10.479 47.363 45.807 0 26.221-20.107 45.754-47.363 45.754-5.979 0-28.806-.07-36.903-.07 1.661-3.066 2.628-7.223 2.628-10.507v-72.349zm13.578 73.95c8.714 1.13 16.758 1.479 24.037.438 7.042-1.008 30.704-6.102 30.558-37.521-.14-29.773-18.526-36.579-32.695-37.412-7.393-.436-14.53-.157-21.899 1.119l-.001 73.376z"/>
  <path d="M92.044 349.744l13.566-2.118v11.944c3.48-8.597 14.305-15.507 29.692-9.521l-3.607 9.444c-14.081-6.683-26.084-.82-26.084 14.818v32.265c0 1.537.333 4.637 1.253 6.625H92.771c1.425-1.755 2.083-5.088 2.083-6.625v-46.543c-.001-3.376-.688-8.601-2.81-10.289z"/>
  <path d="M520.917 356.219v41.216c0 12.935 8.918 16.396 15.525 16.396 2.796.138 6.749-.517 9.516-1.13l1.701-7.985c-3.224 1.229-6.968 1.521-9.213 1.521-4.141 0-7.137-2.752-7.137-7.049 0-3.86-.1-41.69 0-42.9h-.047c.553 0 9.145-.031 10.011 0 2.819.099 4.983.271 6.843 1.021l.012-7.521s-16.502-.021-16.822-.021l.066-19.288-12.502 3.455c1.727 1.611 2.283 6.331 2.283 9.441 0 0-.008 5.764-.008 6.459-.563 0-6.908.031-7.959.031v6.354c1.112-.003 7.731 0 7.731 0z"/>
  <path d="M466.882 399.802c5.377 3.838 13.81 7.246 19.994 7.246 8.582 0 14.725-4.175 14.725-12.029 0-14.506-33.068-12.104-33.068-30.505 0-12.442 11.127-17.122 21.729-17.122 3.406 0 11.185.74 16.132 2.653l-.041 8.497c-4.394-3.754-11.099-4.662-15.517-4.662-7.019 0-12.283 3.481-12.283 10.308 0 10.022 33.039 9.443 33.039 30.016 0 13.303-11.527 19.507-24.213 19.507-6.184 0-12.625-1.098-17.99-2.632l-2.507-11.277z"/>
  <path d="M267.287 356.349c0-.753.03-7.491.03-8.354l-13.733 2.124c1.654 1.734 2.923 7.145 2.923 11.013v45.001c0 1.536-.655 5.261-2.081 7.016H269.4c-1.424-1.755-2.081-5.479-2.081-7.016v-33.86c0-12.39 7.664-16.726 15.291-16.726 6.904 0 13.144 2.988 13.144 16.726v33.86c0 1.536-.66 5.261-2.08 7.016h14.522c-1.428-1.755-2.082-5.479-2.082-7.016v-33.86c0-13.736 8.486-16.726 15.399-16.726 6.9 0 14.123 4.333 14.123 16.726v33.86c0 1.536-.656 5.261-2.082 7.016h13.982c-1.429-1.755-2.082-5.479-2.082-7.016v-40.289c0-6.866-7.004-17.869-23.367-17.869-9.519 0-15.015 4.234-19.188 7.878-3.547-4.143-9.325-8.027-18.61-8.027-9.05-.003-14.392 5.298-17.002 8.523z"/>
  <path d="M234.902 377.46c-1.959 1.844-6.063 3.276-10.302 3.832-11.13 1.459-20.772 3.308-20.772 14.151 0 6.431 7.008 11.495 12.564 11.495 14.712 0 18.513-10.612 18.513-18.976v-10.504l-.003.002zm-34.751-26.537c5.614-2.251 14.677-3.281 20.355-3.281 14.51 0 24.15 7.248 24.15 24.078v27.916c0 5.172.076 10.068 1.921 13.508h-11.663l-.418-7.345c-4.419 5.701-9.693 8.253-18.652 8.253-17.67 0-21.53-12.074-21.53-17.879 0-20.707 19.708-20.95 28.267-22.171 4.734-.67 10.83-2.009 11.745-6.448 1.512-7.345-3.741-12.852-14.467-12.852-7.871 0-14.321 2.395-19.707 5.618l-.001-9.397zm250.696 26.537c-1.957 1.844-6.064 3.276-10.305 3.832-11.129 1.459-20.771 3.308-20.771 14.151 0 6.431 7.007 11.495 12.563 11.495 14.711 0 18.513-10.612 18.513-18.976V377.46zm-34.751-26.537c5.614-2.251 14.678-3.281 20.358-3.281 14.506 0 24.147 7.248 24.147 24.078v27.916c0 5.172-1.129 9.964 1.916 13.508h-11.661l-.421-7.345c-4.419 5.701-9.69 8.253-18.647 8.253-17.666 0-21.529-12.074-21.529-17.879 0-20.707 19.709-20.95 28.267-22.171 4.738-.67 10.834-2.009 11.745-6.448 1.511-7.345-3.738-12.852-14.467-12.852-7.87 0-14.321 2.395-19.709 5.618l.001-9.397z"/>
  <path d="M403.681 359.484c-4.377-2.556-11.282-4.582-16.102-4.582-16.91 0-24.662 10.401-24.662 25.382 0 14.843 7.574 26.205 24.117 26.205 5.67 0 13.391-2.544 19.379-6.226l-2.438 10.916c-6.096 1.814-11.234 2.678-18.037 2.678-23.246 0-34.143-16.485-34.143-33.642 0-18.962 14.617-32.295 34.396-32.295 8.646 0 14.959 2.121 17.508 2.845l-.018 8.719z"/>
  <path d="M143.455 381.079c.008-1.568.216-3.062.394-4.507h44.978c0-15.465-7.73-28.729-26.052-28.729-19.015 0-30.303 14.87-30.303 33.838 0 17.154 12.569 32.478 34.093 32.478 6.806 0 12.498-1.677 18.639-3.826l2.161-10.966c-5.254 4.325-13.747 6.885-21.409 6.885-13.778-.001-22.564-9.976-22.501-25.173zm1.816-11.366c1.459-7.524 8.419-15.187 16.75-15.187 12.731 0 16.416 9.933 16.416 15.188-.002-.001-33.166.02-33.166-.001z"/>
  <path fill="#CF3311" d="M323.96 4.065c12.496 1.876 25.265 6.241 31.92 8.278 13.412 4.099 35.184 16.841 42.873 22.952 3.638 2.891 11.285 10.458 14.248 14.268 2.881 3.711 8.396 11.75 11.91 16.704 5.598 8.174 12.187 20.35 17.777 31.555 6.244 12.518 6.672 16.145 8.561 26.611l4.127 18.449c.388 3.19.709 14.893-6.16 16.531-6.863 1.641-13.215-1.527-16.207-6.159-4.141-6.408-3.569-15.506-8.254-25.919-3.654-8.417-5.248-20.648-11.084-29.444l-4.574-7.736c-8.096-12.462-16.532-22.355-21.563-28.806-4.436-5.42-12.709-12.79-20.555-18.033-7.256-4.399-18.984-9.416-27.443-11.999-2.693-.877-14.23-4.271-21.402-5.225-9.729-1.092-16.131-2.631-25.377-3.283-11.415-.806-16.89-1.821-31.697-.091-5.61 1.521-14.497 2.125-22.497 5.185-6.459 2.635-15.444 6.89-24.246 12.061-9.473 5.195-23.853 15.817-33.388 24.888-9.611 10.269-14.416 15.78-21.044 28.798-2.935 6.44-8.611 16.404-10.9 23.438-1.563 7.141-4.546 20.46-4.043 26.927.226 11.589-.787 13.977.083 23.448.031 8.528 2.831 14.439 3.996 21.415.997 4.821 5.619 21.496 8.48 25.367 13.003 28.015 30.455 40.147 49.904 48.897 5.481 2.793 22.637 7.383 27.599 8.698 8.462 1.526 19.598 2.544 30.317 2.753 11.276.221 26.821-1.307 36.251-4.779 10.21-3.754 22.016-9.09 21.877-8.941 4.738-2.611 11.967-6.872 14.219-8.746 4.353-2.788 6.975-3.865 9.549-6.553 3.724-3.253 5.972-5.127 8.791-9.161 1.567-2.271 4.061-5.753 6.484-8.827 2.611-4.277 4.112-8.785 6.661-14.363 3.048-8.25 2.575-7.854 3.154-16.615.548-2.539-.06-11.072-.517-12.521-1.377-7.874-.889-14.821-2.692-22.467-2.435-10.343-4.457-18.085-7.563-28.008-2.922-11.174-11.505-21.525-17.945-28.92-3.989-4.582-16.371-15.407-33.547-22.168-4.836-1.626-12.752-3.471-17.779-4.389-10.731-1.122-12.478-.401-22.753.351-3.536.616-11.745 2.295-14.761 3.354-8.827 3.1-12.072 5.069-21.095 10.596-4.2 2.438-7.366 4.305-11.66 8.33-3.427 3.171-5.875 8.562-8.65 11.723-3.801 5.174-8.034 12.074-10.873 19.519-3.079 7.403-4.071 17.827-3.602 24.534 0 5.112 1.39 14.47 1.943 16.517.55 2.05 1.933 8.404 2.232 9.68.301 1.273 3.605 7.996 4.061 8.97 1.863 3.966 5.431 9.665 11.441 15.484 4.434 4.842 13.008 9.596 19.425 11.438 5.755 3.16 15.461 3.694 20.831 3.705 2.643-.157 9.393-.573 12.915-1.418 7.143-1.716 8.462-1.76 15.824-4.958 6.606-3.063 11.088-4.167 15.688-7.566 0 0 6.318-4.948 9.189-8.57 1.514-1.91 4.111-11.02 3.649-16.66-.218-7.723.909-12.104-.67-18.457-1.575-6.354-4.265-13.718-7.181-18.256-2.955-4.596-9.305-9.075-16.532-12.641-4.048-1.999-13.637-3.852-17.704-4.333-7.728-.918-14.19 2.59-18.114 6.601-3.402 3.889-10.129 11.968-7.45 20.321 2.425 7.558 5.352 15.61 16.688 15.012 7.778 1.619 16.777-.73 19.772.649 4.447 2.524 6.158 8.103 4.541 11.991-1.129 7.5-8.311 8.398-15.978 8.97-6.859 1.148-24.279-2.208-28.107-5.077-2.569-1.526-6.5-5.192-9.271-7.667-1.991-1.781-4.245-5.753-5.784-8.605-1.89-3.505-2.844-6.082-3.331-8.365-.578-2.712-1.766-7.889-1.316-13.064.304-3.49 1.238-4.977 2.169-10.08 1.854-5.788 4.155-10.192 7.858-15.212 4.825-4.896 10.953-10.728 16.935-13.435 5.274-2.787 14.515-3.813 22.875-3.323 6.781.647 14.803 1.475 20.11 3.253 9.075 3.244 11.672 3.891 19.123 8.591 6.297 3.896 12.633 11.065 16.168 17.004 7.521 15.39 11.836 32.511 8.696 55.557-.254 3.895-1.47 7.699-3.896 12.854-2.242 4.758-6.172 10.544-12.07 14.903-2.379 2.197-6.124 4.901-9.176 6.488-4.324 2.625-7.237 3.992-11.754 6.264-3.967 1.865-8.592 3.994-14.621 5.671-6.534 2.583-11.546 2.688-19.766 3.915-8.089 2.029-30.22.58-43.403-5.234-9-3.785-19.096-10.451-26.771-18.583-4.264-4.47-8.435-12.575-9.66-14.234-6.104-11.734-7.3-22.771-8.279-25.09-1.329-3.15-1.991-10.213-2.882-15.047-1.005-5.418-.383-28.14 5.088-42.723 3.084-5.807 4.889-10.981 6.976-13.701 3.751-5.336 5.565-8.67 8.754-12.452 4.809-5.832 8.31-10.591 12.995-13.946 11.936-9.706 21.907-14.827 35.394-21.232 16.758-6.825 21.791-5.413 37.651-5.161 7.136.063 17.521 2.306 22.624 3.236 9.479 1.263 14.909 3.546 21.321 5.335 6.855 1.915 10.82 4.969 16.447 8.369 4.631 2.991 10.078 7.087 13.678 10.413 9.209 6.753 13.652 13.851 19.295 22.568 1.025 1.461 7.726 15.745 8.793 19.723.496 1.991 2.015 7.709 2.984 11.05 1.254 5.302 1.859 9.996 3.256 15.978 1.25 6.162 3.375 17.798 4.299 28.674 1.551 9.328-.934 28.37-2.397 34.214-3.261 10.9-8.967 24.203-20.233 37.016-4.782 5.673-9.871 10.07-15.748 14.842-4.496 3.752-8.354 5.934-15.299 10.081-9.433 5.628-16.609 9.222-29.83 14.392-5.381 1.726-12.164 4-19.476 5.511-14.162 1.309-28.713 2.564-44.597.676-15.887-1.891-31.8-6.366-41.2-9.253-5.187-1.947-15.235-6.158-19.449-8.428-2.742-1.392-11.932-7.68-13.492-9.189-6.298-3.896-20.392-17.152-29.492-29.507-1.994-3.819-9.164-15.272-10.719-20.292-4.134-8.489-7.016-18.757-8.708-23.143-1.786-10.237-4.804-16.83-5.981-27.107.135-2.419-.487-8.111-1.035-11.262.801-7.034-.269-13.663 1.128-21.32 1.226-6.462 2.849-9.16 3.235-15.002.378-2.498 3.594-10.013 4.45-13.358 2.595-5.507 3.241-10.045 6.628-16.199 4.88-9.592 9.982-20.627 17.822-30.267 2.238-2.988 8.586-10.157 10.75-12.643 5.114-5.112 8.115-5.92 13.917-11.052.604-.379 4.434-4.747 8.446-6.249 6.648-5.137 12.393-7.021 18.72-11.693 12.683-6.321 17.306-8.453 29.893-13.691 7.274-2.595 17.418-4.029 21.071-5.447 6.949-.431 14.002-2.648 21.313-2.207 8.207-.077 16.475.507 24.723 1.258 5.579.343 12.837.614 22.678 2.748z"/>
</svg>
