<svg xmlns="http://www.w3.org/2000/svg" xmlns:xlink="http://www.w3.org/1999/xlink" x="0px" y="0px" width="566.929px" height="71.161px">
  <polygon points="0,0 30.1,0 30.1,10.491 10.546,10.491 10.546,23.218 30.1,23.218 30.1,34.042 10.546,34.042 10.546,56.66 0,56.66 
			"/>
  <path d="M64.333 56.66H54.079v-8.821H34.215L28.33 56.66H16.256L55.981 0h8.351v56.66zM54.079 37.134V20.602L41.946 37.134h12.133z"/>
  <polygon points="68.35,0 80.243,0 97.014,38.086 113.903,0 125.916,0 125.916,56.66 115.33,56.66 115.33,28.095 102.247,56.66 
		91.542,56.66 78.935,28.095 78.935,56.66 68.35,56.66 	"/>
  <polygon points="323.292,0 335.186,0 351.956,38.086 368.845,0 380.858,0 380.858,56.66 370.272,56.66 370.272,28.095 
		357.189,56.66 346.485,56.66 333.876,28.095 333.876,56.66 323.292,56.66 	"/>
  <rect x="129.255" width="10.956" height="56.66"/>
  <polygon points="143.228,0 154.183,0 154.183,46.331 168.458,46.331 168.458,56.66 143.228,56.66 	"/>
  <polygon points="156.286,0 168.458,0 179.968,23.218 191.145,0 203.207,0 185.058,36.039 185.058,56.66 174.435,56.66 
		174.435,36.039 	"/>
  <path d="M262.755 15.627C257.943 6.46 248.333.208 237.262.208c-15.891 0-28.772 12.882-28.772 28.772 0 15.89 12.882 28.773 28.772 28.773 11.15 0 20.819-6.342 25.595-15.616l-13.038.107c-3.214 2.964-7.508 4.774-12.225 4.774-9.962 0-18.038-8.076-18.038-18.039s8.076-18.038 18.038-18.038c4.65 0 8.89 1.76 12.089 4.649l13.072.037z"/>
  <path d="M291.226 57.903c-15.973 0-28.923-12.949-28.923-28.923 0-15.974 12.95-28.923 28.923-28.923 15.974 0 28.923 12.949 28.923 28.923 0 15.974-12.949 28.923-28.923 28.923zm18.41-28.923c0-10.106-8.193-18.299-18.299-18.299s-18.3 8.193-18.3 18.299 8.193 18.299 18.3 18.299c10.106 0 18.299-8.193 18.299-18.299z"/>
  <path d="M403.423.007c9.588.771 17.129 8.796 17.129 18.583 0 9.786-7.541 17.812-17.129 18.582l-8.281-.038V56.66h-10.624V0h10.624l8.281.007zm-8.281 10.898v15.368l8.282-.006c3.624-.677 6.367-3.857 6.367-7.677 0-3.821-2.743-7-6.367-7.678l-8.282-.007z"/>
  <path d="M537.271 57.397h-10.513V.488l14.607-.021 8.281.007c9.588.771 17.129 8.796 17.129 18.583 0 7.996-5.034 14.817-12.107 17.464l12.261 20.876h-11.51l-17.18-29.354h-.969v29.354zM549.648 26.734c3.623-.677 6.367-3.857 6.367-7.677 0-3.821-2.744-7-6.367-7.678h-12.377v15.363l12.377-.008z"/>
  <path d="M434.39799999999997 32.74l.006 8.282c.678 3.624 3.857 6.366 7.677 6.366 3.821 0 7.001-2.742 7.679-6.366l.008-8.282.025-32.252h10.878V32.74l-.007 8.282c-.771 9.588-8.796 17.128-18.583 17.128-9.786 0-17.812-7.54-18.582-17.128l.038-8.282-.018-32.252h10.916l-.037 32.252z"/>
  <polygon points="471.537,57.397 482.271,57.397 482.271,11.214 491.899,11.214 491.899,0.488 462.242,0.488 462.242,11.214 
		471.537,11.214 	"/>
  <polygon points="523.992,57.397 494.5,57.397 494.5,0.488 523.992,0.488 523.992,10.905 505.068,10.905 505.068,24.419 
		523.992,24.419 523.992,35.043 505.068,35.043 505.068,46.884 523.992,46.884 	"/>
  <polygon points="0,65.649 0,71.161 555.419,71.161 566.929,65.649 	"/>
</svg>
