<svg xmlns:svg="http://www.w3.org/2000/svg" xmlns="http://www.w3.org/2000/svg" xmlns:xlink="http://www.w3.org/1999/xlink" x="0px" y="0px" width="566.929px" height="67.639px">
  <path d="M213.297 56.3c-4.779 6.492-9.51 8.334-11.58 9.33-2.068.998-5.201 1.779-7.941 1.779-7.689 0-13.688-2.507-18-7.5-4.314-5.016-6.469-12.047-6.469-21.165 0-10.782 2.719-19.923 8.182-27.471C182.948 3.75 190.19 0 199.214 0c6.846 0 12.445 1.922 16.828 5.789 4.383 3.844 6.564 9.891 6.564 18.117h-13.244c0-3.938-.867-6.703-2.604-8.297-1.732-1.57-4.219-2.367-7.477-2.367-5.32 0-9.422 2.601-12.352 7.781-2.906 5.204-4.385 11.109-4.385 17.742 0 4.524.963 8.229 2.838 11.086 1.898 2.885 4.732 4.313 8.508 4.313 3.938 0 6.984-1.125 9.188-3.353 2.18-2.202 3.797-5.063 4.828-8.556h-12.33l1.996-12h24.045l-2.039 11.625c.003.005-1.521 7.928-6.281 14.42z"/>
  <polygon points="327.629,1.666 316.872,65.84 305.293,65.84 314.411,16.104 294.299,65.84 284.809,65.84 
			280.426,16.127 273.508,65.84 261.792,65.84 272.5,1.666 288.934,1.666 292.614,46.855 311.083,1.547 		"/>
  <polygon points="339.887,26.509 358.803,26.509 356.831,38.956 337.918,38.956 335.481,52.62 356.831,52.62 
			354.725,65.84 321.067,65.84 331.708,1.594 364.965,1.594 362.928,14.907 341.997,14.907 		"/>
  <path d="M239.081 1.547L213.206 65.84h12.609l4.617-12.541h16.5l1.078 12.541h12.211l-7.313-64.292h-13.827zm-4.641 40.784l9.377-25.571 2.178 25.571H234.44z"/>
  <path d="M430.284 56.3c-4.781 6.492-9.51 8.334-11.58 9.331-2.068.997-5.201 1.779-7.941 1.779-7.688 0-13.688-2.508-18-7.5-4.314-5.016-6.471-12.046-6.471-21.164 0-10.782 2.721-19.923 8.182-27.471C399.935 3.752 407.177.002 416.201.002c6.844 0 12.445 1.922 16.828 5.789 4.385 3.845 6.563 9.893 6.563 18.118h-13.24c0-3.938-.867-6.703-2.604-8.297-1.732-1.569-4.219-2.367-7.477-2.367-5.32 0-9.422 2.601-12.352 7.781-2.908 5.204-4.383 11.109-4.383 17.743 0 4.523.961 8.228 2.834 11.085 1.9 2.885 4.734 4.313 8.51 4.313 3.938 0 6.984-1.125 9.188-3.352 2.18-2.203 3.797-5.063 4.83-8.556h-12.33l1.992-12h24.047l-2.039 11.625c-.001.001-1.526 7.924-6.284 14.416z"/>
  <polygon points="454.991,26.532 473.879,26.532 471.936,38.956 453.02,38.956 450.561,52.62 471.936,52.62 
			469.827,65.862 436.168,65.862 446.809,1.594 480.069,1.594 478.03,14.906 457.098,14.906 		"/>
  <path d="M496.801 1.572l-25.875 64.292h12.635l4.592-12.54h16.525l1.076 12.54h12.189l-7.314-64.292h-13.828zm-4.617 40.758l9.354-25.572 2.203 25.572h-11.557z"/>
  <path d="M537.491 29.836l2.813-15.819h6.75c2.484 0 4.336.444 5.578 1.336 1.242.914 1.852 2.718 1.852 5.437 0 3.047-1.008 5.297-3 6.798-2.018 1.5-4.57 2.249-7.664 2.249h-6.329v-.001zm-7.617-28.242l-10.641 64.268h12.303l4.127-24.493h5.695l9.516 24.493h14.109l-10.547-27.118c3.68-1.875 6.844-4.993 9.047-8.25 2.297-3.352 3.445-7.266 3.445-11.743 0-6.07-1.359-10.43-4.102-13.125-2.719-2.694-6.588-4.031-11.555-4.031h-21.397v-.001z"/>
  <path fill="#D61808" d="M10.274 26.281C21.131 8.071 36.077-3.295 43.657.855c7.564 4.168 4.898 22.308-5.979 40.506C26.819 59.572 11.875 70.936 4.313 66.784c-7.582-4.165-4.9-22.307 5.961-40.503z"/>
  <path fill="#008400" d="M58.846 26.281C69.704 8.071 84.649-3.295 92.227.855c7.564 4.168 4.898 22.308-5.979 40.506-10.857 18.211-25.802 29.575-33.365 25.423-7.58-4.165-4.898-22.307 5.963-40.503z"/>
  <path fill="#0000FF" d="M107.418 26.281C118.273 8.07 133.221-3.295 140.799.854c7.564 4.168 4.898 22.308-5.979 40.506-10.859 18.211-25.801 29.575-33.365 25.423-7.581-4.164-4.898-22.306 5.963-40.502z"/>
</svg>
