<svg xmlns:sodipodi="http://sodipodi.sourceforge.net/DTD/sodipodi-0.dtd" xmlns:rdf="http://www.w3.org/1999/02/22-rdf-syntax-ns#" xmlns:cc="http://web.resource.org/cc/" xmlns:dc="http://purl.org/dc/elements/1.1/" xmlns:inkscape="http://www.inkscape.org/namespaces/inkscape" xmlns:svg="http://www.w3.org/2000/svg" inkscape:version="0.44.1" sodipodi:version="0.32" sodipodi:docbase="C:\Documents and Settings\Matias\Desktop" sodipodi:docname="Figura1.svg" xmlns="http://www.w3.org/2000/svg" xmlns:xlink="http://www.w3.org/1999/xlink" x="0px" y="0px" width="566.929px" height="98.574px">
  <sodipodi:namedview width="1000px" height="200px" guidetolerance="10.0" gridtolerance="10.0" bordercolor="#666666" objecttolerance="10.0" inkscape:cx="652.10241" pagecolor="#ffffff" borderopacity="1.0" inkscape:cy="-180.96718" inkscape:zoom="0.70710678" inkscape:window-height="844" inkscape:window-x="-4" inkscape:pageopacity="0.0" inkscape:window-width="1440" inkscape:pageshadow="2" inkscape:current-layer="_42677040" inkscape:window-y="-4"/>
  <polygon fill="#2E3192" points="488.614,0.917 512.645,0.917 524.514,28.215 542.313,0.917 566.928,0.917 
		532.221,54.913 526.586,97.041 504.338,97.041 510.862,48.973 	"/>
  <polygon fill="#2E3192" points="311.799,97.041 314.766,75.671 280.951,75.671 283.027,59.066 312.393,59.066 
		315.362,37.706 286.29,37.706 288.368,22.276 322.182,22.276 325.446,0.917 269.379,0.917 256.029,97.041 	"/>
  <path fill="#2E3192" d="M112.146 49.565l7.416-19.874 2.375 19.874h-9.791zm-8.009 18.987h20.172l3.563 28.48h36.488l16.91-52.213 8.309 52.213h19.283l21.359-55.179 3.561 55.179h21.359L249.207.913h-25.514L203.818 51.64 196.103.913h-22.842l-26.105 78.912L137.365.913h-28.48l-31.744 79.8 4.154-31.149H42.729l-2.672 18.987h16.912l-1.188 6.526c-2.967 1.778-9.789 2.076-12.459 2.076s-22.545-1.779-21.656-23.14c.889-21.358 29.369-41.234 63.188-30.258l3.266-20.47C65.572-4.427 6.354-.111.305 52.828c-3.559 31.149 24.921 45.983 43.906 45.688 10.977.594 23.438-3.561 27.887-5.935l-1.482 4.451h22.547l10.974-28.48z"/>
  <path fill="#2E3192" d="M464.581.028c-15.428-.594-37.678 8.306-45.094 44.204-7.416 35.894 12.459 50.431 30.852 52.804 18.396 2.373 44.205-9.196 48.951-43.609C504.038 19.013 487.125.919 464.581.028zm-2.373 20.47c6.229 0 19.578 4.154 16.314 29.071-3.262 24.92-18.688 27.887-24.326 27.293-5.637-.594-17.207-4.448-13.943-27.293 3.263-22.841 15.425-29.368 21.955-29.071z"/>
  <path fill="#2E3192" d="M370.833 37.706h12.461c9.197 0 10.977-5.934 11.271-8.305.297-2.375-2.371-7.122-7.117-7.122h-14.537l-2.078 15.427zm-5.34 37.971h16.912c9.195 0 11.271-7.119 11.566-9.493.299-2.373-2.371-7.118-7.117-7.118h-18.986l-2.375 16.611zm-24.918 21.361L353.925.92h40.938c9.793 0 24.031 11.274 22.252 26.403-1.779 15.13-6.527 16.02-9.791 18.393 5.045 4.447 10.088 11.568 8.012 24.918-2.078 13.352-13.055 26.403-32.338 26.403l-42.423.001z"/>
  <path fill="#2E3192" d="M538.618 82.498c-3.66 0-6.615 2.951-6.615 6.593 0 3.681 2.953 6.633 6.615 6.633 3.641 0 6.592-2.952 6.592-6.633-.001-3.643-2.954-6.593-6.592-6.593v-.907c4.15 0 7.498 3.366 7.498 7.5 0 4.172-3.348 7.538-7.498 7.538-4.174-.001-7.539-3.366-7.539-7.538 0-4.135 3.365-7.499 7.539-7.499v.906z"/>
  <path fill="#2E3192" d="M536.84 85.638h2.402c1.045 0 2.182.157 2.182 1.457 0 1.711-1.828 1.516-3.01 1.516l-1.574-.001v.808h1.891l2.402 3.878h1.219l-2.539-3.878c1.496-.038 2.656-.649 2.656-2.302 0-.71-.313-1.457-.945-1.813-.627-.374-1.338-.413-2.047-.413h-3.658v8.404h1.021v-7.656z"/>
</svg>
