<svg xmlns="http://www.w3.org/2000/svg" xmlns:xlink="http://www.w3.org/1999/xlink" x="0px" y="0px" width="566.93px" height="124.23px">
  <g/>
  <g/>
  <line fill="none" x1="29.248" y1="99.123" x2="28.12" y2="98.282"/>
  <linearGradient id="a" gradientUnits="userSpaceOnUse" x1="24.4146" y1="564.8718" x2="104.7434" y2="551.509" gradientTransform="translate(-.0049 -473.4258)">
    <stop offset="0.0368" stop-color="#FFFFFF"/>
    <stop offset="0.8957" stop-color="#898CBF"/>
  </linearGradient>
  <polygon fill="url(#a)" points="89.451,62.438 89.451,82.608 53.699,103.224 18.222,82.608 16.628,83.691 53.699,105.427 
				91.065,83.824 91.065,61.505 			"/>
  <polygon fill="#7A7EAE" points="89.451,82.52 91.065,83.685 91.065,83.824 90.963,83.9 89.308,82.69 89.451,82.608 			"/>
  <linearGradient id="b" gradientUnits="userSpaceOnUse" x1="28.4609" y1="68.8367" x2="54.0488" y2="68.8367" gradientTransform="matrix(1 0 0 -1 -.0449 123.9897)">
    <stop offset="0" stop-color="#6E70A9"/>
    <stop offset="0.9693" stop-color="#514A8E"/>
  </linearGradient>
  <polygon fill="url(#b)" points="54.004,62.205 28.814,47.455 28.416,47.853 53.699,62.851 			"/>
  <linearGradient id="c" gradientUnits="userSpaceOnUse" x1="53.8574" y1="61.6809" x2="54.185" y2="61.6809" gradientTransform="matrix(1 0 0 -1 -.0449 123.9897)">
    <stop offset="0" stop-color="#6E70A9"/>
    <stop offset="0.9693" stop-color="#514A8E"/>
  </linearGradient>
  <polygon fill="url(#c)" points="53.922,62.205 54.107,62.205 54.14,62.413 53.813,62.413 			"/>
  <polygon fill="#120F22" points="54.004,62.851 54.004,62.205 107.627,31.206 107.785,31.647 			"/>
  <polygon fill="#453D76" points="54.004,124.23 54.363,105.729 91.582,84.28 91.72,61.312 91.065,61.312 91.065,83.824 
				53.699,105.427 53.565,124.23 			"/>
  <linearGradient id="d" gradientUnits="userSpaceOnUse" x1="64.0845" y1="540.3259" x2="108.7263" y2="569.6315" gradientTransform="translate(-.0049 -473.4258)">
    <stop offset="0" stop-color="#4C5284"/>
    <stop offset="1" stop-color="#8789BC"/>
  </linearGradient>
  <polygon fill="url(#d)" points="54.004,91.212 54.004,62.851 107.785,31.647 107.785,93.197 54.004,124.23 
				54.004,105.573 91.361,84.062 91.361,61.332 78.85,68.566 78.85,76.595 			"/>
  <linearGradient id="e" gradientUnits="userSpaceOnUse" x1="53.4639" y1="596.9988" x2="53.1529" y2="577.0955" gradientTransform="translate(-.0049 -473.4258)">
    <stop offset="0.1104" stop-color="#4C407E"/>
    <stop offset="0.8896" stop-color="#666699"/>
    <stop offset="1" stop-color="#A7B3D9"/>
    <stop offset="1" stop-color="#9BA5CD"/>
  </linearGradient>
  <polyline fill="url(#e)" points="53.402,124.23 53.699,124.23 53.699,105.427 52.642,104.806 53.402,124.23 			"/>
  <polyline fill="#2D2868" points="16.542,40.703 16.771,40.897 16.862,83.532 16.628,83.691 16.486,83.601 16.542,40.703 			"/>
  <polygon fill="#453D76" points="18.222,82.608 16.628,83.691 16.628,40.755 54.004,19.174 54.004,21.3 18.26,41.987 			"/>
  <polygon fill="#453D76" points="54.004,62.094 54.004,91.212 53.699,91.417 53.699,62.851 53.699,62.028 			"/>
  <g>
    <linearGradient id="f" gradientUnits="userSpaceOnUse" x1="4.8237" y1="553.1326" x2="66.0259" y2="536.1235" gradientTransform="translate(-.0049 -473.4258)">
      <stop offset="0.2331" stop-color="#666699"/>
      <stop offset="0.7239" stop-color="#A7B3D9"/>
    </linearGradient>
    <polygon fill="url(#f)" points="28.416,47.853 28.416,76.802 53.699,91.417 53.699,62.851 			"/>
    <linearGradient id="g" gradientUnits="userSpaceOnUse" x1="5.8823" y1="556.9314" x2="67.0802" y2="539.9235" gradientTransform="translate(-.0049 -473.4258)">
      <stop offset="0.2331" stop-color="#666699"/>
      <stop offset="0.9907" stop-color="#A7B3D9"/>
    </linearGradient>
    <polygon fill="url(#g)" points="53.402,123.926 53.402,105.251 16.628,83.691 16.628,40.964 0,31.206 0,93.302 
				53.402,124.23 			"/>
  </g>
  <g>
    <rect x="16.343" y="40.755" fill="#2D2868" width="0.285" height="42.938"/>
    <polygon fill="#2D2868" points="16.628,40.755 0.214,30.992 0,31.206 16.486,40.897 			"/>
  </g>
  <g>
    <linearGradient id="h" gradientUnits="userSpaceOnUse" x1="19.5859" y1="559.8142" x2="43.9208" y2="572.8358" gradientTransform="translate(-.0049 -473.4258)">
      <stop offset="0" stop-color="#6E70A9"/>
      <stop offset="0.9693" stop-color="#514A8E"/>
    </linearGradient>
    <polygon fill="url(#h)" points="53.402,105.251 53.402,105.603 16.343,84.015 16.343,83.691 16.628,83.691 			"/>
  </g>
  <g>
    <linearGradient id="i" gradientUnits="userSpaceOnUse" x1="55.7349" y1="495.6541" x2="71.1853" y2="503.1706" gradientTransform="translate(-.0049 -473.4258)">
      <stop offset="0.0368" stop-color="#9EA5D3"/>
      <stop offset="0.9018" stop-color="#7675AE"/>
    </linearGradient>
    <polygon fill="url(#i)" points="54.004,19.174 77.901,33.142 77.901,35.231 54.004,21.3 			"/>
  </g>
  <g>
    <polygon fill="#484592" points="77.901,33.142 77.901,35.231 94.454,25.524 94.454,23.552 			"/>
  </g>
  <g>
    <linearGradient id="j" gradientUnits="userSpaceOnUse" x1="0.2188" y1="504.4177" x2="0.2188" y2="504.4177" gradientTransform="translate(-.0049 -473.4258)">
      <stop offset="0.2331" stop-color="#666699"/>
      <stop offset="0.9907" stop-color="#A7B3D9"/>
    </linearGradient>
    <linearGradient id="k" gradientUnits="userSpaceOnUse" x1="49.3857" y1="477.947" x2="45.7412" y2="518.442" gradientTransform="translate(-.0049 -473.4258)">
      <stop offset="0" stop-color="#AAACD2"/>
      <stop offset="0.6258" stop-color="#FCFAFB"/>
    </linearGradient>
    <polygon fill="url(#k)" points="53.833,0 94.454,23.552 77.901,33.142 54.004,19.174 16.628,40.755 0.214,30.992 			"/>
    <linearGradient id="l" gradientUnits="userSpaceOnUse" x1="71.7798" y1="473.2654" x2="68.1352" y2="513.7612" gradientTransform="translate(-.0049 -473.4258)">
      <stop offset="0.6743" stop-color="#AAACD2"/>
      <stop offset="1" stop-color="#FCFAFB"/>
    </linearGradient>
    <polygon fill="url(#l)" points="28.814,47.455 53.68,33.409 77.369,46.781 106.232,30.192 107.627,31.206 54.004,62.205 
							"/>
  </g>
  <g>
    <path d="M373.52 21.158v-4.949h-14.143c-1.816 0-3.533.404-5.054 1.11-1.513.71-2.726 1.718-3.634 2.932-.908 1.209-1.314 2.529-1.416 4.04v15.252c.1 1.417.508 2.729 1.313 3.944.912 1.21 2.121 2.116 3.537 2.924 1.516.71 3.127 1.115 5.053 1.115h14.34v-4.949h-13.739c-1.11 0-2.118-.306-3.022-.911-.815-.604-1.318-1.312-1.318-2.319V33.69h18.082v-5.053h-18.082v-4.142c0-1.013.503-1.817 1.318-2.427.904-.606 1.912-.91 3.022-.91h13.739"/>
    <path d="M457.952 16.21v31.317h15.102c1.916-.098 3.625-.405 5.139-1.107 1.609-.804 2.818-1.712 3.723-2.921.908-1.203 1.307-2.615 1.408-4.127V24.266c-.102-1.507-.5-2.821-1.408-4.028-.904-1.208-2.111-2.213-3.723-2.921-1.514-.705-3.225-1.107-5.139-1.107h-15.102zm17.826 5.842c.898.604 1.303 1.407 1.404 2.418v14.803c-.104 1.006-.506 1.812-1.404 2.416-.809.703-1.82 1.005-2.928 1.005h-8.758V21.046h8.758c1.108 0 2.119.301 2.928 1.006"/>
    <path d="M531.958 17.302c-1.488-.692-3.172-.993-5.053-1.093h-5.453c-1.885.099-3.566.4-5.057 1.093-1.584.794-2.775 1.68-3.666 2.874-.895 1.186-1.389 2.576-1.389 4.063v15.359c0 1.486.494 2.777 1.389 3.967.891 1.19 2.082 2.179 3.666 2.874 1.49.693 3.172 1.089 5.057 1.089h5.453c1.881 0 3.563-.396 5.053-1.089 1.584-.694 2.773-1.684 3.666-2.874.893-1.191 1.387-2.577 1.387-3.967v-15.36c-.096-1.487-.494-2.877-1.387-4.063-.893-1.194-2.082-2.08-3.666-2.873zm-2.379 4.656c.891.694 1.387 1.484 1.387 2.382v15.059c0 .892-.496 1.686-1.387 2.379-.793.597-1.787.994-2.873.994h-5.055c-1.094 0-2.084-.396-2.977-.994-.789-.694-1.285-1.487-1.285-2.379V24.34c0-.897.496-1.688 1.285-2.382.893-.596 1.883-.893 2.977-.992h5.055c1.087.101 2.08.397 2.873.992"/>
    <path d="M169.301 16.21h-6.163v20.003L152.634 16.21h-8.385v31.317h6.163V23.083l12.828 24.444h6.061V16.21"/>
    <path d="M269.711 16.21h-6.163v20.003L253.043 16.21h-8.385v31.317h6.163V23.083l12.828 24.444h6.062V16.21"/>
    <path d="M428.299 16.21h-6.162v20.003L411.633 16.21h-8.387v31.317h6.163V23.083l12.828 24.444h6.062V16.21"/>
    <path d="M210.526 47.527V16.21h-7.07v31.317h7.07"/>
    <path d="M296.922 16.21v4.949h10.401v26.369h6.671v-26.37h10.504v-4.949H296.92"/>
  </g>
  <g>
    <path d="M543.92 69.03v-8.463h-42.717v40.229h43.113v-9.062h-31.855v-7.57h18.316v-8.457h-18.316V69.03h31.459"/>
    <path d="M496.374 68.755c.096-2.785-.697-4.977-2.393-6.274-1.596-1.394-4.08-2.09-7.467-2.09h-35.148v40.325h32.658c8.563-.099 12.744-2.887 12.744-8.562v-4.883c0-3.382-1.492-5.87-4.582-7.262 2.789-1.298 4.188-3.487 4.188-6.576v-4.678zm-10.854.2c.398.399.602.8.496 1.396v3.685c.104.495-.098.995-.496 1.293l-2.795.495h-20.107v-7.266h20.107c1.502 0 2.496.199 2.795.397zm-22.902 22.9v-7.867h20.211c1.496 0 2.393.201 2.889.5.402.401.596.998.596 1.993v2.886c0 .897-.191 1.594-.596 1.891-.496.4-1.393.597-2.889.597h-20.211"/>
    <path d="M446.614 60.458h-11.25v31.167h-24.396V60.458H399.72v30.271c-.106 2.486.295 4.484.99 5.975.6 1.395 1.797 2.49 3.389 3.089 1.597.695 3.684.993 6.47.896h25.093c2.789.097 4.977-.201 6.57-.896 1.59-.599 2.689-1.694 3.389-3.089.695-1.491.996-3.487.996-5.975V60.458"/>
    <path d="M394.09 64.607c-.705-1.489-1.896-2.488-3.388-3.186-1.596-.602-3.784-.898-6.473-.898h-24.591c-2.789 0-4.881.298-6.478.898-1.591.697-2.786 1.696-3.382 3.186-.697 1.494-1.096 3.484-.993 5.974v20.214c-.103 2.484.296 4.48.993 5.971.596 1.396 1.791 2.491 3.382 3.093 1.597.693 3.688.991 6.478.893h24.592c2.688.098 4.877-.199 6.473-.893 1.492-.602 2.684-1.697 3.387-3.093.597-1.489.996-3.485.996-5.971v-7.371l-11.256.105v8.162h-23.893V69.39h23.893v7.165h11.256v-5.974c0-2.585-.399-4.574-.996-5.974"/>
    <path d="M340.461 69.03v-8.463h-42.718v40.229h43.116v-9.062h-31.861v-7.57h18.321v-8.457h-18.321V69.03h31.463"/>
    <path d="M282.411 60.458l-17.127 28.48-17.025-28.48h-10.254v33.159l-20.016-33.159h-10.056l-23.994 40.228h30.068v-9.061h-13.442l12.447-20.013 16.828 29.072h18.519V79.179l12.842 21.505h8.266l12.942-21.505v21.505h10.354V60.457h-10.354"/>
    <path d="M184.83 69.307v-8.77h-37.938c-2.685 0-4.879.3-6.474.899-1.59.696-2.686 1.698-3.381 3.187-.7 1.493-.998 3.483-.998 5.975v20.21c0 2.486.298 4.483.998 5.975.696 1.395 1.792 2.49 3.381 3.091 1.594.692 3.789.991 6.474.895h27.584c3.978.097 6.768-.599 8.458-2.091 1.595-1.595 2.391-4.183 2.294-7.868V76.57H159.14v8.47h15.135v6.667H147.29v-22.4h37.54"/>
  </g>
  <g>
    <path d="M566.93 91.979h-1.693l-2.041 6.45c-.334.513-.51 1.024-.51 1.362-.172-.338-.346-.682-.512-1.188l-2.211-6.626h-1.699v9.17h1.027v-7.813l2.717 7.813h1.012l2.721-7.642v7.642h1.189v-9.168"/>
    <path d="M554.016 93.167h2.893v-1.188h-7.139v1.188h3.063v7.982h1.186v-7.982"/>
  </g>
</svg>
