<svg xmlns:svg="http://www.w3.org/2000/svg" xmlns="http://www.w3.org/2000/svg" xmlns:xlink="http://www.w3.org/1999/xlink" x="0px" y="0px" width="568.929px" height="116.145px" viewBox="-1 -1 568.929 116.145">
  <polygon points="533.056,31.853 532.827,31.721 348.343,31.721 329.321,-1 238.374,-1 219.347,31.721 34.106,31.721 -1,51.605 
		-1,95.259 33.88,115.018 34.108,115.145 532.825,115.145 567.675,95.404 567.929,95.259 567.929,51.607 	"/>
  <polygon fill="#CED1DD" points="0,52.188 0,94.677 34.37,114.145 532.56,114.145 566.929,94.677 566.929,52.19 532.56,32.72 
		347.767,32.72 328.744,0 238.948,0 219.923,32.72 34.37,32.72 	"/>
  <linearGradient id="a" gradientUnits="userSpaceOnUse" x1="308.144" y1="1410.9641" x2="308.144" y2="1515.9807" gradientTransform="translate(-24.4248 -1406.4004)">
    <stop offset="0" stop-color="#D9DDE9"/>
    <stop offset="0.39" stop-color="#777489"/>
    <stop offset="0.98" stop-color="#D9DDE9"/>
  </linearGradient>
  <path fill="url(#a)" d="M344.724 37.286L325.701 4.564h-83.96l-19.025 32.723H36.777L4.565 55.36v36.148l32.212 18.072h493.885l32.211-18.072V55.36l-32.211-18.072-185.938-.002z"/>
  <path fill="#202066" d="M309.46 13.469l-7.131 21.726h3.521l7.146-20.979c.26-.959 1.043-1.659 1.963-1.659.931 0 1.713.7 1.974 1.659l6.041 17.746h-9.479v3.232H327.6l-7.132-21.726c-.684-2.396-2.893-4.146-5.51-4.146-2.607-.001-4.812 1.749-5.498 4.147zm4.178 13.492l1.248-3.706 1.301 3.706h-2.549zm-.517-10.638l-6.387 18.872h4.117l2.643-7.822v3.697h8.295l-4.926-14.747c-.25-.821-.996-3.182-1.873-3.182-.881 0-1.627 2.36-1.869 3.182zm-22.549-2.885h12.344v-3.53h-12.639c-3.408 0-6.172 2.771-6.172 6.18v12.936c0 3.409 2.764 6.172 6.172 6.172h12.639v-16.47h-9.992v3.234h6.461v9.702h-8.813c-1.627 0-2.936-1.315-2.936-2.938v-12.35c-.002-1.619 1.309-2.936 2.936-2.936zm2.351 9.406v3.531h2.055v.882h-2.055c-.486 0-.883-.396-.883-.882v-7.648c0-.486.396-.883.883-.883h9.992V14.32h-11.461c-1.627 0-2.945 1.316-2.945 2.938v10.585c0 1.622 1.318 2.938 2.945 2.938h7.055v-7.938l-5.586.001zm-22.631-9.406h12.344v-3.53h-12.641c-3.408 0-6.17 2.771-6.17 6.18V28.88c0 3.408 2.762 6.179 6.17 6.179h12.641v-3.531h-12.344c-1.621 0-2.938-1.314-2.938-2.938V16.376c0-1.621 1.317-2.938 2.938-2.938zm9.695 8.523v-3.234h-8.227c0-.486.395-.883.883-.883h9.992V14.32h-11.461c-1.621 0-2.936 1.316-2.936 2.938v4.703h11.749zm0 1.179v3.234h-8.227c0 .485.395.882.883.882h9.992v3.522h-11.461c-1.621 0-2.936-1.314-2.936-2.938v-4.703l11.749.003zm-30.203 4.407h-7.412v3.233h11.459c2.123-.076 3.82-1.827 3.82-3.966 0-2.189-1.773-3.972-3.965-3.972h-4.459c-1.803-.686-3.334-2.474-3.334-4.559 0-2.679 2.467-4.848 5.145-4.848h11.027V9.907h-11.469c-4.541 0-8.225 3.69-8.225 8.233 0 4.55 3.979 8.234 8.521 8.234v-.038l.023.038h2.625c.32 0 .586.259.586.586 0 .326-.268.586-.586.586h-3.756v.001zm4.862-9.993h7.42V14.32h-11.468c-2.123.076-3.818 1.827-3.818 3.966 0 2.198 1.779 3.973 3.973 3.973h4.459c1.803.692 3.326 2.473 3.326 4.558 0 2.68-2.465 4.849-5.146 4.849h-11.018v3.53h11.459c4.545 0 8.234-3.683 8.234-8.232 0-4.543-3.979-8.234-8.523-8.234v.046l-.029-.045h-2.619c-.328 0-.586-.259-.586-.586 0-.319.258-.586.586-.586l3.75-.005z"/>
  <linearGradient id="b" gradientUnits="userSpaceOnUse" x1="220.7949" y1="1450.0256" x2="270.3067" y2="1499.5374" gradientTransform="translate(-24.4248 -1406.4004)">
    <stop offset="0" stop-color="#D9DDE9"/>
    <stop offset="0.39" stop-color="#777489"/>
    <stop offset="0.98" stop-color="#D9DDE9"/>
  </linearGradient>
  <polygon fill="url(#b)" points="260.669,47.433 260.669,99.606 243.101,99.606 243.101,80.333 
			209.429,61.171 209.429,99.606 191.86,99.606 191.86,47.433 210.161,47.433 243.101,66.173 243.101,47.433 		"/>
  <linearGradient id="c" gradientUnits="userSpaceOnUse" x1="221.6904" y1="1450.804" x2="269.7215" y2="1498.8352" gradientTransform="translate(-24.4248 -1406.4004)">
    <stop offset="0" stop-color="#000000"/>
    <stop offset="0.11" stop-color="#181C4E"/>
    <stop offset="0.22" stop-color="#181818"/>
    <stop offset="0.34" stop-color="#181C4E"/>
    <stop offset="0.47" stop-color="#000000"/>
    <stop offset="0.59" stop-color="#181C4E"/>
    <stop offset="0.72" stop-color="#000000"/>
    <stop offset="0.84" stop-color="#181C4E"/>
    <stop offset="0.98" stop-color="#000000"/>
  </linearGradient>
  <polygon fill="url(#c)" points="259.698,48.156 259.698,98.649 242.626,98.649 242.626,79.995 
			209.903,61.45 209.903,98.649 192.83,98.649 192.83,48.156 210.614,48.156 242.626,66.29 242.626,48.156 		"/>
  <linearGradient id="d" gradientUnits="userSpaceOnUse" x1="449.5093" y1="1461.4338" x2="499.7514" y2="1514.8802" gradientTransform="translate(-24.4248 -1406.4004)">
    <stop offset="0" stop-color="#D9DDE9"/>
    <stop offset="0.39" stop-color="#777489"/>
    <stop offset="0.98" stop-color="#D9DDE9"/>
  </linearGradient>
  <rect x="433.251" y="47.179" fill="url(#d)" width="18.262" height="52.509"/>
  <linearGradient id="e" gradientUnits="userSpaceOnUse" x1="450.2104" y1="1462.1799" x2="498.416" y2="1513.46" gradientTransform="translate(-24.4248 -1406.4004)">
    <stop offset="0" stop-color="#000000"/>
    <stop offset="0.11" stop-color="#181C4E"/>
    <stop offset="0.22" stop-color="#181818"/>
    <stop offset="0.34" stop-color="#181C4E"/>
    <stop offset="0.47" stop-color="#000000"/>
    <stop offset="0.59" stop-color="#181C4E"/>
    <stop offset="0.72" stop-color="#000000"/>
    <stop offset="0.84" stop-color="#181C4E"/>
    <stop offset="0.98" stop-color="#000000"/>
  </linearGradient>
  <rect x="433.716" y="48.156" fill="url(#e)" width="17.332" height="50.559"/>
  <g>
    <linearGradient id="f" gradientUnits="userSpaceOnUse" x1="300.4995" y1="1450.3645" x2="350.3083" y2="1500.1731" gradientTransform="translate(-24.4248 -1406.4004)">
      <stop offset="0" stop-color="#D9DDE9"/>
      <stop offset="0.39" stop-color="#777489"/>
      <stop offset="0.98" stop-color="#D9DDE9"/>
    </linearGradient>
    <polygon fill="url(#f)" points="320.921,57.68 290.917,57.68 290.917,68.182 326.921,68.182 
			309.669,78.684 290.917,78.684 290.917,89.186 339.673,89.186 322.421,99.688 272.915,99.688 272.915,59.182 290.917,47.179 
			338.173,47.179 		"/>
    <linearGradient id="g" gradientUnits="userSpaceOnUse" x1="301.6196" y1="1451.4602" x2="349.5781" y2="1499.4187" gradientTransform="translate(-24.4248 -1406.4004)">
      <stop offset="0" stop-color="#000000"/>
      <stop offset="0.11" stop-color="#181C4E"/>
      <stop offset="0.22" stop-color="#181818"/>
      <stop offset="0.34" stop-color="#181C4E"/>
      <stop offset="0.47" stop-color="#000000"/>
      <stop offset="0.59" stop-color="#181C4E"/>
      <stop offset="0.72" stop-color="#000000"/>
      <stop offset="0.84" stop-color="#181C4E"/>
      <stop offset="0.98" stop-color="#000000"/>
    </linearGradient>
    <polygon fill="url(#g)" points="320.378,58.266 291.488,58.266 291.488,68.378 326.156,68.378 
			309.544,78.49 291.488,78.49 291.488,88.6 338.433,88.6 321.824,98.714 274.153,98.714 274.153,59.712 291.488,48.156 
			336.99,48.156 		"/>
  </g>
  <g>
    <linearGradient id="h" gradientUnits="userSpaceOnUse" x1="141.2285" y1="1450.637" x2="190.7611" y2="1500.1694" gradientTransform="translate(-24.4248 -1406.4004)">
      <stop offset="0" stop-color="#D9DDE9"/>
      <stop offset="0.39" stop-color="#777489"/>
      <stop offset="0.98" stop-color="#D9DDE9"/>
    </linearGradient>
    <polygon fill="url(#h)" points="161.399,57.878 131.563,57.878 131.563,68.317 167.366,68.317 
			150.21,78.762 131.563,78.762 131.563,89.204 180.047,89.204 162.89,99.647 113.66,99.647 113.66,59.368 131.563,47.433 
			178.555,47.433 		"/>
    <linearGradient id="i" gradientUnits="userSpaceOnUse" x1="142.0806" y1="1451.468" x2="190.2064" y2="1499.5938" gradientTransform="translate(-24.4248 -1406.4004)">
      <stop offset="0" stop-color="#000000"/>
      <stop offset="0.11" stop-color="#181C4E"/>
      <stop offset="0.22" stop-color="#181818"/>
      <stop offset="0.34" stop-color="#181C4E"/>
      <stop offset="0.47" stop-color="#000000"/>
      <stop offset="0.59" stop-color="#181C4E"/>
      <stop offset="0.72" stop-color="#000000"/>
      <stop offset="0.84" stop-color="#181C4E"/>
      <stop offset="0.98" stop-color="#000000"/>
    </linearGradient>
    <polygon fill="url(#i)" points="160.984,58.319 131.996,58.319 131.996,68.468 166.783,68.468 
			150.113,78.615 131.996,78.615 131.996,88.76 179.104,88.76 162.436,98.905 114.601,98.905 114.601,59.768 131.996,48.174 
			177.654,48.174 		"/>
  </g>
  <g>
    <linearGradient id="j" gradientUnits="userSpaceOnUse" x1="64.9922" y1="1454.7668" x2="113.8675" y2="1503.6422" gradientTransform="translate(-24.4248 -1406.4004)">
      <stop offset="0" stop-color="#D9DDE9"/>
      <stop offset="0.39" stop-color="#777489"/>
      <stop offset="0.98" stop-color="#D9DDE9"/>
    </linearGradient>
    <polygon fill="url(#j)" points="29.562,59.372 47.47,47.433 101.942,47.433 84.779,57.882 
			47.47,57.882 47.47,89.219 81.048,89.219 81.048,76.534 60.155,76.534 77.317,66.089 98.958,66.089 98.958,87.727 81.048,99.667 
			29.562,99.667 		"/>
    <linearGradient id="k" gradientUnits="userSpaceOnUse" x1="65.687" y1="1455.4641" x2="113.1985" y2="1502.9756" gradientTransform="translate(-24.4248 -1406.4004)">
      <stop offset="0" stop-color="#000000"/>
      <stop offset="0.11" stop-color="#181C4E"/>
      <stop offset="0.22" stop-color="#181818"/>
      <stop offset="0.34" stop-color="#181C4E"/>
      <stop offset="0.47" stop-color="#000000"/>
      <stop offset="0.59" stop-color="#181C4E"/>
      <stop offset="0.72" stop-color="#000000"/>
      <stop offset="0.84" stop-color="#181C4E"/>
      <stop offset="0.98" stop-color="#000000"/>
    </linearGradient>
    <polygon fill="url(#k)" points="30.563,59.76 47.971,48.156 100.922,48.156 84.238,58.311 
			47.971,58.311 47.971,88.776 80.611,88.776 80.611,76.444 60.302,76.444 76.985,66.29 98.021,66.29 98.021,87.325 80.611,98.93 
			30.563,98.93 		"/>
  </g>
  <g>
    <polygon fill="#C2C4D2" points="422.089,89.034 404.587,99.688 350.558,99.688 368.06,89.034 402.304,89.034 402.304,78.382 
			350.558,78.382 350.558,57.835 368.06,47.179 422.851,47.179 405.349,57.835 369.582,57.835 369.582,67.725 422.089,67.725 		"/>
    <linearGradient id="l" gradientUnits="userSpaceOnUse" x1="350.5229" y1="-651.3997" x2="422.8159" y2="-651.3997" gradientTransform="matrix(1 0 0 -1 .0352 -577.9663)">
      <stop offset="0" stop-color="#D9DDE9"/>
      <stop offset="0.39" stop-color="#777489"/>
      <stop offset="0.98" stop-color="#D9DDE9"/>
    </linearGradient>
    <polygon fill="url(#l)" points="402.304,89.034 402.304,78.382 350.558,78.382 350.558,57.835 
			368.06,47.179 422.851,47.179 405.349,57.835 369.582,57.835 369.582,67.725 422.089,67.725 422.089,89.034 404.587,99.688 
			350.558,99.688 368.06,89.034 		"/>
    <linearGradient id="m" gradientUnits="userSpaceOnUse" x1="381.4263" y1="1450.1321" x2="430.443" y2="1499.1486" gradientTransform="translate(-24.4248 -1406.4004)">
      <stop offset="0" stop-color="#000000"/>
      <stop offset="0.11" stop-color="#181C4E"/>
      <stop offset="0.22" stop-color="#181818"/>
      <stop offset="0.34" stop-color="#181C4E"/>
      <stop offset="0.47" stop-color="#000000"/>
      <stop offset="0.59" stop-color="#181C4E"/>
      <stop offset="0.72" stop-color="#000000"/>
      <stop offset="0.84" stop-color="#181C4E"/>
      <stop offset="0.98" stop-color="#000000"/>
    </linearGradient>
    <polygon fill="url(#m)" points="401.724,88.454 401.724,78.198 351.902,78.198 351.902,58.413 
			368.753,48.156 421.507,48.156 404.656,58.413 370.218,58.413 370.218,67.938 420.775,67.938 420.775,88.454 403.923,98.714 
			351.902,98.714 368.753,88.454 		"/>
  </g>
  <g>
    <polygon fill="#C2C4D2" points="533.447,89.034 515.945,99.688 461.914,99.688 479.417,89.034 513.662,89.034 513.662,78.382 
			461.914,78.382 461.914,57.835 479.417,47.179 534.207,47.179 516.705,57.835 480.939,57.835 480.939,67.725 533.447,67.725 		"/>
    <linearGradient id="n" gradientUnits="userSpaceOnUse" x1="491.6362" y1="1448.9846" x2="542.5464" y2="1499.8948" gradientTransform="translate(-24.4248 -1406.4004)">
      <stop offset="0" stop-color="#D9DDE9"/>
      <stop offset="0.39" stop-color="#777489"/>
      <stop offset="0.98" stop-color="#D9DDE9"/>
    </linearGradient>
    <polygon fill="url(#n)" points="513.662,89.034 513.662,78.382 461.914,78.382 461.914,57.835 
			479.417,47.179 534.207,47.179 516.705,57.835 480.939,57.835 480.939,67.725 533.447,67.725 533.447,89.034 515.945,99.688 
			461.914,99.688 479.417,89.034 		"/>
    <linearGradient id="o" gradientUnits="userSpaceOnUse" x1="492.7817" y1="1450.1321" x2="541.799" y2="1499.1493" gradientTransform="translate(-24.4248 -1406.4004)">
      <stop offset="0" stop-color="#000000"/>
      <stop offset="0.11" stop-color="#181C4E"/>
      <stop offset="0.22" stop-color="#181818"/>
      <stop offset="0.34" stop-color="#181C4E"/>
      <stop offset="0.47" stop-color="#000000"/>
      <stop offset="0.59" stop-color="#181C4E"/>
      <stop offset="0.72" stop-color="#000000"/>
      <stop offset="0.84" stop-color="#181C4E"/>
      <stop offset="0.98" stop-color="#000000"/>
    </linearGradient>
    <polygon fill="url(#o)" points="513.082,88.454 513.082,78.198 463.257,78.198 463.257,58.413 
			480.111,48.156 532.865,48.156 516.011,58.413 481.576,58.413 481.576,67.938 532.132,67.938 532.132,88.454 515.279,98.714 
			463.257,98.714 480.111,88.454 		"/>
  </g>
</svg>
