<svg xmlns:dc="http://purl.org/dc/elements/1.1/" xmlns:cc="http://creativecommons.org/ns#" xmlns:rdf="http://www.w3.org/1999/02/22-rdf-syntax-ns#" xmlns:svg="http://www.w3.org/2000/svg" xmlns="http://www.w3.org/2000/svg" xmlns:sodipodi="http://sodipodi.sourceforge.net/DTD/sodipodi-0.dtd" xmlns:inkscape="http://www.inkscape.org/namespaces/inkscape" x="0px" y="0px" width="239.75998" height="78.762703" viewBox="0 0 239.75997 78.762696" inkscape:version="0.48.5 r10040" sodipodi:docname="Kodi.svg">
  <defs/>
  <sodipodi:namedview pagecolor="#ffffff" bordercolor="#666666" borderopacity="1" objecttolerance="10" gridtolerance="10" guidetolerance="10" inkscape:pageopacity="0" inkscape:pageshadow="2" inkscape:window-width="1366" inkscape:window-height="706" showgrid="false" fit-margin-top="0" fit-margin-left="0" fit-margin-right="0" fit-margin-bottom="0" inkscape:zoom="0.67942367" inkscape:cx="481.8057" inkscape:cy="11.282395" inkscape:window-x="-8" inkscape:window-y="-8" inkscape:window-maximized="1" inkscape:current-layer="Ebene_1"/>
  <path clip-rule="evenodd" d="M159.3519691 16.81725736c.40466721.02584785.8101819.0504245 1.2148491.07881477 3.1076747.21441006 6.07805915.94323477 8.8539491 2.385206 1.98223374 1.03094799 3.73988776 2.36444297 5.30897958 3.9551453 1.70256843 1.72714507 3.11106457 3.66319166 4.17209776 5.84754713.77797801 1.60341438 1.31824052 3.28564352 1.69239879 5.02550066.4584816 2.1330835.60933136 4.29286232.51907574 6.4653532-.14661241 3.48564658-.91781066 6.81832472-2.56147989 9.92006711-1.14705146 2.16359245-2.64156586 4.06277406-4.42040665 5.74161332-2.85131483 2.69283783-6.1928914 4.44879691-10.03235696 5.26279243-1.4212082.30042832-2.85428098.48899053-4.30599812.53475394-.0661027.00254242-.1309342.02118677-.19703691.03220389h-1.708077c-.37161586-.02669533-.74323171-.05211945-1.11315263-.0792385-4.44667824-.32203883-8.50521494-1.69621241-12.0217942-4.4941366-2.77588995-2.20808464-4.9492283-4.90304115-6.43230185-8.13698896-.7538251-1.64366923-1.2580701-3.3670007-1.5940922-5.14160413-.3805143-2.00723412-.50085513-4.03396006-.39958239-6.06958444.21441006-4.28735376 1.3432409-8.28953367 3.83099085-11.8370456 2.91063777-4.1496398 6.71705197-7.10095616 11.63026278-8.52767292 1.49790428-.43475242 3.02419883-.72458736 4.58015486-.84408071.49322788-.03855992.98815072-.057628 1.4813786-.08771321.08093345-.00466109.16059568-.01991556.24068165-.03093268h1.26146zm-.67543407 39.43195955c1.58053267-.0131358 3.1102171-.14237506 4.6106638-.51314345 3.2674229-.80679201 5.98526112-2.50215695 8.1446162-5.08694228 2.20554224-2.63775224 3.3525937-5.7030534 3.6636154-9.1014105.1067813-1.1631534.11906963-2.32842548.04957704-3.49496876-.07542488-1.26569734-.24152912-2.51910636-.57755121-3.74370137-1.04959234-3.82421109-3.19708284-6.87552898-6.49670962-9.0831899-2.46868186-1.64960152-5.22974108-2.40512156-8.17512515-2.55131024-1.6097704-.07881476-3.21021863-.00635603-4.7966836.28178398-2.77334753.50382127-5.24118192 1.64875405-7.36748565 3.51149443-2.06147224 1.80723105-3.55217302 4.00133244-4.47422104 6.58230415-.69916324 1.95257226-.9784048 3.97421338-1.0072188 6.03865176-.02415292 1.60383811.08856067 3.1966591.43771856 4.7632085.63221307 2.82758566 1.90341897 5.32381032 3.88819511 7.45138526 1.75214547 1.87672364 3.83607567 3.22716804 6.26323147 4.05387561 1.90638512.65000995 3.87505932.87077604 5.8373775.8919628" inkscape:connector-curvature="0" fill-rule="evenodd"/>
  <path clip-rule="evenodd" d="M239.75913216 61.04971412c-.16737544.40381974-.2953435.4860244-.75213016.4860244-1.49154825 0-2.98352024.00084746-4.4763397 0-.52543178 0-.71907881-.19491825-.71907881-.7237399v-42.7252303c0-.54788974.19279956-.7394181.74916401-.73984183 1.491972 0 2.98436772-.00508483 4.4750685.00805097.1847486.0012712.38559913.07415367.54280492.1716128.09534045.05932294.12330697.22754585.18135871.34788667v43.1752372z" inkscape:connector-curvature="0" fill-rule="evenodd"/>
  <path clip-rule="evenodd" d="M118.0695575 35.27135341c.7525539.99916784 1.49832802 1.98986097 2.24325468 2.9805541 1.58010893 2.10045588 3.16106534 4.20091177 4.74202174 6.30221512 2.03308197 2.70258374 4.06489273 5.40347254 6.09839844 8.10478508 1.99197964 2.64749816 3.98311182 5.29584378 5.97763388 7.94079952.14830735.19491824.21186765.3936501.10593382.61950101-.10762877.22839333-.31610653.30212327-.55127962.3156828-.10762877.00635603-.216105.00084747-.32542871.00084747-1.83816374 0-3.67548-.0012712-5.51364373.00254241-.3144116.00042374-.54449986-.10508635-.74153677-.36695477-3.46615476-4.63269803-6.93993675-9.26031124-10.41287127-13.8896194-1.97206408-2.6275826-3.94539937-5.25516519-5.91873467-7.88317152-.0156782-.02203423-.0347463-.04110232-.06271282-.07415367-.23941045.22288476-.47712595.44449833-.71399398.66484068-1.59960076 1.49493814-3.19835405 2.99157122-4.79753107 4.48778056-.88179316.8233177-1.76358632 1.64748285-2.65004056 2.46571571-.11440853.10508636-.16144315.20974898-.16144315.36568357.00423735 4.47549224.00338988 8.95225568.00338988 13.42732418 0 .05381439.00169494.10847624 0 .1631381-.01144085.40975203-.22034236.63306053-.6300944.63475547-1.56697313.0059323-3.1330988.0046611-4.6996482.00042374-.39746372-.00169494-.60678895-.22542718-.61483992-.6241621-.00084748-.04661088 0-.0949167 0-.14237506V18.08507337c0-.53983876.19491823-.73687568.73051965-.73687568 1.43095411-.00042373 2.86148448-.00042373 4.29286233-.00042373.09449297 0 .18983341-.00296615.28475012.00042373.41441312.01906809.61780607.2233085.63602668.63560295.00296615.06144162.00042374.1224595.00042374.18305365V39.1243785c.35509018-.331361.6758578-.62882318.99450675-.9279803 1.88901197-1.77206103 3.776329-3.54539326 5.66618843-5.31660681 2.47800403-2.32206945 4.95770301-4.64329142 7.43613078-6.96620833 2.07715044-1.94791118 4.15302967-3.89709356 6.22890891-5.84542847.87543713-.82162274 1.75341667-1.6398556 2.62588765-2.46359703.18220618-.17203653.38983648-.25635986.63941657-.25635986 2.19028777.00042374 4.38099927 0 6.57171077.00042374.3733108 0 .5834835.1355953.66229827.41483686.06525524.230512-.02330544.40975203-.18474859.56399168-.63475548.60297533-1.26781602 1.20552693-1.90341897 1.80553611-1.12459348 1.06018572-2.25257685 2.11910024-3.3767466 3.17928596-1.56019338 1.46951402-3.11826807 2.93775683-4.67591904 4.4089658-1.59790581 1.50722646-3.19284548 3.01699533-4.79032756 4.52337432-1.06484681 1.00510014-2.13223603 2.00681038-3.21530346 3.02674125" inkscape:connector-curvature="0" fill-rule="evenodd"/>
  <path clip-rule="evenodd" d="M187.91003338 39.44684106V18.16558309c0-.06186536 0-.1224595.00084747-.18390112.0084747-.40170107.21102018-.6110263.60933136-.63390801.02711906-.00169494.05466186-.00042374.08093345-.00042374 6.08441517.00042374 12.16755914-.014407 18.25112684.00889844 2.79834792.00974591 5.47550754.63899284 8.0293602 1.78095947 2.22206791.99365928 4.17464017 2.3792737 5.86958137 4.12252073 2.7631779 2.83733157 4.59837548 6.18484044 5.5000842 10.0459165.51992321 2.22333911.73390954 4.47422103.68687492 6.75179826-.0635603 3.05936887-.59492436 6.02975332-1.75468788 8.87216972-.96823516 2.37334141-2.35469706 4.48057706-4.1017577 6.35094467-2.68139698 2.87207787-5.93907397 4.75981863-9.75565781 5.68483279-1.64705912.39873491-3.315305.57628-5.0102462.57458506-5.89331054-.00889844-11.7866211-.00338988-17.68120286-.00423735-.100849 0-.2029692-.0072035-.30212326-.02203423-.21779995-.03517003-.35254777-.1656805-.39153142-.38220924-.02076303-.1127136-.02966147-.22839333-.02966147-.3419544-.0012712-7.11451568-.0012712-14.2281839-.0012712-21.34269958m5.95220975 16.40152225h.26229215c3.96107759 0 7.92088396.00338989 11.88196155-.00466108.71018036-.00127121 1.42332687-.03050895 2.13096482-.08601827 1.4716327-.11567974 2.87419654-.50593995 4.2157425-1.1199324 1.7538404-.80340213 3.22674431-1.97291155 4.4954078-3.41784893 1.18264522-1.34663078 2.11698156-2.8449588 2.80555142-4.496679.73306207-1.75892523 1.1271359-3.59412282 1.27290084-5.49160949.13390036-1.73180617.08008597-3.4547139-.18051124-5.16957066-.30890303-2.02587847-.96823516-3.93819588-1.98689482-5.7187316-1.13222072-1.98011506-2.59368377-3.67548-4.46998368-4.98524581-2.24622082-1.56866808-4.76871706-2.29791653-7.4916401-2.31105233-4.23904794-.0203393-8.47809588-.00635603-12.71629635-.0072035h-.22034236v32.80855307z" inkscape:connector-curvature="0" fill-rule="evenodd"/>
  <g>
    <path clip-rule="evenodd" d="M79.06684181 40.0366806c-.25508865.82755504-.8139955 1.43349652-1.41230975 2.02969208-4.01065462 3.99709509-8.00859717 8.00732597-12.01077708 12.01247202-1.44197123 1.4428187-2.98309651 1.43900508-4.43100003-.01016965-4.1305717-4.13353785-8.26156715-8.2670757-12.39002018-12.40146102-1.4068012-1.4080724-1.40595372-2.94623154.00423736-4.35727009 4.1521822-4.15896197 8.30563561-8.31580526 12.45951276-12.47180109 1.35129187-1.35256307 2.93945177-1.35341054 4.29074365-.00169494 4.02675655 4.02760403 8.04758081 8.06071662 12.0819646 12.08154088.59873798.59619556 1.1559499 1.20425572 1.4080724 2.03265823v1.08603358z" inkscape:connector-curvature="0" fill="#31afe1" fill-rule="evenodd"/>
    <path clip-rule="evenodd" d="M39.25436797 78.7622734c-.82374143-.26144468-1.42036073-.83136866-2.01401389-1.42883543-3.9937052-4.01446824-7.99927499-8.01537694-12.00103116-12.0217942-1.43180158-1.43392026-1.43307279-2.96318095-.0046611-4.39371133 4.1411651-4.14455497 8.28275392-8.28953367 12.42561395-12.4336649 1.37713972-1.37756346 2.95512998-1.38307202 4.32464247-.01228833 4.14201256 4.1437075 8.28360138 8.28953368 12.42434273 12.43535985 1.4224794 1.42459808 1.42629302 2.98521519.01016965 4.40218603-4.03650247 4.0415873-8.07893723 8.0772423-12.10611752 12.12603308-.57628001.57882242-1.1690857 1.10001684-1.97248783 1.32713896h-1.0864573z" inkscape:connector-curvature="0" fill="#31afe1" fill-rule="evenodd"/>
    <path clip-rule="evenodd" d="M24.7193997 29.56194398c0-4.60896886.04152606-9.21793772-.02669532-13.82563537-.01906809-1.33349499.29915712-2.37503636 1.31781678-3.25513457.8186566-.70806169 1.54536264-1.52502335 2.31274727-2.29410292 3.03648716-3.0394533 6.07170311-6.07805914 9.10903775-9.11666498 1.42798796-1.42798796 2.9686895-1.42671675 4.39583.00084747 4.13099544 4.13184291 8.26071967 8.26495703 12.39129138 12.39807115 1.41908952 1.42078446 1.4178183 2.9818253-.00084748 4.40218603-4.8843968 4.89117657-9.77091228 9.7806582-14.65658029 14.67013982-4.31447282 4.31955765-8.62809818 8.63826782-12.94299474 12.95613053-.7995885.80043598-1.50807393.61356872-1.7983326-.49534656-.08940816-.3432256-.0970354-.71399398-.0970354-1.07289778-.00593229-4.78863263-.00423735-9.57853646-.00423735-14.36759282" inkscape:connector-curvature="0" fill="#31afe1" fill-rule="evenodd"/>
    <path clip-rule="evenodd" d="M14.8412824 39.54769006c0 4.2288783.00593229 8.45945153-.00889845 12.68832982-.00169494.40127733-.06525524.82670757-.20932524 1.20001837-.2822077.73390954-.81187683.82501263-1.3661226.27161433-1.94536877-1.94155515-3.88522897-3.88946632-5.82636038-5.83398761-2.24410215-2.24749203-4.48905177-4.4954078-6.73188271-6.74459477-.92840404-.93094646-.93221766-2.22249165-.00762724-3.1580992 4.1305717-4.17760632 8.26199088-8.3547889 12.395105-12.53154775.27330927-.27585168.5305166-.65043369.99535422-.47500728.44365086.16779918.61907727.56822904.6817901 1.0118799.03983111.27500421.0707638.55509324.07118753.83263987.00423735 4.24625144.0025424 8.49207914.0025424 12.73875432h.00423736z" inkscape:connector-curvature="0" fill="#31afe1" fill-rule="evenodd"/>
  </g>
</svg>
