<svg xmlns:dc="http://purl.org/dc/elements/1.1/" xmlns:rdf="http://www.w3.org/1999/02/22-rdf-syntax-ns#" xmlns:cc="http://creativecommons.org/ns#" xmlns="http://www.w3.org/2000/svg" xmlns:xlink="http://www.w3.org/1999/xlink" x="0px" y="0px" width="566.929px" height="202.382px" viewBox="0 -0.002 566.929 202.382">
  <path fill="#17569B" d="M126.595 99.044h39.796c16.265 0 29.501-13.238 29.501-29.5 0-16.261-13.236-29.42-29.501-29.42h-10.376c-.817 0-1.474-.652-1.474-1.471 0-.898.654-1.551 1.474-1.551h39.716l.082-12.423h-39.798c-7.683 0-13.894 6.212-13.894 13.894 0 7.764 6.209 14.056 13.894 14.056h10.376c9.316 0 16.918 7.602 16.918 16.917 0 9.317-7.602 16.834-16.918 16.834h-39.796v12.664z"/>
  <path fill="#17569B" d="M126.595 83.518h39.796c7.765 0 13.977-6.292 13.977-13.974s-6.211-13.974-13.977-13.974h-10.376c-9.315 0-16.835-7.682-16.835-16.998 0-9.317 7.521-16.834 16.835-16.834h39.796l-.082-12.585h-39.718c-16.261 0-29.418 13.156-29.418 29.5 0 16.262 13.156 29.42 29.418 29.42h10.297c.816 0 1.472.654 1.472 1.471s-.655 1.471-1.472 1.471h-39.716l.003 12.503z"/>
  <path fill="#17569B" d="M226.701 86.459c-6.862 0-12.5-5.475-12.5-12.503V33.994c0-6.7 5.639-12.339 12.5-12.339h42.495V9.153h-42.495c-13.809 0-25.005 11.196-25.005 25.007v39.796c0 13.812 11.194 25.008 25.005 25.008h42.333V86.461l-42.333-.002z"/>
  <path fill="#17569B" d="M217.222 34.158c0-5.23 4.249-9.562 9.479-9.562h42.495V37.1h-36.609c-2.944 0-2.944 2.94-2.944 2.94h30.563v12.504h-42.984V34.158z"/>
  <path fill="#17569B" d="M226.701 83.438c-5.229 0-9.479-4.25-9.479-9.48v-18.39h42.983V68.07h-30.562c0 2.942 2.941 2.942 2.941 2.942h36.447v12.423l-42.33.003z"/>
  <path fill="#17569B" d="M299.024 86.459c-6.946 0-12.586-5.64-12.586-12.503V34.16c0-6.866 5.642-12.505 12.506-12.505h41.188V9.153h-41.271c-13.811 0-25.005 11.196-25.005 25.007v39.796c0 13.812 11.274 25.008 25.088 25.008h41.188v-58.92h-35.387v12.502h22.883V86.46l-28.604-.001z"/>
  <path fill="#17569B" d="M289.378 73.956c0 5.23 4.334 9.563 9.563 9.563h25.741V55.488h-19.938v12.585h7.437v2.942h-7.353c-1.637 0-2.943-1.387-2.943-2.942V40.042s0-2.943 2.943-2.943h35.301V24.595h-41.187c-5.229 0-9.563 4.332-9.563 9.563l-.001 39.798z"/>
  <path fill="#17569B" d="M378.783 24.436c.57-1.634 2.043-2.778 3.842-2.778 1.797 0 3.271 1.146 3.844 2.778l19.938 59.166h-29.171V69.708h9.808l-4.414-13.159-14.385 42.414h-14.709l25.247-74.527z"/>
  <path fill="#17569B" d="M410.492 86.459h-33.261v12.503h50.585L401.503 20.92c-2.291-7.6-9.891-13.239-18.881-13.239-8.986 0-16.586 5.558-18.877 13.239l-26.563 78.042h13.241l25.738-75.917c1.063-2.534 3.514-4.25 6.455-4.25 2.862 0 5.316 1.716 6.377 4.25l21.499 63.414z"/>
  <path fill="#17569B" d="M420.46 19.531c2.613 0 5.066-.982 6.863-2.862 1.879-1.878 2.855-4.33 2.855-6.945 0-2.616-.979-5.065-2.855-6.866-1.797-1.878-4.25-2.86-6.863-2.86-5.394 0-9.81 4.332-9.81 9.726 0 2.615 1.063 5.065 2.856 6.945 1.887 1.882 4.337 2.862 6.954 2.862zm-8.419-9.806c0-2.207.903-4.332 2.455-5.967 1.549-1.552 3.676-2.452 5.965-2.452 2.207 0 4.332.898 5.969 2.452 1.553 1.635 2.451 3.759 2.451 5.967 0 4.656-3.76 8.417-8.416 8.417-2.289 0-4.418-.818-5.967-2.452-1.554-1.554-2.457-3.677-2.457-5.965z"/>
  <path fill="#17569B" d="M417.925 10.541v4.656h-1.391V4.329h4.01c1.467 0 2.363 0 3.268.653.734.572 1.145 1.472 1.145 2.535 0 2.533-2.043 2.86-2.613 2.943l3.021 4.738h-1.717l-2.941-4.656-2.782-.001zm0-1.144h2.859c.49 0 .895 0 1.309-.164 1.063-.245 1.391-.98 1.391-1.716 0-.247-.082-1.063-.654-1.554-.57-.489-1.307-.409-2.125-.409h-2.779v3.843h-.001z"/>
  <path fill="#FF0000" d="M86.576192 180.518053h-30.878v-3.498c1.118-.029 2.554-.146 4.31-.347 1.758-.194 2.963-.472 3.621-.838 1.019-.62 1.767-1.333 2.241-2.142.477-.805.713-1.813.713-3.029v-50.821h-.738l-23.836 59.54h-2.461l-22.704-60.77h-.64v41.712c0 4.036.255 7.108.763 9.208.51 2.102 1.289 3.611 2.341 4.527.723.688 2.214 1.352 4.479 1.976s3.744.953 4.433.981v3.496h-28.22v-3.496c1.479-.129 3.028-.375 4.653-.735 1.625-.361 2.88-.901 3.768-1.625 1.15-.915 1.938-2.33 2.364-4.236.429-1.899.64-5.088.64-9.554v-35.756c0-2.067-.245-3.757-.738-5.069-.491-1.312-1.198-2.379-2.117-3.201-1.018-.887-2.265-1.542-3.743-1.972-1.478-.424-2.938-.668-4.382-.738v-3.495h23.836l19.993 52.399 17.091-43.831c.623-1.604 1.157-3.288 1.601-5.048.443-1.757.683-2.932.714-3.521h22.801v3.496c-.919.034-2.094.183-3.521.444-1.428.266-2.471.512-3.127.737-1.115.393-1.872 1.055-2.267 1.972-.395.919-.591 1.919-.591 3.003v50.379c0 1.15.196 2.117.591 2.906.395.785 1.149 1.479 2.267 2.064.592.334 1.643.637 3.153.914 1.509.275 2.708.437 3.594.465v3.5h-.004v.003z"/>
  <path fill="#FF0000" d="M130.284192 179.629053c-1.542.563-2.895 1.01-4.062 1.356-1.167.345-2.487.516-3.965.516-2.563 0-4.604-.596-6.132-1.796-1.526-1.197-2.503-2.943-2.93-5.244h-.296c-2.134 2.361-4.424 4.172-6.871 5.416-2.446 1.252-5.393 1.871-8.84 1.871-3.645 0-6.64-1.109-8.987-3.35-2.348-2.229-3.52-5.151-3.52-8.765 0-1.872.262-3.549.788-5.024.526-1.479 1.314-2.807 2.363-3.988.822-.98 1.905-1.857 3.25-2.634 1.348-.769 2.61-1.382 3.792-1.847 1.48-.557 4.475-1.593 8.988-3.104 4.515-1.505 7.559-2.687 9.135-3.544v-4.874c0-.427-.089-1.248-.271-2.462-.182-1.214-.566-2.365-1.158-3.449-.657-1.21-1.583-2.271-2.783-3.175-1.197-.9-2.896-1.354-5.096-1.354-1.512 0-2.914.255-4.211.762-1.297.514-2.208 1.044-2.732 1.602 0 .66.156 1.625.468 2.905.313 1.278.468 2.462.468 3.545 0 1.15-.518 2.2-1.553 3.15-1.033.959-2.47 1.428-4.308 1.428-1.641 0-2.848-.578-3.621-1.747-.77-1.161-1.156-2.468-1.156-3.915 0-1.509.533-2.955 1.601-4.335 1.067-1.378 2.454-2.608 4.163-3.691 1.478-.915 3.267-1.701 5.367-2.34 2.103-.642 4.153-.961 6.156-.961 2.758 0 5.161.19 7.215.565 2.053.381 3.915 1.191 5.59 2.439 1.673 1.217 2.946 2.866 3.816 4.948.87 2.088 1.305 4.77 1.305 8.053 0 4.695-.051 8.857-.147 12.482-.1 3.63-.146 7.595-.146 11.896 0 1.279.221 2.3.664 3.056.443.758 1.125 1.396 2.045 1.918.492.298 1.271.461 2.34.492 1.066.034 2.157.053 3.273.053v3.146h-.002zm-17.186-26.003c-2.792.823-5.236 1.623-7.338 2.413-2.103.787-4.055 1.771-5.859 2.955-1.643 1.117-2.939 2.438-3.893 3.962-.949 1.526-1.428 3.347-1.428 5.442 0 2.729.714 4.728 2.143 6.009 1.429 1.278 3.24 1.921 5.441 1.921 2.331 0 4.383-.568 6.156-1.7 1.772-1.134 3.268-2.466 4.481-4.015l.297-16.987z"/>
  <path fill="#FF0000" d="M156.707192 156.730053c1.346 1.182 2.381 2.546 3.104 4.084.723 1.547 1.083 3.435 1.083 5.664 0 4.502-1.685 8.177-5.046 11.033-3.366 2.854-7.727 4.285-13.076 4.285-2.825 0-5.427-.512-7.807-1.529-2.382-1.017-4.081-1.95-5.098-2.807l-.984 3.202h-3.693l-.492-16.896h3.397c.263 1.279.82 2.778 1.674 4.479.854 1.708 1.888 3.249 3.104 4.629 1.28 1.448 2.814 2.66 4.604 3.646 1.789.982 3.801 1.48 6.033 1.48 3.151 0 5.582-.715 7.29-2.146 1.706-1.426 2.562-3.471 2.562-6.133 0-1.379-.27-2.563-.813-3.566-.542-1-1.339-1.876-2.389-2.637-1.083-.756-2.413-1.433-3.989-2.043-1.576-.606-3.332-1.207-5.27-1.799-1.545-.459-3.259-1.088-5.146-1.896-1.889-.806-3.505-1.752-4.852-2.833-1.444-1.146-2.626-2.563-3.546-4.235-.919-1.673-1.38-3.644-1.38-5.909 0-3.973 1.479-7.336 4.433-10.097 2.956-2.758 6.912-4.138 11.87-4.138 1.901 0 3.849.246 5.836.735 1.984.497 3.602 1.085 4.851 1.773l1.133-2.56h3.545l.738 15.608h-3.397c-.689-3.479-2.176-6.309-4.458-8.496-2.283-2.181-5.065-3.273-8.35-3.273-2.69 0-4.811.676-6.353 2.021-1.543 1.351-2.314 2.975-2.314 4.876 0 1.479.253 2.709.763 3.693.51.986 1.271 1.82 2.291 2.513.983.659 2.223 1.275 3.718 1.847 1.494.574 3.34 1.228 5.542 1.945 2.167.688 4.211 1.497 6.131 2.412 1.92.934 3.502 1.955 4.751 3.068z"/>
  <path fill="#FF0000" d="M187.710192 178.396053c-2.135.889-4.153 1.637-6.058 2.242-1.904.61-4.236.91-6.993.91-4.072 0-6.937-1.021-8.594-3.076-1.659-2.051-2.488-4.951-2.488-8.69v-32.896h-8.767v-4.73h8.964v-15.118h8.963v15.118h13.937v4.73h-13.838v27.133c0 2.039.073 3.738.222 5.101.147 1.362.5 2.558 1.058 3.569.525.953 1.314 1.676 2.364 2.166 1.05.492 2.462.738 4.234.738.82 0 2.026-.074 3.621-.226 1.593-.146 2.716-.332 3.374-.565l.001 3.594z"/>
  <path fill="#FF0000" d="M225.261192 169.092053c-2.035 3.875-4.76 6.961-8.175 9.258-3.414 2.299-7.338 3.444-11.77 3.444-3.906 0-7.329-.688-10.27-2.067-2.937-1.377-5.358-3.252-7.264-5.613-1.903-2.362-3.324-5.119-4.26-8.271-.937-3.154-1.403-6.479-1.403-9.996 0-3.151.501-6.246 1.502-9.285 1.002-3.032 2.471-5.768 4.408-8.198 1.872-2.327 4.194-4.209 6.968-5.64 2.775-1.429 5.887-2.142 9.334-2.142 3.545 0 6.582.562 9.109 1.674 2.529 1.118 4.58 2.644 6.156 4.578 1.511 1.844 2.635 4.012 3.374 6.504.737 2.494 1.108 5.205 1.108 8.123v3.251h-32.157c0 3.188.303 6.076.909 8.67.609 2.595 1.568 4.875 2.882 6.847 1.278 1.905 2.953 3.406 5.022 4.506 2.067 1.104 4.53 1.646 7.387 1.646 2.922 0 5.441-.68 7.559-2.047 2.12-1.354 4.163-3.813 6.132-7.357l3.449 2.115zm-10.884-18.517c0-1.839-.155-3.808-.467-5.909-.313-2.102-.813-3.857-1.502-5.271-.754-1.507-1.789-2.734-3.104-3.693-1.312-.949-3.005-1.427-5.071-1.427-3.449 0-6.313 1.436-8.595 4.311-2.28 2.873-3.52 6.868-3.717 11.988l22.456.001z"/>
  <path fill="#FF0000" d="M257.691192 138.212053c0 1.673-.411 3.16-1.23 4.457-.82 1.3-2.083 1.944-3.79 1.944-1.841 0-3.243-.477-4.214-1.43-.967-.949-1.452-2.001-1.452-3.149 0-.723.057-1.379.172-1.971.114-.594.221-1.185.319-1.773-1.542 0-3.35.623-5.417 1.871-2.068 1.25-3.824 3.021-5.271 5.317v28.268c0 1.154.224 2.088.666 2.811.442.725 1.141 1.265 2.092 1.625.822.33 1.881.574 3.176.734 1.299.17 2.422.281 3.376.348v3.25h-25.61v-3.25c.756-.065 1.536-.127 2.339-.195.805-.063 1.502-.194 2.094-.397.918-.295 1.601-.812 2.043-1.549.443-.738.664-1.699.664-2.879v-29.992c0-1.017-.238-2.021-.713-3.004-.476-.986-1.143-1.772-1.996-2.364-.622-.396-1.359-.678-2.215-.862-.854-.177-1.773-.3-2.758-.367v-3.202l16.152-1.084.689.689v6.846h.246c2.038-2.661 4.304-4.679 6.797-6.057 2.496-1.381 4.777-2.069 6.845-2.069 2.069 0 3.752.675 5.049 2.021 1.3 1.344 1.947 3.148 1.947 5.413z"/>
  <path fill="#FF0000" d="M310.143192 148.457053c1.476 1.646 2.565 3.441 3.271 5.395.709 1.955 1.063 4.229 1.063 6.819 0 6.177-2.286 11.267-6.848 15.269-4.563 4.008-10.226 6.006-16.989 6.006-3.12 0-6.236-.479-9.356-1.45-3.119-.966-5.812-2.144-8.077-3.521l-2.117 3.597h-3.938l-.689-23.935h3.988c.821 2.953 1.782 5.625 2.882 8.002 1.102 2.385 2.554 4.604 4.359 6.674 1.707 1.939 3.701 3.48 5.981 4.629 2.283 1.151 4.934 1.723 7.951 1.723 2.267 0 4.242-.294 5.936-.886 1.691-.593 3.064-1.433 4.112-2.513 1.05-1.084 1.827-2.354 2.34-3.815.511-1.458.765-3.144.765-5.05 0-2.784-.787-5.392-2.361-7.807-1.575-2.414-3.922-4.242-7.045-5.49-2.135-.854-4.58-1.799-7.338-2.832-2.756-1.033-5.138-2.01-7.14-2.933-3.938-1.771-7.002-4.094-9.186-6.968-2.184-2.871-3.273-6.626-3.273-11.256 0-2.655.542-5.135 1.624-7.436 1.084-2.296 2.625-4.352 4.629-6.156 1.904-1.704 4.154-3.045 6.747-4.014 2.593-.968 5.304-1.452 8.125-1.452 3.218 0 6.099.49 8.644 1.479 2.543.982 4.869 2.136 6.967 3.443l2.021-3.349h3.94l.396 23.195h-3.988c-.719-2.659-1.533-5.199-2.438-7.636-.901-2.427-2.073-4.629-3.521-6.598-1.41-1.901-3.135-3.426-5.168-4.559-2.037-1.13-4.533-1.699-7.485-1.699-3.117 0-5.778 1.005-7.979 3.003-2.2 2.008-3.3 4.452-3.3 7.338 0 3.023.705 5.525 2.118 7.512 1.411 1.987 3.465 3.619 6.155 4.898 2.397 1.15 4.751 2.142 7.063 2.976 2.315.84 4.557 1.737 6.723 2.687 1.973.854 3.865 1.823 5.688 2.908 1.815 1.094 3.399 2.357 4.748 3.802z"/>
  <path fill="#FF0000" d="M307.755192 196.375053c0-1.641.447-2.979 1.354-4.016.9-1.035 2.023-1.551 3.373-1.551 1.049 0 1.951.192 2.709.592.754.396 1.428.906 2.02 1.524.492.49 1.021 1.167 1.576 2.019.559.857 1.002 1.564 1.328 2.119 1.645-.887 3.604-3.203 5.889-6.942 2.277-3.745 3.936-7.022 4.947-9.853-3.123-7.778-5.941-14.737-8.471-20.881-2.529-6.139-5.172-12.49-7.928-19.061-.623-1.506-1.676-2.685-3.152-3.522-1.477-.838-2.955-1.369-4.434-1.602v-3.25h22.164v3.447c-.988.034-2.168.241-3.547.615-1.379.38-2.068.813-2.068 1.305 0 .196.073.527.223.985.147.461.317.938.519 1.427 1.247 3.251 3.147 7.941 5.712 14.062 2.564 6.128 4.548 11.023 5.958 14.702 1.479-3.515 3.015-7.147 4.604-10.907 1.594-3.76 3.379-8.199 5.346-13.322.23-.621.563-1.481.982-2.583.426-1.101.643-2.045.643-2.832 0-.852-.744-1.65-2.24-2.39-1.496-.736-2.913-1.19-4.262-1.356v-3.151h18.025v3.057c-.986.167-2.287.731-3.892 1.697-1.61.972-2.81 2.341-3.597 4.112-3.908 9.063-7.385 17.319-10.416 24.772-3.039 7.454-5.344 12.937-6.918 16.446-2.07 4.603-3.916 8.185-5.541 10.763-1.625 2.58-3.213 4.604-4.754 6.08-1.512 1.381-2.881 2.311-4.109 2.785s-2.508.714-3.813.714c-2.563 0-4.574-.606-6.035-1.819-1.466-1.21-2.195-2.61-2.195-4.185z"/>
  <path fill="#FF0000" d="M382.687192 156.730053c1.342 1.182 2.379 2.546 3.102 4.084.723 1.547 1.082 3.435 1.082 5.664 0 4.502-1.684 8.177-5.045 11.033-3.369 2.854-7.726 4.285-13.078 4.285-2.82 0-5.428-.512-7.803-1.529-2.384-1.017-4.082-1.95-5.1-2.807l-.986 3.202h-3.693l-.491-16.896h3.397c.26 1.279.817 2.778 1.676 4.479.854 1.708 1.886 3.249 3.104 4.629 1.278 1.448 2.812 2.66 4.604 3.646 1.787.982 3.798 1.48 6.031 1.48 3.15 0 5.582-.715 7.289-2.146 1.703-1.426 2.561-3.471 2.561-6.133 0-1.379-.271-2.563-.813-3.566-.543-1-1.34-1.876-2.392-2.637-1.08-.756-2.411-1.433-3.985-2.043-1.576-.606-3.334-1.207-5.272-1.799-1.546-.459-3.261-1.088-5.146-1.896-1.892-.806-3.504-1.752-4.851-2.833-1.442-1.146-2.629-2.563-3.548-4.235-.922-1.673-1.379-3.644-1.379-5.909 0-3.973 1.48-7.336 4.436-10.097 2.956-2.758 6.906-4.138 11.867-4.138 1.902 0 3.852.246 5.834.735 1.984.497 3.605 1.085 4.854 1.773l1.135-2.56h3.543l.738 15.608h-3.397c-.688-3.479-2.177-6.309-4.452-8.496-2.287-2.181-5.064-3.273-8.352-3.273-2.692 0-4.813.676-6.354 2.021-1.544 1.351-2.313 2.975-2.313 4.876 0 1.479.252 2.709.763 3.693.51.986 1.272 1.82 2.29 2.513.986.659 2.229 1.275 3.722 1.847 1.488.574 3.339 1.228 5.539 1.945 2.171.688 4.212 1.497 6.134 2.412 1.914.934 3.499 1.955 4.749 3.068z"/>
  <path fill="#FF0000" d="M413.686192 178.396053c-2.132.889-4.151 1.637-6.06 2.242-1.901.61-4.23.91-6.989.91-4.071 0-6.937-1.021-8.595-3.076-1.658-2.051-2.487-4.951-2.487-8.69v-32.896h-8.765v-4.73h8.959v-15.118h8.966v15.118h13.937v4.73h-13.84v27.133c0 2.039.075 3.738.223 5.101s.502 2.558 1.064 3.569c.521.953 1.313 1.676 2.357 2.166 1.051.492 2.463.738 4.234.738.821 0 2.027-.074 3.62-.226 1.593-.146 2.718-.332 3.374-.565l.002 3.594z"/>
  <path fill="#FF0000" d="M451.238192 169.092053c-2.033 3.875-4.76 6.961-8.176 9.258-3.414 2.299-7.338 3.444-11.771 3.444-3.898 0-7.326-.688-10.266-2.067-2.938-1.377-5.357-3.252-7.268-5.613-1.9-2.362-3.324-5.119-4.26-8.271-.938-3.154-1.401-6.479-1.401-9.996 0-3.151.504-6.246 1.501-9.285 1.001-3.032 2.473-5.768 4.408-8.198 1.869-2.327 4.193-4.209 6.968-5.64 2.772-1.429 5.886-2.142 9.329-2.142 3.549 0 6.584.562 9.111 1.674 2.529 1.118 4.58 2.644 6.156 4.578 1.512 1.844 2.635 4.012 3.375 6.504.734 2.494 1.104 5.205 1.104 8.123v3.251h-32.154c0 3.188.305 6.076.91 8.67.604 2.595 1.564 4.875 2.883 6.847 1.275 1.905 2.957 3.406 5.02 4.506 2.066 1.104 4.527 1.646 7.389 1.646 2.924 0 5.439-.68 7.561-2.047 2.117-1.354 4.162-3.813 6.135-7.357l3.446 2.115zm-10.885-18.517c0-1.839-.154-3.808-.467-5.909-.309-2.102-.813-3.857-1.502-5.271-.752-1.507-1.785-2.734-3.102-3.693-1.316-.949-3.006-1.427-5.074-1.427-3.445 0-6.313 1.436-8.594 4.311-2.279 2.873-3.521 6.868-3.718 11.988l22.457.001z"/>
  <path fill="#FF0000" d="M529.667192 180.518053h-23.689v-3.254c.756-.063 1.52-.127 2.291-.193.77-.064 1.449-.196 2.041-.396.918-.297 1.602-.813 2.045-1.551.445-.736.666-1.7.666-2.879v-25.068c0-3.412-.781-6.048-2.342-7.903-1.561-1.854-3.502-2.782-5.832-2.782-1.609 0-3.121.243-4.531.736-1.412.491-2.709 1.18-3.889 2.068-.957.726-1.752 1.501-2.395 2.339-.639.838-1.123 1.538-1.453 2.092v28.021c0 1.154.199 2.096.594 2.834.396.736 1.064 1.307 2.02 1.699.756.296 1.438.518 2.045.665.605.146 1.402.256 2.387.319v3.25h-23.189v-3.25c.756-.063 1.479-.129 2.188-.195.703-.063 1.355-.195 1.941-.398.922-.295 1.602-.813 2.045-1.55.445-.737.67-1.698.67-2.882v-25.066c0-3.412-.783-6.047-2.346-7.903-1.557-1.854-3.504-2.783-5.83-2.783-1.609 0-3.123.256-4.533.766-1.412.515-2.709 1.208-3.891 2.094-.951.724-1.756 1.536-2.412 2.437-.656.908-1.148 1.586-1.48 2.044v27.825c0 1.117.232 2.055.691 2.807.459.76 1.146 1.331 2.063 1.727.689.33 1.398.572 2.117.735.729.167 1.527.281 2.414.347v3.252h-23.593v-3.252c.756-.063 1.535-.127 2.344-.195.801-.061 1.496-.194 2.092-.396.918-.295 1.602-.813 2.041-1.552.443-.735.664-1.696.664-2.88v-30.188c0-1.048-.232-1.994-.713-2.83-.477-.84-1.141-1.555-1.992-2.146-.625-.396-1.395-.715-2.313-.959-.92-.248-1.871-.399-2.857-.471v-3.199l16.254-1.083.688.688v6.943h.346c.82-.816 1.822-1.79 3.004-2.906 1.186-1.111 2.283-2.021 3.301-2.707 1.148-.786 2.588-1.441 4.314-1.971 1.721-.521 3.586-.788 5.588-.788 3.15 0 5.857.847 8.125 2.535 2.27 1.693 3.895 3.737 4.875 6.133 1.184-1.146 2.227-2.156 3.129-3.028.902-.868 2.094-1.796 3.57-2.782 1.25-.854 2.715-1.543 4.408-2.069 1.688-.521 3.566-.788 5.639-.788 4.104 0 7.354 1.352 9.754 4.037 2.393 2.694 3.592 6.834 3.592 12.415v24.671c0 1.151.195 2.092.596 2.832.395.735 1.064 1.31 2.02 1.698.756.296 1.5.518 2.238.667.74.145 1.566.254 2.488.317v3.252h-.006v-.002z"/>
  <g>
    <path fill="#FF0000" d="M566.92911588 143.75480337h-6.51584308v-.93108076c.19713865 0 .48463252-.02727014.85734778-.04869669.36963496-.02727014.61297798-.07012323.7402967-.1295332.20535276-.12758533.34191234-.23958772.4137858-.32042423.073927-.08375831.11294402-.21718725.11294402-.39346927v-8.05443286h-.2833868l-4.59374125 9.48221987h-.6098977l-4.46642252-9.66531943h-.27927976v6.50490412c0 .62721339.04107056 1.10638884.12321166 1.43752634.08419463.3252939.22075422.57364704.42610698.74116366.16017515.09447158.4394549.19478676.82654486.29315408.39017024.10226306.73002906.15290761 1.01752292.15290761v.93108076h-5.93572153v-.89114947c.20329924-.03311375.50003397-.08181044.89431127-.13148107.3942773-.0545403.69306557-.14316827.89431127-.28049294.21459364-.14803795.3573138-.368147.43329433-.63987453.073927-.27854508.11089049-.78596461.11089049-1.53491974v-6.20201069c0-.28536261-.04723114-.51910674-.13861312-.71291957-.0934355-.19381283-.22999509-.36035552-.40659846-.49962806-.1930316-.1412204-.43021403-.250301-.70846702-.31165883-.27927976-.06817537-.6098977-.11102846-.97234532-.13635074v-.91062814h5.24265596l3.97254914 8.42939739 3.31644708-6.91103453c.13655958-.3019195.24026273-.5814385.3090559-.85024424.06981994-.2678318.12937224-.4889148.15812163-.66811862h5.05065113v.91062814c-.21048658 0-.48976633.0428531-.81627722.08765405-.3378053.0486967-.56882715.09544551-.70949379.1412204-.19097806.03408769-.3090559.11589813-.35526027.25224887-.05031143.1266114-.07598052.26101427-.07598052.39541714v8.6456107c0 .16459482.02772262.30191949.07598052.4002868.04928466.09739339.16838926.1957607.35526027.27757115.12731871.03311375.34807293.0808365.64891472.1266114.31008267.05648816.6016836.08765404.87685629.08765404v.93108076l.01026764-.00486967zm-20.3422444-8.71865574h-.90457892c-.130399-.3944432-.37887584-.88530586-.76391226-1.4794055-.38708996-.58630817-.75569816-.91939355-1.12738666-.99049072-.26798535-.02337441-.54315805-.03895735-.80703634-.0545403-.26593183 0-.48463252-.02240047-.66020913-.02240047h-.92203389v9.36047813c0 .16556876.02977615.30678916.08830169.41879156.056472.11297632.18789777.21426544.38503642.29802375.12731871.03798342.3573138.08278438.69717262.14998581.34191235.0662275.65404854.09544552.93743535.09544552v.93205468h-6.64418855v-.93205468c.2495036 0 .56061304-.02532228.92614095-.0603839.36552791-.03993129.60579064-.0779147.71052055-.1120024.19097807-.05940996.31418972-.15485547.37887584-.2882844.0626326-.1266114.09138198-.26101428.09138198-.39249535v-9.46663692h-.92408742c-.18789777 0-.43740138 0-.74953757.02727015-.3121362.02337441-.55239893.03019195-.7146276.04285309-.38914349.0574621-.77007286.3885996-1.14073459.99049071-.37271526.60383898-.61913857 1.09567557-.74645728 1.47550977h-.90457891v-3.5402495h12.7893699l.00513381 3.54804097z"/>
  </g>
</svg>
