<svg xmlns:dc="http://purl.org/dc/elements/1.1/" xmlns:cc="http://creativecommons.org/ns#" xmlns:rdf="http://www.w3.org/1999/02/22-rdf-syntax-ns#" xmlns:svg="http://www.w3.org/2000/svg" xmlns:sodipodi="http://sodipodi.sourceforge.net/DTD/sodipodi-0.dtd" xmlns:inkscape="http://www.inkscape.org/namespaces/inkscape" inkscape:version="0.47 r22583" sodipodi:docname="MSX-Logo.svg" xmlns="http://www.w3.org/2000/svg" xmlns:xlink="http://www.w3.org/1999/xlink" x="0px" y="0px" width="566.929px" height="234.744px" viewBox="-27.464 0 566.929 234.744">
  <defs>
    <inkscape:perspective inkscape:vp_z="744.09448 : 526.18109 : 1" inkscape:vp_y="0 : 1000 : 0" inkscape:vp_x="0 : 526.18109 : 1" sodipodi:type="inkscape:persp3d" inkscape:persp3d-origin="372.04724 : 350.78739 : 1"/>
    <inkscape:perspective inkscape:vp_z="1 : 0.5 : 1" inkscape:vp_y="0 : 1000 : 0" inkscape:vp_x="0 : 0.5 : 1" sodipodi:type="inkscape:persp3d" inkscape:persp3d-origin="0.5 : 0.33333333 : 1"/>
  </defs>
  <sodipodi:namedview showgrid="false" inkscape:cy="142.45913" inkscape:cx="125.21669" inkscape:zoom="2" borderopacity="1.0" bordercolor="#666666" pagecolor="#ffffff" inkscape:window-maximized="1" inkscape:window-y="-4" inkscape:window-x="-4" inkscape:window-height="968" inkscape:window-width="1280" inkscape:current-layer="layer1" inkscape:document-units="px" inkscape:pageshadow="2" inkscape:pageopacity="0.0"/>
  <rect x="-27.464" width="566.929" height="234.744"/>
  <path sodipodi:nodetypes="cccccccccccccccccccccccccccccccccccc" fill="#FFFFFF" d="M9.726 201.467L52.79 31.956h39.932l20.749 73.991 21.531-73.991h37.583l35.233 124.883 85.964-.162c9.024-.088 9.578-18.749-.668-18.744l-50.063-.668c-21.497.207-44.167-23.05-43.063-54.025.229-28.412 25.004-50.786 56.698-50.778l127.69-.114 32.494 44.238 31.71-44.629 52.85.392-57.938 81.428 62.637 88.293-52.573-.162-36.456-50.662-34.681 50.662-53.633-.047 61.072-87.301-26.622-38.757-110.999.162c-12.114.111-11.669 19.169.095 18.812l46.768.716c19.767.127 47.604 20.668 46.911 52.736.302 37.28-33.275 54.312-49.441 53.402l-122.419.163-20.357-76.272-20.357 76.109H94.793l-21.255-75.718-18.677 75.833-45.135-.279z"/>
</svg>
