<svg xmlns:svg="http://www.w3.org/2000/svg" xmlns="http://www.w3.org/2000/svg" xmlns:xlink="http://www.w3.org/1999/xlink" x="0px" y="0px" width="566.929px" height="102.84px">
  <polygon fill="#0222A9" points="51.491,11.127 39.613,32.324 51.491,27.772 62.829,32.113 65.865,28.707 
				65.865,5.553 			"/>
  <polygon fill="#011DA9" points="88.391,87.288 66.938,59.29 66.938,96.307 51.491,102.842 51.491,39.606 
				66.938,33.69 88.391,64.354 88.391,25.369 102.98,19.742 102.98,81.161 			"/>
  <polygon fill="#0222A9" points="14.589,87.288 28.277,81.227 14.589,54.653 			"/>
  <polygon fill="#069330" points="29.178,19.742 36.044,33.689 39.613,32.324 51.491,11.127 37.117,5.535 			"/>
  <polygon fill="#069330" points="62.829,32.113 73.807,19.742 88.391,25.369 88.391,64.354 66.938,33.69 			"/>
  <polygon fill="#069330" points="14.589,25.369 0,19.742 0,81.161 14.589,87.288 14.589,54.653 36.044,96.307 
				51.491,102.842 51.491,39.606 36.044,33.689 36.044,65.792 			"/>
  <g>
    <polygon fill="#FE2015" points="36.044,33.689 36.044,65.792 14.589,25.369 29.178,19.742 			"/>
    <polygon fill="#FE2015" points="88.391,87.288 66.938,59.29 66.938,74.586 71.321,80.731 			"/>
  </g>
  <g>
    <polygon fill="#FFC001" points="66.938,33.689 51.491,39.606 36.044,33.689 51.491,27.772 			"/>
    <polygon fill="#FFC001" points="73.802,19.742 88.391,14.129 102.98,19.742 88.391,25.369 			"/>
    <polygon fill="#FFC001" points="0,19.742 14.589,14.129 29.178,19.742 14.589,25.369 			"/>
    <polygon fill="#FFC001" points="65.865,5.553 51.491,0 37.117,5.535 51.491,11.127 			"/>
  </g>
  <g>
    <polygon fill="#7B7692" points="154.07,81.252 175.447,81.252 175.447,33.752 160.984,33.752 160.984,60.989 
				160.859,60.989 151.323,33.752 129.948,33.752 129.948,81.252 144.403,81.252 144.403,53.834 144.533,53.834 			"/>
    <polygon fill="#7B7692" points="234.714,81.252 256.089,81.252 256.089,33.752 241.636,33.752 241.636,60.989 
				241.505,60.989 231.968,33.752 210.595,33.752 210.595,81.252 225.056,81.252 225.056,53.834 225.181,53.834 			"/>
    <polygon fill="#7B7692" points="373.578,81.252 394.957,81.252 394.957,33.752 380.498,33.752 380.498,60.989 
				380.369,60.989 370.833,33.752 349.457,33.752 349.457,81.252 363.914,81.252 363.914,53.834 364.041,53.834 			"/>
    <polygon fill="#7B7692" points="184.179,33.752 202.009,33.752 202.009,81.252 184.179,81.252 			"/>
    <polygon fill="#7B7692" points="272.591,46.655 261.261,46.655 261.261,33.752 301.784,33.752 301.784,46.655 
				290.416,46.655 290.416,81.252 272.591,81.252 			"/>
    <polygon fill="#7B7692" points="307.05,33.739 342.31,33.739 342.31,46.303 324.597,46.303 324.597,51.27 
				340.906,51.27 340.906,63.448 324.597,63.448 324.597,68.778 342.875,68.778 342.875,81.237 307.05,81.237 			"/>
    <g>
      <path fill="#0124A6" d="M402.63 33.752h21.123c18.016 0 23.75 10.197 23.75 24.276 0 14.342-8.848 23.225-22.684 23.225H402.63V33.752zm17.453 36.707h1.738c2.869 0 4.789-.879 5.912-2.787 1.184-1.975 1.318-5.572 1.318-10.172 0-4.604-.135-8.194-1.318-10.172-1.123-1.91-3.043-2.789-5.912-2.789h-1.738v25.92z"/>
      <path fill="#0124A6" d="M475.451 32.506c15.521 0 23.244 10.193 23.244 24.995 0 14.805-7.725 25.002-23.244 25.002-15.523 0-23.246-10.197-23.246-25.002 0-14.802 7.72-24.995 23.246-24.995zm0 37.959c2.738 0 4.801-1.346 4.801-12.965 0-11.357-1.939-12.961-4.801-12.961-2.865 0-4.801 1.604-4.801 12.961 0 11.62 2.058 12.965 4.801 12.965z"/>
      <path fill="#0124A6" d="M507.025 71.231c-3.107 0-5.629 2.521-5.629 5.633 0 3.115 2.521 5.639 5.629 5.639 3.115 0 5.641-2.523 5.641-5.639-.002-3.112-2.526-5.633-5.641-5.633zm0 10.283c-2.563 0-4.637-2.078-4.637-4.65 0-2.568 2.072-4.646 4.637-4.646 2.574 0 4.656 2.08 4.656 4.646 0 2.572-2.082 4.65-4.656 4.65z"/>
      <path fill="#0124A6" d="M506.109 79.961h-1.328v-6.199h2.635c1.068.018 2.154.357 2.154 1.615 0 .803-.52 1.342-1.287 1.504v.014c1.021.119 1.021.74 1.135 1.602.059.391.105 1.123.359 1.465h-1.469c-.111-.549-.174-1.107-.232-1.662-.035-.344-.117-.818-.559-.836h-1.408v2.497zm0-3.527h1.119c.582-.008.928-.305.928-.85 0-.547-.346-.781-.928-.789h-1.119v1.639z"/>
      <polygon fill="#0124A6" points="154.07,81.252 175.447,81.252 175.447,33.752 160.984,33.752 160.984,60.989 
				160.859,60.989 151.323,33.752 129.948,33.752 129.948,81.252 144.403,81.252 144.403,53.834 144.533,53.834 			"/>
      <polygon fill="#0124A6" points="234.714,81.252 256.089,81.252 256.089,33.752 241.636,33.752 241.636,60.989 
				241.505,60.989 231.968,33.752 210.595,33.752 210.595,81.252 225.056,81.252 225.056,53.834 225.181,53.834 			"/>
      <polygon fill="#0124A6" points="373.578,81.252 394.957,81.252 394.957,33.752 380.498,33.752 380.498,60.989 
				380.369,60.989 370.833,33.752 349.457,33.752 349.457,81.252 363.914,81.252 363.914,53.834 364.041,53.834 			"/>
      <polygon fill="#0124A6" points="184.179,33.752 202.009,33.752 202.009,81.252 184.179,81.252 			"/>
      <polygon fill="#0124A6" points="272.591,46.655 261.261,46.655 261.261,33.752 301.784,33.752 301.784,46.655 
				290.416,46.655 290.416,81.252 272.591,81.252 			"/>
      <polygon fill="#0124A6" points="307.05,33.739 342.31,33.739 342.31,46.303 324.597,46.303 324.597,51.27 
				340.906,51.27 340.906,63.448 324.597,63.448 324.597,68.778 342.875,68.778 342.875,81.237 307.05,81.237 			"/>
    </g>
    <g>
      <path fill="#FF2D1E" d="M530.583 27.436c-.949-.083-1.871-.044-3.158.014-7.521.348-10.563 3.553-11.594 7.174h.182c1.873-1.637 4.188-2.401 7.289-2.401 5.965 0 11.414 4.338 11.414 12.476 0 7.788-5.986 13.852-14.02 13.852-10.584 0-15.186-8.083-15.186-16.75 0-7.041 2.498-13.004 6.598-16.85 3.902-3.615 8.932-5.441 15.09-5.582 1.631-.094 2.6 0 3.385.071v7.996zm-10.021 23.456c2.439 0 3.918-2.491 3.918-5.673-.02-2.686-1.25-5.613-4.52-5.613-1.998 0-3.555 1.266-4.143 2.795-.227.469-.313 1.137-.313 2.27.209 3.035 1.672 6.222 4.998 6.222h.06v-.001z"/>
      <path fill="#FF2D1E" d="M553.365 57.911v-8.524h-15.846v-6.811l12.723-22.671h12.66v21.673h4.027v7.809h-4.027v8.524h-9.537zm0-16.333v-6.531c0-2.414.145-4.922.268-7.565h-.207c-1.178 2.565-2.203 5.007-3.543 7.657l-3.113 6.326-.035.115 6.63-.002z"/>
    </g>
  </g>
</svg>
