<svg xmlns:cc="http://creativecommons.org/ns#" xmlns:dc="http://purl.org/dc/elements/1.1/" xmlns:rdf="http://www.w3.org/1999/02/22-rdf-syntax-ns#" xmlns="http://www.w3.org/2000/svg" xmlns:xlink="http://www.w3.org/1999/xlink" x="0px" y="0px" width="566.929px" height="96.834px">
  <path d="M353.81191971 58.21012242h2.2444788c2.09596772 0 5.67984835.43152277 7.15655288 1.29643636 1.47670453.8593094 2.45089986 1.82416442 2.9197839 2.89082892.47075211 1.0666645.70893026 3.419491.70893026 7.05287533v14.26547012c0 4.3049533-4.54873564 6.49806035-6.73997462 6.97441665-2.20151333.47448823-4.33951249.71266638-6.42333779.71266638-6.0058255 0-11.18970288-1.56263547-15.56097245-4.68977447-4.36566538-3.12900706-7.52923163-8.0195984-9.49256681-14.68952063-1.95866502-6.6605819-2.93566245-14.40464089-2.93566245-23.24992355 0-7.29572364.89480262-14.41211314 2.68534188-21.34449835 1.79520943-6.93425327 4.84575781-12.33669413 9.15444724-16.21479483 4.30868943-3.87436457 9.70926223-5.81248088 16.1933121-5.81248088 6.78667621 0 10.7581801 1.71768477 15.752449 6.90996844 5.10915482 5.30623556 10.01002051 11.3363459 12.8709604 20.18816678h4.17792496V-.00061739h-2.37711133c-.85744134 2.60314707-1.79334137 4.37126957-2.81610636 5.3043675-1.02743516.93683406-2.1389332 1.402916-3.32982394 1.402916-.76964234 0-3.25977154-.84623295-7.4610473-2.53869886-4.20127575-1.69433398-7.24435188-2.72270317-9.12082209-3.08510757-3.45498422-.72107267-6.1403261-1.08534513-10.44714747-1.08534513-13.91240604 0-25.4607772 4.7813096-34.63857524 14.34206074-9.17779803 9.56915743-13.76389496 21.28191821-13.76389496 35.14762266 0 7.7477951 1.48978098 14.7502327 4.47868325 21.00357668 2.34722232 4.84949394 5.60138966 9.20675303 9.76156801 13.08578776 4.16204642 3.87343054 8.96857488 7.00150357 14.4046409 9.38515314 5.44353825 2.37524327 12.2834543 3.56613402 20.51974812 3.56613402 6.44762262 0 12.66173725-.66596479 18.66195856-1.99789436 5.99835325-1.3356657 11.7660006-3.31207733 17.32629286-5.93203698V69.42784626c0-3.35971296.18960849-5.47249325.5725616-6.33180266.68184332-1.63642399 1.65043446-2.80489797 2.90857551-3.51196017 1.25533896-.70706219 4.68510432-1.16567188 7.88136168-1.39637778v-3.13834738H353.7969752v3.13834738l.01494451.02241677z"/>
  <path d="M457.90978165 83.04042805c-5.16052658 3.95095519-12.02939761 5.92549875-20.59540471 5.92549875h-4.8831191c-2.61715754 0-4.50763823-.35586618-5.68358447-1.07600482-1.16567188-.7192046-1.9726755-1.64109415-2.39859407-2.76380057-.42778664-1.12270641-.64261399-4.20127575-.64261399-9.22823576V50.1494266c4.40022456 0 9.55234485.57256159 11.86500799 1.72235493 2.31079507 1.14418915 4.33951248 3.38493182 6.08241612 6.71662383 1.7503759 3.32982393 2.89456505 7.0080418 3.43910568 12.22834642h3.71277704V23.43237642h-3.71277704c-.72854493 7.1191916-2.40419827 11.89863314-5.0353663 15.54602795-2.62929997 3.6473948-6.8707391 5.47155922-12.71684513 5.47155922h-3.63898852V12.66579002c-.028955-5.52479904 4.89619553-4.88498715 4.89619553-4.88498715h5.75363688c6.95667004 0 11.69501417.40723793 14.22437272 1.2189117 4.33577636 1.34780813 7.69175319 3.46152245 10.0623263 6.33927492 2.37337521 2.88055456 4.21061608 7.62263483 5.52106292 14.2355811h3.11499658V2.50819245h-77.4200411V6.2153653h2.44155955c2.97489179 0 5.32024604.62860351 7.0313926 1.88581053 1.2189117.85370521 2.0548703 2.07168289 2.50227161 3.64272465.22883783.93963615.3418557 3.48020308.3418557 7.61516257v57.26269737c0 4.5823608-.2484525 7.4143457-.74629154 8.4959547-.63047157 1.5252742-1.53554854 2.60501514-2.70495655 3.23455268-1.62521561.94524035-3.76601686 1.41599245-6.42146973 1.41599245h-2.4434276v4.30682137h78.73048794l4.73087187-29.11751232h-4.31989781c-2.25568718 8.10552935-5.9647281 14.13470565-11.12712274 18.08379278"/>
  <path d="M518.82734608 1.0716513c-13.19320143-.54454063-24.31285191 3.75480848-33.34213887 12.90738766-9.04703357 9.14510692-13.55653987 20.58139423-13.55653987 34.29111534 0 12.21526998 3.47273083 22.76983112 10.42379667 31.67022167 8.79297688 11.25788721 21.23801871 16.8947701 37.3379276 16.8947701 16.04666908 0 28.47863447-5.90214796 37.27534747-17.7129821 6.64096723-8.88824813 9.96331891-19.200895 9.96331891-30.920194 0-13.71065514-4.45533245-25.13106392-13.35385493-34.2602923-8.9078628-9.1301624-20.48051879-13.41830313-34.73197843-12.86909234m21.04467409 73.28414758c-2.15574577 6.3766362-5.16613077 11.01970907-9.03675921 13.91801024-3.03560387 2.2734338-6.81843331 3.40641456-11.35129041 3.40641456-6.7306343 0-11.95841119-2.63490416-15.70481338-7.8963062-5.36507958-7.53296775-8.05228953-19.17007194-8.05228953-34.924389 0-13.25578158 1.73636542-23.41898334 5.21283237-30.49707753 4.26572396-8.62018096 10.48637682-12.93073846 18.66569469-12.93073846 4.44319003 0 8.36892636 1.24973476 11.77720898 3.7464022 3.40828263 2.49479936 6.21131254 6.7745338 8.41002377 12.83079703 2.20151333 6.06280145 3.30086895 15.19016176 3.30086895 27.40543174 0 10.25567092-1.07600482 18.57415955-3.23455268 24.9526638"/>
  <path d="M226.50241496 96.30181381c16.04666907 0 28.4767664-5.90401601 37.27534745-17.71298209 6.63909918-8.89852248 9.96238489-19.19902693 9.96238489-30.920194 0-13.71065514-4.45533245-25.13012988-13.355723-34.2602923C251.47842957 4.27911706 239.90483955-.00808964 225.65431394.53925309c-13.19320144-.5436066-24.31285192 3.75574251-33.34213888 12.90832169-9.0451655 9.14417289-13.55653987 20.58139424-13.55653987 34.29111535 0 12.21433594 3.4717968 22.77076515 10.42566474 31.66928763 8.79017478 11.25788722 21.23615064 16.8947701 37.33699357 16.8947701m-18.89266446-78.42132337c4.26478993-8.62018095 10.48637682-12.93073845 18.66849679-12.93073845 4.442256 0 8.36612426 1.24693267 11.77440689 3.74453413 3.40828262 2.49666743 6.21224656 6.7745338 8.41282586 12.83079703 2.19871123 6.06186742 3.29900088 15.18922774 3.29900088 27.39702545 0 10.25567092-1.07600482 18.57602762-3.23361864 24.95266381-2.15294367 6.3766362-5.16613077 11.01970907-9.03675922 13.9254825-3.0337358 2.26969766-6.81749927 3.40454649-11.3512904 3.40454649-6.73063431 0-11.96027925-2.6330361-15.70761548-7.89630619-5.36414554-7.53296776-8.04948743-19.17007195-8.04948743-34.92345498 0-13.25578158 1.73543138-23.41898334 5.2109643-30.49707753"/>
  <path d="M180.00443592 64.22528824h-4.32176588c-2.25475315 8.10366129-5.96566212 14.13470565-11.12712274 18.08192472-5.1614606 3.95095519-12.0293976 5.92549875-20.58793246 5.92549875h-4.88405312c-2.61622352 0-4.50483614-.3596023-5.68078238-1.07413675-1.17034204-.72107268-1.9726755-1.64296222-2.40046213-2.76566864-.42685261-1.12457448-.642614-4.20127575-.642614-9.23010382V49.41434345c4.39929054 0 9.5532789.57442966 11.86687606 1.724223 2.31079507 1.14418915 4.34044652 3.38679989 6.08335015 6.71662383 1.74850783 3.331692 2.89363102 7.0080418 3.43817165 12.23021448h3.71371107V22.69916133h-3.71371107c-.7276109 7.1163895-2.4051323 11.89863314-5.03630033 15.54602795-2.62556384 3.64832883-6.86887103 5.47062519-12.71497707 5.47062519h-3.63992255V11.9316409c-.02988902-5.52573308 4.8980636-4.88498715 4.8980636-4.88498715h5.74896671c6.9613402 0 11.70528853.4063039 14.23464707 1.21610961 4.33857846 1.34780812 7.6917532 3.46432454 10.06326034 6.34114298 2.37337521 2.8786865 4.21248414 7.62543692 5.52386501 14.23371304h3.1121945V1.7497585H96.51879126v3.73052365h2.43969148c2.9748918 0 5.32024605.62953754 7.03232663 1.88394246 1.21704364.85370522 2.05113418 2.0716829 2.49946953 3.64365868.2279038.94057018.3418557 3.47926905.3418557 7.6132945v57.26456544c0 4.5823608-.24751848 7.4143457-.74442348 8.48848246-.62953754 1.52527419-1.53554854 2.6096853-2.70215446 3.23642074-1.62521561.94524034-3.76601686 1.41599245-6.42800795 1.41599245h-2.43969148v4.30682137h78.72955391l4.73273994-29.11751233.02428483.00934032z"/>
  <path d="M31.41302753 88.97713518h-2.08942949c-2.9982426 0-5.66116771-.92002148-7.98970939-2.7619325-2.32387151-1.84191103-3.48767533-5.38469425-3.48767533-10.64049209V20.26974421l59.90694185 74.68239342 3.88463892.0056042V18.78743548c0-4.3311062.3596023-5.58831322 1.07413675-7.3704462.71453445-1.78213298 1.71394865-3.06829499 2.9898363-3.85848603 1.27775573-.78832297 3.78282944-1.43093696 7.50961696-1.92784196V1.7553627H63.4923552v3.8752986c4.89899763-.08966707 8.39788135 1.1722101 10.4714323 3.78936766 1.51873597 1.93998438 2.27810395 3.86222215 2.27810395 9.36927459v39.88876888L29.60474165 1.7553627H1.22791669v3.07389918c2.6974843.08966706 2.7936896.99287597 4.23023075 1.75598008l7.60115209 7.65065578-.01027435 61.33227463c0 4.851362-.9583168 8.28299542-2.87121425 10.30237251-1.91476551 2.02124517-5.30903766 3.05241645-10.17814626 3.09724998v3.70717285h31.3993524v-3.70717285l.01401047.00934032z"/>
  <path stroke="#000000" stroke-width=".12422599000000001" d="M299.30460205 48.41679732c0 6.08615225-4.93355682 11.017841-11.01597294 11.017841-6.08708628 0-11.01877503-4.93542488-11.01877503-11.017841 0-6.08708628 4.93542487-11.017841 11.01877503-11.017841 6.08615225 0 11.01597294 4.93449085 11.01597294 11.017841z"/>
</svg>
