<?xml version="1.0" encoding="UTF-8"?>
<!-- Generator: Adobe Illustrator 13.0.0, SVG Export Plug-In . SVG Version: 6.00 Build 14948)  -->
<svg width="530" height="82" version="1.2" viewBox="14.968 80.666 530 82" xml:space="preserve" xmlns="http://www.w3.org/2000/svg" xmlns:cc="http://creativecommons.org/ns#" xmlns:dc="http://purl.org/dc/elements/1.1/" xmlns:rdf="http://www.w3.org/1999/02/22-rdf-syntax-ns#"><metadata><rdf:RDF><cc:Work rdf:about=""><dc:format>image/svg+xml</dc:format><dc:type rdf:resource="http://purl.org/dc/dcmitype/StillImage"/></cc:Work></rdf:RDF></metadata>

<g transform="translate(-8.5507 .64903)">
	
		<path d="m37.843 133.39c-0.077 0-0.156-0.018-0.229-0.053-7.506-3.644-11.381-7.89-11.208-12.282 0.142-3.616 3.092-7.03 8.534-9.874 5.162-2.697 12.444-4.838 21.058-6.19 0.288-0.046 0.557 0.15 0.602 0.438 0.045 0.286-0.151 0.557-0.438 0.602-17.449 2.74-28.447 8.514-28.703 15.067-0.153 3.886 3.616 7.896 10.615 11.294 0.262 0.127 0.371 0.439 0.244 0.703-0.092 0.185-0.279 0.295-0.475 0.295z" fill="#c61717"/>
	
	
		<path d="m103.27 106.42c-0.029 0-0.058-2e-3 -0.086-7e-3 -5.544-0.91-11.397-1.518-17.396-1.804-0.291-0.015-0.515-0.261-0.5-0.552 0.014-0.29 0.265-0.512 0.55-0.5 6.04 0.289 11.933 0.9 17.518 1.817 0.286 0.047 0.481 0.318 0.433 0.604-0.043 0.259-0.266 0.442-0.519 0.442z" fill="#c61717"/>
	
	
		<path d="m86.708 142.36c-0.147 0-0.293 0-0.441-1e-3 -0.291-1e-3 -0.525-0.237-0.524-0.527s0.235-0.524 0.525-0.524h2e-3 0.438c28.163 0 50.385-7.319 50.678-16.729 0.103-3.293-2.541-6.633-7.65-9.658-5.085-3.015-12.375-5.583-21.079-7.429-0.284-0.062-0.465-0.34-0.406-0.624 0.06-0.284 0.34-0.465 0.624-0.405 8.814 1.868 16.213 4.48 21.397 7.553 5.458 3.234 8.281 6.897 8.166 10.597-0.156 5.003-5.683 9.564-15.563 12.841-9.552 3.166-22.381 4.906-36.167 4.906z" fill="#c61717"/>
	
	<polygon points="93.116 116.8 97.7 121.58 96.238 114.96 110.13 104.37 93.814 110.89 89.228 106.11 90.69 112.73 76.797 123.32" fill="#c61717"/>
	<g fill="#c61717">
		<path d="m78.839 128.18c0.199-0.979 0.563-0.838 1.557-0.996l0.926-0.145-0.289 1.542-0.925 0.148c-0.994 0.158-1.432 0.424-1.269-0.549zm-2.006-1.413-0.72 3.875c-0.198 1.059 0.123 1.399 1.141 1.238l5.895-0.936 1.264-6.796-5.895 0.935c-1.02 0.161-1.49 0.626-1.685 1.684zm37.424-6.117-0.069 0.374 6.082-0.964c0.48-0.078 0.948-0.563 1.045-1.088 0.096-0.524-0.212-0.887-0.693-0.811l-1.562 0.246-2.492 0.397-0.631 0.099c-0.73 0.117-1.532 0.95-1.68 1.747zm-42.665 17.525 0.049-0.271c0.209 0.016 0.49 0.097 0.734 0.06l6.32-0.99c-0.235 1.26-1.9 1.575-4.442 1.979l-2.893 0.46-1.551 8.34 3.8-0.602c9.356-0.924 12.916-5.76 14.059-11.524l11.401-1.809 1.837-9.887 0.927-0.147c1.016-0.161 0.866-0.346 0.671 0.711l-1.682 9.044 8.185-1.298 0.112-0.6c0.617 0.272 1.339 0.368 2.104 0.248l14.155-2.244 1.32-7.106-0.917-0.652c0.795-0.941 1.415-2.094 1.594-3.061l0.223-1.121c0.706-4.19-3.158-5.304-4.921-5.023l-8.123 1.289c-1.438 0.229-3.023 1.231-4.176 2.56-1.066-1.056-2.711-1.466-3.668-1.314l-9.043 1.435 1.012 2.237 8.156-1.292c1.176-0.188 1.962 0.282 2.177 1.213-0.086 0.246-2.177 11.379-2.177 11.379l-2.925 0.465 1.568-8.428c0.194-1.056-0.125-1.396-1.141-1.235l-5.604 0.89-1.839 9.886-3.215 0.512 2.104-11.318-2.646-3.122-9.526 3.443 4.515-0.717 0.073-0.01-2.871 15.446c-0.73 3.923-4.917 7.675-8.63 8.266l-3.8 0.602 0.576-3.09 2.891-0.458c2.541-0.405 5.402-2.947 5.896-5.607l0.312-1.674-7.527 1.193c-1.614 0.257-2.49-0.724-2.173-2.429l1.35-7.262c0.239-1.289 1.044-2.36 2.121-2.918l0.019-0.193 3.776-2.906-2.206 0.37c-1.173 0.186-3.35 1.065-4.733 2.83-1.046-1.247-2.875-1.736-3.905-1.573l-8.113 1.289 1.322-7.107 5.919-0.938c3.151-0.499 6.638-4.043 7.257-7.372l0.89-4.788c0.62-3.332-1.723-5.95-4.874-5.45l-12.936 2.052-2.757 14.829-11.912 1.892c-1.008 0.159-1.989 1.154-2.186 2.22l-4.452 23.942c-0.198 1.066 0.459 1.801 1.468 1.643l22.729-3.607 1.839-9.886 0.925-0.147c1.019-0.16 0.869-0.343 0.671 0.713l-1.681 9.043zm-16.866-5.421-7.6 1.206 0.286-1.543 6.138-0.977 1.494-8.032-6.139 0.975 0.286-1.545 7.6-1.206zm-0.46 2.472-0.631 3.397-13.447 2.134 4.191-22.554 11.109-1.763-0.575 3.09-7.893 1.254-1.205 6.487 6.43-1.02-0.574 3.088-6.431 1.02-1.208 6.49zm15.446 0.849-3.216 0.509 1.567-8.427c0.197-1.056-0.123-1.397-1.141-1.237l-5.604 0.89-1.836 9.887-3.217 0.511 2.412-12.976 0.075-0.012 10.669-1.691c1.614-0.258 2.49 0.722 2.172 2.429zm20.901-15.91 3.144-0.498-2.413 12.976-3.215 0.51 2.41-12.974zm19.503 6.115 1.116-6.002c0.354-1.899 2.394-3.763 4.132-4.039l7.52-1.191c1.267-0.202 2.147 1.213 1.889 2.599l-0.369 1.931c-0.259 1.386-1.673 2.857-2.939 3.058l-7.806 1.24-0.112 0.701c-0.148 0.796 0.38 1.419 1.111 1.302l8.724-1.389-0.588 3.166-9.842 1.56c-1.739 0.274-3.187-1.036-2.836-2.936zm-46.521-16.821 1.091-5.871 4.092-0.647c0.537-0.085 0.811 0.221 0.704 0.786l-0.746 4.019c-0.107 0.567-0.513 0.979-1.05 1.065z"/>
		
			<path d="m89.753 112.21-0.869-3.44-0.489 0.06-0.158 0.848c-0.109 0.589-0.582 1.067-1.138 1.157l-3.362 0.532c-0.555 0.089-0.873-0.267-0.763-0.854l1.694-9.114c0.109-0.586 0.582-1.065 1.136-1.153l3.364-0.533c0.555-0.088 0.872 0.267 0.762 0.853l-0.216 1.16 6.797-1.08 0.259-1.389c0.651-3.507-1.733-6.172-5.052-5.646l-6.503 1.031c-3.317 0.527-6.868 4.135-7.519 7.641l-1.809 9.73c-0.651 3.508 1.732 6.173 5.051 5.646l2.174-0.343z"/>
			<path d="m94.571 110.13c0.177-0.477 0.3-0.658 0.391-1.146l0.231-1.238-2.705 0.43z"/>
		
	</g>

	
		<path d="m210.31 141.7h-35.514c-11.838 0-19.73-7.958-19.73-15.784s7.892-15.784 19.73-15.784h35.514v-7.893h-35.514c-15.784 0-27.622 10.26-27.622 23.677 0 13.416 11.838 23.676 27.622 23.676h35.514z" fill="#f9f9f9"/>
		<path d="m210.31 151.12h-35.514c-8.224 0-15.491-2.674-20.73-7.178-5.239-4.496-8.432-10.865-8.426-18.032-6e-3 -7.168 3.187-13.537 8.426-18.033 5.24-4.504 12.507-7.179 20.73-7.179h35.514 1.535v10.962h-1.535-35.514c-5.574 1e-3 -10.14 1.869-13.304 4.586-3.167 2.723-4.896 6.275-4.891 9.664-5e-3 3.388 1.724 6.94 4.891 9.663 3.165 2.718 7.73 4.585 13.304 4.586h35.514v1.535-1.535h1.535v10.961zm-54.244-40.916c-4.625 3.988-7.352 9.457-7.358 15.706 6e-3 6.249 2.733 11.718 7.358 15.706 4.626 3.979 11.169 6.435 18.729 6.435h33.98v-4.822h-33.98c-12.514-1e-3 -21.219-8.433-21.264-17.318 0.045-8.886 8.75-17.317 21.264-17.318h33.98v-4.823c-5.235-1e-3 -22.685-1e-3 -33.98-1e-3 -7.56-1e-3 -14.103 2.457-18.729 6.435z" fill="#020202"/>
	
	
		
			<path d="m418.58 102.24h-23.676c-15.785 0-27.622 10.26-27.622 23.677 0 13.416 11.837 23.676 27.622 23.676h23.676c15.784 0 27.621-10.26 27.621-23.676 0-13.417-11.837-23.677-27.621-23.677zm0 39.461h-23.676c-11.838 0-19.73-7.958-19.73-15.784s7.893-15.784 19.73-15.784h23.676c11.838 0 19.729 7.958 19.729 15.784s-7.891 15.784-19.729 15.784z" fill="#f9f9f9"/>
		
		
			<path d="m394.9 151.12c-8.224 0-15.492-2.673-20.729-7.178-5.241-4.496-8.433-10.865-8.427-18.032-6e-3 -7.168 3.186-13.537 8.427-18.033 5.237-4.504 12.506-7.178 20.729-7.178h23.676v3.069h-23.676c-7.563 0-14.104 2.457-18.73 6.435-4.625 3.989-7.352 9.457-7.357 15.707 6e-3 6.249 2.732 11.718 7.357 15.706 4.626 3.979 11.168 6.436 18.73 6.436h23.676c7.56 0 14.104-2.457 18.729-6.436 4.625-3.988 7.353-9.457 7.358-15.706-6e-3 -6.25-2.733-11.718-7.358-15.707-4.626-3.978-11.17-6.435-18.729-6.435v-3.069c8.223 0 15.491 2.674 20.73 7.178 5.239 4.496 8.431 10.865 8.426 18.033 5e-3 7.167-3.187 13.536-8.426 18.032-5.239 4.505-12.508 7.178-20.73 7.178zm0-7.892c-12.514-1e-3 -21.221-8.434-21.266-17.318 0.045-8.886 8.752-17.317 21.266-17.319h23.676c12.514 2e-3 21.219 8.434 21.264 17.319-0.045 8.885-8.75 17.317-21.264 17.318v-3.069c5.573-1e-3 10.14-1.868 13.303-4.586 3.168-2.722 4.897-6.275 4.893-9.663 5e-3 -3.389-1.725-6.941-4.893-9.664-3.163-2.717-7.729-4.585-13.303-4.586h-23.676c-5.575 1e-3 -10.141 1.869-13.305 4.586-3.167 2.723-4.896 6.275-4.892 9.664-5e-3 3.388 1.725 6.941 4.892 9.663 3.164 2.718 7.729 4.585 13.305 4.586h23.676v3.069z" fill="#020202"/>
		
	
	
		
			<path d="m253.72 102.24h-35.515v47.353h35.515c15.784 0 27.621-10.26 27.621-23.676 0-13.417-11.837-23.677-27.621-23.677zm0 39.461h-27.622v-31.568h27.622c11.838 0 19.729 7.958 19.729 15.784s-7.891 15.784-19.729 15.784z" fill="#f9f9f9"/>
		
		
			<path d="m230.93 151.12h-12.725-1.535v-50.422h1.535 11.048 24.464v3.07c-8.944-1e-3 -17.822-1e-3 -24.464 0-4.315-1e-3 -7.683-1e-3 -9.515-1e-3v44.283c2.124 1e-3 6.262 1e-3 11.192 1e-3 7.201-1e-3 16.08-1e-3 22.788 0 7.561-1e-3 14.104-2.457 18.73-6.436 4.626-3.988 7.353-9.457 7.357-15.706-4e-3 -6.249-2.73-11.718-7.357-15.706-4.625-3.979-11.169-6.436-18.73-6.437v-3.068c8.224-1e-3 15.493 2.674 20.729 7.178 5.242 4.496 8.434 10.865 8.428 18.033 6e-3 7.167-3.186 13.536-8.428 18.032-5.237 4.504-12.506 7.178-20.729 7.178-6.708 1e-3 -15.587 1e-3 -22.788 1e-3zm-4.833-7.892h-1.535v-34.637h1.535 27.621c12.516 1e-3 21.22 8.433 21.265 17.318-0.045 8.886-8.749 17.317-21.265 17.318v-3.069c5.574-1e-3 10.142-1.868 13.304-4.586 3.167-2.723 4.896-6.275 4.892-9.663 4e-3 -3.389-1.725-6.941-4.892-9.664-3.163-2.717-7.73-4.585-13.304-4.586h-26.087v28.499h26.087v3.069c-7.261 1e-3 -15.946 1e-3 -27.621 1e-3z" fill="#020202"/>
		
	
	
		
			<path d="m352.37 125.91c3.946 0 7.893-5.7 7.893-9.646 0-7.892-3.946-14.03-11.839-14.03h-47.352v47.353h7.893v-19.73h35.514c3.946 0 7.892 3.947 7.892 7.893v11.838h7.893v-11.838c0-7.893-7.894-11.84-7.894-11.84zm-7.891-3.946h-35.514v-11.838h35.514c3.945 0 7.892 2.192 7.892 6.138-1e-3 3.946-3.947 5.7-7.892 5.7z" fill="#f9f9f9"/>
		
		
			<path d="m350.84 151.12v-1.534c-2e-3 0-2e-3 -7.893 0-11.838 0.01-1.452-0.768-3.1-2.018-4.341-1.241-1.249-2.889-2.028-4.341-2.018h-33.979v19.73h-10.962v-50.422h1.535 20.717 26.635c4.344-0.02 7.854 1.758 10.089 4.646 2.245 2.88 3.281 6.725 3.284 10.92-0.021 2.476-1.142 5.081-2.786 7.24-0.887 1.135-1.942 2.173-3.152 2.898 0.491 0.396 1.016 0.854 1.544 1.382 2.143 2.137 4.395 5.479 4.395 9.964v11.838 1.534h-10.961zm7.891-3.068c0-1.819 0-5.253 1e-3 -10.304-1e-3 -3.198-1.487-5.653-3.162-7.448-1.666-1.781-3.488-2.812-3.829-2.989-0.046-0.024-0.053-0.028-0.053-0.028l0.686-1.373-0.686 1.373 0.686-2.907c1.202 0.042 2.908-1.025 4.211-2.745 1.314-1.678 2.168-3.895 2.147-5.366 2e-3 -3.696-0.934-6.866-2.635-9.028-1.71-2.154-4.12-3.447-7.67-3.468h-45.816v44.284h4.822v-19.73h1.535 35.514c2.493 0.011 4.792 1.206 6.511 2.915 1.711 1.719 2.904 4.019 2.915 6.512v10.304h4.823zm-34.965-24.553h-14.798-1.535v-14.908h1.535 14.798 20.716c2.255 5e-3 4.506 0.608 6.309 1.87 1.799 1.238 3.134 3.295 3.117 5.803 0.028 2.512-1.362 4.521-3.182 5.629-1.822 1.138-4.047 1.6-6.244 1.606v-3.069c1.748 5e-3 3.471-0.409 4.608-1.135 1.14-0.755 1.724-1.597 1.75-3.031-0.017-1.438-0.655-2.449-1.815-3.293-1.158-0.823-2.852-1.315-4.543-1.311h-20.716-13.264v8.77h13.264 20.716v3.069h-20.716z" fill="#020202"/>
		
	
	
		<path d="m289.89 129.86c-2.18 0-3.946-1.767-3.946-3.945s1.767-3.946 3.946-3.946h2.959c2.18 0 3.946 1.768 3.946 3.946s-1.767 3.945-3.946 3.945z" fill="#f9f9f9"/>
		<path d="m289.89 131.39v-3.068l2.96-1e-3c1.331-1e-3 2.409-1.079 2.411-2.41-2e-3 -1.332-1.08-2.41-2.411-2.412l-2.96 1e-3c-1.331 1e-3 -2.408 1.079-2.411 2.411 3e-3 1.331 1.08 2.409 2.411 2.41v3.069c-3.027 0-5.479-2.452-5.479-5.479s2.452-5.48 5.479-5.48h2.96c3.027 0 5.479 2.453 5.48 5.48-1e-3 3.027-2.453 5.479-5.48 5.479z" fill="#020202"/>
	
	
		<path d="m481.71 110.13v39.46h7.892v-39.46h7.893c3.945 0 11.837 0 11.837 7.892v31.568h7.893v-35.514c0-7.893-7.893-11.839-15.784-11.839h-31.568c-7.893 0-15.784 3.946-15.784 11.839v35.514h7.892v-31.568c0-7.892 7.893-7.892 11.839-7.892z" fill="#f9f9f9"/>
		<path d="m507.8 151.12v-1.534-31.568c-4e-3 -1.723-0.413-2.84-1.003-3.664-0.594-0.82-1.429-1.397-2.471-1.816-2.078-0.843-4.871-0.887-6.828-0.876l-6.358-1e-3v39.46h-10.961v-39.459h-6.358c-1.473-3e-3 -3.402 7e-3 -5.16 0.382-1.775 0.376-3.263 1.088-4.139 2.311-0.591 0.824-0.999 1.941-1.005 3.664v31.568 1.534h-10.961v-1.534-35.514c-0.02-4.483 2.326-7.994 5.616-10.157 3.291-2.185 7.504-3.211 11.703-3.216 3.945-1e-3 27.623-1e-3 31.568 0 4.198 5e-3 8.41 1.031 11.702 3.216 3.29 2.163 5.637 5.674 5.616 10.157v37.048h-10.961zm7.893-3.068v-33.979c-0.022-3.41-1.621-5.817-4.25-7.603-2.628-1.761-6.308-2.706-10-2.702h-31.568c-3.694-4e-3 -7.374 0.941-10.001 2.702-2.63 1.785-4.229 4.192-4.249 7.603v33.979h4.823c-2e-3 -5.372-2e-3 -23.355 0-30.034-6e-3 -2.224 0.572-4.065 1.584-5.46 1.011-1.399 2.395-2.302 3.82-2.87 2.855-1.129 5.981-1.086 7.968-1.096h7.892v1.534-1.534h1.535v39.46h4.822v-39.46h9.429c1.484 1e-3 3.624-9e-3 5.797 0.448 2.155 0.457 4.46 1.411 5.989 3.518 1.013 1.395 1.591 3.236 1.585 5.46v30.034z" fill="#020202"/>
	
	
		<path d="m537.76 108.9h2.937c5.259 0 9.062-2.685 9.062-8.726 0-3.883-2.46-8.39-7.766-8.39h-16.397v6.04h11.896c1.696 0 3.598 0.281 3.598 2.35 0 1.958-1.512 2.685-3.262 2.685h-4.916c-8.827 0-9.896 6.299-9.896 11.219v3.884h26.305v-6.479h-17.504c-2e-3 -3.02 3.354-2.583 5.943-2.583z" fill="#f9f9f9"/>
		<path d="m522.14 118.84v-4.76c5e-3 -2.52 0.255-5.478 1.772-7.919 1.514-2.459 4.391-4.201 9-4.176h4.918c0.758 3e-3 1.399-0.169 1.777-0.445 0.369-0.283 0.588-0.607 0.606-1.363-0.039-0.757-0.219-0.902-0.664-1.159-0.46-0.229-1.257-0.317-2.056-0.313h-11.896-0.876v-7.795h0.876 16.397c2.904-0.01 5.146 1.271 6.559 3.071 1.422 1.8 2.082 4.071 2.085 6.195 8e-3 3.196-1.03 5.675-2.854 7.284-1.82 1.611-4.313 2.318-7.085 2.318h-2.498-0.438-0.102-0.024c-0.564-3e-3 -1.142-0.022-1.691-0.022-1.02-7e-3 -1.956 0.084-2.486 0.343-0.275 0.153-0.466 0.278-0.587 0.508h17.327v8.232h-28.06zm3.258-11.749c-1.224 1.938-1.51 4.59-1.504 6.989v3.007h24.554v-4.726h-17.507v-0.877c-0.043-1.423 0.749-2.54 1.778-2.975 1.007-0.459 2.133-0.5 3.227-0.507 0.634 0 1.255 0.022 1.817 0.022h2.937c2.488 0 4.524-0.635 5.921-1.877 1.393-1.242 2.256-3.128 2.263-5.972 5e-3 -1.76-0.567-3.681-1.702-5.106-1.143-1.424-2.787-2.396-5.186-2.406h-15.521v4.287h11.019c0.896 5e-3 1.896 0.057 2.813 0.483 0.929 0.401 1.698 1.431 1.661 2.742 0.017 1.202-0.518 2.221-1.34 2.79-0.815 0.576-1.806 0.768-2.798 0.772h-4.918c-4.217 0.027-6.287 1.434-7.514 3.354zm12.366 1.811v-0.877z" fill="#020202"/>
	
</g>
</svg>
