<svg xmlns:dc="http://purl.org/dc/elements/1.1/" xmlns:cc="http://creativecommons.org/ns#" xmlns:rdf="http://www.w3.org/1999/02/22-rdf-syntax-ns#" xmlns:svg="http://www.w3.org/2000/svg" xmlns="http://www.w3.org/2000/svg" version="1.0" width="1897.3" height="456.5" viewBox="0 0 1897.282 456.502">
  <defs/>
  <path d="M1873.1 447.11c0-.005-36-44.438-56.767-70.271-6.948-8.647-12.102-15.091-13.915-17.459-2.52-3.319-4.314-5.711-5.493-6.885-1.24-1.194-1.428-1.258-2.363-1.588-.648-.195-1.811-.406-3.803-.406h-85.001c-2.765 0-5.47-1.118-7.423-3.074-1.955-1.955-3.076-4.66-3.076-7.425v-12.501h-73.999c-2.767 0-5.47-1.121-7.425-3.074-1.955-1.955-3.076-4.66-3.076-7.425v-57.001c0-2.765 1.121-5.47 3.076-7.425s4.658-3.074 7.425-3.074l74.999-.002v-1.999h-77c-2.765 0-5.47-1.119-7.425-3.074-1.953-1.955-3.074-4.66-3.074-7.425v-54c0-2.765 1.121-5.47 3.074-7.425 1.955-1.956 4.66-3.074 7.425-3.074l74.998-.002v-1.999h-90v169.5c0 2.765-1.118 5.467-3.074 7.423-1.955 1.955-4.658 3.076-7.423 3.076h-64.501c-2.765 0-5.47-1.118-7.425-3.074-1.953-1.955-3.074-4.66-3.074-7.425v-189.5h-4.5v189.5c0 2.765-1.118 5.467-3.074 7.423-1.955 1.955-4.658 3.076-7.423 3.076h-157.5c-2.767 0-5.47-1.118-7.425-3.074-1.955-1.955-3.076-4.66-3.076-7.425v-135.5c0-2.765 1.121-5.47 3.076-7.425 1.955-1.956 4.658-3.076 7.425-3.076h81.998v-99.5h-101.5v246.5c0 2.765-1.121 5.47-3.076 7.426-1.953 1.953-4.658 3.074-7.423 3.074h-122.5c-2.767 0-5.47-1.119-7.425-3.074-1.956-1.956-3.076-4.661-3.076-7.426v-36c0-2.765 1.12-5.47 3.076-7.425 1.955-1.955 4.658-3.074 7.425-3.074l47.499-.002V169h-124v125.5h45.502c2.765 0 5.47 1.119 7.425 3.074 1.956 1.955 3.074 4.66 3.074 7.425v36c0 2.765-1.121 5.47-3.076 7.426-1.956 1.953-4.658 3.074-7.423 3.074h-111.5c-3.131-.015-6.659-.019-10.691-.915-4.014-.871-8.395-2.879-12.111-6.086-.648-.564-.848-.787-1.191-1.128-.312-.321-.642-.668-1.022-1.073-.752-.805-1.694-1.829-2.824-3.076-2.258-2.49-5.264-5.846-8.773-9.793-7.02-7.889-16.051-18.124-24.98-28.272-17.86-20.297-35.305-40.239-35.308-40.243-2.712-3.098-3.36-7.504-1.659-11.252 1.7-3.75 5.444-6.161 9.562-6.161h68.999V170h-87.999v170c0 2.765-1.121 5.467-3.076 7.423-1.953 1.955-4.658 3.076-7.423 3.076h-64c-2.767 0-5.47-1.121-7.425-3.076-1.956-1.956-3.076-4.658-3.076-7.423V107.96c0-2.765 1.121-5.47 3.076-7.425 1.956-1.953 4.658-3.074 7.425-3.074h85.497v-4.5h-195.42v4.5h84.001c2.765 0 5.47 1.121 7.423 3.074 1.955 1.956 3.076 4.661 3.076 7.425v232c0 2.765-1.121 5.467-3.076 7.423-1.953 1.958-4.658 3.076-7.423 3.076H778.34c-2.765 0-5.467-1.118-7.422-3.074-1.956-1.955-3.077-4.66-3.077-7.425v-13.503h-76c-2.765 0-5.469-1.118-7.422-3.073-1.956-1.953-3.077-4.658-3.077-7.423V258.96c0-2.768 1.121-5.47 3.074-7.425 1.956-1.956 4.66-3.074 7.425-3.074l76-.003v-2.498h-76.5c-2.765 0-5.47-1.121-7.425-3.074-1.955-1.956-3.074-4.661-3.074-7.426v-53.5c0-2.765 1.119-5.47 3.074-7.425 1.956-1.956 4.661-3.076 7.425-3.076h77v-3.001h-91.5v171.5c0 2.765-1.121 5.467-3.076 7.423-1.956 1.958-4.658 3.076-7.423 3.076h-67c-1.116-.005-2.322-.027-3.769-.247-1.435-.209-3.058-.686-4.372-1.282-2.675-1.247-3.996-2.313-6.185-3.734-1.142-.783-1.568-1.258-1.983-1.666-.39-.403-.665-.729-.929-1.046-.513-.628-.951-1.222-1.435-1.897-.951-1.335-2.036-2.962-3.314-4.942-2.549-3.95-5.839-9.267-9.653-15.548-7.623-12.553-17.31-28.923-26.856-45.199-19.089-32.545-37.595-64.685-37.604-64.696-1.873-3.253-1.868-7.249.009-10.497 1.877-3.246 5.339-5.243 9.089-5.243l81.5-.002v-100h-99.58l-1.438 245.56c-.034 5.735-4.702 10.403-10.437 10.439-.03 0-82.435.5-86.062.5-6.281.014-11.354-2.072-14.664-4.182-3.172-2.012-4.93-4.003-5.549-4.748l-.001.001-76.876-92.877v.002c-3.698-4.468-3.074-11.089 1.394-14.784 4.468-3.697 11.086-3.074 14.784 1.395l76.744 92.714c.099.093.351.313.708.536.752.452 1.74.931 3.461.944 1.632 0 23.213-.126 44.249-.25 11.746-.07 23.342-.14 31.311-.188l1.44-245.62c.032-5.768 4.731-10.438 10.499-10.438h120.5c2.765 0 5.469 1.119 7.422 3.074 1.956 1.956 3.077 4.661 3.077 7.425v121c0 2.765-1.121 5.47-3.077 7.425-1.953 1.953-4.658 3.074-7.422 3.074h-73.809c3.11 5.373 6.855 11.833 10.976 18.918 11.49 19.761 25.895 44.396 37.511 63.808 7.721 12.91 14.289 23.618 17.663 28.632.464.697.882 1.293 1.182 1.709.615.409 1.095.723 1.425.934.017.001.034.001.052.001 2.599-.002 38.303-.003 56.499-.002v-171.5c0-2.765 1.121-5.47 3.077-7.423 1.956-1.956 4.658-3.077 7.425-3.077h112.5c2.765 0 5.467 1.121 7.423 3.077 1.955 1.953 3.076 4.658 3.076 7.423v24.001c0 2.765-1.121 5.47-3.076 7.423-1.956 1.955-4.658 3.076-7.423 3.076h-77.002v32.5h76.5c2.765 0 5.47 1.121 7.425 3.076 1.956 1.955 3.077 4.658 3.077 7.425v23.5c0 2.765-1.121 5.467-3.077 7.423-1.956 1.958-4.661 3.076-7.425 3.076l-76-.002v36.002h76c2.765 0 5.47 1.121 7.425 3.076 1.956 1.956 3.077 4.658 3.077 7.426v13.497h43.498v-211h-83.998c-2.765 0-5.47-1.119-7.425-3.074-1.956-1.956-3.077-4.661-3.077-7.425V82.445c0-2.767 1.121-5.47 3.077-7.425 1.956-1.956 4.661-3.077 7.425-3.077h216.5c2.765 0 5.47 1.121 7.425 3.077 1.956 1.955 3.074 4.658 3.074 7.425v25.499c0 2.765-1.118 5.47-3.074 7.425-1.955 1.955-4.66 3.076-7.425 3.076h-85.5v211h43.001v-170c0-2.765 1.121-5.47 3.076-7.425 1.956-1.956 4.661-3.076 7.425-3.076h109c2.765 0 5.47 1.121 7.425 3.076 1.955 1.956 3.074 4.661 3.074 7.425v94.5c0 2.765-1.121 5.468-3.076 7.423-1.953 1.955-4.658 3.076-7.423 3.076h-56.342c4.75 5.417 10.236 11.667 15.898 18.108 16.278 18.516 34.146 38.746 39.771 44.816.504.547.932.995 1.141 1.211 1.172.931 1.792 1.164 2.972 1.467 1.218.291 3.188.41 6.059.398 4.831-.002 74.167-.002 101-.001v-15h-45.502c-2.765 0-5.47-1.121-7.423-3.074-1.956-1.956-3.077-4.661-3.077-7.426v-146.5c0-2.767 1.121-5.47 3.077-7.425 1.953-1.956 4.658-3.076 7.423-3.076h145c2.765 0 5.47 1.121 7.423 3.076 1.956 1.956 3.077 4.658 3.077 7.425v146.5c0 2.765-1.121 5.47-3.077 7.426-1.955 1.953-4.658 3.074-7.423 3.074h-47.503v14.999h101.5v-246.5c0-2.765 1.119-5.47 3.074-7.425 1.956-1.956 4.661-3.074 7.426-3.074h122.5c2.765 0 5.47 1.119 7.425 3.074 1.956 1.956 3.074 4.661 3.074 7.425v120.5c0 2.765-1.118 5.47-3.074 7.423-1.955 1.955-4.66 3.076-7.425 3.076h-82.002v114.5h136.5v-189.5c0-2.765 1.121-5.47 3.076-7.423 1.955-1.956 4.658-3.077 7.425-3.077h25.499c2.765 0 5.47 1.121 7.425 3.077 1.956 1.955 3.074 4.658 3.074 7.423v189.5h43.501v-169.5c0-2.765 1.121-5.47 3.076-7.425 1.956-1.955 4.658-3.074 7.425-3.074h111c2.765 0 5.47 1.119 7.425 3.074 1.956 1.956 3.074 4.661 3.074 7.425v23c0 2.765-1.118 5.47-3.074 7.425-1.955 1.953-4.66 3.074-7.425 3.074h-75.001v33.001h77.002c2.765 0 5.47 1.119 7.426 3.074 1.953 1.956 3.073 4.661 3.073 7.426v22.999c0 2.765-1.12 5.47-3.076 7.426-1.955 1.953-4.658 3.074-7.423 3.074h-75.003v36h74.001c2.765 0 5.47 1.12 7.426 3.076 1.955 1.955 3.074 4.658 3.074 7.425v12.499c21.961-.001 71.016-.001 74.501-.001 3.425.003 6.657.351 9.761 1.268 3.093.901 5.967 2.431 8.28 4.234 4.663 3.705 7.15 7.597 10.3 11.62 1.059 1.39 4.34 5.514 8.773 11.043 4.449 5.552 10.125 12.605 16.223 20.166 12.196 15.123 26.074 32.282 35.224 43.588 6.1 7.537 10.089 12.459 10.1 12.473 3.649 4.507 2.955 11.118-1.55 14.769-1.945 1.575-4.282 2.341-6.604 2.341-3.2 0-6.2-1.32-8.3-3.89z" fill="#fee600"/>
  <path d="M1881.3 456.5c-4.638.008-9.288-2.034-12.439-5.928l.001-.002c-.194-.238-36.054-44.505-56.78-70.286-6.963-8.667-12.089-15.072-14.009-17.579-2.411-3.199-4.271-5.596-4.935-6.256-.133-.127-.245-.232-.335-.315-.081-.015-.188-.031-.322-.048-.353-.044-.898-.087-1.686-.085h-85.002c-4.248-.009-8.301-1.684-11.312-4.686-3-3.012-4.677-7.062-4.688-11.313v-7h-68.498c-4.253-.012-8.301-1.69-11.314-4.686-.063-.063-.125-.128-.188-.192v11.878c-.01 4.247-1.686 8.3-4.686 11.312-3.012 2.997-7.06 4.679-11.312 4.688h-64.501c-4.248-.009-8.301-1.684-11.316-4.688-.519-.521-.997-1.074-1.435-1.652-.438.579-.918 1.131-1.437 1.652-3.012 2.997-7.06 4.679-11.312 4.688h-157.5c-4.248-.009-8.301-1.684-11.314-4.686-1.523-1.53-2.706-3.328-3.503-5.285-.776 2.344-2.091 4.497-3.87 6.285-3.012 2.997-7.06 4.676-11.312 4.686h-122.5c-4.249-.01-8.302-1.686-11.313-4.686-2.05-2.06-3.482-4.603-4.188-7.362-.705 2.761-2.139 5.304-4.19 7.367-3.009 2.99-7.057 4.671-11.309 4.681h-111.53c-3.114-.019-7.164-.002-11.831-1.041-4.904-1.071-10.051-3.438-14.557-7.312-.76-.654-1.236-1.156-1.452-1.369l-.039-.039-.037-.039c-.337-.347-.688-.716-1.091-1.147-.778-.83-1.739-1.873-2.884-3.137-2.277-2.512-5.291-5.876-8.807-9.832-7.031-7.901-16.067-18.142-25.001-28.295-17.866-20.304-35.312-40.248-35.317-40.252-.54-.618-1.026-1.27-1.458-1.949v77.413c-.009 4.252-1.69 8.3-4.686 11.312-3.011 2.999-7.062 4.679-11.311 4.688h-64.001c-4.252-.009-8.303-1.69-11.314-4.688-.62-.623-1.183-1.29-1.687-1.993-.502.702-1.064 1.367-1.682 1.988-3.016 3.009-7.07 4.684-11.316 4.692h-64.74c-4.248-.009-8.3-1.686-11.312-4.686-2.998-3.012-4.679-7.062-4.688-11.313v-8.002h-70.499c-3.447-.008-6.764-1.111-9.5-3.129v11.131c-.009 4.252-1.69 8.3-4.686 11.309-3.014 3.005-7.066 4.682-11.313 4.69h-67.024c-1.172-.005-2.731-.03-4.539-.305-2.023-.303-3.991-.884-5.901-1.739-3.181-1.481-4.949-2.876-6.857-4.107l-.06-.036-.057-.042c-1.434-.956-2.479-2.024-2.727-2.279l-.05-.048-.048-.051c-.521-.537-.922-1.014-1.231-1.388-.619-.759-1.14-1.466-1.656-2.186-1.029-1.447-2.153-3.133-3.456-5.153-2.599-4.025-5.906-9.369-9.733-15.674-7.649-12.598-17.346-28.982-26.9-45.272-17.089-29.136-33.719-57.958-37.024-63.69l-.738 126.06c-.066 8.758-7.131 15.83-15.919 15.907h-.046c-.039 0-.098 0-.176.002-.158 0-.39.003-.693.003-.605.004-1.495.009-2.626.016-2.264.014-5.5.034-9.392.058-7.786.046-18.203.11-28.732.172-21.072.124-42.539.25-44.413.25h-.062c-7.495-.009-13.52-2.477-17.547-5.036-.919-.583-1.746-1.169-2.483-1.738l-.507.506-70.992-85.766-9.736-11.761c-2.46-2.971-3.681-6.617-3.676-10.199-.004-2.942.816-5.892 2.413-8.46v-.12l.043.052c.884-1.404 2.001-2.693 3.345-3.802 2.968-2.461 6.614-3.681 10.197-3.676 4.58-.008 9.176 1.985 12.332 5.8l76.291 92.168c.047.004.149.009.384.034 1.571 0 23.194-.127 44.216-.25 9.292-.057 18.491-.111 25.875-.156l1.409-240.19c.06-8.802 7.199-15.898 15.999-15.907h120.5c4.25.011 8.302 1.686 11.311 4.686 3 3.014 4.679 7.064 4.688 11.316v121c-.009 4.252-1.688 8.302-4.688 11.316-3.011 2.998-7.059 4.674-11.311 4.686h-64.264c1.931 3.33 4.006 6.904 6.187 10.653 11.483 19.749 25.882 44.374 37.475 63.749 7.692 12.861 14.277 23.591 17.522 28.407.042.063.085.127.127.189 5.819-.002 22.178-.004 37.027-.004 4.185 0 8.25 0 11.926.001v-165.95c.009-4.252 1.688-8.302 4.688-11.312 3.009-3 7.06-4.679 11.314-4.688h112.5c4.252.009 8.302 1.69 11.311 4.686 3 3.011 4.679 7.062 4.688 11.313v24.001c-.009 4.252-1.688 8.302-4.688 11.312-3.009 2.998-7.059 4.679-11.311 4.688H707.06v21.499h70.999c4.252.009 8.302 1.688 11.313 4.688 3 3.009 4.679 7.06 4.688 11.313l.002 23.502c-.012 4.249-1.693 8.3-4.686 11.307-3.016 3.007-7.071 4.681-11.318 4.689h-70.5v25.003h70.499c4.252.01 8.302 1.688 11.316 4.688 2.995 3.009 4.679 7.06 4.688 11.313v8h32.496v-200h-78.496c-4.25-.012-8.3-1.686-11.316-4.686-2.998-3.014-4.679-7.062-4.688-11.314V82.545c.009-4.254 1.69-8.305 4.688-11.313 3.013-3 7.062-4.679 11.316-4.688h216.5c4.253.009 8.303 1.688 11.314 4.686 2.999 3.014 4.676 7.066 4.686 11.316v25.499c-.01 4.248-1.684 8.3-4.686 11.314-3.014 3-7.062 4.676-11.314 4.688h-80.002v200h32.001v-164.49c.011-4.252 1.688-8.302 4.688-11.316 3.014-3 7.064-4.676 11.316-4.686l109-.002c4.25.011 8.3 1.688 11.313 4.688 3 3.016 4.675 7.066 4.686 11.316v94.497c-.011 4.253-1.69 8.303-4.686 11.312-3.014 3-7.063 4.679-11.313 4.688h-44.201c2.55 2.903 5.198 5.919 7.887 8.977 16.256 18.489 34.173 38.773 39.686 44.723.298.322.57.611.773.825.069.05.116.081.142.097l.01.009c0-.002 0 0 .053.017.066.022.218.066.461.128.448.094 2.034.239 4.312.228.063 0 .237-.005.499-.001 3.367-.002 28.007-.004 53.264-.004 15.365 0 30.956 0 42.117.001v-3.999h-40c-4.254-.009-8.302-1.688-11.313-4.686-2.998-3.011-4.679-7.062-4.688-11.313v-146.52c.01-4.254 1.689-8.305 4.686-11.314 3.014-3.002 7.063-4.679 11.315-4.688h145c4.252.009 8.302 1.686 11.312 4.686 2.999 3.012 4.679 7.062 4.689 11.316v146.5c-.011 4.252-1.69 8.303-4.689 11.316-3.012 2.995-7.06 4.674-11.312 4.683h-42.003v4h90.503v-241c.01-4.25 1.686-8.3 4.686-11.316 3.016-3 7.065-4.674 11.315-4.684l122.5-.002c4.247.011 8.3 1.686 11.311 4.686 3.005 3.016 4.679 7.066 4.686 11.316v120.5c-.01 4.245-1.684 8.3-4.686 11.311-3.014 2.998-7.062 4.676-11.313 4.686h-76.504v103.5h125.5v-184c.01-4.252 1.688-8.302 4.686-11.314 3.012-2.998 7.062-4.679 11.316-4.688h25.499c4.252.009 8.302 1.69 11.311 4.688 3.003 3.014 4.679 7.064 4.688 11.314v184h32.5v-164c.01-4.252 1.688-8.3 4.688-11.314 3.011-3 7.063-4.676 11.313-4.686h111c4.247.012 8.298 1.686 11.312 4.686 3.004 3.014 4.676 7.066 4.686 11.314v23.001c-.012 4.248-1.684 8.3-4.688 11.316-3.014 2.995-7.06 4.672-11.312 4.683h-69.503v22.001h71.503c4.25.009 8.3 1.683 11.318 4.688 2.995 3.013 4.669 7.062 4.681 11.311v22.999c-.01 4.25-1.688 8.3-4.69 11.316-3.009 2.995-7.057 4.674-11.309 4.683h-69.504v25.001h68.502c4.249.01 8.302 1.687 11.315 4.686 2.998 3.014 4.674 7.064 4.686 11.316v6.997h69.004c3.791.003 7.572.388 11.295 1.486 3.818 1.119 7.257 2.949 10.165 5.209 5.417 4.313 8.274 8.82 11.251 12.596.964 1.264 4.275 5.428 8.69 10.935 4.444 5.544 10.119 12.596 16.212 20.153 12.194 15.118 26.07 32.275 35.219 43.58 6.055 7.481 10.016 12.368 10.105 12.479v-.005c0-.004-.01-.009 0-.002 2.39 2.947 3.568 6.539 3.566 10.063.01 4.64-2.042 9.282-5.929 12.44-2.944 2.385-6.527 3.566-10.046 3.565h-.3zM1746.6 345h44.188c2.379.002 4.048.24 5.388.64l.128.039.115.039c.392.14 1.282.426 2.227 1.041.911.601 1.443 1.128 2.122 1.772l.066.064c1.75 1.779 3.44 4.117 5.979 7.438 1.721 2.248 6.903 8.729 13.835 17.357 20.756 25.817 56.754 70.255 56.754 70.255l-4.273 3.464 4.273-3.464c.997 1.229 2.412 1.847 3.892 1.854 1.119-.005 2.202-.355 3.135-1.11 1.234-1.004 1.852-2.424 1.858-3.896-.01-1.121-.355-2.199-1.163-3.204-.031-.036-.077-.093-.135-.167-.124-.151-.303-.374-.539-.663-.471-.582-1.161-1.434-2.042-2.522-1.764-2.174-4.284-5.289-7.334-9.06-9.151-11.307-23.031-28.466-35.229-43.594-6.102-7.563-11.779-14.621-16.233-20.178-4.452-5.553-7.701-9.635-8.814-11.094-3.364-4.332-5.48-7.607-9.35-10.674-1.76-1.378-4.069-2.607-6.456-3.296-2.466-.729-5.146-1.041-8.202-1.043-3.485 0-52.541 0-74.501.002h-5.502v-17.999c.01-1.284-.553-2.64-1.463-3.536-.899-.913-2.257-1.476-3.536-1.466h-79.501v-47h80.503c1.277.009 2.635-.553 3.534-1.463.91-.899 1.475-2.257 1.466-3.537V237c.01-1.279-.556-2.642-1.461-3.536-.899-.91-2.26-1.473-3.539-1.463h-82.503v-44.002h80.503c1.275.011 2.64-.553 3.536-1.463.908-.895 1.471-2.252 1.461-3.534v-23.001c.01-1.28-.553-2.64-1.463-3.537-.895-.908-2.255-1.473-3.534-1.461h-111c-1.284-.009-2.638.55-3.536 1.461-.911.899-1.475 2.259-1.466 3.537v175h-54.502v-195c.01-1.282-.551-2.638-1.463-3.537-.897-.911-2.26-1.475-3.534-1.463h-25.499c-1.28-.011-2.638.551-3.539 1.466-.908.894-1.473 2.254-1.463 3.534v195h-147.5v-125.51h87.503c1.274.012 2.637-.553 3.538-1.468.906-.892 1.468-2.25 1.461-3.529v-120.5c.01-1.282-.553-2.64-1.463-3.539-.897-.908-2.255-1.47-3.534-1.461h-122.5c-1.282-.009-2.642.553-3.539 1.461-.908.899-1.472 2.259-1.463 3.539v252h-112.5v-25.999h53.005c1.277.009 2.638-.553 3.534-1.463.913-.899 1.475-2.26 1.465-3.537v-146.5c.01-1.282-.552-2.635-1.468-3.539-.894-.911-2.254-1.472-3.531-1.463h-145c-1.279-.009-2.638.553-3.536 1.466-.913.901-1.475 2.254-1.464 3.537v146.5c-.011 1.277.553 2.638 1.466 3.537.895.908 2.257 1.472 3.534 1.463h51v26.001h-5.5c-11.116-.002-29.523-.002-47.617-.002-25.59 0-50.557 0-53.38.002h-.066l-.063-.002h-.254c-2.855-.014-4.896-.081-6.956-.546l-.051-.014-.039-.01c-1.325-.254-3.585-1.223-5.024-2.486l-.278-.22-.254-.262c-.243-.252-.693-.723-1.223-1.298-5.747-6.204-23.567-26.384-39.869-44.925-5.663-6.442-11.151-12.694-15.903-18.113l-8.002-9.126h68.48c1.277.01 2.636-.555 3.532-1.465.913-.899 1.475-2.257 1.466-3.535v-94.497c.01-1.282-.553-2.642-1.464-3.539-.896-.911-2.257-1.473-3.534-1.463h-108.92c-1.28-.009-2.64.553-3.537 1.466-.913.896-1.475 2.257-1.466 3.536v175.5h-54v-222.03h91.002c1.277.011 2.638-.553 3.537-1.466.908-.894 1.473-2.254 1.461-3.534V82.463c.012-1.284-.551-2.638-1.464-3.537-.896-.913-2.257-1.475-3.534-1.465h-216.51c-1.278-.009-2.64.553-3.539 1.465-.913.901-1.472 2.254-1.463 3.537v25.499c-.011 1.278.553 2.638 1.463 3.534.897.911 2.257 1.475 3.539 1.463h89.495v222h-54.497v-18.997c.009-1.282-.55-2.635-1.465-3.536-.899-.911-2.259-1.475-3.537-1.466h-81.5v-47.002l81.5.002c1.282.009 2.637-.553 3.537-1.463.915-.904 1.475-2.26 1.465-3.534v-23.502c.009-1.279-.553-2.637-1.465-3.536-.899-.91-2.259-1.475-3.537-1.466h-82v-43.497h82.503c1.277.009 2.635-.553 3.536-1.468.908-.895 1.473-2.255 1.463-3.532v-24.001c.009-1.277-.555-2.638-1.465-3.534-.899-.913-2.257-1.475-3.534-1.466h-112.51c-1.28-.009-2.635.553-3.539 1.468-.911.895-1.472 2.255-1.463 3.532v177l-5.504-.004h-17.421c-17.526 0-37.175 0-39.074.002-.016 0-.138.002-.365-.009l-1.438-.083-1.211-.772c-.372-.239-.874-.566-1.511-.991l-.828-.553-.583-.808c-.342-.47-.796-1.116-1.287-1.855-3.521-5.235-10.07-15.923-17.82-28.879-11.637-19.451-26.049-44.097-37.544-63.866-4.124-7.089-7.871-13.554-10.983-18.927l-4.777-8.257h83.347c1.277.012 2.64-.555 3.534-1.463.913-.899 1.475-2.259 1.465-3.537V83.979c.009-1.277-.553-2.64-1.468-3.539-.895-.908-2.25-1.47-3.532-1.461h-120.5c-2.734-.009-4.993 2.236-5 4.97l-1.47 251.06-5.436.031c-7.97.049-19.566.117-31.313.188-21.049.124-42.587.25-44.323.25-2.704.044-5.151-1.007-6.252-1.731l-.037-.023-.051-.029c-.745-.471-1.222-.881-1.555-1.19l-.25-.234-76.962-92.979c-1.002-1.207-2.399-1.806-3.857-1.813-1.135.003-2.234.365-3.188 1.151-1.202.996-1.8 2.39-1.81 3.854.004 1.112.353 2.19 1.103 3.127l76.378 92.274.538.646c.399.475 1.697 1.986 4.275 3.623 2.562 1.636 6.64 3.331 11.648 3.323h.062c3.578 0 85.975-.499 86.028-.499 2.708-.003 4.97-2.264 4.97-4.973l1.47-251.03h110.54v111l-86.998.002c-1.792 0-3.434.947-4.33 2.5-.45.773-.672 1.63-.672 2.498 0 .835.207 1.664.626 2.424.014.022.018.03.023.037.007.011.009.016.011.023.007.009.012.018.016.027.012.019.025.042.043.073.037.064.09.158.161.28.142.243.351.605.622 1.076.543.945 1.342 2.328 2.358 4.087 2.034 3.523 4.944 8.555 8.449 14.605 7.011 12.098 16.405 28.262 25.941 44.522 9.539 16.264 19.217 32.618 26.813 45.126 3.8 6.26 7.073 11.546 9.573 15.419 1.255 1.943 2.3 3.512 3.167 4.725.458.641.814 1.122 1.188 1.578.236.281.382.457.615.701.515.5.362.406 1.183.996v.001c2.381 1.56 3.261 2.288 5.349 3.263.764.357 2.041.734 2.922.851 1.053.161 1.906.182 2.942.187h67.001c1.282.009 2.633-.553 3.532-1.466.915-.901 1.477-2.257 1.468-3.534v-177.02h102.51v14.001h-82.498c-1.28-.009-2.637.555-3.537 1.465-.91.897-1.472 2.254-1.463 3.537v53.499c-.009 1.28.553 2.641 1.461 3.534.899.911 2.261 1.476 3.539 1.466h81.998v13.499l-81.498.003c-1.282-.01-2.64.55-3.534 1.461-.913.898-1.475 2.254-1.465 3.539v56.999c-.009 1.277.553 2.638 1.468 3.536.892.906 2.25 1.468 3.532 1.459h81.5v19.004c-.011 1.277.553 2.638 1.465 3.536.897.911 2.25 1.473 3.532 1.464h64.503c1.28.009 2.635-.553 3.532-1.466.913-.901 1.475-2.257 1.465-3.534v-232c.009-1.277-.553-2.637-1.465-3.536-.895-.908-2.254-1.473-3.532-1.463h-89.502v-15.5h206.51v15.5h-90.997c-1.28-.009-2.638.553-3.537 1.463-.911.899-1.475 2.256-1.463 3.536v232c-.009 1.277.55 2.633 1.463 3.534.901.913 2.257 1.475 3.537 1.466h64.001c1.277.009 2.635-.556 3.532-1.466.913-.901 1.475-2.257 1.465-3.534v-175.5h99v84.5l-74.499-.003c-1.958 0-3.749 1.154-4.559 2.945-.296.651-.443 1.346-.443 2.053.003 1.178.413 2.333 1.244 3.304l.002-.001.007.009c.007.009.021.023.036.044.034.039.085.094.149.169.133.151.328.377.585.668.512.585 1.264 1.444 2.22 2.539 1.915 2.186 4.653 5.312 7.949 9.072 6.592 7.521 15.417 17.58 24.343 27.724 8.926 10.145 17.953 20.375 24.962 28.251 3.502 3.938 6.5 7.284 8.738 9.754 1.114 1.229 2.041 2.236 2.757 3.002.361.384.667.705.949.997.402.4.354.371.852.809 2.944 2.555 6.559 4.203 9.71 4.88 3.369.748 6.376.773 9.5.784h111.5c1.277.01 2.635-.553 3.534-1.463.912-.899 1.475-2.262 1.465-3.536v-36.001c.01-1.282-.553-2.64-1.463-3.536-.896-.911-2.257-1.473-3.536-1.464h-51.002v-136.48h135v136.5h-53c-1.281-.009-2.637.553-3.536 1.466-.91.896-1.475 2.255-1.466 3.534v36.001c-.012 1.277.553 2.637 1.463 3.536.899.91 2.255 1.473 3.536 1.463h122.5c1.275.01 2.638-.555 3.532-1.463.913-.899 1.475-2.262 1.466-3.536v-252h112.5v110.5h-87.497c-1.28-.009-2.636.553-3.534 1.463-.913.899-1.476 2.261-1.466 3.539v135.5c-.012 1.277.553 2.638 1.466 3.536.896.911 2.249 1.473 3.534 1.464h157.5c1.275.009 2.633-.553 3.532-1.466.912-.899 1.472-2.252 1.463-3.534v-195h15.502v195c-.01 1.277.555 2.64 1.466 3.536.894.911 2.252 1.473 3.534 1.464h64.501c1.275.009 2.633-.553 3.532-1.466.912-.899 1.472-2.252 1.463-3.534v-175h101v13l-80.496.002c-1.282-.009-2.64.553-3.534 1.461-.911.899-1.475 2.261-1.466 3.539v53.999c-.01 1.277.555 2.64 1.463 3.534.897.911 2.257 1.475 3.537 1.466h82.498v12.999h-80.498c-1.282-.009-2.638.553-3.534 1.464-.913.898-1.478 2.259-1.466 3.536v57.002c-.012 1.275.553 2.638 1.463 3.532.899.912 2.257 1.475 3.537 1.465h79.5v18.002c-.012 1.277.553 2.638 1.468 3.539.89.908 2.248 1.47 3.53 1.461h40.8zm-623.8-56h40.003c4.249.009 8.3 1.686 11.313 4.684 2.051 2.06 3.481 4.604 4.186 7.363.705-2.761 2.138-5.304 4.188-7.361 3.012-3 7.064-4.677 11.313-4.686l41.998-.002v-114.49h-113v114.5-.004zm-164.24-31.66c-.01-.014-.017-.019-.019-.022l-.012-.014-.004-.005-.001.001c.01.02.02.03.03.04zm-9.78-11.92c2.908-4.575 7.979-7.409 13.501-7.413h63.497V175.51H948.78v69.905l-.02.005zm383.52-48.65c.718-1.299 1.618-2.503 2.687-3.577 3.012-2.998 7.062-4.678 11.314-4.686l76.498-.002v-88.498h-90.5v96.77zm-833.18-.87c2.97-4.296 7.878-6.896 13.157-6.896l75.999-.002v-89h-88.594l-.57 95.9zm356.66-97.217c.042-.06.086-.119.129-.178h-.259c.05.058.09.118.13.178z"/>
  <path d="M1507.4 102.43l-35.499-35.501c-1.986-1.983-3.097-4.694-3.075-7.5.021-2.805 1.169-5.5 3.182-7.456l35.501-34.5c4.135-4.019 10.746-3.948 14.793.159l34.501 35.002c4.026 4.083 4.026 10.656 0 14.741l-34.501 35c-1.968 2-4.634 3.119-7.439 3.13h-.033c-2.9-.01-5.6-1.11-7.5-3.08zm-13.2-42.82l20.49 20.491 19.809-20.098-19.914-20.203-20.4 19.81z" fill="#fee600"/>
  <path d="M1514.8 111c-4.241.002-8.318-1.684-11.318-4.686l3.888-3.89-3.888 3.888-35.5-35.49c-2.999-3-4.683-7.06-4.689-11.296v-.106c0-.051 0-.118.01-.202.077-4.219 1.813-8.238 4.844-11.187l35.502-34.5c3.094-3.01 7.146-4.531 11.147-4.524 4.115-.006 8.277 1.6 11.396 4.765l34.501 35.002c3.061 3.101 4.607 7.192 4.602 11.232.01 4.04-1.543 8.129-4.602 11.232l-34.498 34.996c-2.99 3.043-7.082 4.761-11.358 4.774h.1zm0-11h.012c1.353-.011 2.595-.533 3.542-1.492l34.501-34.998c.966-.986 1.432-2.226 1.437-3.512 0-1.291-.471-2.528-1.437-3.51l-34.498-35c-.992-1.003-2.252-1.483-3.563-1.49-1.272.004-2.499.46-3.48 1.412l-35.502 34.5c-.952.921-1.507 2.224-1.516 3.552l-.001.141c.026 1.275.556 2.524 1.466 3.428l35.497 35.5c1 .955 2.2 1.469 3.6 1.469zm-24.5-36.502l-3.945-3.945 28.301-27.503 27.555 27.952-27.503 27.905-24.5-24.409zm24.4 8.796l12.115-12.292-12.274-12.452-12.468 12.116 12.7 12.628z"/>
  <g>
    <path d="M140.2122495 379.02151629c-21.68260476 0-42.78678479-4.11222532-59.4196168-11.57931408-18.15379776-8.15121124-30.56204857-19.98811158-35.8823077-34.22942782-2.3715414-6.35143645-19.03558338-50.95963493-27.56131423-73.78868583.39532625.09196537.81478822.17394355 1.25838589.24510228.54430183.08613951 1.08236167.1593789 1.61584405.2326183 2.02656722.27756064 3.7768222.51558865 5.4134729 1.39362907 2.1946849 1.17599158 2.86673954 2.95912106 3.86629077 6.00979135l2.80764867 8.47537877c.61878963 1.87093352 2.81139388 2.59874996 7.8228824 2.59874996.55428901 0 .9916447-.00957106 1.21760486-.01872598.43485888-.01290012.86722096-.0291293 1.29667011-.04577462 1.01910948-.0391165 1.98037647-.07407166 2.94289187-.07407166 1.66786067 0 3.02445392.11901401 4.26785902.37618415 2.89794952.59756684 5.2894653 1.71488368 6.91404814 3.22960743.90384066.8410046 1.23549858 1.7606583 1.6936609 3.03402498.26507666.73447457.56510848 1.5684049 1.01286748 2.4385388 2.14433283 4.1600806 7.14292123 6.5470189 13.71532425 6.5470189 1.14811067 0 2.29871814-.07323938 3.42186084-.21971816 1.54343692-.20015993 3.02195712-.53514691 4.4522059-.85848218 1.86469152-.42362329 3.62659822-.82019794 5.42970207-.91590851.51891773-.02746477 1.03991612-.04286169 1.56091451-.04286169 2.44810985 0 4.82256418.30585768 7.05927852.90342453 2.93914667.78815571 5.2857201 1.9579053 6.97480353 3.4834485.43444275.38492294.83018514.76485227 1.21885327 1.13562669 1.27461507 1.21594033 2.59125957 2.47182942 4.50879997 3.40937685 2.83885864 1.38863548 6.1508604 2.12102939 9.5772987 2.12102939 3.57042028 0 7.13418243-.77816853 10.30553126-2.25502419l.61421216-.28505103c2.81638747-1.31456383 5.2491004-2.45102278 8.14829832-2.96078559 1.71280301-.29961569 3.47720651-.45316873 5.24327454-.45316873 1.24423737 0 2.50387166.0769846 3.74186703.2276247 2.86632342.3466387 5.5033576 1.44522956 8.2947771 2.60540809 3.06107361 1.27336667 6.22701272 2.59001117 9.83738176 2.9345692.8006397.07532006 1.61043432.11443656 2.4044159.11443656 2.73565768 0 5.33732057-.44234928 7.730917-1.31747677 3.0252862-1.10150378 4.90953596-2.8788074 6.90447708-4.76264104l.5209984-.49020455c4.16299353-3.9033266 10.4882136-4.48716106 13.88885167-4.48716106.58216992 0 1.17349477.01664531 1.75649697.05076821 2.03821894.11443655 4.0056953.49727882 6.09052112.90217613 2.48431341.48229803 5.05351794.98332204 7.72966862.98332204 1.94125998 0 3.73146371-.26091533 5.47589283-.79606224 3.9324559-1.20095955 6.70806235-3.55876856 7.81331133-6.63565522l.02996157-.08613951.02330344-.08780404c.70035167-2.62912766 1.59045995-4.04606019 3.28037565-5.22538083 1.96789249-1.37906443 4.49756439-2.25876938 7.52160217-2.62122113.63085748-.07407166 1.32247036-.11152362 2.11312287-.11152362.8260238 0 1.65079921.0391165 2.52509443.07906525.88220175.04119716 1.7960296.08322658 2.72109304.08322658.64708666 0 1.23383404-.02163891 1.79644573-.06366833l.36037109-.02330345c1.75524857-.11818174 5.02314023-.33581925 5.95527793-3.07522213l1.60044713-4.71478575c.24759908-.72948098.47106245-1.51472376.68620315-2.27458244.5830022-2.0527836 1.1863949-4.17755818 2.30163107-5.432615 1.68242532-1.89631763 4.4825836-2.57336586 6.53495107-2.80972935l.45108806-.04993594c.92048597-.1036171 1.92544693-.21389232 2.93914667-.4286169l-27.99783764 73.57645806c-5.42054716 14.2458937-18.02063524 26.12315893-36.4349322 34.34261597-16.90831199 7.5486508-38.24719097 11.70165715-60.08542943 11.70165715" fill="#991a37"/>
    <path d="M268.19392289 255.41339967c-.01456465.01290012-.02746477.02746477-.0416133.04119716-.03703582.03703583-.06824579.0694942-.07323938.07407166l.11651721-.11651722m.00416133-.00416133l-.00332906.0049936.00416132-.00416133zm.00416133-.00416132c-.0024968.00083226-.0037452.00291293-.00582586.00499359l.00416133-.00416133zm.02080664-.02080665c-.01706145.01664532-.04868755.04993595-.08905244.08905244l.01872598-.01747758.0707426-.0707426m.01248398-.01664531c-.00457746.00665813-.00873879.00957106-.01373238.01581305.00332906-.0037452.00790652-.00790652.01040332-.00957106v-.00832265m.00416133-.00416133l-.00790653.00957105c-.01081945.00957106-.02080664.02039052-.02996157.0303777.0291293-.02080664.03745197-.03745196.03745197-.03745196m-255.18517827-1.3066573c7.34765861 19.66893765 27.2408919 72.9231294 29.84921292 79.91000079 11.78779665 31.55577393 54.47595793 47.20611617 97.31267866 47.20611617 43.1904337 0 86.5265139-15.89669291 98.52778673-47.42666661 2.79766149-7.34973928 23.0100687-60.44330373 30.31902696-79.6395144-.18268234.47647217-.47023017.90425679-.82186247 1.26837308.03953262-.03828423.07074259-.07032646.07074259-.07032646s-.0303777.03204223-.11318815.11610107c-.08447498.08489112-.11568495.11610108-.11568495.11610108s0-.00083226.00083227-.00083226c-.46565271.4706463-.62586388.63293814-.62586388.63293814-.00166453 0 .46482045-.47064631.68079342-.68953222-1.8492946 1.81350718-4.60451053 2.0136671-7.03056534 2.29206002-2.85300716.32708046-5.93030996 1.30374437-7.89404111 3.51465847-1.9275276 2.16971694-2.50262327 5.75470187-3.41561885 8.44333654-.5338985 1.57131783-1.06779702 3.14346793-1.600031 4.7139535-.5122596 1.50889789-2.98616969 1.54010785-4.4447155 1.6495508-.54555024.04119716-1.0915166.05742635-1.63623457.05742635-1.7506711 0-3.4946841-.16104343-5.24618747-.16104343-.78649118 0-1.57547916.03120996-2.36738006.12483987-2.98408903.35745816-6.01228814 1.25380842-8.49493703 2.99116328-2.37362206 1.6570412-3.40022192 3.71273773-4.1259577 6.43466303-1.00454482 2.79974215-3.69567628 4.47759-6.42176291 5.30943967-1.65537668.50768214-3.2633142.70118394-4.84753215.70118394-4.58162323 0-8.96058974-1.61334725-13.6982628-1.88175297-.61504443-.03620357-1.24298898-.05451341-1.87759165-.05451341-5.42137942 0-11.37416056 1.33495434-15.3565524 5.06725032-2.13975538 2.00700898-3.84590027 3.76766728-6.69183317 4.8038382-2.23088848.81437208-4.61865906 1.1876433-6.99727472 1.1876433-.73530683 0-1.47186207-.03703583-2.20051077-.10528163-6.44132116-.6133799-11.62217577-4.75015705-18.07681318-5.5349837-1.32704782-.16021117-2.66325056-.24135708-4.00028557-.24135708-1.88175297 0-3.76267368.16021116-5.61446508.4843787-3.40521552.5996475-6.20620607 1.97871193-9.29640899 3.41603497-2.87298154 1.337035-6.14545067 2.05569652-9.40127448 2.05569652-2.9990698 0-5.98482336-.61046696-8.63475767-1.90630481-2.16472335-1.0586421-3.4859453-2.65700857-5.23203895-4.21001655-2.19385265-1.9795442-5.03104676-3.20588786-7.85783755-3.9628336-2.4764069-.66289972-5.04852435-.973751-7.61273528-.973751-.55761808 0-1.11731683.01456466-1.67327039.0428617-3.4530708.18185007-6.6468908 1.34660606-10.0454482 1.79020373-.97999298.12608827-2.04570934.2009922-3.146797.2009922-4.5458358 0-9.68840617-1.27336668-11.80693876-5.38475973-1.13229763-2.19634945-1.20928221-4.24913305-3.15095832-6.06139183-2.16888468-2.01949296-5.07598912-3.1659391-7.94397706-3.75684782-1.58754702-.32916112-3.14263567-.42279102-4.70105338-.42279102-1.42150998 0-2.8471813.07698458-4.30864004.1240076-.21306005.00665813-.62628002.01664532-1.1497752.01664532-1.95832143 0-5.46007979-.14148519-5.78674411-1.12896856-.86846936-2.62288567-1.74026779-5.24993267-2.60956942-7.87697966-1.06446796-3.2137944-1.82474276-6.07637261-5.08680857-7.82537919-2.45976157-1.31747676-5.01939504-1.42858424-7.70636517-1.85345594-2.20134304-.34955163-5.05601474-1.21094673-5.91324851-3.49967768m-.00832266-.01664532c.00208066.0049936.00291293.00873879.0049936.01373239 0 0 0-.00832266-.00416133-.012484m248.39805066 8.006397l-10.6321956 27.92875959-16.08270431 42.23748935c-5.2137291 13.70034346-17.42223612 25.16230806-35.30471524 33.14540162-16.63865787 7.42880453-37.66751784 11.516478-59.21155034 11.516478-21.38673426 0-42.17923074-4.04606018-58.54157637-11.39163813-17.61906699-7.9102703-29.63573674-19.33020548-34.75125848-33.02347468-2.25668872-6.04308198-17.45802355-46.74004733-26.27130224-70.33478276 1.56424357.22055044 2.84634903.45316873 3.97365306 1.05656143 1.41859706.76069094 1.8821691 1.85761727 2.84260384 4.78719288l.19807926.6083863 1.5696533 4.73351174 1.03991612 3.140555c1.3470222 4.0714443 6.88533496 4.0714443 9.85985293 4.0714443.58633126 0 1.04823877-.01165173 1.2862668-.01872599.43943634-.01456465.87637588-.0303777 1.3116509-.04868755.99788669-.03620356 1.94001157-.07240712 2.86091368-.07240712 1.53969173 0 2.72150917.10236869 3.8338324.33290632 2.51261046.51642093 4.5483326 1.45105542 5.88661601 2.69737345.4793851.44734287.68245796.9296409 1.13687509 2.19135586.2871317.79772677.6121315 1.69823836 1.12397496 2.69446052 2.52384604 4.90038103 8.21820864 7.71011037 15.62162906 7.71011037 1.24090831 0 2.48472955-.08114591 3.70066988-.23844415 1.64122816-.21181164 3.16926817-.55845035 4.64737223-.89343733 1.77231002-.40156825 3.44724495-.77941693 5.06849872-.8651403.48271417-.02746477.9700058-.03703583 1.4493909-.03703583 2.25960164 0 4.44804456.27714451 6.50374109.82810447 2.60790488.69619034 4.65694328 1.70697716 6.1179859 3.02528618.3832584.34289351.75569734.69743874 1.1497752 1.07029382 1.32704781 1.26962148 2.83220051 2.70403159 5.04477914 3.78514486 3.13223234 1.5330336 6.76965002 2.34199596 10.52067198 2.34199596 3.88127156 0 7.75713339-.84849498 11.21103646-2.4539357l.61754122-.28921237c2.67823135-1.2508955 4.99151414-2.33117651 7.6131514-2.79183563 1.58879542-.27839291 3.22752678-.42071036 4.87000334-.42071036 1.15934626 0 2.33076037.07115872 3.48303237.21181164 2.57378199.31251581 5.07806978 1.35534486 7.73008475 2.45684864 3.20838466 1.33578661 6.52538 2.71568331 10.45783591 3.08770612.86722096.08572338 1.74442912.12608827 2.60707262.12608827 2.98783422 0 5.83626392-.48729162 8.46539158-1.44522956 3.44141909-1.25380843 5.57742926-3.27163686 7.64311298-5.21955496l.51517253-.48645937c2.64785364-2.48223274 7.17621186-3.9070718 12.42156706-3.9070718.54305344 0 1.092765.01747759 1.6341539.04785529 1.89423696.10653002 3.79180299.47647217 5.80338943.86722096 2.5841853.50310468 5.25700692 1.02160627 8.13872725 1.02160627 2.15806522 0 4.15425474-.2908769 6.10175672-.88761147 4.59826854-1.40611307 7.86824087-4.2345684 9.2069404-7.96686437l.06033928-.1681177.04619075-.17477581c.56843754-2.13101658 1.1838981-3.14471633 2.4385388-4.02234061 1.65079921-1.15518493 3.91372992-1.93168893 6.54452211-2.2462854.54596637-.0645006 1.15435267-.09654283 1.8592818-.09654283.77733626 0 1.57797596.03703583 2.42563868.07615232.90800198.04202942 1.84638167.08489111 2.82013266.08489111.70118393 0 1.34161247-.02247118 1.9554085-.06741353l.3441419-.0253841c1.9300244-.1277528 6.45130835-.42778463 7.84410517-4.52627756l.74321336-2.18927519.8564015-2.5234299c.26507666-.78108145.49561429-1.59170834.71907766-2.3777834.49228522-1.73735485 1.05156784-3.70524733 1.84263648-4.59577174.94462168-1.05281624 2.7256705-1.7935328 5.03104676-2.07650317" fill="#010101"/>
    <path d="M130.45809432 168.53317281c-4.14551595 0-7.89320885 1.59170834-11.95716275 1.85595273-3.96158521.256754-7.91609616-.42154262-11.8843395-.1165172-5.06100832.38866812-9.36299024 3.134313-14.50597675 3.134313-4.73351174 0-9.65761235-.08489112-13.99122037 2.16846854-7.07633996 3.67861483-17.55373412 1.36033845-23.4033143 7.40924628-4.72518907 4.88748091-13.63833966 2.42771934-19.03641564 7.53575069-1.3977904 1.32330262-1.61251498 3.53130379-3.38773794 4.14093849-1.99410885.68911608-4.07435722 1.11273937-6.07554034 1.78521014-3.9249655 1.32038969-8.11292701 3.59538825-9.63847023 7.71760076-.9791607 2.64286005.34247738 2.99282782-2.3299281 4.09141867-1.84513328.75985868-3.6440758 1.65371215-5.22787763 2.88213647-2.9016947 2.25086285-3.67611803 5.34605936-4.09558 9.0284194-.03204223.27506384.0391165 4.99317866.04411009 4.98818507-1.39695815 1.13396215-2.627047 2.50012646-3.51923594 4.0701959-2.11187446 3.72355718-1.70115129 7.68847145-.13441092 11.55850742 1.70031903 4.19628417 3.13847433 5.78216665 3.30950495 10.10245842-.1822662 2.07026117.81645275 4.22374893 1.57131783 6.0751242 3.21545892 7.89653791 5.04644368 13.9246391 14.63581023 14.1281281 1.93793091.04119715 2.8496781 7.65351629 3.57083641 9.57022443 1.77896815 4.73226334 6.04100131 7.98808714 10.84275885 9.27352167 6.49458617 1.74234846 16.7401943-2.10563247 19.641889 5.47256377 3.29036285 8.59189599 13.50226421 11.76948681 21.9322845 11.081203 6.81001491-.5576181 16.81509823-4.87000333 22.37713057 1.45313608 6.43008557 7.30770986 17.35274193 9.152427 26.45148779 6.7567499 8.34138398-2.19426878 14.4622828-7.25777391 23.47863435-3.78722552 9.9530667 3.83300014 19.15626192 7.21699288 29.42350896 1.6316571 7.2248994-3.93079138 9.90188235-9.40418741 19.2989955-7.815392 8.28811897 1.409026 16.20962485 3.16011324 23.87104768-1.65038308 5.59032937-3.50591968 5.74055335-11.60053685 12.43363492-12.3916055 5.89244186-.69535807 11.6188467.7020162 17.20584701-2.20883343 6.75383697-3.51465847 8.3251548-11.15236172 9.8265623-17.9873446 5.94529074-.88261788 11.09368698-2.49596514 13.26839752-8.8449048 1.36033845-3.002815 2.75188687-6.2419935 3.1963168-9.5381822.19807926-1.31331542.13857226-2.65534403-.15272077-3.94910121.97791231-1.26754082 1.9604021-2.39650937 2.65534403-3.86046492 3.35195051-7.06635277 2.57461426-15.31327458-4.2537105-19.84745866 1.80601679-6.4708666-.2226311-11.04624783-6.11881816-14.46269894-2.9799277-1.72611927-4.6190752-1.44356503-5.5120964-4.6977243-.84100459-3.01571514-2.22214968-5.38101454-4.87125172-6.93485479-3.41437045-2.00201538-7.28274189-2.37487046-10.87355268-3.85838425-1.47519113-3.84090666-5.22954215-6.11507296-8.96683173-7.34765861-3.09228358-1.0195256-6.31939422-1.15435267-9.4420555-1.98786686-3.21004919-.86097898-5.02355637-3.85588746-8.316416-5.05310181-3.5679235-1.29667012-7.35556515-1.41485186-11.0886934-1.80768132-4.0198438-.42279102-6.81292783-2.86257822-10.6172148-3.84881319-4.01817929-1.0561453-7.96519984-.78357825-12.03789253-1.02992893-4.09391547-.2455184-7.55947027-2.38610605-11.59512713-2.9016947-3.2025588-.40905865-6.40927893-.13732387-9.61766358-.00915493-4.3852085.17227902-8.33847105-1.2105306-12.63878844-1.74650978-4.05355058-.50476921-8.01555192.25384107-12.0399732.64875119-3.99071451.4161329-7.7192653-.8738791-11.70165715-.8738791" fill="#010101"/>
    <path d="M117.95330067 310.35126513c-5.36187241 0-11.02627345-1.77439069-14.71321094-6.0497401-2.88671393-3.34778918-7.25860618-4.75598291-11.4353321-5.19708379-5.99272989-.63293814-11.39663173 1.95998596-17.30863184 1.95998596-5.23786481 0-11.331715-1.78437787-14.12146996-6.8566218-1.06155503-1.94334064-1.05448077-4.23540065-2.69071533-5.81920247-2.1451651-2.10147114-5.24369067-3.04900575-8.09336877-3.40438325-5.61821029-.69619034-11.13904547 1.08485847-16.34486805-2.2159077-2.07775157-1.31539609-3.66321792-3.39065086-4.19586803-5.91990663-.3566259-1.32122196-2.55339147-8.91523125-2.85966529-10.5273301-.45067193-2.37487046-7.6764036-.75486508-10.10412294-2.14058764-2.20425597-1.25796976-3.30908882-4.6065912-4.01526636-6.17083477-.70659366-1.56341131-2.8750622-6.4317501-3.01529899-7.95979012.36120336-.72573577 8.2922803-2.3652994 8.2922803-2.3652994s-1.3861387-.3895004-3.81011283-1.22467912c-2.42480641-.83393034-5.25742306-3.25582381-5.964849-4.61616226-.70867432-1.36241912-4.06104096-7.21366383-3.02278938-10.18152367 1.53511427-1.9200372 9.28226047-1.71862888 10.99131829-3.14929379-.39782305-.4843787-4.71936322-3.69526015-5.20623871-4.36024052-1.66744453-2.27624696-1.28085707-7.30937439.44484607-9.36507092 1.81600397-2.16389108 9.73626146-1.07487128 12.53017775-2.7181801 1.08069714-.63668334-3.87960703-.33332245-2.90627217-1.1572656 1.25505682-1.06113889.7565296-4.60242987.94628621-6.11965042.77816852-6.23034178 11.2418303-4.2612009 15.2325448-5.84333818 1.19055623-.47314311 2.32243772.5705182 3.32115668-.27007026.60630564-.513508.54929543-2.32243771 1.08111328-3.16011324 1.39196455-2.19759784 6.74218524-5.06100833 9.0575487-5.767602 2.5891789-.7894041 2.58085624.82019795 5.16129636-.01123558 1.2359147-.39823919 2.56837225-.87679202 3.61328197-1.70406423.86430803-.67080623 1.27794413-1.98037647 2.28082442-2.69529279 2.48223275-1.77022936 5.17794168-3.02528618 7.9964098-3.6161949 2.87090088-.60172817 5.8687223-.52183066 8.95809295-.52058226 2.08898715 0 3.28536924-2.3740382 5.29820408-3.09478038 2.89129139-1.41069053 4.84794828-1.86635605 7.68597466-2.19926237 2.54923015.14065292 6.1142407.92006984 8.57774747.21181164 2.20051077-.6300252 4.03690526-1.94375677 6.328133-2.3919319 5.08264725-.99122857 10.1249296.5401405 15.22255762-.34247738 2.23005622-.38658747 4.26328156-1.3761515 6.51997028-1.6607864 2.66990869-.33581926 5.46881857-.25717014 8.07880412.43985247 5.2857201 1.4331617 10.19608832-.6487512 15.44768552-.58633126 3.91581058.04619076 7.3172809 1.74983885 11.15569078 2.1172842 4.69481138.44484607 9.27185714-.82810447 13.94835867.27048638 2.13476178.50310468 3.88959422 1.78021655 5.9814943 2.34532503 2.61331462.7007678 5.2919621-.23636349 7.96936118-.30044796 2.3311765.20598579 3.9070718 1.10774578 6.99769084 2.48389728 2.72109304 1.13562669 4.38479237 2.2134109 6.83539902 3.0506703 2.83011985.96584446 3.37691848-.43985248 6.4671214-.1023687 3.27995952.3578743 8.2619026 2.57669492 10.51900744 4.53709701.91008266.78940411 1.2483987 1.9845378 2.25793712 2.5966693 1.04699038.63834786 2.22090129 1.07570354 3.38024755 1.43357784 2.01949296.61962188.4681495-1.24132444 2.54007522-.88261788 3.17426176.64292533 8.43792681 3.60454318 10.2768181 5.29196208.97416711.89218894 1.72736766 2.08274517 1.87467871 3.45639987.12941733 1.2483987 1.25838589 1.58754702 2.40524816 1.36283525.43652341-.08530724.89094054-.2263763 1.56257904-.0620038 2.47557462.80147196 8.54112777-.47314311 11.12115175 1.77480682 1.8276557 1.593789 3.3024307 1.6329055 3.67195671 4.33901774.1668693 1.224263.6133799 7.06427211 1.55716932 6.9539969 2.43520973 1.09359726 7.0289008.13607545 9.23523745 2.78226457.96667672 1.16101079 1.74359685 2.18344932 1.22010166 4.1650742-.52474359 1.98162486-2.3132828 8.0950333-1.83306543 8.46414318 2.30537627 1.7606583 5.95319727 1.19638209 6.973139 3.7439477 1.09318114 2.73648995-.4086425 8.88277288-2.02115749 10.69128647-.48104963.53722757-3.02445391 3.81926775-3.1026869 4.45012523 1.19638209 1.64164429 1.14020415 2.02948015 1.0852746 3.19714907-.05617794 1.16891732-.90508905 4.36814705-2.9383144 8.9031634-1.89298856 6.13671187-9.1170557 4.87291625-13.71823718 6.47086659-.44484607 2.44727758-2.61081782 12.8759842-4.50796771 15.32409404-3.76475435 4.85460641-10.0579322 4.4825836-15.38651398 4.30947231-2.70278318-.08697177-5.48047029.30752222-7.98725488 1.39862268-1.15809786.50310468-2.27499856 1.16891732-3.19673294 2.06443532-1.22717592 1.18930783-1.43232944 2.46100997-1.91462747 4.04397952-1.70864169 5.59199391-7.47416302 8.1329014-12.62255926 8.6160317-4.30905618.40031984-8.08254931-.9005116-12.2601075-1.62291831-4.0602087-.7032646-8.36801648-.45608166-12.28008188.92381503-1.8467978.651248-3.66613084 1.58380182-5.1176024 2.96494692-1.36283525 1.29999918-2.44228399 2.74814167-4.01235342 3.82010002-3.4314319 2.34782182-7.60191582 3.34945371-11.66586972 3.34945371-4.15591927 0-8.34263238-1.05156784-11.97464033-3.18757801-3.57583001-2.0919001-7.80915-2.88962686-11.86602964-2.88962686-4.05646351.0049936-8.29935456.7931493-11.86686191 2.90335924-3.63700155 2.13060045-7.83994384 3.19173934-12.0095955 3.19173934" fill="#991a37"/>
    <path d="M117.41648923 296.93514043c-5.48671229 0-11.28302745-1.61251498-15.05485606-5.49212201-2.95537585-3.0381863-7.4283884-4.31737884-11.70082488-4.71769869-6.13379894-.57343113-11.66295679 1.78021655-17.71394528 1.78021655-5.35687883 0-11.59304647-1.62125378-14.44855043-6.22576432-1.08693913-1.76357123-1.07820034-3.84590026-2.75396753-5.2832233-2.19343651-1.90838548-5.36478534-2.76769991-8.28021244-3.08770611-5.74887602-.63585108-11.397464.98332204-16.72271672-2.01574777-2.12810365-1.19346916-3.80928057-3.06648334-4.2953238-5.373108-.23012149-1.11523618-.17477581-2.25960165.11568495-3.35819251.29170916-1.08485847.91257945-2.06818051.40531345-3.18924255-.92048598-2.03697054-3.83216788-2.88588166-5.9536134-3.21878798-2.7181801-.42986528-5.34730777-.47355924-7.83162118-1.73319353-2.25502419-1.14270094-3.99737264-3.13847433-4.10972852-5.6007327-.12567214-2.77352578 1.65038308-4.61241706 3.41145751-6.60153232 1.78437788-2.01283484.6021443-3.40521552-1.81683624-3.99529198-2.56545933-.62503161-5.182103-2.01075417-5.9839911-4.52919048-.8410046-2.6257986.75236828-5.14465104 2.80140668-6.84455394 1.76773256-1.46395554 4.50297411-2.31161826 5.65815904-4.34068228.39407786-.6932774-1.94583744-1.725287-2.44436465-2.3286797-1.7061449-2.06734825-1.18181744-4.72851815.58341832-6.59279354 1.85761727-1.96497955 4.43015086-2.9383144 6.94858717-3.9362011 1.17224638-.46190752 2.3261829-1.027016 3.32240507-1.77605522 1.2825216-.96417993.34747097-1.12397496.0898847-2.49221994-1.13104921-6.00646228 8.33722266-7.27899668 12.42031867-8.71590359 1.21885327-.42778462 2.46725197-.94711848 3.48927437-1.71113848.62211869-.46523658.56510848-2.10812927 1.10774578-2.86882022 1.42442292-1.99577338 4.12054798-3.002815 6.49042484-3.6453242 2.64743751-.71491632 5.41888263-.84433365 8.05716521-1.600031 1.26670855-.36286789 2.62995993-.79647837 3.69858922-1.54718212.8842824-.61005083 1.30707344-1.7985264 2.3336733-2.44727759 5.1263412-3.24333982 11.74992856-1.84305261 17.34816447-3.75476715 1.99660565-.6816257 3.3606893-2.15473616 5.42013102-2.80972934 2.79599696-.88594695 5.86913842-1.16683666 8.80662056-1.02784827 2.60790489.12858507 5.3173462-.1327464 7.8382793-.77650399 2.25044673-.5717666 4.13053517-1.7644035 6.47419567-2.17138147 5.20124511-.9005116 10.3604608.49103682 15.57627058-.31001901 2.28082442-.35121617 4.36024052-1.25006323 6.67227491-1.50931403 2.73108023-.30336088 5.59573911-.23303442 8.26398326.40031985 5.40931157 1.30124758 10.43411634-.58799579 15.80597595-.53223398 4.00819209.0416133 7.48747927 1.58796315 11.4153577 1.92045333 4.80467047.40448118 9.4886624-.74945535 14.27377461.24801521 2.1830332.4552494 3.97947892 1.61459565 6.12214723 2.12727139 2.67157321.6362672 5.37976613.75361668 8.119169.69494194 2.46475517-.05201661 4.9769495.1885082 7.34973929.8247754 2.59958222.6878677 4.33069509 2.47224557 6.83789581 3.23335264 5.57867766 1.68908344 12.58094597.32458366 17.38103897 4.02525354.93172156.7157486 1.277528 1.80143933 2.31120212 2.35531222 1.07195835.58008926 2.2716695.97749618 3.45764827 1.30332824 2.06734825.56261168 4.20460682.72448738 6.29484238 1.17391091 2.39401257.51517253 4.93949752 1.29708625 6.82041823 2.82928759.99705443.81062689 1.76898096 1.89007563 1.91837267 3.13847433.131498 1.13188149 1.39071615 1.57173396 2.4589293 2.04446094 3.41395432 1.50307203 7.2095025 1.76398736 10.44660033 3.69942148 2.05652879 1.23175338 3.91414605 3.2633142 3.3885702 5.69977233-.21347618.98373818-1.03242572 1.33162528-.14897558 2.06734825 1.06530023.88719534 2.376535 1.52471094 3.6869375 2.04362867 3.89001035 1.540524 11.15319398 4.95988803 7.92400268 10.03213195-.59756685.9383797-1.51513989 1.65620894-2.54257202 2.16389108-.73031324.36120336.1215108 1.02909666.52848878 1.44023597 1.82723957 1.84097195 4.47218028 2.69237986 6.2382483 4.6357205 1.70031904 1.85345594 2.501791 4.42390886 1.2192694 6.68475891-1.4419005 2.54382042-4.10431879 2.81638747-6.6289971 3.8995814-2.7535514 1.18348197-.90592132 3.1114257.46856565 4.53917768 1.8896595 1.96206662 3.140555 4.64154637 2.22256582 7.27733215-1.93668252 5.5741002-8.68469362 4.65527876-13.39198899 6.10633418-2.21174636.68162569-4.86126453 2.30745693-3.78431259 4.81340925 1.13271375 2.6320406.81437209 5.58117446-1.12647176 7.80457254-3.8500616 4.40643128-10.29179888 4.06728297-15.74397214 3.91123313-2.76561925-.07698459-5.60905536.27922518-8.17368242 1.26962148-1.18348197.45816232-2.32618291 1.06155503-3.26997233 1.87301418-1.25505682 1.08111328-1.46395554 2.23546594-1.9591537 3.67278898-1.74775817 5.07598911-7.64810656 7.38469444-12.91718134 7.82121785-4.40851194.36328402-8.26897686-.81728501-12.54141334-1.474775-4.1575838-.63585107-8.56443122-.4148845-12.56887811.83892393-1.88924337.59174098-3.75102196 1.4394037-5.23578415 2.69237986-1.39612588 1.18056904-2.49971033 2.49513287-4.1055672 3.46888386-3.51216167 2.13101658-7.78043682 3.04109923-11.9363561 3.04109923-4.25204597 0-8.53696644-.95585727-12.25428163-2.89628498-3.65822433-1.89548536-7.99016782-2.62122114-12.14026123-2.62122114-4.15217408.00291293-8.49368862.71866152-12.14317415 2.63869872-3.73229598 1.95499236-8.03219724 2.9179239-12.30088853 2.9179239" fill="#cb2027"/>
    <path d="M174.2972792 209.83852446c0 8.77374607-15.60789668 15.88670573-34.86070143 15.88670573-19.25322089 0-34.86236597-7.11295966-34.86236597-15.88670573 0-8.77457833 15.60872895-15.88920252 34.86236597-15.88878638 19.25114022 0 34.8590369 7.11587259 34.8590369 15.87963146" fill="#010101"/>
    <path d="M177.618852 267.31063928c-3.88834581 0-7.76254311-.70118393-11.2052106-2.02823175-4.20211002-1.62125378-7.28232574-4.03898593-8.91065378-6.99311339-.17976941-.32416753-.3237514-.5655246-.43985247-.76069094-.67247077-1.1231427-.78607505-1.54967892-.86930163-3.259569l-.15729824-3.19132321-.23386669-5.0252209 3.78805779 3.30950495c1.07820034.94129262 2.32576678 1.78021655 3.7098248 2.4930522 4.12512544 2.12394233 9.03632593 3.24333983 14.20261588 3.24333983 4.87582919 0 9.56647924-1.0028803 13.56593254-2.90543991 1.57880822-.75111989 3.0078086-1.67868012 4.24705238-2.75896113l3.83216787-3.33613746-.2808897 5.07224392c-.05326501.94711848-.10902682 1.35243193-.15854664 1.70905782-.04286169.31459647-.08114591.58591512-.12317534 1.36616431-.26424439 5.1592157-4.63863343 8.316416-7.22198648 9.73834213-3.95534321 2.1805364-8.70799706 3.3290632-13.74695035 3.3290632" fill="#ffcd05"/>
    <path d="M153.42446907 241.12755722l.46814951 10.05002566c.0303777.6437576.06158767 1.2850184.0936299 1.92586306l.06241994 1.26837308c.09529443 1.94042772.26133146 2.73524156 1.17141411 4.2587041.10694616.17768875.23927642.39740692.40531345.70035167 1.87176578 3.39647673 5.33607217 6.14753133 10.0125737 7.95313199 3.68860203 1.42109385 7.83037278 2.1717976 11.97880166 2.1717976 5.39974051 0 10.5106848-1.2421567 14.77979221-3.59289146 5.13632839-2.82512625 8.09461717-6.9161288 8.33056453-11.51356507.03620356-.67871276.065749-.89759867.10486549-1.17391091.06408446-.46565272.12192694-.92756024.17519195-1.8859143l.56261168-10.1465685-7.66391962 6.67185878c-1.092765.95294434-2.35739288 1.77355842-3.75892849 2.4385388-3.71273773 1.76773255-8.08587838 2.70028638-12.64544656 2.70028638-4.82630938 0-9.39877768-1.04116452-13.22179063-3.00572794-1.22884046-.63293814-2.33284104-1.37407083-3.27995952-2.20134304l-7.56737679-6.62067444zm4.75473451 9.84986574c1.17515931 1.02535146 2.55089468 1.96497955 4.14010623 2.78309683 4.42557339 2.27749536 9.67425765 3.4834485 15.18427338 3.4834485 5.19250633 0 10.20149805-1.07820033 14.48725078-3.11517088 1.84097195-.87512749 3.40812846-1.92170173 4.734344-3.07813506-.09529443 1.72861607-.18809206 1.34868673-.2808897 3.07813506-.1860114 3.6199401-3.13972273 6.33895247-6.11590523 7.97643543-3.76641888 2.0731741-8.24359275 3.06065748-12.70994717 3.06065748-3.61286583 0-7.21990581-.64667053-10.43411633-1.88674657-3.05316709-1.17682384-6.17832517-3.07896733-7.802908-6.02643666-.91715692-1.6570412-.95710568-1.27045374-1.04574199-3.08978678-.0520166-1.0611389-.10569775-2.12643912-.15646597-3.18757802" fill="#1d1d1b"/>
    <path d="M177.499838 254.8016843c-5.07765365 0-9.91311795-.9804091-13.98331384-2.83511344-5.68812061-2.58709824-8.66471924-6.60652592-8.1632791-11.0333477.43860408-3.89458782 3.5479491-7.24404153 8.75377168-9.43081992 3.94202697-1.65412828 8.55194723-2.5284235 13.33206585-2.5284235 4.81299313 0 9.4383103.88761147 13.38408247 2.56754.35204843.1240076.83684326.31917392 1.32579942.6046411 4.84461922 2.41024175 7.50620525 5.88370307 7.49621806 9.79202326-.0037452 4.21792308-3.212546 7.98517422-8.80412377 10.33216378-3.95118188 1.65620894-8.56443121 2.53008803-13.34330144 2.53008803" fill="#ffcd05"/>
    <path d="M177.43991486 226.82923077c-5.06267286 0-9.96014096.93255383-14.16266712 2.69737346-5.95402953 2.50012646-9.52569821 6.46795366-10.05501926 11.17191997-.60380884 5.32525272 2.91376256 10.26849544 9.40876487 13.22345516 4.3448436 1.97871194 9.48824625 3.02653458 14.87009305 3.02653458 5.06100833 0 9.96180549-.93255383 14.16932524-2.69737346 6.42758877-2.69820572 10.1161908-7.18536678 10.1211844-12.31170798.01206785-4.74599572-3.04900576-8.88984714-8.62435436-11.6808505-.57759246-.33207405-1.13978801-.56552461-1.5646597-.71782925-4.19378737-1.77272616-9.08709414-2.70902518-14.16100259-2.70902518m0 4.2903302c4.55998432 0 8.90732473.836011 12.6129882 2.42397414.34747097.119014.73572297.2871317 1.07195835.49020456 2.61373075 1.28793132 6.38680775 3.84465186 6.37682056 7.9002831-.0037452 3.31533082-2.73357702 6.3635043-7.48872767 8.3605261-3.6881859 1.54593372-8.01430352 2.36238647-12.5118679 2.36238647-4.7659701 0-9.29724125-.91008265-13.09528623-2.64161165-4.78427995-2.17595893-7.31062279-5.39349852-6.91945786-8.8386628.3466387-3.08978678 2.99865367-5.82502833 7.45210797-7.69346505 3.6881859-1.54385306 8.01263899-2.35947354 12.50146458-2.35947354" fill="#1d1d1b"/>
    <path d="M220.66655211 245.3429835c-3.88834581 0-7.76212698-.70035168-11.206459-2.02948016-4.20002935-1.62000538-7.28066121-4.036073-8.90982152-6.99020046-.1797694-.32333526-.32333526-.5642762-.4390202-.75861027-.67247077-1.12397497-.78565892-1.55175959-.8713823-3.25873674l-.4086425-8.22736357 3.80303857 3.31657922c1.08194554.94337328 2.3324249 1.78312947 3.7148184 2.4943006 4.12138024 2.12102939 9.03258072 3.24333982 14.2017836 3.24333982 4.8733324 0 9.56398245-1.00496095 13.56634868-2.90710444 1.57423076-.74820695 3.0015666-1.67659945 4.24372331-2.75771273l3.82384522-3.33197613-.27256705 5.0643374c-.05160048.95710567-.10777842 1.36241911-.15729823 1.71862887-.04327783.3175094-.08072979.5867474-.12359147 1.36241912-.26091533 5.15214143-4.63447211 8.3114224-7.21740902 9.73709372-3.95243029 2.18469773-8.70508414 3.33322453-13.74403742 3.33322453" fill="#669a40"/>
    <path d="M196.43596561 219.14741744l.50352081 10.07873884c.05326501 1.0586421.1048655 2.11520353.15604984 3.17675855.09820736 1.94542131.26382826 2.73815449 1.17266251 4.26286543.10736229.17685648.23969255.39823919.40531345.69910327 1.87384644 3.397309 5.33690444 6.1483636 10.01423823 7.95313199 3.6869375 1.42109385 7.82995665 2.17096534 11.97838553 2.17096534 5.39932438 0 10.51026866-1.24132444 14.78020834-3.58997853 5.13799292-2.83511345 8.09420104-6.92278693 8.32723546-11.51939094.03620357-.66706104.0669974-.88761147.10528163-1.16517212.06658126-.4843787.1227592-.9296409.17477582-1.89756602l.54596636-10.13117159-7.64893883 6.6643684c-1.09484566.95294434-2.35697675 1.77231002-3.75435103 2.43770653-3.71565066 1.76565189-8.0900397 2.69903798-12.6458627 2.69903798-4.8292223 0-9.4004422-1.04116451-13.21970996-3.00572793-1.22967272-.63168974-2.33533784-1.37323857-3.28703378-2.20300757l-7.60732555-6.6289971zm4.78927355 9.86234973c1.17432704 1.0232708 2.54923014 1.96373115 4.14177075 2.78434523 4.42266046 2.27624696 9.67300926 3.48053558 15.18427339 3.48053558 5.19292246 0 10.20066578-1.07695195 14.48683465-3.11433863 1.84138808-.87512749 3.40563165-1.9237824 4.73226334-3.07896732-.0936299 1.7302806-.18684368 1.349519-.28088971 3.07896732-.18351461 3.61827557-3.13764207 6.3368718-6.11132777 7.97768383-3.76766728 2.0731741-8.24525728 3.05774455-12.7116117 3.05774455-3.61328197 0-7.22032194-.64542213-10.4349486-1.8846659-3.05358322-1.17599158-6.1799897-3.08188026-7.80374027-6.02518827-.91549238-1.65620894-.955025-1.271286-1.04574198-3.08978678-.05368114-1.0611389-.10611389-2.12227779-.15854663-3.18341668" fill="#1d1d1b"/>
    <path d="M220.54670584 232.83402852c-5.07765365 0-9.91228568-.97957685-13.98372997-2.83303279-5.68437542-2.58584984-8.65972565-6.60527752-8.16369524-11.03043478.44110088-3.8995814 3.55086204-7.24945125 8.75668462-9.43414897 3.9449399-1.65537668 8.55361176-2.52925577 13.32956905-2.52925577 4.80841566 0 9.43539738.88677921 13.38657926 2.56670773.34747097.12192694.8285206.31792554 1.32080583.6046411 4.84628375 2.4081611 7.50786978 5.88370308 7.49954712 9.79285554-.00457746 4.21667467-3.21254599 7.98350969-8.80162697 10.33216377-3.95367868 1.66037027-8.56692801 2.53424936-13.34496597 2.53424936" fill="#669a40"/>
    <path d="M220.48595043 204.86157498c-5.05767926 0-9.95389896.93296996-14.16017032 2.69612506-5.95402953 2.49971033-9.52569821 6.465873-10.0566838 11.1723361-.59881523 5.33066245 2.91750777 10.2718245 9.40668421 13.2251197 4.34650814 1.97871193 9.48991079 3.02445391 14.87092532 3.02445391 5.05975993 0 9.96014096-.93255383 14.16974138-2.6952928 6.4292533-2.70111865 10.1161908-7.18744744 10.12118439-12.31254024.00957106-4.74641186-3.05275095-8.89359234-8.62934795-11.68376343-.579257-.33040952-1.13770735-.56344395-1.55675318-.7145002-4.19961322-1.7519195-9.0941684-2.70902517-14.16433165-2.70902517m0 4.2903302c4.56040045 0 8.90774086.83559486 12.6142366 2.4248064.34830324.11818175.73447457.2871317 1.07029382.49020456 2.61289848 1.2862668 6.38555935 3.84423573 6.3772367 7.89945084-.00332907 3.31366629-2.73648996 6.36308818-7.48789541 8.3605261-3.69026656 1.54510146-8.01763258 2.3603058-12.5131163 2.3603058-4.76680237 0-9.29557672-.90800198-13.09403783-2.63869871-4.78469609-2.17471054-7.30729373-5.39641145-6.919874-8.83824666.3491355-3.09228358 2.99865368-5.8258606 7.45294024-7.69596186 3.68985042-1.54801439 8.01305512-2.36363487 12.50188071-2.36363487" fill="#1d1d1b"/>
    <path d="M139.61717945 215.89741949c-4.937833 0-13.37243075-1.9454213-13.65789791-9.23565358-.56053102-14.35866572-6.59778713-86.34757675-7.96228691-102.53098524l43.55246931.16728543c-2.3690446 30.62113945-7.84285677 100.82067901-8.27646725 103.70031868-.36494855 2.24711766-2.15972975 4.4105926-4.925349 5.93322289-2.3095376 1.28168933-5.4097277 1.9807926-8.73046824 1.9807926" fill="#ffffff"/>
    <path d="M114.88223987 101.24448288s7.59442542 89.54347742 8.21862478 105.51465812c.3237514 8.27896405 8.52697925 11.98379526 16.51548253 11.98379526 3.79055459 0 7.38219765-.82435928 10.11078107-2.32368612 3.54087485-1.94833423 5.8624803-4.8583516 6.37057857-7.98475808.52307905-3.2013104 8.54071164-107.00025258 8.54071164-107.00025258l-49.75701086-.20806645zm6.22950951 5.74263402l37.35125684.14398198c-3.14970992 40.69987829-7.56904132 96.97561102-8.01513579 100.42119143-.23261829 1.32704782-1.56049837 2.80265508-3.47054838 3.85505519-1.87259805 1.02743213-4.55415846 1.61626018-7.35722967 1.61626018-.43069756 0-10.54938515-.07323939-10.79864876-6.48751191-.53681144-13.59506184-5.97150711-78.76147398-7.71094264-99.5265057" fill="#010101"/>
    <path d="M196.84211132 57.00955561c0 31.493354-25.53557927 57.02685262-57.02269128 57.02685262-31.49793147 0-57.03101395-25.53474701-57.03101395-57.02685262 0-31.49293787 25.53266635-57.02685262 57.03101395-57.02685262 31.48544748 0 57.02269128 25.55056006 57.02269128 57.0102073" fill="#1d1d1b"/>
    <path d="M177.44698912 91.13245341c-20.30811779 20.31019845-53.04029943 20.50827771-73.10622787.44567834-20.06634457-20.0692575-19.86909758-52.80310369.43985247-73.1103892 20.30936619-20.31019846 53.04446077-20.50744545 73.1103892-.43985248 20.06259938 20.05760578 19.86410398 52.80726501-.44609447 73.11455053" fill="#cb2027"/>
    <path d="M170.92368978 21.34696608c8.23859915 9.10998145 9.38421303 19.9718824 5.27531677 22.19319982-4.14218688 2.30038267-11.76907068-2.3070408-18.8462429-8.40422005-6.9539969-6.1712509-11.456971-13.71490811-8.51199848-18.95402132 2.86715569-5.20166125 13.83184147-3.99487584 22.08500527 5.16004796" fill="#ffffff"/>
  </g>
</svg>
