<svg xmlns="http://www.w3.org/2000/svg" xmlns:xlink="http://www.w3.org/1999/xlink" x="0px" y="0px" width="210px" height="200px">
  <linearGradient id="a" gradientUnits="userSpaceOnUse" x1="38.6479" y1="-351.041" x2="70.2686" y2="-319.4207" gradientTransform="matrix(1 0 0 -1 -.1348 -195.7207)">
    <stop offset="0" stop-color="#999999"/>
    <stop offset="0.98" stop-color="#F3F3F3"/>
  </linearGradient>
  <path fill="url(#a)" d="M69.257 126.199c-.447-.744-1.049-1.191-1.797-1.439-13.635-3.826-22.427-3.277-26.321 1.74-1.4 1.641-2.249 3.23-2.499 4.869-.301 1.639-.101 3.18.647 4.672h-.05c.551 1.141 1.399 2.184 2.499 3.129h.05c.899.744 1.847 1.342 2.946 1.84.748.396 2.499.645 5.294.693.551.051 1.6.051 3.197.051 1.399.051 2.499.051 3.297.1h.05c2.499.051 5.033.293 5.846.545.809.254 2.233 1.728 2.344 2.39.115.655 0 0 0 0 .15.396.301.502.158 1.508-.146 1.006-.455.826-.855 1.324v-.054c-.451.398-1.199.695-2.248.996-1.497.351-3.297.597-5.395.646s-4.196 0-6.343-.248c-2.048-.25-3.845-.6-5.345-1.045-.748-.246-1.546-.197-2.248.201-.748.348-1.249.943-1.497 1.738-.25.744-.15 1.539.197 2.283.401.694 1.002 1.19 1.75 1.442 1.797.594 3.945.989 6.443 1.291 2.449.248 4.843.348 7.242.297 2.599-.101 4.847-.396 6.694-.844 2.595-.648 4.396-1.642 5.344-2.933h.05c.798-.996 1.396-1.893 1.747-2.688v-.051c.401-.99.601-1.986.601-3.027v-.102c-.05-.744.014-1.834-.387-2.879-.15-.545-.297-.847-1.099-2.582-.805-1.73-2.663-2.838-5.91-3.531h-.05c-1.597-.301-3.895-.549-6.841-.646-.848-.052-1.998-.052-3.497-.103-1.497 0-2.545 0-3.097-.05-1.597-.047-2.646-.099-3.046-.196-.551-.25-1.049-.547-1.45-.896-.447-.397-.798-.795-.999-1.19v-.05c-.201-.297-.251-.646-.15-.996.15-.646.501-1.338 1.149-1.985 2.996-2.881 9.69-2.881 20.129.101.802.197 1.55.149 2.248-.297.752-.396 1.25-.994 1.45-1.789.254-.741.154-1.489-.248-2.235z"/>
  <linearGradient id="b" gradientUnits="userSpaceOnUse" x1="4.5542" y1="-389.2583" x2="36.7709" y2="-357.0415" gradientTransform="matrix(1 0 0 -1 -.1348 -195.7207)">
    <stop offset="0" stop-color="#999999"/>
    <stop offset="0.98" stop-color="#F3F3F3"/>
  </linearGradient>
  <path fill="url(#b)" d="M35.751 163.83c-.447-.744-1.049-1.191-1.797-1.439-13.635-3.826-22.427-3.279-26.322 1.74-1.399 1.639-2.248 3.229-2.499 4.869-.301 1.639-.1 3.178.648 4.67h-.05c.551 1.143 1.4 2.184 2.499 3.129h.05c.898.744 1.847 1.342 2.946 1.84.748.398 2.499.646 5.294.695.552.049 1.601.049 3.197.049 1.4.051 2.499.051 3.297.102h.05c2.499.052 5.033.293 5.846.543.809.257 2.234 1.729 2.345 2.392.115.658 0 0 0 0 .15.396.301.5.157 1.506-.146 1.011-.455.828-.855 1.326v-.052c-.451.396-1.2.69-2.249.993-1.496.349-3.297.597-5.395.646-2.098.054-4.195 0-6.343-.246-2.047-.25-3.844-.598-5.344-1.045-.749-.248-1.546-.194-2.248.199-.749.351-1.25.942-1.497 1.737-.25.744-.15 1.539.197 2.283.401.695 1.002 1.193 1.75 1.443 1.797.594 3.945.992 6.444 1.293 2.448.246 4.843.348 7.242.297 2.599-.1 4.847-.398 6.694-.846 2.595-.648 4.396-1.639 5.345-2.932h.05c.798-.994 1.396-1.892 1.747-2.687v-.051c.401-.992.602-1.985.602-3.029v-.1c-.05-.744.014-1.832-.387-2.88-.15-.545-.297-.846-1.099-2.579-.806-1.732-2.663-2.841-5.91-3.533h-.05c-1.597-.301-3.895-.547-6.841-.646-.849-.049-1.998-.049-3.498-.103-1.496 0-2.545 0-3.096-.051-1.597-.045-2.646-.099-3.046-.195-.552-.252-1.049-.549-1.45-.896-.448-.396-.798-.795-.999-1.19v-.051c-.201-.298-.25-.646-.15-.994.15-.646.501-1.34 1.149-1.985 2.996-2.884 9.69-2.884 20.128.102.802.195 1.55.148 2.248-.299.752-.396 1.25-.996 1.45-1.791.251-.742.151-1.49-.25-2.234z"/>
  <linearGradient id="c" gradientUnits="userSpaceOnUse" x1="72.2407" y1="-348.3638" x2="103.0264" y2="-317.5779" gradientTransform="matrix(1 0 0 -1 -.1348 -195.7207)">
    <stop offset="0" stop-color="#999999"/>
    <stop offset="0.98" stop-color="#F3F3F3"/>
  </linearGradient>
  <path fill="url(#c)" d="M98.647 123.68c-.602-.547-1.299-.846-2.148-.846H76.517c-.798 0-1.546.299-2.098.846-.598.594-.898 1.293-.898 2.137v24.847c0 .795.301 1.543.898 2.088.551.601 1.299.896 2.098.896h19.982c.849 0 1.546-.297 2.148-.896.548-.545.849-1.293.849-2.088 0-.847-.301-1.539-.849-2.14-.602-.545-1.299-.846-2.148-.846H79.517v-6.457h12.486c.849 0 1.546-.297 2.148-.895.547-.549.849-1.293.849-2.088 0-.844-.301-1.539-.849-2.137-.602-.552-1.299-.849-2.148-.849H79.517v-6.457h16.982c.849 0 1.546-.301 2.148-.896.548-.549.849-1.24.849-2.088 0-.838-.301-1.538-.849-2.131z"/>
  <linearGradient id="d" gradientUnits="userSpaceOnUse" x1="101.5142" y1="-351.6255" x2="135.3996" y2="-317.74" gradientTransform="matrix(1 0 0 -1 -.1348 -195.7207)">
    <stop offset="0" stop-color="#999999"/>
    <stop offset="0.98" stop-color="#F3F3F3"/>
  </linearGradient>
  <path fill="url(#d)" d="M133.141 127.195c-.147-.863-.598-1.563-1.244-2.047-5.482-3.938-11.492-4.687-17.301-3.666-2.291.537-3.033.483-5.535 1.725-2.498 1.236-4.239 3.533-4.239 3.533-1.195 1.297-1.843 2.879-2.642 4.977-.799 2.098-.795 3.139-.895 5.727-.1 2.591.247 4.966.995 7.228.748 2.269 1.894 4.267 3.441 5.938v-.058c1.495 1.729 3.34 3.072 5.483 3.937 2.144.918 4.487 1.404 7.028 1.404 5.98 0 10.322-1.353 13.014-4.047 3.141-2.75 4.436-6.9 3.938-12.455-.05-.863-.396-1.515-.947-2.104-.598-.541-1.244-.812-2.045-.812H119.23c-.795 0-1.543.32-2.098.916-.598.646-.896 1.398-.896 2.318 0 .863.299 1.672.896 2.264.555.646 1.303.969 2.098.969h9.973c-.2 1.619-.85 2.972-1.848 3.992-1.943 1.672-4.982 2.48-9.121 2.48-1.746 0-3.393-.322-4.836-.916l-.051-.053c-1.298-.541-2.393-1.297-3.342-2.375-.945-1.023-1.646-2.266-2.094-3.611-.498-1.457-.698-3.074-.646-4.801.049-1.832.25-2.828.596-4.066.252-.92.648-1.672 1.197-2.266 0 0 .893-1.385 2.396-2.133 1.504-.752 2.592-.971 4.437-1.457h.051c4.39-1.078 8.576-.162 12.615 2.803.695.486 1.443.646 2.238.486.801-.215 1.446-.648 1.896-1.402.45-.699.6-1.508.45-2.428z"/>
  <linearGradient id="e" gradientUnits="userSpaceOnUse" x1="140.5303" y1="-352.938" x2="173.7048" y2="-319.7637" gradientTransform="matrix(1 0 0 -1 -.1348 -195.7207)">
    <stop offset="0" stop-color="#999999"/>
    <stop offset="0.98" stop-color="#F3F3F3"/>
  </linearGradient>
  <path fill="url(#e)" d="M170.887 153.406c.5-.695.696-1.389.598-2.234-3.146-20.723-8.789-30.861-16.98-30.363-8.188-.498-13.886 9.293-16.934 29.367-.102.795.052 1.541.553 2.189.498.693 1.146 1.09 1.945 1.191.801.146 1.549-.054 2.248-.552.647-.496 1.051-1.141 1.199-1.938.375-2.493.787-4.797 1.23-6.907H164.139c.504 2.389.973 5.021 1.402 7.897.15.795.501 1.443 1.199 1.941.646.498 1.398.693 2.197.543.799-.089 1.448-.485 1.95-1.134zm-24.657-15.203c2.186-7.354 4.951-11.162 8.271-11.43 3.22.264 5.953 4.076 8.144 11.43H146.23z"/>
  <linearGradient id="f" gradientUnits="userSpaceOnUse" x1="41.6592" y1="-393.1929" x2="76.5015" y2="-358.3506" gradientTransform="matrix(1 0 0 -1 -.1348 -195.7207)">
    <stop offset="0" stop-color="#999999"/>
    <stop offset="0.98" stop-color="#F3F3F3"/>
  </linearGradient>
  <path fill="url(#f)" d="M43.867 192.836c.651-.498 1.052-1.145 1.199-1.939.379-2.492.791-4.797 1.231-6.903h19.398c.505 2.389.97 5.021 1.399 7.897.15.795.498 1.443 1.199 1.938.648.496 1.396.696 2.198.547.798-.101 1.446-.498 1.947-1.142.498-.698.698-1.395.598-2.237-3.146-20.72-8.792-30.856-16.982-30.358-8.19-.498-13.835 9.293-16.932 29.366-.15.795.05 1.539.548 2.187.501.697 1.149 1.096 1.951 1.19.85.149 1.547-.048 2.246-.546zm3.916-14.809c2.188-7.353 4.955-11.158 8.273-11.426 3.25.26 5.975 4.073 8.151 11.426H47.783z"/>
  <linearGradient id="g" gradientUnits="userSpaceOnUse" x1="65.561" y1="-385.3555" x2="98.1364" y2="-352.78" gradientTransform="matrix(1 0 0 -1 -.1348 -195.7207)">
    <stop offset="0" stop-color="#999999"/>
    <stop offset="0.98" stop-color="#F3F3F3"/>
  </linearGradient>
  <path fill="url(#g)" d="M98.661 162.971c-.598-.545-1.299-.844-2.147-.844H70.542c-.802 0-1.55.299-2.101.844-.598.598-.898 1.293-.898 2.137 0 .795.301 1.539.898 2.088.551.601 1.299.896 2.101.896h9.988v22.854c0 .798.3 1.543.898 2.091.551.598 1.299.896 2.098.896.852 0 1.55-.299 2.147-.896.552-.548.853-1.293.853-2.091V168.09h9.987c.848 0 1.55-.297 2.147-.895.551-.549.849-1.293.849-2.088.001-.843-.297-1.539-.848-2.136z"/>
  <linearGradient id="h" gradientUnits="userSpaceOnUse" x1="99.6021" y1="-388.3755" x2="132.5367" y2="-355.4408" gradientTransform="matrix(1 0 0 -1 -.1348 -195.7207)">
    <stop offset="0" stop-color="#999999"/>
    <stop offset="0.98" stop-color="#F3F3F3"/>
  </linearGradient>
  <path fill="url(#h)" d="M133.656 162.377c-.598-.598-1.297-.895-2.147-.895-.799 0-1.547.297-2.098.895-.599.543-.899 1.291-.899 2.086v14.756c0 1.146-.199 2.238-.646 3.232-.4 1.041-1.05 1.887-1.802 2.682-.799.744-1.646 1.393-2.694 1.789-.998.447-2.099.645-3.247.645h-4.445c-1.148 0-2.197-.194-3.246-.645-1.05-.396-1.896-1.045-2.695-1.789-.752-.795-1.351-1.641-1.801-2.635v-.047c-.396-.994-.646-2.086-.646-3.232v-14.756c0-.795-.302-1.543-.851-2.086-.603-.598-1.297-.895-2.146-.895-.798 0-1.55.297-2.098.895-.602.543-.898 1.291-.898 2.086v14.756c0 1.941.397 3.777 1.099 5.566h.05c.698 1.74 1.747 3.229 3.046 4.572 1.347 1.291 2.847 2.334 4.593 3.082 1.751.744 3.599 1.092 5.597 1.092h4.444c1.998 0 3.847-.348 5.646-1.092h-.051c1.746-.748 3.246-1.791 4.598-3.082 1.295-1.344 2.346-2.832 3.097-4.572v.051c.748-1.791 1.101-3.627 1.101-5.617v-14.756c-.009-.795-.309-1.543-.861-2.086z"/>
  <linearGradient id="i" gradientUnits="userSpaceOnUse" x1="137.0967" y1="-389.8291" x2="170.2666" y2="-356.659" gradientTransform="matrix(1 0 0 -1 -.1348 -195.7207)">
    <stop offset="0" stop-color="#999999"/>
    <stop offset="0.98" stop-color="#F3F3F3"/>
  </linearGradient>
  <path fill="url(#i)" d="M137.684 162.406c-.529.543-.849 1.184-.849 1.971v25.664c0 .787.319 1.527.901 2.072.639.59 1.437.887 2.285.887.902 0 1.646-.297 2.23-.887.641-.545.956-1.285.956-2.072v-22.9c6.854-.393 12.108-.047 15.772.988 2.763.838 4.25 2.219 4.406 4.145.055 1.529-.582 2.617-1.91 3.261-2.127.889-5.26 1.135-9.398.688-.744-.051-1.383.051-2.021.443-.638.344-1.063.838-1.328 1.482-.266.592-.266 1.229-.104 1.873.211.645.64 1.135 1.224 1.528l15.937 10.857c.69.487 1.485.688 2.338.541.901-.101 1.593-.494 2.123-1.188.479-.641.69-1.381.587-2.17-.161-.84-.587-1.479-1.277-1.975l-8.445-5.725c1.224-.293 2.283-.644 3.188-1.084 3.612-1.683 5.42-4.539 5.476-8.539.211-4.734-2.766-7.992-8.815-9.771-4.729-1.479-11.796-1.826-21.196-1.084-.802.056-1.493.4-2.08.995z"/>
  <linearGradient id="j" gradientUnits="userSpaceOnUse" x1="173.3457" y1="-389.562" x2="205.5609" y2="-357.3467" gradientTransform="matrix(1 0 0 -1 -.1348 -195.7207)">
    <stop offset="0" stop-color="#999999"/>
    <stop offset="0.98" stop-color="#F3F3F3"/>
  </linearGradient>
  <path fill="url(#j)" d="M174.58 162.92c-.352.498-.548 1.047-.548 1.689v25.84c0 .797.297 1.543.897 2.086.549.598 1.297.895 2.098.895.85 0 1.547-.297 2.146-.895.55-.543.851-1.289.851-2.086v-18.432l19.828 20.471c.451.445.946.746 1.551.893.598.1 1.146.049 1.746-.146.552-.252.998-.598 1.351-1.143.351-.498.501-1.045.501-1.643v-25.84c0-.844-.301-1.539-.854-2.137-.599-.543-1.295-.847-2.146-.847-.798 0-1.546.304-2.098.847-.598.598-.898 1.293-.898 2.137v18.436l-19.777-20.521c-.451-.396-.949-.692-1.551-.846-.598-.096-1.199-.049-1.746.201-.553.197-1.05.547-1.351 1.041z"/>
  <g>
    <radialGradient id="k" cx="53.5449" cy="190.9961" r="186.5518" gradientTransform="matrix(1 0 0 -1 -.0449 199.7598)" gradientUnits="userSpaceOnUse">
      <stop offset="0" stop-color="#FFFFFF"/>
      <stop offset="1" stop-color="#000000"/>
    </radialGradient>
    <path fill="url(#k)" d="M42.914 56.914c3.523-2.664 8.559-5.978 14.33-8.867 5.774-3.093 12.271-5.875 19.488-8.659v.104c7.113-2.681 14.638-5.155 22.474-7.32 7.94-2.27 15.772-4.124 23.608-5.463 7.938-1.546 15.564-2.477 22.785-2.889 7.424-.619 15.885-.042 18.018.104s5.178-.308 6.517-1.339c1.343-1.134 2.062-2.477 2.269-4.124.207-1.754-.309-3.3-1.338-4.539-1.135-1.339-3.607-2.162-5.258-2.266-6.601-.723-12.888-.723-21.031-.208-7.633.516-15.674 1.546-24.229 3.093-8.146 1.443-16.395 3.404-24.642 5.67-8.248 2.27-16.08 4.847-23.504 7.628-7.732 2.993-16.088 6.778-20.827 9.178-4.739 2.4-10.844 5.846-16.004 10.102-5.16 4.256-7.345 6.29-10.801 11.648s-4.25 11.431-2.121 15.07c5.478 9.365 25.01 6.296 32.434 4.853 5.978-1.235 13.298-2.914 22.062-5.386 6.39-1.958 14.537-4.535 24.432-7.836l24.537-8.04c8.969-2.989 16.287-5.259 21.96-6.805 6.907-2.062 19.178-4.985 25.491-3.841-.315 3.957-5.229 14.552-27.146 24.356-8.146 3.712-17.215 7.116-27.217 10.413h-.101c-7.729 2.474-15.667 4.64-23.813 6.598-7.939 1.858-15.364 3.197-22.477 4.332l.104-.104c-11.187 1.561-27.276.172-30.454.588-6.292.401-7.823 4.363-7.89 6.083-.067 1.712-.152 5.733 8.228 6.253 8.38.52 16.205 1.215 31.87-.656 9.722-1.433 15.257-2.576 23.401-4.432h.104c8.456-2.062 16.703-4.332 24.744-6.909 10.517-3.297 20.104-7.009 28.658-10.925 19.233-8.627 26.157-16.514 30.666-23.292 4.509-6.778 6.151-16.094 1.476-20.469-5.357-5.012-15.549-4.117-19.05-3.784-5.002.477-12.472 1.669-19.996 3.832-5.772 1.65-13.198 3.919-22.478 7.013l-24.535 8.04c-9.794 3.197-17.734 5.774-24.02 7.628-8.352 2.478-15.26 4.332-21.035 5.466-13.183 3.035-17.422 1.337-17.422 1.337-.181-3.775 4.21-8.572 7.733-11.236z"/>
    <path fill="#333333" d="M56.123 106.589c-4.398 0-8.139-.237-11.755-.468l-1.614-.102c-9.154-.567-8.965-5.41-8.903-7 .084-2.159 1.983-6.354 8.563-6.773.41-.055 1.1-.083 2.123-.083 1.301 0 3.019.045 5.01.098 2.667.07 5.984.158 9.377.158 5.704 0 10.247-.247 13.89-.755.117-.016.231-.003.337.033 8.284-1.33 15.277-2.683 21.972-4.25 8.621-2.072 16.395-4.226 23.757-6.583.067-.021.138-.033.207-.034 10.552-3.481 19.396-6.867 27.034-10.348 19.393-8.675 25.777-18.283 26.639-23.096-.746-.094-1.594-.142-2.523-.142-6.143 0-15.368 2.101-21.957 4.068-5.611 1.529-12.986 3.815-21.938 6.798L101.8 66.152c-8.539 2.849-16.765 5.487-24.445 7.841-7.42 2.093-14.653 3.858-22.127 5.402-5.704 1.109-10.877 1.67-15.384 1.67-9.158 0-15.153-2.31-17.817-6.865-2.295-3.923-1.437-10.282 2.138-15.823 3.505-5.435 5.787-7.556 10.948-11.813 4.203-3.467 9.632-6.895 16.137-10.189 4.52-2.289 12.985-6.146 20.892-9.207 7.77-2.91 15.698-5.483 23.573-7.651 9.016-2.478 17.098-4.337 24.707-5.685 8.674-1.568 16.626-2.583 24.307-3.102 3.887-.246 7.246-.365 10.271-.365 3.788 0 7.35.188 10.887.576 1.823.114 4.475 1.036 5.729 2.516 1.207 1.453 1.726 3.211 1.504 5.089-.232 1.855-1.057 3.355-2.52 4.59-1.584 1.221-4.847 1.658-7.029 1.507-1.385-.095-5.592-.383-10.432-.383-2.748 0-5.265.094-7.479.278-7.449.426-15.083 1.394-22.707 2.878-7.516 1.285-15.213 3.066-23.548 5.449-7.573 2.092-15.113 4.548-22.418 7.302-.118.044-.245.058-.366.038-7.889 3.054-13.946 5.752-19.036 8.478-6.67 3.34-11.781 6.951-14.236 8.807-3.511 2.655-7.212 6.863-7.441 10.116.567.125 1.689.299 3.514.299 3.475 0 7.856-.604 13.021-1.792 5.342-1.049 11.809-2.73 20.992-5.455 6.249-1.843 14.224-4.431 24.001-7.623l24.535-8.039c8.205-2.736 15.777-5.099 22.504-7.021 9.102-2.616 17.105-3.568 20.125-3.856.971-.092 2.986-.284 5.303-.284 6.474 0 11.287 1.433 14.309 4.259 5.148 4.818 3.139 14.619-1.368 21.394-4.756 7.149-11.8 14.951-30.971 23.55-8.944 4.095-18.614 7.782-28.737 10.956-7.697 2.467-15.809 4.731-24.79 6.921-.056.015-.113.021-.17.021h-.026c-8.423 1.92-13.816 3.017-23.377 4.424-7.044.838-12.964 1.229-18.65 1.229zM44.537 93.603c-.946 0-1.595.025-1.984.076-5.603.359-7.197 3.687-7.264 5.397-.063 1.631-.196 5.025 7.553 5.506l1.616.104c3.594.229 7.311.465 11.664.465 5.628 0 11.494-.389 18.46-1.221 9.524-1.402 14.896-2.498 23.326-4.419.053-.012.106-.018.16-.018h.018c8.915-2.175 16.965-4.424 24.611-6.874 10.07-3.158 19.684-6.822 28.578-10.895 18.844-8.452 25.729-16.066 30.365-23.036 4.237-6.37 5.988-15.422 1.584-19.544-2.746-2.568-7.229-3.871-13.324-3.871-2.248 0-4.219.188-5.166.278-2.979.284-10.879 1.224-19.864 3.807-6.707 1.917-14.261 4.273-22.449 7.004l-24.539 8.041c-9.789 3.196-17.774 5.787-24.041 7.635-9.227 2.738-15.735 4.429-21.1 5.482-5.248 1.208-9.738 1.824-13.321 1.824-3.107 0-4.373-.471-4.507-.525-.261-.105-.438-.353-.451-.634-.211-4.404 4.94-9.518 8.018-11.845 2.494-1.886 7.686-5.555 14.442-8.937 5.205-2.788 11.423-5.551 19.551-8.687.123-.047.254-.059.378-.038 7.229-2.712 14.683-5.134 22.163-7.2 8.38-2.396 16.126-4.188 23.679-5.479 7.672-1.494 15.369-2.47 22.865-2.898 2.233-.187 4.789-.282 7.578-.282 4.889 0 9.135.291 10.528.386.245.017.502.025.769.025 2.133 0 4.346-.511 5.26-1.216 1.164-.984 1.807-2.148 1.994-3.644.174-1.471-.232-2.853-1.178-3.989-.943-1.113-3.201-1.91-4.748-2.007-6.389-.699-12.219-.761-20.941-.208-7.623.515-15.522 1.523-24.146 3.083-7.567 1.34-15.606 3.19-24.579 5.656-7.833 2.156-15.72 4.715-23.442 7.608-7.854 3.04-16.265 6.873-20.754 9.146-6.41 3.246-11.75 6.616-15.872 10.016-5.14 4.24-7.243 6.195-10.654 11.482-3.236 5.017-4.101 10.903-2.104 14.316 2.388 4.082 7.964 6.152 16.574 6.152 4.415 0 9.495-.552 15.101-1.642 7.432-1.535 14.632-3.292 22.004-5.372 7.654-2.346 15.868-4.98 24.399-7.827l24.541-8.041c8.973-2.99 16.375-5.284 21.995-6.815 3.228-.963 14.429-4.123 22.353-4.123 1.311 0 2.474.09 3.457.269.363.066.619.397.59.766-.106 1.34-1.788 13.422-27.568 24.956-7.709 3.513-16.636 6.929-27.285 10.439-.07.023-.143.036-.217.036-7.365 2.355-15.138 4.507-23.756 6.579-6.855 1.604-14.014 2.984-22.532 4.343-.126.022-.256.006-.373-.039-3.628.475-8.093.707-13.626.707-3.412 0-6.741-.088-9.416-.159-1.977-.054-3.682-.099-4.973-.099z"/>
    <radialGradient id="l" cx="113.6729" cy="826.5908" r="47.6113" gradientTransform="translate(-.1797 -790.9609)" gradientUnits="userSpaceOnUse">
      <stop offset="0.04" stop-color="#FFFFFF"/>
      <stop offset="0.04" stop-color="#FFFFFF"/>
      <stop offset="0.23" stop-color="#6E93E1"/>
      <stop offset="1" stop-color="#363499"/>
    </radialGradient>
    <circle fill="url(#l)" cx="104.906" cy="58.155" r="52.579"/>
    <path fill="#33317A" d="M104.906 112.175c-29.786 0-54.019-24.233-54.019-54.02 0-29.787 24.233-54.02 54.019-54.02s54.019 24.233 54.019 54.02c0 29.786-24.234 54.02-54.019 54.02zm0-105.159c-28.198 0-51.139 22.941-51.139 51.139 0 28.198 22.941 51.139 51.139 51.139s51.138-22.94 51.138-51.139-22.94-51.139-51.138-51.139z"/>
    <radialGradient id="m" cx="-29.7881" cy="587.4063" r="412.4799" gradientTransform="translate(-.0898 -395.4805)" gradientUnits="userSpaceOnUse">
      <stop offset="0" stop-color="#FFFFFF"/>
      <stop offset="1" stop-color="#000000"/>
    </radialGradient>
    <path fill="url(#m)" d="M55.082 78.69c5.978-1.235 13.298-2.914 22.062-5.386 6.39-1.958 24.432-7.836 24.432-7.836l24.537-8.04c8.969-2.989 16.287-5.259 21.96-6.805 0 0 8.483-2.234 9.926-2.492-.515-5.353-3.589-11.787-3.589-11.787-3.098.599-6.413 1.365-9.739 2.321-5.772 1.65-13.198 3.919-22.478 7.013l-24.535 8.04c-9.794 3.197-17.734 5.774-24.02 7.628-12.947 4.036-21.755 5.629-22.104 5.706 0 .001 1.168 7.67 3.548 11.638z"/>
    <path fill="#333333" d="M39.426 69.342c-3.138 0-4.417-.485-4.513-.524-.369-.148-.549-.567-.401-.936.148-.37.568-.549.936-.401.036.012 4.316 1.547 16.993-1.37 5.342-1.049 11.809-2.73 20.992-5.455 6.249-1.843 14.224-4.431 24.001-7.623l24.534-8.039c8.206-2.736 15.778-5.099 22.505-7.021 9.102-2.616 17.105-3.568 20.125-3.856.391-.031.748.252.785.648.038.396-.253.748-.648.785-2.979.284-10.879 1.224-19.864 3.807-6.707 1.917-14.261 4.273-22.449 7.004l-24.539 8.041c-9.789 3.196-17.774 5.787-24.041 7.635-9.227 2.738-15.735 4.429-21.1 5.482-6.237 1.437-10.516 1.823-13.316 1.823z"/>
    <path fill="#333333" d="M39.918 81.042c-7.537 0-14.805-1.564-17.892-6.842-.201-.343-.085-.785.258-.985.342-.201.784-.085.985.258 4.874 8.334 21.937 6.402 31.675 4.51 7.432-1.536 14.632-3.293 22.004-5.372 6.295-1.929 24.224-7.77 24.404-7.828l24.537-8.04c8.973-2.99 16.373-5.284 21.994-6.815.028-.008 3.463-.971 9.95-2.498 6.103-1.437 11.112-1.967 14.485-1.534.396.051.674.412.623.806s-.41.673-.807.623c-2.234-.289-6.472-.259-13.973 1.506-6.453 1.519-9.862 2.475-9.896 2.484-5.602 1.526-12.977 3.812-21.928 6.795L101.8 66.152c-.182.059-18.122 5.903-24.445 7.841-7.42 2.093-14.653 3.858-22.127 5.402-4.251.826-9.852 1.647-15.31 1.647z"/>
    <path fill="#484848" d="M55.403 155.901c-2.021 0-4.016-.103-6.099-.313-2.789-.337-4.881-.758-6.596-1.324-.917-.309-1.659-.919-2.147-1.766-.475-1.013-.554-1.986-.256-2.873.306-.981.957-1.734 1.876-2.162.767-.44 1.812-.551 2.776-.231 1.431.424 3.19.768 5.208 1.014 1.919.222 4.031.294 6.238.243 1.896-.045 3.662-.256 5.248-.628 1.005-.289 1.612-.549 1.936-.835.041-.036.085-.066.131-.092.098-.093.187-.16.259-.216.135-.103.171-.13.229-.526.048-.336.058-.526.045-.66-.017-.021-.032-.042-.046-.064-.001 0-.001-.002-.001-.002s0-.001-.001-.001v-.001l-.001-.001v-.002-.001-.001c-.047-.076-.081-.162-.097-.255l-.049-.275c-.001-.008-.002-.016-.004-.022-.091-.377-1.257-1.635-1.849-1.821-.658-.204-3.005-.458-5.645-.512-.516-.027-1.046-.039-1.667-.054-.504-.011-1.068-.023-1.691-.046-1.581.004-2.653.001-3.237-.054-2.836-.048-4.674-.302-5.565-.774-1.049-.474-2.027-1.077-2.95-1.824-.067-.027-.129-.063-.178-.105-1.196-1.027-2.097-2.159-2.678-3.361-.038-.079-.061-.163-.068-.247-.713-1.545-.906-3.14-.588-4.868.26-1.706 1.131-3.416 2.659-5.207 2.307-2.974 6.292-4.494 11.822-4.494 4.134 0 9.262.851 15.241 2.528.986.326 1.702.899 2.22 1.762.527.977.626 1.922.312 2.839-.229.92-.855 1.698-1.796 2.193-.488.314-1.089.49-1.734.49-.323 0-.666-.045-1.021-.132-10.054-2.871-16.683-2.95-19.458-.281-.487.487-.81 1.039-.947 1.63-.052.184-.034.313.045.429.048.072.083.151.104.234.156.26.417.554.777.874.307.267.712.519 1.201.747.505.095 2.128.143 2.837.163.563.05 1.618.05 3.076.05.66.021 1.232.034 1.745.045.706.016 1.302.028 1.796.059 2.696.089 5.08.313 6.878.648.043.002.09.007.119.013 3.472.741 5.51 1.991 6.412 3.932l.154.333c.688 1.486.831 1.796.987 2.361.337.87.367 1.792.391 2.531.005.176.01.341.021.49l.002.15c0 1.101-.202 2.151-.618 3.207-.01.06-.025.117-.045.162-.361.817-.964 1.748-1.844 2.847-.048.06-.104.11-.166.151-1.081 1.35-2.969 2.368-5.616 3.029-1.953.475-4.253.765-6.84.865-.426.008-.837.012-1.247.012zm-11.589-7.416c-.346 0-.674.087-.975.258-.609.286-.973.711-1.165 1.327-.229.683-.038 1.335.162 1.764.287.491.743.868 1.328 1.064 1.618.535 3.621.936 6.299 1.259 2.429.245 4.769.344 7.141.292 2.479-.096 4.684-.373 6.539-.823 2.421-.605 4.083-1.5 4.934-2.659.053-.073.119-.134.192-.181.698-.887 1.186-1.635 1.483-2.278.009-.046.02-.089.034-.124.369-.911.548-1.813.548-2.757v-.102c-.009-.117-.015-.299-.021-.492-.021-.665-.045-1.419-.318-2.129-.143-.505-.257-.758-.927-2.206l-.153-.332c-.691-1.485-2.391-2.477-5.347-3.116-.035-.002-.07-.005-.093-.009-1.208-.229-3.358-.523-6.731-.635-.499-.03-1.076-.043-1.759-.058-.519-.011-1.097-.023-1.738-.045-1.521.006-2.553.001-3.137-.053-1.894-.054-2.73-.11-3.152-.214-.043-.011-.086-.025-.126-.044-.646-.293-1.193-.632-1.625-1.008-.558-.496-.938-.955-1.168-1.407-.022-.044-.039-.089-.052-.135-.238-.438-.291-.941-.148-1.438.19-.821.642-1.606 1.333-2.296 3.239-3.114 10.182-3.124 20.835-.082.604.147 1.18.097 1.663-.211.636-.338.992-.772 1.139-1.358.199-.587.133-1.13-.184-1.717-.321-.534-.768-.892-1.39-1.098-5.82-1.633-10.817-2.466-14.82-2.466-5.062 0-8.664 1.334-10.705 3.964-1.371 1.606-2.134 3.082-2.356 4.536-.28 1.527-.09 2.907.579 4.241.039.076.063.158.072.241.477.901 1.178 1.762 2.087 2.563.058.024.112.056.155.092.869.72 1.754 1.271 2.784 1.738.421.222 1.573.569 5.009.63.572.051 1.611.051 3.185.051.642.022 1.199.035 1.697.046.643.015 1.191.027 1.644.055 2.572.051 5.171.299 6.065.576.948.298 2.567 1.847 2.82 2.863l.041.098c.175.408.279.749.141 1.726-.131.906-.431 1.2-.78 1.466-.09.068-.154.118-.226.208-.089.11-.205.188-.333.231-.493.352-1.185.639-2.278.952-1.717.402-3.582.627-5.576.674-.478.012-.956.018-1.434.018-1.797 0-3.435-.088-5.009-.271-2.102-.256-3.939-.616-5.468-1.069-.253-.081-.486-.12-.715-.12z"/>
    <path fill="#484848" d="M21.909 193.533c-2.015 0-4.013-.103-6.109-.313-2.778-.335-4.871-.756-6.598-1.326-.916-.306-1.657-.917-2.147-1.768-.475-1.012-.554-1.985-.256-2.872.303-.977.953-1.729 1.875-2.16.782-.44 1.823-.548 2.78-.23 1.419.423 3.177.767 5.205 1.014 1.947.224 4.053.295 6.237.241 1.888-.044 3.653-.255 5.25-.627.667-.193 1.526-.473 1.938-.833.038-.034.079-.063.122-.087.101-.096.192-.166.268-.223.134-.102.17-.129.228-.527.048-.335.059-.525.046-.658-.075-.092-.127-.203-.149-.328l-.048-.277c-.001-.008-.002-.015-.004-.021-.091-.376-1.259-1.635-1.852-1.823-.655-.201-3.003-.455-5.644-.51-.525-.029-1.065-.041-1.7-.056-.496-.012-1.049-.024-1.658-.046-1.583.004-2.65.001-3.234-.052-2.84-.048-4.679-.303-5.569-.776-1.05-.475-2.028-1.078-2.95-1.824-.066-.028-.128-.063-.178-.105-1.197-1.03-2.099-2.161-2.678-3.362-.038-.078-.061-.161-.068-.245-.714-1.545-.907-3.141-.589-4.867.261-1.707 1.132-3.417 2.66-5.207 2.307-2.974 6.291-4.495 11.821-4.495 4.134 0 9.262.852 15.243 2.529.986.326 1.702.899 2.22 1.762.525.973.625 1.918.315 2.838-.23.924-.857 1.702-1.797 2.197-.487.315-1.089.491-1.736.491-.326 0-.658-.042-1.017-.13-10.056-2.873-16.684-2.952-19.458-.282-.488.486-.81 1.037-.947 1.63-.051.183-.033.312.046.429.047.07.082.148.102.23.157.263.418.556.777.874.307.266.713.519 1.202.747.523.098 2.192.145 2.836.163.564.051 1.618.051 3.076.051.703.024 1.308.038 1.846.05.661.014 1.222.026 1.693.054 2.708.091 5.091.314 6.881.647.043.002.089.007.119.013 3.47.74 5.508 1.99 6.413 3.934l.159.343c.684 1.478.827 1.784.982 2.349.338.874.367 1.795.39 2.535.006.175.011.339.021.488.001.016.002.132.002.147 0 1.1-.203 2.15-.618 3.209-.01.06-.025.117-.045.162-.362.82-.966 1.752-1.844 2.846-.048.06-.104.11-.166.151-1.08 1.349-2.968 2.367-5.616 3.028-1.97.478-4.27.769-6.842.867-.423.007-.829.011-1.236.011zm-11.597-7.416c-.346 0-.676.087-.981.258-.607.286-.971.711-1.162 1.323-.229.684-.038 1.336.162 1.765.288.493.743.87 1.326 1.065 1.631.539 3.635.939 6.302 1.261 2.445.246 4.78.339 7.141.292 2.464-.095 4.668-.372 6.54-.826 2.422-.605 4.084-1.5 4.934-2.657.054-.073.12-.135.194-.182.697-.883 1.184-1.63 1.482-2.276.009-.046.02-.089.034-.123.37-.915.549-1.817.549-2.76-.009-.216-.015-.397-.021-.59-.021-.665-.045-1.419-.318-2.133-.142-.503-.256-.754-.922-2.191l-.158-.342c-.692-1.488-2.393-2.48-5.347-3.119-.035-.002-.07-.005-.093-.009-1.202-.227-3.346-.521-6.731-.634-.474-.027-1.019-.039-1.659-.053-.544-.012-1.156-.025-1.841-.05-1.521.001-2.552.001-3.136-.054-1.855-.051-2.722-.109-3.149-.212-.044-.011-.088-.026-.129-.045-.645-.295-1.19-.633-1.622-1.006-.557-.493-.938-.952-1.17-1.409-.022-.043-.04-.088-.052-.135-.237-.437-.291-.939-.148-1.435.188-.812.651-1.618 1.333-2.297 3.237-3.117 10.182-3.129 20.834-.081.605.146 1.178.097 1.661-.213.637-.338.993-.773 1.141-1.36.196-.588.13-1.133-.186-1.719-.321-.534-.768-.892-1.39-1.098-5.822-1.633-10.82-2.466-14.822-2.466-5.062 0-8.664 1.333-10.705 3.964-1.37 1.605-2.133 3.081-2.356 4.536-.28 1.525-.089 2.904.58 4.239.039.076.063.157.072.24.476.899 1.177 1.761 2.088 2.564.058.025.111.056.155.092.867.719 1.752 1.271 2.784 1.738.421.224 1.572.571 5.009.632.571.049 1.61.049 3.184.049.628.022 1.175.034 1.665.046.658.015 1.217.027 1.678.057.842.017 1.687.055 2.474.107.084-.304.363-.526.694-.526.372 0 .678.282.716.644.978.1 1.763.221 2.178.349.953.303 2.571 1.853 2.823 2.866l.041.099c.175.407.279.747.139 1.724-.131.908-.432 1.202-.781 1.469-.089.067-.154.116-.225.206-.088.108-.203.188-.329.23-.491.349-1.184.636-2.282.952-1.729.404-3.594.628-5.578.674-.485.013-.972.02-1.46.02-1.768 0-3.397-.089-4.982-.271-2.113-.258-3.95-.617-5.467-1.069-.252-.081-.483-.12-.711-.12z"/>
    <path fill="#484848" d="M96.499 154.366H76.517c-1.027 0-1.96-.4-2.628-1.128-.686-.622-1.088-1.553-1.088-2.575v-24.847c0-1.025.374-1.916 1.111-2.647.687-.681 1.612-1.055 2.605-1.055h19.982c.992 0 1.877.348 2.632 1.032.735.793 1.085 1.675 1.085 2.666 0 1.019-.357 1.893-1.06 2.597-.745.735-1.638 1.106-2.658 1.106H80.237v5.018h11.766c.997 0 1.883.349 2.634 1.037.733.796 1.083 1.679 1.083 2.668s-.376 1.911-1.06 2.597c-.74.734-1.633 1.105-2.658 1.105H80.237v5.018h16.262c.989 0 1.875.347 2.631 1.031.737.804 1.086 1.687 1.086 2.674 0 .995-.377 1.918-1.062 2.599-.737.733-1.63 1.104-2.655 1.104zm-19.982-30.812c-.611 0-1.176.227-1.591.638-.467.463-.685.979-.685 1.625v24.847c0 .613.235 1.166.663 1.556.443.479.985.708 1.613.708h19.982c.648 0 1.169-.219 1.64-.687.411-.408.637-.969.637-1.577 0-.635-.21-1.16-.661-1.654-.449-.401-.978-.611-1.616-.611H79.517c-.397 0-.72-.322-.72-.72v-6.457c0-.397.323-.72.72-.72h12.486c.648 0 1.169-.218 1.641-.686.41-.411.636-.972.636-1.577 0-.635-.209-1.159-.66-1.65-.447-.405-.975-.615-1.617-.615H79.517c-.397 0-.72-.322-.72-.72v-6.457c0-.397.323-.72.72-.72h16.982c.645 0 1.167-.219 1.642-.688.426-.427.635-.943.635-1.575 0-.627-.215-1.164-.658-1.645-.45-.404-.978-.614-1.619-.614H76.517z"/>
    <path fill="#484848" d="M118.232 156.612c-2.586 0-5.046-.492-7.312-1.462-2.131-.859-4.007-2.181-5.567-3.926-.059-.032-.113-.074-.161-.126-1.599-1.729-2.809-3.815-3.596-6.202-.795-2.405-1.132-4.852-1.03-7.48l.016-.422c.086-2.293.129-3.443.926-5.534.831-2.181 1.517-3.831 2.785-5.208.031-.046 1.829-2.394 4.449-3.69 2.023-1.004 2.954-1.197 4.363-1.49.39-.081.82-.171 1.327-.29 1.638-.289 3.22-.432 4.742-.432 4.829 0 9.251 1.418 13.143 4.214.833.622 1.359 1.488 1.534 2.511.18 1.101-.007 2.087-.554 2.938-.508.852-1.291 1.434-2.315 1.708-.288.06-.533.085-.772.085-.729 0-1.424-.228-2.065-.677-3.849-2.826-7.855-3.718-12.03-2.693-.041.01-.083.017-.125.02l-.678.176c-1.396.36-2.317.598-3.534 1.206-1.313.653-2.104 1.867-2.112 1.879-.022.035-.049.068-.077.099-.471.51-.809 1.153-1.031 1.968-.343 1.227-.524 2.164-.57 3.896-.051 1.69.154 3.22.608 4.549.433 1.301 1.085 2.429 1.941 3.355.856.973 1.863 1.688 3.09 2.198.062.026.119.061.172.102 1.341.532 2.872.813 4.438.813 3.962 0 6.873-.776 8.651-2.307.702-.721 1.198-1.643 1.458-2.727h-9.113c-1.03 0-1.969-.433-2.645-1.22-.676-.666-1.069-1.651-1.069-2.732 0-1.097.355-2.016 1.088-2.807.689-.741 1.621-1.147 2.626-1.147h12.961c.96 0 1.786.326 2.528.997.765.814 1.127 1.626 1.183 2.598.517 5.761-.89 10.155-4.182 13.038-2.789 2.79-7.339 4.222-13.491 4.222zm-12.154-6.68c.069.037.133.086.188.149 1.443 1.67 3.196 2.929 5.208 3.739 2.1.899 4.369 1.353 6.759 1.353 5.755 0 9.962-1.291 12.504-3.836 3.004-2.632 4.212-6.508 3.73-11.882-.038-.647-.271-1.158-.756-1.677-.436-.391-.917-.584-1.52-.584H119.23c-.601 0-1.158.244-1.57.687-.479.519-.704 1.101-.704 1.828 0 .693.243 1.315.684 1.752.442.513.979.761 1.591.761h9.973c.206 0 .402.088.539.243.137.154.201.36.176.564-.215 1.733-.923 3.257-2.048 4.408-2.121 1.828-5.259 2.696-9.636 2.696-1.826 0-3.545-.326-5.109-.97-.066-.027-.127-.063-.182-.108-1.376-.594-2.515-1.415-3.478-2.51-.985-1.065-1.741-2.368-2.237-3.859-.508-1.487-.738-3.188-.683-5.05.05-1.868.257-2.932.622-4.238.274-1.003.72-1.851 1.322-2.518.197-.288 1.141-1.585 2.643-2.332 1.354-.677 2.388-.943 3.818-1.313l.756-.196c.047-.013.095-.02.144-.022 4.56-1.097 8.979-.108 13.132 2.941.388.271.793.406 1.227.406.146 0 .294-.016.443-.046.624-.169 1.09-.511 1.421-1.065.365-.57.479-1.199.356-1.942-.11-.647-.444-1.197-.965-1.587-4.786-3.437-10.463-4.637-16.744-3.533-.481.114-.923.206-1.323.289-1.346.28-2.159.45-4.017 1.371-2.31 1.144-3.969 3.303-3.986 3.324-1.14 1.242-1.745 2.704-2.542 4.797-.712 1.869-.748 2.808-.833 5.075l-.016.423c-.095 2.454.219 4.735.959 6.975.694 2.104 1.741 3.949 3.115 5.487z"/>
    <path fill="#484848" d="M168.417 155.311c-.755 0-1.486-.257-2.116-.742-.784-.559-1.271-1.342-1.467-2.378-.394-2.628-.822-5.077-1.281-7.312h-18.221c-.399 1.959-.771 4.072-1.104 6.295-.185.993-.679 1.794-1.474 2.402-.896.641-1.827.868-2.814.688-.964-.121-1.784-.621-2.401-1.479-.58-.75-.814-1.665-.682-2.7 3.101-20.424 9.033-30.515 17.691-29.995.119-.013.323-.019.527-.019 8.355 0 13.955 10.138 17.121 30.992.121 1.038-.11 1.908-.725 2.763-.654.846-1.475 1.32-2.454 1.431-.167.033-.386.054-.6.054zm-23.671-11.872h19.393c.341 0 .634.238.704.571.51 2.414.984 5.085 1.41 7.939.123.645.403 1.104.905 1.462.521.4 1.064.534 1.646.421.638-.073 1.115-.354 1.513-.867.389-.541.528-1.059.452-1.711-3.066-20.193-8.541-30.209-16.222-29.728-.271-.011-.453-.017-.634-.017-7.474 0-12.733 9.681-15.632 28.773-.081.635.053 1.178.41 1.641.395.548.869.842 1.467.918.166.028.292.04.416.04.452 0 .885-.151 1.323-.465.49-.376.795-.866.909-1.483.367-2.442.783-4.78 1.233-6.924.072-.331.366-.57.707-.57zm17.899-4.516H146.23c-.228 0-.441-.107-.577-.289-.136-.183-.178-.418-.113-.636 2.3-7.738 5.212-11.645 8.903-11.942.037-.002.077-.002.116 0 3.599.295 6.469 4.201 8.775 11.942.064.218.022.453-.113.636-.135.181-.349.289-.576.289zm-15.441-1.44h14.466c-1.996-6.275-4.466-9.72-7.17-9.987-2.827.272-5.279 3.629-7.296 9.987z"/>
    <path fill="#484848" d="M69.977 195.145c-.763 0-1.477-.25-2.121-.744-.785-.553-1.272-1.336-1.469-2.376-.398-2.667-.826-5.116-1.277-7.312H46.884c-.396 1.949-.767 4.063-1.106 6.292-.184.993-.678 1.794-1.473 2.403-.708.504-1.403.742-2.146.742-.213 0-.433-.02-.662-.06-.963-.112-1.789-.612-2.412-1.479-.619-.804-.855-1.758-.67-2.74 3.188-20.664 8.983-30.479 17.683-29.951.12-.013.324-.019.528-.019 8.355 0 13.957 10.136 17.123 30.987.123 1.03-.108 1.901-.724 2.764-.652.84-1.468 1.315-2.443 1.438-.178.035-.394.055-.605.055zm-23.68-11.872h19.398c.34 0 .634.238.705.57.5 2.367.974 5.039 1.407 7.94.123.646.402 1.104.902 1.457.527.402 1.065.535 1.651.427.632-.081 1.113-.365 1.51-.876.388-.545.528-1.063.452-1.71-3.066-20.191-8.502-30.206-16.224-29.725-.271-.011-.453-.017-.634-.017-7.426 0-12.685 9.681-15.63 28.773-.112.6.026 1.143.407 1.638.396.552.871.845 1.465.915.183.031.32.044.453.044.445 0 .843-.143 1.291-.462.49-.375.794-.865.908-1.483.373-2.453.789-4.788 1.234-6.92.07-.331.364-.571.705-.571zm17.91-4.526H47.783c-.228 0-.441-.107-.577-.289-.136-.183-.178-.418-.113-.636 2.302-7.735 5.215-11.641 8.905-11.938.039-.001.077-.005.115 0 3.619.289 6.492 4.194 8.784 11.939.064.218.022.453-.114.635-.135.183-.349.289-.576.289zm-15.449-1.439h14.477c-2.006-6.362-4.419-9.72-7.178-9.983-2.828.27-5.282 3.627-7.299 9.983z"/>
    <g>
      <path fill="#484848" d="M83.526 194.651c-1.024 0-1.957-.4-2.627-1.127-.687-.626-1.089-1.557-1.089-2.579v-22.134h-9.268c-1.028 0-1.963-.401-2.631-1.129-.686-.628-1.088-1.558-1.088-2.575 0-1.021.374-1.911 1.109-2.646.688-.681 1.615-1.054 2.61-1.054h25.972c.995 0 1.88.347 2.632 1.031.735.793 1.084 1.677 1.083 2.67 0 .993-.377 1.916-1.061 2.597-.732.732-1.625 1.104-2.655 1.104h-9.267v22.136c0 .996-.379 1.92-1.066 2.602-.732.732-1.626 1.104-2.654 1.104zm-12.984-31.804c-.614 0-1.18.227-1.595.636-.466.466-.684.983-.684 1.625 0 .619.23 1.157.665 1.558.441.478.984.707 1.614.707h9.988c.397 0 .72.322.72.72v22.854c0 .622.229 1.161.665 1.56.443.478.985.707 1.611.707.65 0 1.171-.218 1.638-.685.415-.412.642-.973.642-1.582V168.09c0-.397.323-.72.72-.72h9.987c.651 0 1.172-.218 1.638-.684.412-.41.638-.971.638-1.579.001-.638-.208-1.161-.657-1.648-.447-.403-.975-.612-1.618-.612H70.542z"/>
    </g>
    <g>
      <path fill="#484848" d="M120.126 194.251h-4.444c-2.136 0-4.059-.376-5.878-1.148-1.76-.754-3.332-1.809-4.81-3.226-1.421-1.469-2.442-2.977-3.133-4.621-.058-.061-.104-.13-.135-.208-.773-1.97-1.149-3.876-1.149-5.829v-14.756c0-1.029.403-1.96 1.136-2.62.619-.68 1.553-1.08 2.581-1.08 1.037 0 1.905.36 2.653 1.104.686.678 1.063 1.601 1.063 2.597v14.756c0 .977.2 1.975.595 2.966.017.041.028.083.037.125.394.837.909 1.58 1.618 2.328.872.811 1.607 1.302 2.426 1.61.962.412 1.903.599 2.992.599h4.445c1.098 0 2.092-.196 2.952-.582.85-.322 1.608-.829 2.498-1.658.798-.846 1.308-1.601 1.621-2.414.401-.896.598-1.885.598-2.974v-14.756c0-1.024.403-1.955 1.136-2.619.623-.682 1.557-1.081 2.581-1.081 1.029 0 1.923.372 2.656 1.105.679.668 1.061 1.588 1.07 2.588v14.763c0 2.104-.378 4.032-1.156 5.895-.024.059-.056.112-.093.161-.743 1.655-1.775 3.156-3.149 4.583-1.448 1.384-2.96 2.412-4.635 3.157-.046.036-.098.066-.155.09-1.865.77-3.802 1.145-5.921 1.145zm-17.137-9.928c.053.057.096.122.125.193.621 1.548 1.568 2.967 2.896 4.341 1.331 1.275 2.764 2.236 4.358 2.92 1.637.695 3.375 1.034 5.313 1.034h4.444c1.855 0 3.553-.314 5.183-.961.039-.028.082-.053.129-.073 1.592-.682 3.026-1.644 4.384-2.94 1.287-1.337 2.253-2.762 2.933-4.337.021-.048.046-.093.075-.134.65-1.624.967-3.311.967-5.147v-14.756c-.006-.608-.235-1.17-.645-1.572-.471-.471-.991-.688-1.643-.688-.627 0-1.169.229-1.568.663-.474.433-.709.984-.709 1.598v14.756c0 1.293-.238 2.479-.708 3.527-.369.961-.971 1.861-1.936 2.882-.729.68-1.69 1.486-2.963 1.968-1.008.453-2.199.69-3.502.69h-4.445c-1.273 0-2.428-.229-3.53-.702-1.24-.468-2.204-1.274-2.901-1.924-.873-.921-1.506-1.848-1.967-2.865-.026-.06-.045-.122-.055-.186-.435-1.127-.654-2.267-.654-3.391v-14.756c0-.608-.227-1.168-.638-1.574-.472-.469-.993-.687-1.64-.687-.62 0-1.176.235-1.567.661-.594.54-.708 1.163-.708 1.6v14.756c0 1.704.318 3.376.972 5.104z"/>
    </g>
    <g>
      <path fill="#484848" d="M140.021 193.72c-1.051 0-2.01-.372-2.773-1.077-.732-.686-1.133-1.608-1.133-2.602v-25.664c0-.925.354-1.757 1.053-2.474.729-.738 1.584-1.144 2.545-1.21 9.483-.747 16.685-.376 21.46 1.115 6.406 1.885 9.546 5.415 9.32 10.491-.06 4.277-2.042 7.366-5.892 9.159-.533.26-1.13.495-1.799.71l7.156 4.851c.862.619 1.389 1.435 1.58 2.435.133 1.004-.117 1.936-.718 2.737-.655.857-1.535 1.352-2.619 1.473-.183.032-.405.052-.623.052-.789 0-1.533-.242-2.21-.721l-15.927-10.851c-.76-.512-1.252-1.134-1.503-1.899-.229-.908-.18-1.696.132-2.392.326-.791.882-1.41 1.644-1.821.685-.422 1.473-.59 2.412-.528 4.03.435 7.049.211 9.072-.634 1.034-.503 1.513-1.325 1.468-2.571-.129-1.576-1.403-2.725-3.896-3.48-3.466-.98-8.476-1.322-14.844-.995v22.218c0 1.026-.43 1.957-1.209 2.621-.678.687-1.6 1.057-2.696 1.057zm8.481-31.965c-2.608 0-5.53.126-8.684.375-.616.042-1.145.298-1.622.782-.437.447-.642.914-.642 1.465v25.664c0 .591.239 1.14.674 1.547.489.451 1.11.692 1.793.692.707 0 1.27-.221 1.72-.674.504-.433.747-.96.747-1.565v-22.9c0-.382.298-.697.679-.719 6.841-.392 12.244-.049 16.009 1.014 3.094.938 4.747 2.545 4.929 4.779.066 1.842-.734 3.202-2.313 3.967-2.314.97-5.584 1.212-9.79.757-.071-.004-.168-.008-.263-.008-.51 0-.912.107-1.305.349-.51.276-.829.633-1.039 1.144-.188.419-.209.878-.072 1.424.135.406.435.773.928 1.106l15.939 10.859c.563.397 1.169.539 1.81.427.741-.084 1.259-.374 1.674-.916.371-.497.522-1.05.445-1.64-.117-.603-.432-1.087-.983-1.483l-8.43-5.714c-.235-.16-.355-.444-.304-.725.051-.281.263-.505.54-.571 1.222-.292 2.216-.63 3.041-1.031 3.364-1.566 5.019-4.149 5.071-7.901.196-4.411-2.519-7.371-8.299-9.071-3.044-.953-7.163-1.433-12.253-1.433z"/>
    </g>
    <g>
      <path fill="#484848" d="M201.987 194.15c-.23 0-.464-.02-.703-.06-.759-.182-1.376-.535-1.938-1.09l-18.603-19.205v16.653c0 .997-.378 1.92-1.064 2.599-.731.73-1.625 1.102-2.651 1.102-1.027 0-1.96-.4-2.628-1.127-.685-.614-1.087-1.545-1.087-2.573v-25.84c0-.769.222-1.457.68-2.104.339-.561.95-1.038 1.695-1.304.564-.263 1.341-.356 2.103-.234.732.184 1.336.512 1.911 1.016l18.583 19.278V164.61c0-1.02.373-1.91 1.109-2.646.694-.684 1.618-1.058 2.606-1.058.989 0 1.874.348 2.63 1.033.738.794 1.09 1.678 1.09 2.67v25.84c0 .769-.213 1.461-.632 2.057-.392.606-.918 1.054-1.641 1.384-.554.185-1.007.26-1.46.26zm-21.964-22.852c.191 0 .379.076.518.219l19.828 20.471c.364.36.751.584 1.203.693.32.05.847.034 1.354-.131.392-.184.714-.455.969-.849.268-.382.386-.772.386-1.252v-25.84c0-.636-.211-1.159-.662-1.647-.452-.406-.98-.616-1.618-.616-.607 0-1.173.228-1.593.641-.465.465-.684.981-.684 1.623v18.436c0 .294-.178.558-.45.668-.273.108-.584.043-.788-.168l-19.777-20.521c-.362-.314-.761-.533-1.21-.648-.086-.011-.236-.023-.386-.023-.321 0-.619.062-.883.183-.493.179-.84.44-1.034.76-.311.443-.443.849-.443 1.315v25.84c0 .625.229 1.161.66 1.552.445.479.987.709 1.615.709.649 0 1.169-.218 1.637-.685.413-.408.64-.967.64-1.576V172.02c0-.293.178-.558.449-.667.087-.039.179-.055.269-.055z"/>
    </g>
  </g>
</svg>
