<svg xmlns="http://www.w3.org/2000/svg" xmlns:xlink="http://www.w3.org/1999/xlink" x="0px" y="0px" width="566.929px" height="105.029px" viewBox="-0.756 0 566.929 105.029">
  <path fill="#030303" d="M406.984 61.545h-7.873V34.92h28.991c5.01 0 8.923 3.551 9.06 8.566v18.061h-7.434V44.996c0-2.462-1.449-4.167-3.89-4.392-1.339-.123-2.696-.022-4.147-.022v20.965h-7.78V40.436h-6.927v21.109z"/>
  <path fill="#030303" d="M526.698 61.545h-7.873V34.92h28.99c5.011 0 8.924 3.551 9.061 8.566v18.061h-7.434V44.996c0-2.462-1.449-4.167-3.89-4.392-1.339-.123-2.696-.022-4.147-.022v20.965h-7.78V40.436h-6.927v21.109z"/>
  <path fill="#030303" d="M311.674 51.389c2.514 3.317 5.128 6.755 7.705 10.156h-8.842l-6.774-9.873h-7.53v9.873h-7.755V34.92h1.124c6.781 0 13.561-.004 20.34 0 5.526.003 9.484 4.982 8.373 10.352-.612 2.966-2.521 4.787-5.332 5.735-.39.132-.788.233-1.309.382zm-15.422-4.496h10.23c.536-.006 1.093-.239 1.599-.453 1.126-.48 1.906-1.248 1.911-2.587.005-1.418-.516-2.547-1.881-3.063-.764-.288-1.611-.466-2.426-.482h-9.434c.001 0 .001 4.426.001 6.585z"/>
  <path fill="#030303" d="M394.705 61.536h-19.769c-1.47-.02-2.988-.286-4.388-.727-3.646-1.144-5.552-4.022-5.338-7.743.219-3.804 2.624-6.726 6.234-7.5.843-.18 1.72-.27 2.581-.276h12.614c.346 0-.345 0 0 0-.045-2.904-2.441-5.255-5.51-5.267h-13.792V34.92h16.135c6.198 0 11.044 4.635 11.233 10.815v15.802zm-7.816-11.235h-9.677c-2.05 0-3.443 1.227-3.475 3.056-.028 1.777 1.313 2.952 3.399 2.956h9.752c.001 0 .001-3.872.001-6.012z"/>
  <path fill="#030303" d="M161.618 61.535v-5.228l17.414-.001c1.608 0 2.589-.8 2.933-2.378.254-1.163-.475-2.355-1.878-2.875-.638-.235-1.348-.37-2.025-.377h-10.74c-4.382-.065-6.941-2.672-7.336-7.306-.307-3.609 2.352-7.729 5.952-8.449h22.906v5.364h-1.104c-5.109 0-10.22-.003-15.329.005-.483.001-.974.04-1.447.127-1.203.227-2.095.964-2.313 2.124-.215 1.138.29 2.2 1.242 2.919.294.222.768.327 1.16.329h11.574c2.869.082 5.565.819 7.023 3.639 2.544 4.924.583 11.997-6.906 12.106h-21.126z"/>
  <path fill="#030303" d="M498.714 34.311c2.974.098 5.863.437 8.568 1.683 3.762 1.733 6.574 4.461 7.373 8.596 1.003 5.21.084 10.078-4.089 13.797-2.368 2.113-5.362 3.042-8.427 3.57-4.761.819-9.32.048-13.639-2.131-4.04-2.036-5.733-5.563-6.191-9.836-.229-2.15-.183-4.303.487-6.391 1.582-4.918 5.252-7.438 10.048-8.517 1.917-.43 3.02-.706 5.87-.771zm8.668 13.919c-.023-.484-.041-.971-.07-1.456-.226-3.635-2.36-6.377-5.688-7.25-1.95-.511-3.93-.453-5.881-.044-2.833.593-4.683 2.329-5.493 5.092-.646 2.199-.644 4.467-.266 6.707.437 2.598 2.011 4.366 4.516 5.059 1.506.418 3.139.574 4.708.537 5.344-.13 8.301-3.322 8.174-8.645z"/>
  <path fill="#030303" d="M284.287 45.599v5.058h-18.473c.049 3.195 2.302 5.467 5.353 5.47 3.963.005 12.982.001 12.982.001v5.393h-14.934c-7.426-.342-11.949-5.58-11.701-12.458.081-2.265.231-4.5 1.075-6.638 1.825-4.625 6.025-7.504 10.974-7.504h14.728v5.386s-10.081-.031-12.514-.021c-2.966.015-5.434 2.226-5.827 5.312 6.103.001 12.193.001 18.337.001z"/>
  <path fill="#030303" d="M214.043 56.101v-21.18h7.591v26.617l-19.981.008c-2.468.009-4.455-.946-6.003-2.82-1.47-1.779-2.372-3.705-2.306-6.161.144-5.315.043-17.644.043-17.644h7.615l-.033 17.015c-.054 2.499 1.333 3.959 3.642 4.165h9.432z"/>
  <path fill="#030303" d="M233.594 52.546v8.992h-7.405V34.921h20.209c3.576-.096 7.168 2.57 8.231 6.527 1.553 5.779-2.48 11.071-8.5 11.095-3.825.017-7.65.003-11.476.003h-1.059zm.25-5.181h10.246c.413-.006.867-.267 1.227-.509 1.121-.754 1.897-2.818 1.538-3.948-.563-1.766-1.691-2.615-3.549-2.623h-9.462v7.08z"/>
  <path fill="#030303" d="M363.13 34.922v5.104h-12.994c-2.205.063-4.091 1.105-5.383 2.921-.44.622-.711 1.406-.771 2.472h18.82v5.635h-18.89v10.494h-7.673V45.811c0-5.691 4.316-10.702 10.02-10.887l16.871-.002z"/>
  <path fill="#030303" d="M479.954 56.323v5.223h-14.041c-5.818 0-10.246-3.422-11.662-9.085-1.104-4.418-.596-8.885 1.907-12.735 2.08-3.202 5.129-4.796 8.964-4.804h14.983v5.266h-12.722c-2.495.001-4.103 1.156-4.93 3.511-.965 2.748-1.132 5.813-.229 8.624.836 2.604 2.829 4.001 5.556 4.001h12.174z"/>
  <path fill="#030303" d="M311.416 85.799v-4.805h18.507v-7.945h-18.172v-4.6h22.17v17.35h-22.505z"/>
  <path fill="#030303" d="M160.61 72.933v-4.691h18.494c.474 3.372.248 6.633-.883 9.8-.104.292-.285.81-.285.81s3.433 4.828 4.983 6.981h-5.174s-1.765-2.383-2.454-3.364c-.355.282-.674.534-.992.787-2.156 1.723-4.539 2.736-7.373 2.621h-6.939v-4.75s3.243.016 4.861-.003c2.052-.024 4.079-.176 6.028-.942 3.013-1.186 4.801-3.885 4.64-7.249H160.61z"/>
  <rect x="441.893" y="34.922" fill="#030303" width="8.212" height="26.642"/>
  <path fill="#030303" d="M245.159 85.809v-4.783h9.558c3.893.199 6.946-2.267 6.845-7.07-.006-.307-.045-.612-.074-.996h-17.485v-4.53h21.148v8.554c-.019.813-.275 1.655-.563 2.427-1.435 3.831-4.344 6.064-8.295 6.4l-11.134-.002z"/>
  <path fill="#030303" d="M266.934 76.535v-4.124h18.616v6.065c0 2.423-1.705 3.47-8.597 3.47 0 0-.062 1.086-.279 1.389-.726 1.804-2.137 2.548-4.192 2.548h-4.531V81.64h4.444c1.481 0 1.862-.325 2.104-1.813.072-.444.127-.893.203-1.424 1.911 0 3.815.008 5.721-.002 1.29-.006 1.678-.413 1.731-1.864-5.056-.002-10.11-.002-15.22-.002z"/>
  <path fill="#030303" d="M358.385 68.598v9.777c-.791 5.453-5.714 7.533-9.329 7.424h-12.764v-4.805h13.128c2.703.137 5.449-2.39 5.408-5.548-.025-1.981-.004-3.963-.004-5.945v-.903h3.561z"/>
  <path fill="#030303" d="M210.283 68.23h4.049v5.717c0 .382.021.767-.004 1.147-.293 4.505 2.862 5.83 5.8 5.829h1.19v4.787c-6.511.378-10.761-2.522-11.02-8.917-.102-2.497-.017-5.004-.017-7.505.002-.339.002-.678.002-1.058z"/>
  <polygon fill="#030303" points="309.317,80.329 287.475,77.571 287.475,73.336 309.317,75.947 	"/>
  <polygon fill="#030303" points="309.317,74.573 287.475,71.816 287.475,67.579 309.317,70.192 	"/>
  <path fill="#030303" d="M309.336 81.823v4.364c-7.307-.921-14.559-1.836-21.875-2.759V79.13c7.266.798 14.545 1.886 21.875 2.693z"/>
  <path fill="#030303" d="M197.528 85.676v-4.764c.958-.071 1.893-.076 2.805-.22 2.667-.421 4.219-2.268 4.229-4.963.009-2.392.002-4.786.002-7.261h4.067c0 1.959.03 3.927 0 5.896-.02 1.315.045 2.662-.211 3.938-.907 4.514-3.657 6.827-8.388 7.229-.815.071-1.637.096-2.504.145z"/>
  <path fill="#030303" d="M197.855 74.8v4.446h-16.729V74.8h16.729z"/>
  <path fill="#030303" d="M221.522 74.638h16.745v4.367h-16.745v-4.367z"/>
  <path fill="#030303" d="M349.526 68.449v4.6h-13.218v-4.6h13.218z"/>
  <path fill="#030303" d="M221.708 71.246c-.002 1.802-1.457 3.249-3.244 3.229-1.735-.021-3.17-1.448-3.2-3.186-.031-1.782 1.417-3.255 3.207-3.262 1.806-.007 3.239 1.419 3.237 3.219zm-1.961-.041c-.023-.734-.676-1.37-1.362-1.366-.726.006-1.404.727-1.318 1.456.093.81.61 1.283 1.397 1.252.801-.031 1.208-.59 1.283-1.342z"/>
  <path d="M361.832 71.479v-4.23h1.876c.378 0 .664.038.86.114.194.076.353.21.47.401.117.192.177.405.177.639 0 .3-.097.553-.292.759-.192.205-.493.336-.899.393.148.07.261.142.339.21.161.149.317.337.464.563l.736 1.151h-.706l-.56-.88c-.163-.254-.299-.448-.404-.582-.105-.137-.2-.23-.284-.284-.082-.053-.168-.09-.254-.111-.063-.014-.168-.021-.313-.021h-.648v1.878h-.562zm.559-2.364h1.204c.256 0 .457-.026.601-.079.145-.053.256-.137.329-.254.073-.116.111-.242.111-.379 0-.2-.07-.365-.216-.494-.146-.128-.376-.193-.688-.193h-1.341v1.399z"/>
  <path d="M363.485 73.351c-2.169 0-3.933-1.767-3.933-3.935s1.765-3.933 3.933-3.933c2.166 0 3.932 1.765 3.932 3.933s-1.764 3.935-3.932 3.935zm0-7.16c-1.778 0-3.226 1.446-3.226 3.226s1.447 3.227 3.226 3.227c1.777 0 3.225-1.447 3.225-3.227s-1.448-3.226-3.225-3.226z"/>
  <path d="M560.587 36.984v-4.231h1.876c.378 0 .665.038.861.114.192.076.353.21.47.401.116.193.175.405.175.639 0 .3-.095.552-.29.758-.192.206-.495.336-.9.392.148.071.262.143.34.21.161.15.317.338.463.563l.736 1.151h-.705l-.561-.879c-.162-.255-.298-.448-.403-.583-.105-.136-.201-.23-.284-.284-.082-.054-.168-.09-.254-.112-.064-.014-.169-.021-.313-.021h-.648v1.878h-.562v.004zm.56-2.364h1.204c.255 0 .455-.026.602-.079.143-.053.253-.137.329-.254.072-.116.109-.243.109-.379 0-.201-.07-.365-.217-.494-.146-.128-.376-.194-.688-.194h-1.34v1.4h.001z"/>
  <path d="M562.24 38.855c-2.168 0-3.933-1.766-3.933-3.934s1.767-3.934 3.933-3.934c2.168 0 3.933 1.766 3.933 3.934s-1.765 3.934-3.933 3.934zm0-7.159c-1.778 0-3.226 1.446-3.226 3.226s1.447 3.227 3.226 3.227 3.226-1.447 3.226-3.227-1.448-3.226-3.226-3.226z"/>
  <g>
    <path fill="#01954B" d="M62.849 63.997C62.85 72.779 48.614 79.9 31.047 79.9 13.484 79.901-.756 72.782-.757 64v-.002c-.001-8.782 14.236-15.902 31.8-15.902 17.563 0 31.804 7.119 31.805 15.899l.001.002z"/>
    <path fill="#F9EC2B" d="M117.618 89.127c.003 8.779-14.233 15.902-31.798 15.902-17.563 0-31.803-7.119-31.806-15.9v-.002c-.002-8.783 14.235-15.902 31.8-15.902s31.802 7.115 31.804 15.898v.004z"/>
    <path fill="#323B98" d="M64.017 0C47.987 0 34.96 12.812 34.58 28.766c.666-.047 1.329-.075 2.006-.075 16.269 0 29.457 13.202 29.457 29.485 0 .242-.012.479-.018.72 15.335-1.029 27.448-13.801 27.448-29.411C93.473 13.202 80.286 0 64.017 0z"/>
    <path fill="#EB2D2F" d="M119.779 25.827c-16.264 0-29.447 13.192-29.447 29.464 0 .363.005.73.019 1.087.392-.014.78-.035 1.177-.035 15.897 0 28.853 12.611 29.429 28.378 15.72-.615 28.268-13.547 28.268-29.427.002-16.275-13.182-29.467-29.446-29.467z"/>
  </g>
</svg>
