<svg xmlns:dc="http://purl.org/dc/elements/1.1/" xmlns:cc="http://creativecommons.org/ns#" xmlns:rdf="http://www.w3.org/1999/02/22-rdf-syntax-ns#" xmlns:svg="http://www.w3.org/2000/svg" xmlns="http://www.w3.org/2000/svg" xmlns:sodipodi="http://sodipodi.sourceforge.net/DTD/sodipodi-0.dtd" xmlns:inkscape="http://www.inkscape.org/namespaces/inkscape" width="1924.6993" height="277.25568" inkscape:version="0.48.5 r10040" sodipodi:docname="sg-1000.svg">
  <defs/>
  <sodipodi:namedview inkscape:document-units="mm" pagecolor="#ffffff" bordercolor="#666666" borderopacity="1.0" inkscape:pageopacity="0.0" inkscape:pageshadow="2" inkscape:zoom="0.3813819" inkscape:cx="916.22887" inkscape:cy="-31.76101" inkscape:current-layer="layer1" showgrid="false" inkscape:window-width="1366" inkscape:window-height="706" inkscape:window-x="-8" inkscape:window-y="-8" inkscape:window-maximized="1" units="mm" fit-margin-top="0" fit-margin-left="0" fit-margin-right="0" fit-margin-bottom="0"/>
  <g inkscape:label="Layer 1" inkscape:groupmode="layer">
    <path inkscape:connector-curvature="0" style="text-align:center;line-height:125%;-inkscape-font-specification:Zeroes One" d="M257.6906445 221.59174c-.00029 16.49013-5.00379 29.80603-15.01052 39.94953-10.00728 10.1436-23.52809 15.2144-40.56247 15.2144H4.9691127v-55.16393h197.1485418v-55.1771H55.2683035c-16.225879 0-29.410368-5.1377-39.553511-15.41312C5.5715661 140.72713.4999746 127.47618.5 111.25073v-55.5858C.4999746 47.8245 1.9876134 40.52461 4.9629233 33.76528c2.9752492-6.75934 6.9636082-12.57349 11.9650912-17.44346 5.001398-4.86896 10.815778-8.72376 17.443158-11.56237C40.9984335 1.91981 47.9641355.50101 55.2683035.5h183.765961v55.16493H55.2683035v55.5858h146.849351c7.84032 0 15.14233 1.4188 21.90608 4.25843 6.76326 2.83862 12.64573 6.69139 17.64743 11.55629 5.00118 4.86591 8.92144 10.68006 11.76082 17.44346 2.83883 6.76339 4.25837 14.0653 4.25866 21.90573z" font-size="40px" letter-spacing="0px" word-spacing="0px" text-anchor="middle" fill="#ff0000" stroke="#000000" font-family="Zeroes One"/>
    <path inkscape:connector-curvature="0" style="text-align:center;line-height:125%;-inkscape-font-specification:Zeroes One" d="M578.1792845 276.75567h-221.07873c-36.7846 0-55.17686-18.3876-55.17683-55.16393V55.66493c-.00003-7.84043 1.48761-15.14032 4.46292-21.89965 2.97526-6.75934 6.96568-12.57349 11.97128-17.44346 5.00552-4.86896 10.8199-8.72376 17.44316-11.56237 6.62314-2.83964 13.72295-4.25844 21.29947-4.25945h211.75672v55.16493h-211.75672v165.92681h165.50575v-55.1771h-109.93276v-55.16391h165.50574z" font-size="40px" letter-spacing="0px" word-spacing="0px" text-anchor="middle" fill="#ff0000" stroke="#000000" font-family="Zeroes One"/>
    <path inkscape:connector-curvature="0" style="text-align:center;line-height:125%;-inkscape-font-specification:Zeroes One" d="M785.7392445 166.41464h-165.51811v-55.16391h165.51811z" font-size="40px" letter-spacing="0px" word-spacing="0px" text-anchor="middle" fill="#ff0000" stroke="#000000" font-family="Zeroes One"/>
    <path inkscape:connector-curvature="0" style="text-align:center;line-height:125%;-inkscape-font-specification:Zeroes One" d="M977.8863845 276.75567h-165.51815v-55.16393h55.57298V55.66493h-55.57298V.5h110.74982v221.09174h54.76833z" font-size="40px" letter-spacing="0px" word-spacing="0px" text-anchor="middle" fill="#ff0000" stroke="#000000" font-family="Zeroes One"/>
    <path style="text-align:center;line-height:125%;-inkscape-font-specification:Zeroes One" d="M1069.6562.5c-7.2959.00101-14.2476 1.41036-20.875 4.25-6.6272 2.83861-12.436 6.69354-17.4374 11.5625-5.0015 4.86997-8.9935 10.67816-11.9688 17.4375-2.9752 6.75933-4.4688 14.06582-4.4688 21.90625v165.9375c0 36.77633 18.2462 55.15625 54.75 55.15625h165.5313c36.776 0 55.156-18.37992 55.1563-55.15625V55.65625c-.0004-7.56762-1.4112-14.70941-4.25-21.46875-2.8394-6.75934-6.7489-12.65038-11.75-17.65625-5.0018-5.00485-10.893-8.94264-17.6563-11.78125-6.7637-2.83964-13.9321-4.249-21.5-4.25h-165.5313zm0 55.15625h165.5313v165.9375h-165.5313V55.65625z" font-size="40px" letter-spacing="0px" word-spacing="0px" text-anchor="middle" fill="#ff0000" stroke="#000000" font-family="Zeroes One"/>
    <path style="text-align:center;line-height:125%;-inkscape-font-specification:Zeroes One" d="M1386.5938.5c-7.296.00101-14.2477 1.41036-20.875 4.25-6.6273 2.83861-12.4361 6.69354-17.4376 11.5625-5.0013 4.86997-8.9934 10.67816-11.9687 17.4375-2.9753 6.75933-4.4687 14.06582-4.4687 21.90625v165.9375c0 36.77633 18.246 55.15625 54.75 55.15625h165.5312c36.7761 0 55.156-18.37992 55.1562-55.15625V55.65625c-.0002-7.56762-1.4112-14.70941-4.25-21.46875-2.8393-6.75934-6.78-12.65038-11.7812-17.65625-5.0017-5.00485-10.8929-8.94264-17.6562-11.78125-6.7637-2.83964-13.9009-4.249-21.4688-4.25h-165.5312zm0 55.15625h165.5312v165.9375h-165.5312V55.65625z" font-size="40px" letter-spacing="0px" word-spacing="0px" text-anchor="middle" fill="#ff0000" stroke="#000000" font-family="Zeroes One"/>
    <path style="text-align:center;line-height:125%;-inkscape-font-specification:Zeroes One" d="M1703.5312.5c-7.2959.00101-14.2789 1.41036-20.9062 4.25-6.6273 2.83861-12.4361 6.69354-17.4375 11.5625-5.0014 4.86997-8.9934 10.67816-11.9687 17.4375-2.9753 6.75933-4.4688 14.06582-4.4688 21.90625v165.9375c0 36.77633 18.2774 55.15625 54.7812 55.15625h165.5c36.776 0 55.156-18.37992 55.1563-55.15625V55.65625c-.0003-7.56762-1.4111-14.70941-4.25-21.46875-2.8393-6.75934-6.7488-12.65038-11.75-17.65625-5.0017-5.00485-10.8929-8.94264-17.6563-11.78125-6.7636-2.83964-13.932-4.249-21.5-4.25h-165.5zm0 55.15625h165.5v165.9375h-165.5V55.65625z" font-size="40px" letter-spacing="0px" word-spacing="0px" text-anchor="middle" fill="#ff0000" stroke="#000000" font-family="Zeroes One"/>
  </g>
</svg>
