<?xml version="1.0" encoding="UTF-8"?>
<!-- Generator: Adobe Illustrator 19.0.0, SVG Export Plug-In . SVG Version: 6.00 Build 0)  -->
<svg width="542" height="184.5" version="1.1" viewBox="-51 295.6 542 184.5" xml:space="preserve" xmlns="http://www.w3.org/2000/svg" xmlns:cc="http://creativecommons.org/ns#" xmlns:dc="http://purl.org/dc/elements/1.1/" xmlns:rdf="http://www.w3.org/1999/02/22-rdf-syntax-ns#"><metadata><rdf:RDF><cc:Work rdf:about=""><dc:format>image/svg+xml</dc:format><dc:type rdf:resource="http://purl.org/dc/dcmitype/StillImage"/></cc:Work></rdf:RDF></metadata>
<g transform="translate(-51)"><g fill="#17569b">
	<path d="m114.1 394.7h39.8c16.3 0 29.5-13.2 29.5-29.5s-13.2-29.4-29.5-29.4h-10.4c-0.8 0-1.5-0.7-1.5-1.5 0-0.9 0.7-1.6 1.5-1.6h39.7l0.1-12.4h-39.8c-7.7 0-13.9 6.2-13.9 13.9 0 7.8 6.2 14.1 13.9 14.1h10.4c9.3 0 16.9 7.6 16.9 16.9s-7.6 16.8-16.9 16.8h-39.8z"/>
	<path d="m114.1 379.1h39.8c7.8 0 14-6.3 14-14s-6.2-14-14-14h-10.4c-9.3 0-16.8-7.7-16.8-17s7.5-16.8 16.8-16.8h39.8l-0.1-12.6h-39.7c-16.3 0-29.4 13.2-29.4 29.5s13.2 29.4 29.4 29.4h10.3c0.8 0 1.5 0.7 1.5 1.5s-0.7 1.5-1.5 1.5h-39.7z"/>
	<path d="m214.2 382.1c-6.9 0-12.5-5.5-12.5-12.5v-40c0-6.7 5.6-12.3 12.5-12.3h42.5v-12.5h-42.5c-13.8 0-25 11.2-25 25v39.8c0 13.8 11.2 25 25 25h42.3v-12.5z"/>
	<path d="m204.8 329.8c0-5.2 4.2-9.6 9.5-9.6h42.5v12.5h-36.6c-2.9 0-2.9 2.9-2.9 2.9h30.6v12.5h-43z"/>
	<path d="m214.2 379.1c-5.2 0-9.5-4.3-9.5-9.5v-18.4h43v12.5h-30.6c0 2.9 2.9 2.9 2.9 2.9h36.4v12.4z"/>
	<path d="m286.6 382.1c-6.9 0-12.6-5.6-12.6-12.5v-39.8c0-6.9 5.6-12.5 12.5-12.5h41.2v-12.5h-41.3c-13.8 0-25 11.2-25 25v39.8c0 13.8 11.3 25 25.1 25h41.2v-58.9h-35.4v12.5h22.9v33.9z"/>
	<path d="m276.9 369.6c0 5.2 4.3 9.6 9.6 9.6h25.7v-28h-19.9v12.6h7.4v2.9h-7.4c-1.6 0-2.9-1.4-2.9-2.9v-28s0-2.9 2.9-2.9h35.3v-12.5h-41.2c-5.2 0-9.6 4.3-9.6 9.6z"/>
	<path d="m366.3 320.1c0.6-1.6 2-2.8 3.8-2.8s3.3 1.1 3.8 2.8l19.9 59.2h-29.2v-13.9h9.8l-4.4-13.2-14.4 42.4h-14.7z"/>
	<path d="m398 382.1h-33.3v12.5h50.6l-26.3-78c-2.3-7.6-9.9-13.2-18.9-13.2s-16.6 5.6-18.9 13.2l-26.6 78h13.4l25.7-75.9c1.1-2.5 3.5-4.3 6.5-4.3 2.9 0 5.3 1.7 6.4 4.3z"/>
	<path d="m408 315.1c2.6 0 5.1-1 6.9-2.9 1.9-1.9 2.9-4.3 2.9-6.9s-1-5.1-2.9-6.9c-1.8-1.9-4.3-2.9-6.9-2.9-5.4 0-9.8 4.3-9.8 9.7 0 2.6 1.1 5.1 2.9 6.9 1.8 2.1 4.3 3 6.9 3zm-8.4-9.8c0-2.2 0.9-4.3 2.5-6 1.5-1.6 3.7-2.5 6-2.5 2.2 0 4.3 0.9 6 2.5 1.6 1.6 2.5 3.8 2.5 6 0 4.7-3.8 8.4-8.4 8.4-2.3 0-4.4-0.8-6-2.5-1.7-1.4-2.6-3.6-2.6-5.9z"/>
	<path d="m405.5 306.2v4.7h-1.4v-10.9h4c1.5 0 2.4 0 3.3 0.7 0.7 0.6 1.1 1.5 1.1 2.5 0 2.5-2 2.9-2.6 2.9l3 4.7h-1.7l-2.9-4.7zm0-1.2h2.9c0.5 0 0.9 0 1.3-0.2 1.1-0.2 1.4-1 1.4-1.7 0-0.2-0.1-1.1-0.7-1.6s-1.3-0.4-2.1-0.4h-2.8z"/>
	</g><g fill="#f00">
		<path d="m0.9 440.3v-10.9c0-9.7 4.8-14.5 14.5-14.5h65.3v14.5h-65.3v10.9h50.8c9.7 0 14.5 4.8 14.5 14.5v10.9c0 9.7-4.8 14.5-14.5 14.5h-65.3v-14.5h65.3v-10.9h-50.8c-9.6 0-14.5-4.9-14.5-14.5z"/>
		<path d="m87.9 465.6v-36.3c0-9.7 4.8-14.5 14.5-14.5h65.3v14.5h-65.3v36.3h50.8v-10.9h-29v-14.5h43.5v39.9h-65.3c-9.6 0-14.5-4.8-14.5-14.5z"/>
		<path d="m174.9 454.8v-14.5h25.4v14.5z"/>
		<path d="m207.6 480.1v-14.5h21.8v-36.3h-21.8v-14.5h39.9v50.8h21.8v14.5z"/>
		<path d="m359.8 465.6c0 9.7-4.8 14.5-14.5 14.5h-54.4c-9.7 0-14.5-4.8-14.5-14.5v-36.3c0-9.7 4.8-14.5 14.5-14.5h54.4c9.7 0 14.5 4.8 14.5 14.5zm-14.5 0v-36.3h-54.4v36.3z"/>
		<path d="m450.4 465.6c0 9.7-4.8 14.5-14.5 14.5h-54.4c-9.7 0-14.5-4.8-14.5-14.5v-36.3c0-9.7 4.8-14.5 14.5-14.5h54.4c9.7 0 14.5 4.8 14.5 14.5zm-14.5 0v-36.3h-54.4v36.3z"/>
		<path d="m541.1 465.6c0 9.7-4.8 14.5-14.5 14.5h-54.4c-9.7 0-14.5-4.8-14.5-14.5v-36.3c0-9.7 4.8-14.5 14.5-14.5h54.4c9.7 0 14.5 4.8 14.5 14.5zm-14.5 0v-36.3h-54.4v36.3z"/>
	</g>
</g>
</svg>
