<?xml version="1.0" encoding="UTF-8"?>
<svg width="576.39" height="79.261" version="1.1" xmlns="http://www.w3.org/2000/svg">
 <g font-family="Videopac" font-size="40px" letter-spacing="0px" stroke="#000" word-spacing="0px">
  <path d="m53.606 57.91-11.18 20.851-41.926-78.261h22.36z"/>
  <path d="m45.221 31.804 16.77-31.304h22.36l-27.95 52.155z"/>
  <path d="m90.053 0.5h19.621l-0.0558 78.261h-19.565z"/>
  <path d="m118 0.5h19.621l-0.0558 78.261h-19.565z"/>
  <path d="m143.16 20.065v-19.565h8.3851c10.807 9e-5 20.031 3.82 27.671 11.46 7.6397 7.6398 11.46 16.863 11.46 27.671-8e-5 10.808-3.82 20.031-11.46 27.671-7.6398 7.6398-16.863 11.46-27.671 11.46h-8.3851v-19.565h8.3851c5.4037 3e-5 10.016-1.9099 13.835-5.7298 3.8198-3.8199 5.7298-8.4316 5.7298-13.835-6e-5 -5.4037-1.91-10.015-5.7298-13.835-3.8199-3.8198-8.4317-5.7298-13.835-5.7298z"/>
  <path d="m199.17 0.5h19.621l-0.0558 78.261h-19.565z"/>
  <path d="m224.33 0.5h30.745v19.565h-30.745z"/>
  <path d="m224.33 59.196h30.745v19.565h-30.745z"/>
  <path d="m224.33 29.848h30.745v19.565h-30.745z"/>
  <path d="m322.1 42.426h19.677c-0.59635 9.6149-4.3976 17.907-11.404 24.876-7.6398 7.6398-16.863 11.46-27.671 11.46-10.808 0-20.031-3.8199-27.671-11.46-6.969-6.9689-10.752-15.261-11.348-24.876h19.677c0.559 4.2112 2.4037 7.882 5.5342 11.012 3.8012 3.8385 8.4037 5.7578 13.807 5.7578 5.4037 3e-5 10.025-1.9192 13.863-5.7578 3.1304-3.1304 4.9751-6.8012 5.5342-11.012z"/>
  <path d="m283.36 36.835h-19.677c0.5963-9.6149 4.3789-17.907 11.348-24.876 7.6397-7.6397 16.863-11.46 27.671-11.46 10.807 9e-5 20.031 3.82 27.671 11.46 7.0062 6.969 10.807 15.261 11.404 24.876h-19.677c-0.55905-4.2111-2.4038-7.9006-5.5342-11.068-3.8386-3.8012-8.4597-5.7018-13.863-5.7018-5.4038 6e-5 -10.006 1.9007-13.807 5.7018-3.1305 3.1678-4.9752 6.8572-5.5342 11.068z"/>
  <path d="m350.33 0.5h19.565v78.261h-19.565z"/>
  <path d="m375.48 20.065v-19.565h10.509c6.7453 9e-5 12.503 2.3852 17.273 7.1553 4.7702 4.7703 7.1552 10.528 7.1553 17.273-6e-5 6.7827-2.3852 12.559-7.1553 17.329-4.7702 4.7702-10.528 7.1553-17.273 7.1553h-10.509v-19.565h10.509c1.3416 6e-5 2.4875-0.47508 3.4379-1.4254 0.95028-0.95028 1.4254-2.1149 1.4255-3.4938-5e-5 -1.3416-0.47519-2.4875-1.4255-3.4379-0.95037-0.95025-2.0963-1.4254-3.4379-1.4254z"/>
  <path d="m453.74 47.457-16.77 31.304h-22.36l27.95-52.155z"/>
  <path d="m461.9 52.208-16.547-30.857 11.18-20.851 41.926 78.261h-22.36l-3.7453-6.9876h-26.05l10.453-19.565z"/>
  <path d="m540.5 59.028v19.621c-9.6149-0.5963-17.907-4.3789-24.876-11.348-7.6398-7.6397-11.46-16.863-11.46-27.671 0-10.807 3.8199-20.031 11.46-27.671 6.9689-6.9689 15.261-10.751 24.876-11.348v19.621c-4.2112 0.55906-7.882 2.4038-11.012 5.5342-3.8386 3.8386-5.7578 8.4597-5.7578 13.863-3e-5 5.4038 1.9192 10.006 5.7578 13.807 3.1304 3.1677 6.8012 5.0311 11.012 5.5901z"/>
  <path d="m559.62 28.73c-0.70812-1.0434-1.528-2.031-2.4596-2.9628-3.1677-3.1304-6.8572-4.9751-11.068-5.5342v-19.621c9.6148 0.59635 17.907 4.379 24.876 11.348 1.8633 1.8634 3.5031 3.8386 4.9193 5.9255z"/>
  <path d="m575.89 61.376c-1.4162 2.087-3.056 4.0621-4.9193 5.9255-6.969 6.969-15.261 10.752-24.876 11.348v-19.621c4.2112-0.559 7.9006-2.4224 11.068-5.5901 0.93165-0.93165 1.7515-1.9006 2.4596-2.9068z"/>
 </g>
</svg>
