<svg xmlns="http://www.w3.org/2000/svg" xmlns:xlink="http://www.w3.org/1999/xlink" x="0px" y="0px" width="566.929px" height="147.072px">
  <path fill="#93C83E" d="M403.119 91.974c-3.527-5.67-5.602-12.546-5.602-19.962 0-7.417 2.074-14.294 5.602-19.962h51.986c3.529 5.668 5.604 12.545 5.604 19.962s-2.074 14.292-5.604 19.962h-51.986zm57.541-50.595v-.019H397.566v.018c-6.441 8.19-10.352 18.9-10.352 30.634 0 11.731 3.91 22.444 10.352 30.632v.018H460.66v-.018c6.441-8.189 10.35-18.9 10.35-30.632-.001-11.734-3.909-22.444-10.35-30.633"/>
  <path fill="#93C83E" d="M307.553 91.974c-2.665-4.281-4.497-9.248-5.239-14.617h62.459c-.738 5.369-2.57 10.336-5.237 14.617h-51.983zm0-39.925h51.983c2.666 4.281 4.499 9.249 5.238 14.616h-62.459c.741-5.367 2.573-10.334 5.238-14.616m63.214 17.481l4.455-2.27c-.904-9.863-4.57-18.813-10.129-25.881v-.019H301.997v.018c-5.448 6.926-9.076 15.663-10.068 25.286h-9.916v10.691h9.916c.992 9.626 4.619 18.36 10.068 25.288v.018H365.093v-.02c5.559-7.068 9.225-16.02 10.129-25.88l-4.455-2.271v-4.96z"/>
  <path fill="#93C83E" d="M566.929 41.362h-16.033l-29.588 24.116-29.586-24.116h-16.035l37.604 30.65-37.604 30.649h16.035l29.586-24.115 29.588 24.115h16.033l-37.605-30.649 37.605-30.65z"/>
  <path fill="#93C83E" d="M286.207 41.362h-16.033l-29.586 24.116L211 41.362h-16.034l37.603 30.65-37.603 30.649H211l29.587-24.115 29.586 24.115h16.033l-37.603-30.649 37.604-30.65z"/>
  <linearGradient id="a" gradientUnits="userSpaceOnUse" x1="-72.1655" y1="11.666" x2="-71.9121" y2="11.666" gradientTransform="scale(280.446 -280.446) rotate(51 -23.52265318 81.4989654)">
    <stop offset="0" stop-color="#D3DC19"/>
    <stop offset="0.5" stop-color="#8DB635"/>
    <stop offset="1" stop-color="#66BB46"/>
  </linearGradient>
  <path fill="url(#a)" d="M70.465 56.721v39.61c7.81-6.43 15.635-13.219 23.103-20.229V41.9S51.606 28.091 25.111 11.624c10.913 12.263 28.957 31.638 45.354 45.097"/>
  <linearGradient id="b" gradientUnits="userSpaceOnUse" x1="-70.2363" y1="11.6709" x2="-69.9819" y2="11.6709" gradientTransform="scale(386.5615 -386.5615) rotate(-56 -46.02025135 -60.27730727)">
    <stop offset="0" stop-color="#A0A2A4"/>
    <stop offset="1" stop-color="#FAFAFA"/>
  </linearGradient>
  <path fill="url(#b)" d="M25.111 11.624C51.605 28.092 93.568 41.9 93.568 41.9v-4.56S38.992 19.379 15.026 0c-.001 0 3.894 4.668 10.085 11.624"/>
  <linearGradient id="c" gradientUnits="userSpaceOnUse" x1="-71.2783" y1="11.9321" x2="-71.2783" y2="12.021" gradientTransform="scale(416.753 -416.753) rotate(34 -15.6197125 122.60476743)">
    <stop offset="0" stop-color="#AED037"/>
    <stop offset="0.4213" stop-color="#8DB635"/>
    <stop offset="1" stop-color="#3E7223"/>
  </linearGradient>
  <path fill="url(#c)" d="M16.797 136.14c13.526-9.11 33.549-23.244 53.67-39.809V64.129s-27.402 41.054-53.67 72.011"/>
  <linearGradient id="d" gradientUnits="userSpaceOnUse" x1="-71.3936" y1="12.1602" x2="-71.1397" y2="12.1602" gradientTransform="scale(559.486 -559.486) rotate(60 -24.92277772 67.78595103)">
    <stop offset="0" stop-color="#9B9DA0"/>
    <stop offset="1" stop-color="#CFD1D3"/>
  </linearGradient>
  <path fill="url(#d)" d="M.012 147.073s6.526-4.021 16.786-10.934c26.268-30.957 53.67-72.009 53.67-72.009v-7.409c-.001 0-40.715 60.996-70.456 90.352"/>
  <linearGradient id="e" gradientUnits="userSpaceOnUse" x1="-71.3979" y1="13.9648" x2="-71.1452" y2="13.9648" gradientTransform="matrix(-193.057 -186.4329 -186.4329 193.057 -11032.1406 -15943.292)">
    <stop offset="0.3034" stop-color="#C9DA2C"/>
    <stop offset="0.608" stop-color="#8DB635"/>
    <stop offset="1" stop-color="#347428"/>
  </linearGradient>
  <path fill="url(#e)" d="M93.52 41.9v34.201c7.465 7.011 15.289 13.8 23.1 20.229V56.72c16.397-13.459 34.44-32.834 45.354-45.097C135.481 28.092 93.52 41.9 93.52 41.9"/>
  <linearGradient id="f" gradientUnits="userSpaceOnUse" x1="-72.9404" y1="13.1611" x2="-72.687" y2="13.1611" gradientTransform="matrix(30.7887 -250.7544 -250.7544 -30.7887 5675.1831 -17838.5156)">
    <stop offset="0" stop-color="#CED0D1"/>
    <stop offset="1" stop-color="#A0A2A5"/>
  </linearGradient>
  <path fill="url(#f)" d="M93.52 37.34v4.56s41.961-13.809 68.454-30.276C168.165 4.668 172.061 0 172.061 0 148.095 19.379 93.52 37.34 93.52 37.34"/>
  <linearGradient id="g" gradientUnits="userSpaceOnUse" x1="-71.3911" y1="13.042" x2="-71.1375" y2="13.042" gradientTransform="scale(-500.2594 500.2594) rotate(-80 -43.44513968 -35.67701747)">
    <stop offset="0" stop-color="#9B9D9F"/>
    <stop offset="1" stop-color="#FAFAFA"/>
  </linearGradient>
  <path fill="url(#g)" d="M116.622 64.129s27.404 41.054 53.671 72.009c10.256 6.912 16.787 10.934 16.787 10.934-29.743-29.354-70.457-90.352-70.457-90.352l-.001 7.409z"/>
  <linearGradient id="h" gradientUnits="userSpaceOnUse" x1="-72.5332" y1="13.1992" x2="-72.2828" y2="13.1992" gradientTransform="matrix(89.6957 -192.3532 -192.3532 -89.6957 9179.418 -12648.8506)">
    <stop offset="0" stop-color="#C7D926"/>
    <stop offset="0.4157" stop-color="#8DB635"/>
    <stop offset="1" stop-color="#3A7D2C"/>
  </linearGradient>
  <path fill="url(#h)" d="M116.622 96.331c20.124 16.564 40.142 30.698 53.671 39.809-26.267-30.957-53.671-72.009-53.671-72.009v32.2z"/>
</svg>
