<svg xmlns="http://www.w3.org/2000/svg" xmlns:xlink="http://www.w3.org/1999/xlink" x="0px" y="0px" width="566.929px" height="147.072px">
  <path fill="#93C83E" d="M397.202 103.411l-.226-.286c-6.778-8.616-10.512-19.666-10.512-31.113 0-11.446 3.733-22.496 10.512-31.115l.226-.286h63.822l.226.286c6.777 8.616 10.51 19.666 10.51 31.115 0 11.446-3.732 22.496-10.51 31.113l-.226.286h-63.822zm57.483-12.187c3.451-5.692 5.273-12.325 5.273-19.212 0-6.888-1.822-13.522-5.272-19.212h-51.147c-3.45 5.692-5.271 12.325-5.271 19.212 0 6.886 1.821 13.519 5.271 19.212h51.146z"/>
  <path fill="#888888" d="M460.66 41.36c6.441 8.188 10.35 18.917 10.35 30.651 0 11.731-3.908 22.46-10.35 30.649h-63.094c-6.441-8.188-10.352-18.918-10.352-30.649 0-11.734 3.91-22.461 10.352-30.651h63.094m-57.541 50.614h51.986c3.529-5.67 5.604-12.545 5.604-19.962s-2.074-14.294-5.604-19.962h-51.986c-3.527 5.668-5.602 12.545-5.602 19.962 0 7.416 2.074 14.292 5.602 19.962m58.269-52.114h-64.552l-.45.573c-6.883 8.75-10.673 19.965-10.673 31.579s3.79 22.829 10.673 31.577l.45.572h64.552l.45-.572c6.882-8.749 10.671-19.963 10.671-31.577 0-11.617-3.789-22.832-10.671-31.579l-.45-.573zm-57.425 13.689h50.297c3.239 5.492 4.948 11.857 4.948 18.462 0 6.604-1.709 12.969-4.948 18.462h-50.297c-3.238-5.494-4.946-11.859-4.946-18.462 0-6.604 1.708-12.969 4.946-18.462z"/>
  <path fill="#93C83E" d="M318.123 103.411l-16.489-.018-.226-.286c-5.57-7.083-9.073-15.715-10.15-25.002h-9.994V65.914h9.994c1.077-9.286 4.58-17.917 10.15-25l.226-.286 16.488-.018h30.847l16.489.02.226.286c5.833 7.418 9.39 16.504 10.286 26.276l.046.506-4.498 2.292v4.042l4.498 2.292-.046.506c-.896 9.771-4.453 18.857-10.286 26.275l-.226.286-16.488.02h-30.847zm40.994-12.187c2.422-3.991 4.03-8.397 4.786-13.117h-60.719c.76 4.72 2.368 9.127 4.788 13.117h51.145zm4.788-25.308c-.754-4.665-2.399-9.174-4.787-13.116l-51.165.035c-2.376 3.93-4.014 8.428-4.766 13.081h60.718z"/>
  <path fill="#888888" d="M348.968 41.36l16.125.019c5.559 7.069 9.225 16.019 10.129 25.881l-4.455 2.27v4.961l4.455 2.271c-.904 9.86-4.57 18.812-10.129 25.88l-16.125.02h-30.846l-16.125-.018c-5.449-6.928-9.076-15.662-10.068-25.288h-9.916V66.664h9.916c.992-9.624 4.62-18.36 10.068-25.286l16.125-.018h30.846m-46.652 25.306h62.459c-.739-5.368-2.572-10.335-5.238-14.616l-52.004.036c-2.655 4.271-4.479 9.227-5.217 14.58m5.237 25.308h51.982c2.667-4.281 4.499-9.248 5.237-14.617h-62.459c.743 5.369 2.575 10.335 5.24 14.617M348.97 39.86h-30.848l-16.127.018-.728.001-.449.572c-5.524 7.022-9.045 15.542-10.226 24.713h-10.08v13.691h10.08c1.181 9.172 4.701 17.692 10.226 24.716l.449.571.728.001 16.125.018h30.848l16.127-.02.728-.001.449-.571c5.923-7.532 9.534-16.754 10.444-26.671l.093-1.012-.906-.462-3.636-1.853V70.45l3.636-1.853.906-.461-.093-1.012c-.909-9.917-4.521-19.14-10.444-26.672l-.449-.572-.728-.001-16.125-.019zm-40.591 13.724l50.313-.035c2.076 3.525 3.553 7.497 4.32 11.616h-58.934c.767-4.106 2.237-8.066 4.301-11.581zm-4.303 25.272h58.938c-.767 4.155-2.217 8.053-4.322 11.617h-50.293c-2.105-3.563-3.555-7.46-4.323-11.617z"/>
  <polygon fill="#93C83E" points="550.629,103.411 521.308,79.514 491.989,103.411 473.58,103.411 512.103,72.012 473.58,40.612 
		491.989,40.612 521.308,64.51 550.629,40.612 569.037,40.612 530.511,72.012 569.037,103.411 	"/>
  <path fill="#888888" d="M566.929 41.362l-37.605 30.65 37.605 30.649h-16.033l-29.588-24.115-29.586 24.115h-16.035l37.604-30.649-37.604-30.65h16.035l29.586 24.116 29.588-24.116h16.033m4.215-1.5h-20.782l-.413.337-28.641 23.344-28.639-23.344-.413-.337h-20.784l3.268 2.663 36.177 29.487-36.177 29.486-3.268 2.663h20.784l.413-.337 28.639-23.343 28.641 23.343.413.337h20.782l-3.268-2.663-36.179-29.486 36.179-29.487 3.268-2.663z"/>
  <polygon fill="#93C83E" points="269.906,103.411 240.587,79.514 211.267,103.411 192.858,103.411 231.381,72.012 192.858,40.612 
		211.267,40.612 240.587,64.51 269.906,40.612 288.314,40.612 249.791,72.012 288.314,103.411 	"/>
  <path fill="#888888" d="M286.207 41.362l-37.603 30.65 37.603 30.649h-16.033l-29.586-24.115L211 102.661h-16.034l37.603-30.649-37.603-30.65H211l29.587 24.116 29.586-24.116h16.034m4.214-1.5h-20.782l-.414.337-28.639 23.344-28.64-23.344-.414-.337h-20.78l3.267 2.663 36.176 29.487-36.176 29.486-3.267 2.663H211.534l.414-.337 28.64-23.343 28.639 23.343.414.337h20.782l-3.268-2.663-36.176-29.486 36.176-29.487 3.266-2.663z"/>
  <linearGradient id="a" gradientUnits="userSpaceOnUse" x1="-72.1655" y1="11.666" x2="-71.9121" y2="11.666" gradientTransform="scale(280.446 -280.446) rotate(51 -23.52265318 81.4989654)">
    <stop offset="0" stop-color="#D3DC19"/>
    <stop offset="0.5" stop-color="#8DB635"/>
    <stop offset="1" stop-color="#66BB46"/>
  </linearGradient>
  <path fill="url(#a)" d="M70.465 56.721v39.61c7.81-6.43 15.635-13.219 23.103-20.229V41.9S51.606 28.091 25.111 11.624c10.913 12.263 28.957 31.638 45.354 45.097"/>
  <linearGradient id="b" gradientUnits="userSpaceOnUse" x1="-70.2363" y1="11.6709" x2="-69.9819" y2="11.6709" gradientTransform="scale(386.5615 -386.5615) rotate(-56 -46.02025135 -60.27730727)">
    <stop offset="0" stop-color="#A0A2A4"/>
    <stop offset="1" stop-color="#FAFAFA"/>
  </linearGradient>
  <path fill="url(#b)" d="M25.111 11.624C51.605 28.092 93.568 41.9 93.568 41.9v-4.56S38.992 19.379 15.026 0c-.001 0 3.894 4.668 10.085 11.624"/>
  <linearGradient id="c" gradientUnits="userSpaceOnUse" x1="-71.2783" y1="11.9321" x2="-71.2783" y2="12.021" gradientTransform="scale(416.753 -416.753) rotate(34 -15.6197125 122.60476743)">
    <stop offset="0" stop-color="#AED037"/>
    <stop offset="0.4213" stop-color="#8DB635"/>
    <stop offset="1" stop-color="#3E7223"/>
  </linearGradient>
  <path fill="url(#c)" d="M16.797 136.14c13.526-9.11 33.549-23.244 53.67-39.809V64.129s-27.402 41.054-53.67 72.011"/>
  <linearGradient id="d" gradientUnits="userSpaceOnUse" x1="-71.3936" y1="12.1602" x2="-71.1397" y2="12.1602" gradientTransform="scale(559.486 -559.486) rotate(60 -24.92277772 67.78595103)">
    <stop offset="0" stop-color="#9B9DA0"/>
    <stop offset="1" stop-color="#CFD1D3"/>
  </linearGradient>
  <path fill="url(#d)" d="M.012 147.073s6.526-4.021 16.786-10.934c26.268-30.957 53.67-72.009 53.67-72.009v-7.409c-.001 0-40.715 60.996-70.456 90.352"/>
  <linearGradient id="e" gradientUnits="userSpaceOnUse" x1="-71.3979" y1="13.9648" x2="-71.1452" y2="13.9648" gradientTransform="matrix(-193.057 -186.4329 -186.4329 193.057 -11032.1406 -15943.292)">
    <stop offset="0.3034" stop-color="#C9DA2C"/>
    <stop offset="0.608" stop-color="#8DB635"/>
    <stop offset="1" stop-color="#347428"/>
  </linearGradient>
  <path fill="url(#e)" d="M93.52 41.9v34.201c7.465 7.011 15.289 13.8 23.1 20.229V56.72c16.397-13.459 34.44-32.834 45.354-45.097C135.481 28.092 93.52 41.9 93.52 41.9"/>
  <linearGradient id="f" gradientUnits="userSpaceOnUse" x1="-72.9404" y1="13.1611" x2="-72.687" y2="13.1611" gradientTransform="matrix(30.7887 -250.7544 -250.7544 -30.7887 5675.1831 -17838.5156)">
    <stop offset="0" stop-color="#CED0D1"/>
    <stop offset="1" stop-color="#A0A2A5"/>
  </linearGradient>
  <path fill="url(#f)" d="M93.52 37.34v4.56s41.961-13.809 68.454-30.276C168.165 4.668 172.061 0 172.061 0 148.095 19.379 93.52 37.34 93.52 37.34"/>
  <linearGradient id="g" gradientUnits="userSpaceOnUse" x1="-71.3911" y1="13.042" x2="-71.1375" y2="13.042" gradientTransform="scale(-500.2594 500.2594) rotate(-80 -43.44513968 -35.67701747)">
    <stop offset="0" stop-color="#9B9D9F"/>
    <stop offset="1" stop-color="#FAFAFA"/>
  </linearGradient>
  <path fill="url(#g)" d="M116.622 64.129s27.404 41.054 53.671 72.009c10.256 6.912 16.787 10.934 16.787 10.934-29.743-29.354-70.457-90.352-70.457-90.352l-.001 7.409z"/>
  <linearGradient id="h" gradientUnits="userSpaceOnUse" x1="-72.5332" y1="13.1992" x2="-72.2828" y2="13.1992" gradientTransform="matrix(89.6957 -192.3532 -192.3532 -89.6957 9179.418 -12648.8506)">
    <stop offset="0" stop-color="#C7D926"/>
    <stop offset="0.4157" stop-color="#8DB635"/>
    <stop offset="1" stop-color="#3A7D2C"/>
  </linearGradient>
  <path fill="url(#h)" d="M116.622 96.331c20.124 16.564 40.142 30.698 53.671 39.809-26.267-30.957-53.671-72.009-53.671-72.009v32.2z"/>
</svg>
